<svg xmlns="http://www.w3.org/2000/svg" xmlns:xlink="http://www.w3.org/1999/xlink" width="295" height="242" viewBox="0 0 295 242">
  <defs>
    <clipPath id="clip-path">
      <rect id="Rectángulo_348037" data-name="Rectángulo 348037" width="295" height="242" transform="translate(390 1547)" fill="#fff" stroke="#707070" stroke-width="1"/>
    </clipPath>
  </defs>
  <g id="Enmascarar_grupo_998583" data-name="Enmascarar grupo 998583" transform="translate(-390 -1547)" clip-path="url(#clip-path)">
    <g id="Grupo_1006937" data-name="Grupo 1006937" transform="translate(201.613 1534.947)">
      <path id="Trazado_720674" data-name="Trazado 720674" d="M320.728,93.52c-27.057-4.018-51.545-8.462-66.5-8.626-.977-.026-1.9-.026-2.779,0l-22.967-45.2a91.775,91.775,0,0,1,38.423,3L305.94,60.118,300.775,31h16.269c3.966,3.566,7.7,9.078,11.149,16.019a162.083,162.083,0,0,1,8.842,22.423C339.225,81.329,334.066,93.52,320.728,93.52Z" transform="translate(100.486 46.312)" fill="#ededed"/>
      <path id="Trazado_720675" data-name="Trazado 720675" d="M298.909,79.945c-27.057-4.018-51.545-8.462-66.5-8.626l3.618-18.045c15.548,14.453,39.465,21.348,67.237,19.231,10.651-6.017,8.036-21.709,3.113-39.065a162.083,162.083,0,0,1,8.842,22.423C317.406,67.753,312.248,79.945,298.909,79.945Z" transform="translate(122.304 59.888)" fill="#1d1d1b" opacity="0.1"/>
      <path id="Trazado_720676" data-name="Trazado 720676" d="M230.506,44.1l-9.858,351.222c20.732-37.748,50.831-47.462,89.379-31.862l7.826-186.839-9.989-56.422-3.225-68.836Z" transform="translate(56.993 119.072)" fill="#9d9d9c"/>
      <path id="Trazado_720677" data-name="Trazado 720677" d="M234.4,29.818S206.659,60.33,222.7,100.549s37.447-35.054,37.447-35.054Z" transform="translate(40.667 39.769)" fill="#1d1d1b"/>
      <path id="Trazado_720678" data-name="Trazado 720678" d="M228.571,113.45c-1.927,5.04-.964,11.418,0,20.352,1.9,5.709,6.62,11.1,15.895,14.237,10.75,8.161,15.023,22.069,28.6,26.094,15.561,4.621,24.973-1.435,23.734-10.7-2.137-15.96-20.208-23.046-28.794-41.491L260.2,103.494H232.379Z" transform="translate(94.822 449.01)" fill="#1d1d1b"/>
      <path id="Trazado_720679" data-name="Trazado 720679" d="M224.541,146.967l19,101.223c-5.637,22.967,3.677,80.648-3.389,127.847,1.337,20.319,44.67,21.165,45.305,5.5-1.816-48.6,2.956-90.834,7.2-129.984,12.7-38.534,9.34-123.515-15.239-194.77L227.451,82.607Z" transform="translate(78.617 189.543)" fill="#305a82"/>
      <path id="Trazado_720680" data-name="Trazado 720680" d="M220.712,115.347c-4.392,6.07-4.975,25.183-2.668,28.65,11.13,12.3,26.389,36.935,56.841,35.179,12.31-2.288,15.751-8.278,11.1-17.645-4.89-9.838-20.149-19.225-26.821-37.007l-7.7-15.62Z" transform="translate(35.155 479.06)" fill="#1d1d1b"/>
      <path id="Trazado_720681" data-name="Trazado 720681" d="M332.558,65.951a148.85,148.85,0,0,1-10.468,41.917c-8.056,19.159-19.919,33.586-33.789,35.467-1.573,58.126,3,117.806-13.031,139.194-9.124,46.695-13.85,91.791-6.987,127.657-7.341,12.021-35.061,10.618-43.319-3.2a16.317,16.317,0,0,1-1.953-5.054c-2.543-62.242-11.916-110.766,9.222-144.811L218.567,146.612c-7.367-39.1-.918-59.267,19.382-78.17q3.657-3.392,7.924-6.784l84.266-3.4Z" transform="translate(29.074 197.731)" fill="#3f76ab"/>
      <path id="Trazado_720682" data-name="Trazado 720682" d="M358.379,142.881c.052,12.021-11.431,22.967-25.609,21.06-.046,11.562-3.579,27.719,0,38.364-5.788,13.843-13.489,24.54-28.781,28.454-15.318,3.887-45.882.636-63.409-18.268,2.923-21.466-4.346-48.983-11.916-72.048-5.84-17.835-11.864-33.022-13.516-40.671,14.027-17.606,30.866-32.216,48.806-44.715s26.205-28.395,46.682-20.726,22.875,48.445,30.394,64.523C348.527,114.939,358.333,126.141,358.379,142.881Z" transform="translate(26.443 53.682)" fill="#f39200"/>
      <path id="Trazado_720683" data-name="Trazado 720683" d="M256.984,197.964c-12.192,45.115-13.928,76.033-1.94,126.405-25.4,34.3-26.212,77.79-25.4,140.57l-4.68-1.5a16.317,16.317,0,0,1-1.953-5.054c-2.543-62.242-11.916-110.766,9.222-144.811L218.567,203.063c-7.367-39.1-.918-59.267,19.382-78.17,2.923-21.466-4.346-48.983-11.916-72.048L244.6,48.093l20.123,32.216c15.652,26.4,56.3,21.184,58-5.768L330.14,76.6c-.046,11.307-3.579,27.464,0,38.108l2.419,7.7a148.85,148.85,0,0,1-10.468,41.917C309.912,197.092,289.3,210.778,256.984,197.964Z" transform="translate(29.074 141.279)" fill="#1d1d1b" opacity="0.15"/>
      <path id="Trazado_720684" data-name="Trazado 720684" d="M296.547,461.063c-18.969-.957-35.854-4.66-49.376-11.13-18.261-8.7-30.387-22.423-33.265-41.183,12.244-47.147,10.415-104.874,8.128-167.614-2.661-48.006,27.038-69.256,11.582-125.009a193.214,193.214,0,0,0-11.582-30.459c8.659-12.768,29.712-30.774,46.151-50.8-8.134,25.976,4.116,60.859,25.465,92.767a228.462,228.462,0,0,1,13.575,43.437l.334,1.573c1.049,5.2,1.973,10.481,2.733,15.81C322.418,271.9,300.808,368.525,296.547,461.063Z" transform="translate(19.55 67.792)" fill="#ededed"/>
      <path id="Trazado_720685" data-name="Trazado 720685" d="M307.686,403.9c-5.113,22.731-7.78,44.584-29.292,49.435-10.153-94.891,3.71-155.469,4.49-225.321.052-4.5.052-9.013-.02-13.581-.026-2.183-.072-4.4-.144-6.633-.026-1.612-.072-3.231-.164-4.85-.026-1.468-.1-2.923-.17-4.4-.046-1.042-.092-2.111-.164-3.186-.1-1.612-.19-3.231-.288-4.87q-.639-9.7-1.737-19.828c-.21-1.927-.452-3.854-.688-5.755a483.334,483.334,0,0,0-9.412-52.168c-10.723-26.887-27.411-54.036-44.722-72.153,15.882-14.741,39.563-8.75,51.447,7.557-3.585,45.935,18.451,58.061,24.966,89.654,1.357,6.587.144,13.981-4.516,19.428a20.907,20.907,0,0,1-8.462,5.9c-.125.046-.216.092-.315.138l-.38,35.074c7.184,17.33,9.537,41.274,10.651,68.83C300.41,308.2,299.46,356.853,307.686,403.9Z" transform="translate(83.239 52.931)" fill="#ededed"/>
      <path id="Trazado_720686" data-name="Trazado 720686" d="M268.667,51.65a5.815,5.815,0,0,1-.406,2.091c.5,2.471-.288,3.494-2.687,2.687a12.733,12.733,0,0,1-5.447-3.874l-7.846-9.917-13.647-7.846c4.516-5.322,10.461-6.9,18.117-3.736,2.333,1.075,4.588,3.736,6.85,6.922,2.281,4.136,4.85,7.754,4.09,10.389a6.461,6.461,0,0,1,.977,3.186Z" transform="translate(156.898 37.64)" fill="#ffbb7d"/>
      <path id="Trazado_720687" data-name="Trazado 720687" d="M268.667,50.76a5.815,5.815,0,0,1-.406,2.091c.5,2.471-.288,3.494-2.687,2.687a12.733,12.733,0,0,1-5.447-3.874l-7.846-9.917L238.634,33.9c3.448-5.355,9.294-5.329,12.25-2.045,1.907-2.038,6.011-1.036,6.764-1.2.695,1.737,1.56,12.152,2.478,13.8,1.619,2.93,1.645,2.478,4.057,5.119,1.737,1.357,3.218,2.392,4.483,1.081Z" transform="translate(156.898 38.53)" fill="#1d1d1b" opacity="0.15"/>
      <path id="Trazado_720688" data-name="Trazado 720688" d="M246.109,28.639l-6.535,6.443-1.645,9.013c0,3.467,4.319,3.166,5.8,0l2.379-5.552,5.349-3.762,3.566,1.586-.786,4.955-4.359,4.949a2.144,2.144,0,0,0,2.969,3.061l7.728-5.237.99-11.294C258.517,29.53,252.271,29.124,246.109,28.639Z" transform="translate(152.982 33.22)" fill="#ffbb7d"/>
      <path id="Trazado_720689" data-name="Trazado 720689" d="M310.981,129.4l-1.573-5.467c-17.429-2.491-33.658-1.914-46.964,6.233-26.769,18.477-28.159,67.158-23.623,102.3-9.511,60.938-10.979,121.352,8.351,158.68-18.261-8.7-30.387-22.423-33.265-41.183,12.244-47.147,10.415-104.874,8.128-167.614-2.661-48.006,27.038-69.256,11.582-125.009l9.058-11.89c19.782,30.1,29.292,72.061,64.55,66.831l.334,1.573Z" transform="translate(19.55 126.582)" fill="#1d1d1b" opacity="0.1"/>
      <g id="Grupo_1006931" data-name="Grupo 1006931" transform="translate(210.387 147.227)">
        <path id="Trazado_720690" data-name="Trazado 720690" d="M241.46,48.059c-16.865,29.456-26.35,62.655-29.339,99.158-4.693,26.756.36,75.463,12.48,101.183,3.022-3.716,8.416-5.375,16.859-4.385,1.986-35.782,4.385-70.488,0-89.038l26.985-59.024C286.995,55.466,256.654,28.789,241.46,48.059Z" transform="translate(-210.387 -41.663)" fill="#ededed"/>
        <path id="Trazado_720691" data-name="Trazado 720691" d="M262.242,102.248a4.9,4.9,0,0,1-5.729-.76c-4.51-4.7-9.235-8.416-15.325-6.325-1.081,1.953-1.167,4.614-.511,7.715l.164.675c1.573,6.627,6.109,15.24,10.73,23.878a2.634,2.634,0,0,1-.629,3.179,3.619,3.619,0,0,1-4.182.111c.243,2.412-2.878,3.336-4.968,1.141l-3.127-3.428c-.354,2.8-3.664,2.012-4.7,0l-5.919-7.335a55.307,55.307,0,0,1-10.219-13.876c-.38-.76-.786-1.521-1.167-2.314a82.38,82.38,0,0,1-4.1-26.1c2.038-7.23,8.508-8.285,16.872-4.372l10,5.185c9.314,4.562,14.047,11.11,24.042,19.2C264.281,99.94,263.6,101.435,262.242,102.248Z" transform="translate(-198.358 127.923)" fill="#ffbb7d"/>
        <path id="Trazado_720692" data-name="Trazado 720692" d="M246.472,102.675a3.619,3.619,0,0,1-4.182.111c.243,2.412-2.878,3.336-4.968,1.141L234.2,100.5c-.354,2.8-3.664,2.012-4.7,0l-5.919-7.335a55.307,55.307,0,0,1-10.219-13.876c4.837,1.979,9.838.6,14.944-2.065C232.622,87.245,240.389,100.826,246.472,102.675Z" transform="translate(-193.887 155.858)" opacity="0.15"/>
        <path id="Trazado_720693" data-name="Trazado 720693" d="M240.5,85.616a4.864,4.864,0,0,1-5.7-.76c-4.51-4.7-9.235-8.416-15.325-6.325-1.081,1.953-1.167,4.614-.511,7.715l-2.5-10.651C227.546,73.012,235.261,83.5,240.5,85.616Z" transform="translate(-176.646 144.554)" opacity="0.15"/>
      </g>
      <path id="Trazado_720694" data-name="Trazado 720694" d="M235.051,57.164a34.506,34.506,0,0,0,8.462-5.9A20.907,20.907,0,0,1,235.051,57.164Z" transform="translate(136.996 158.899)" fill="#1d1d1b" opacity="0.1"/>
      <path id="Trazado_720695" data-name="Trazado 720695" d="M252.889,156.09c-3.946-17.167-8.58-32.5-15.882-39.157.052-4.542.052-9.058-.02-13.581q-.039-3.313-.144-6.633c-.026-1.612-.072-3.231-.164-4.85-.026-1.468-.1-2.943-.17-4.4-.02-1.068-.092-2.137-.164-3.186-.072-1.639-.17-3.258-.288-4.87q-.6-10.029-1.737-19.828c-.21-1.927-.452-3.854-.688-5.755a17.708,17.708,0,0,0,8.986-1.645l-.38,35.074C249.422,104.59,251.775,128.534,252.889,156.09Z" transform="translate(129.114 164.014)" fill="#1d1d1b" opacity="0.1"/>
      <path id="Trazado_720696" data-name="Trazado 720696" d="M225.083,35.955C250.1,67.4,268.252,102.5,278.588,141.746L271.1,69.455l-11.1,2.576,5.552-8.324L230.1,33.169Z" transform="translate(81.628 58.382)" fill="#dadada"/>
      <path id="Trazado_720697" data-name="Trazado 720697" d="M230.287,31.8c-2.707,9.327-5.08,22.279-8.521,31.908-2.039,10.966,18.268,32.858,31.816,31.875,9.583-1.888,9.373-20.549,10.782-31.868Z" transform="translate(62.411 50.756)" fill="#ffbb7d"/>
      <path id="Trazado_720698" data-name="Trazado 720698" d="M232.818,34.863c-13.424,10.258-14.663,32.045-10.271,59.162h11.864l-9.727,10.212c17.986,10.271,32.517,36.385,46.642,64.379C264.726,110.372,222.226,63.71,232.818,34.863Z" transform="translate(54.917 67.792)" fill="#dadada"/>
      <path id="Trazado_720699" data-name="Trazado 720699" d="M223.243,31.787c.157,31.829,14.886,77.443,34.313,69.649,13.8-5.532-.072-28.775,0-50.654Z" transform="translate(71.408 50.706)" fill="#1d1d1b" opacity="0.1"/>
      <g id="Grupo_1006934" data-name="Grupo 1006934" transform="translate(266.726 22.658)">
        <path id="Trazado_720700" data-name="Trazado 720700" d="M246.128,97.045c9.576,11.982,19.932,22.22,36.85,19.762,6.266-.911,12.074-10.258,11.589-47.7-.164-12.69-6.954-27.562-12.775-34.621-8.272-10.022-22.456-13.778-35.965-10.7-19.139,4.365-28.4,19.153-26.153,37.741C224.052,86.846,234.939,96.232,246.128,97.045Z" transform="translate(-216.984 -22.226)" fill="#ffbb7d"/>
        <path id="Trazado_720701" data-name="Trazado 720701" d="M241.782,95.143s4.372-1.023,8.128-6.935,4.28-12.886,5.08-20.7c17.507-1.783,36-14.564,36-20.477-.793-8.108-5.768-15.521-20.68-21.427-16.6-6.292-31.344-2.379-43.195,10.494-18.51,20.123-1.783,55.635,13.922,62.079Z" transform="translate(-218.983 -22.658)" fill="#3c3c3b"/>
        <g id="Grupo_1006933" data-name="Grupo 1006933" transform="translate(21.96 39.397)">
          <g id="Grupo_1006932" data-name="Grupo 1006932" transform="translate(26.848)">
            <path id="Trazado_720702" data-name="Trazado 720702" d="M257.577,30.059c-1.56-4.123-4.936,1.816-9.432,6.227a5.555,5.555,0,0,0-1.435,2.989,6.391,6.391,0,0,0-3.638,2.753c-.433-.767-2.366-.2-3.074.236-5.958,3.612-13.542,4.968-13.568,10.042.026,11.949,20.4,7.826,17.252-8.691l-.072-.347a4.838,4.838,0,0,1,2.923-2.209c.007.131,0,.262.013.387,1.173,8.691,6.731,7.053,10,1.468C258.579,39.452,258.894,35.034,257.577,30.059ZM241.7,52.935a10.086,10.086,0,0,1-5.729,4.739,7.068,7.068,0,0,1-6.725-.878,5.859,5.859,0,0,1-1.914-4.647c.013-2.5,2.727-3.926,7.19-5.984,1.94-.885,3.887-1.973,5.807-3,2.006-1.055,2.248-.2,2.471.819A13.234,13.234,0,0,1,241.7,52.935ZM256.148,41.8c-1.239,2.347-2.9,4.051-4.437,4.549-2.877.931-4.214-2.858-4.293-6.207a4.6,4.6,0,0,1,1.232-3.081c1.2-1.134,2.327-2.373,3.415-3.566,1.75-1.927,2.569-3.186,3.684-3.546.328-.1.741-.184,1,.669C257.655,34.542,258.048,38.2,256.148,41.8Z" transform="translate(-226.429 -28.669)" fill="#1d1d1b"/>
          </g>
          <path id="Trazado_720703" data-name="Trazado 720703" d="M249.808,34.306l-26.832.648-.643-1.3,27.889-1.679Z" transform="translate(-222.333 -10.284)" fill="#1d1d1b"/>
        </g>
        <path id="Trazado_720704" data-name="Trazado 720704" d="M234.839,39.209a21.18,21.18,0,0,0-4.2-5.126,8.807,8.807,0,0,0-6.115-2.189,4.153,4.153,0,0,0-1.7.459,3.977,3.977,0,0,0-1.868,3.382,9.171,9.171,0,0,0,.937,3.9,17.934,17.934,0,0,0,4.306,6.3,10.857,10.857,0,0,0,6.941,2.91A4.066,4.066,0,0,0,235.96,48a3.556,3.556,0,0,0,1.023-2.025C237.4,43.587,236.143,41.247,234.839,39.209Z" transform="translate(-208.074 28.531)" fill="#ffbb7d"/>
      </g>
      <g id="Grupo_1006936" data-name="Grupo 1006936" transform="translate(381.854 59.198)">
        <path id="Trazado_720705" data-name="Trazado 720705" d="M270.551,54.774c-7.78,4.49-20.391,4.49-28.172,0-4.962-2.864-6.758-6.863-5.388-10.546a11.976,11.976,0,0,1,5.388-5.722c7.78-4.49,20.391-4.49,28.172,0a12.2,12.2,0,0,1,5.106,5.06,7.618,7.618,0,0,1,.446,1.141C277.139,48.259,275.284,52.034,270.551,54.774Z" transform="translate(-236.547 10.123)" fill="#9d9d9c" opacity="0.2"/>
        <g id="Grupo_1006935" data-name="Grupo 1006935">
          <path id="Trazado_720706" data-name="Trazado 720706" d="M270.551,92.629c-7.78,4.49-20.391,4.49-28.172,0-4.962-2.864-6.758-6.863-5.388-10.546.125-.328,14.014-36.365,14.014-36.365V31.441c1.088-3.979,10.094-4.333,10.92,0V45.717l13.732,35.7.446,1.141C277.139,86.113,275.284,89.889,270.551,92.629Z" transform="translate(-236.547 -27.732)" fill="#dadada" opacity="0.5"/>
          <path id="Trazado_720707" data-name="Trazado 720707" d="M274.093,52.539l-7.21-18.746H244.139l-6.935,18-.157.4c-1.134,3.251.7,6.64,4.942,9.085a30.071,30.071,0,0,0,27.057.007C273.162,58.9,275,55.718,274.093,52.539Z" transform="translate(-235.599 2.651)" fill="#3480a7"/>
          <path id="Trazado_720708" data-name="Trazado 720708" d="M248.821,29.236a9.03,9.03,0,0,0-8.272,0,3.227,3.227,0,0,0-1.881,2.707,2.581,2.581,0,0,0,.557,1.58,4.21,4.21,0,0,0,1.324,1.127,9.03,9.03,0,0,0,8.272,0,4.211,4.211,0,0,0,1.324-1.127,2.614,2.614,0,0,0,.551-1.58A3.219,3.219,0,0,0,248.821,29.236Zm-4.136,5.3a7.226,7.226,0,0,1-3.579-.852,2.187,2.187,0,0,1-1.324-1.744,2.2,2.2,0,0,1,1.324-1.744,7.941,7.941,0,0,1,7.158,0,2.2,2.2,0,0,1,1.318,1.744,2.177,2.177,0,0,1-1.318,1.744A7.243,7.243,0,0,1,244.685,34.539Z" transform="translate(-224.767 -28.233)" fill="#c6c6c6"/>
        </g>
        <path id="Trazado_720709" data-name="Trazado 720709" d="M257.5,44.287c-4.5,2.6-11.792,2.6-16.295,0-2.864-1.658-3.906-3.972-3.12-6.1a6.908,6.908,0,0,1,3.12-3.3c4.5-2.6,11.792-2.6,16.295,0a7.106,7.106,0,0,1,2.956,2.923,4.247,4.247,0,0,1,.249.662C261.305,40.518,260.237,42.7,257.5,44.287Z" transform="translate(-229.431 -2.121)" fill="#48b6ec"/>
        <path id="Trazado_720710" data-name="Trazado 720710" d="M251.308,29.385v10.8l-14.02,36.378c-.039.092-.157.406-.157.406-1,2.877.662,5.814,4.575,8.075.308.184.629.354.957.518l11.123-44.637V29.981A4.69,4.69,0,0,1,251.308,29.385Z" transform="translate(-234.896 -21.834)" fill="#fff" opacity="0.5"/>
      </g>
      <path id="Trazado_720711" data-name="Trazado 720711" d="M244.542,29.04l.006,4.457.767.642-.786,4.955-4.359,4.949a2.144,2.144,0,0,0,2.969,3.061l7.728-5.237.99-11.294C250.533,29.151,246.8,29.623,244.542,29.04Z" transform="translate(162.69 35.448)" fill="#ffbb7d"/>
    </g>
  </g>
</svg>
