<svg xmlns="http://www.w3.org/2000/svg" xmlns:xlink="http://www.w3.org/1999/xlink" width="142.266" height="142.266" viewBox="0 0 142.266 142.266">
  <defs>
    <clipPath id="clip-path">
      <rect id="Rectángulo_346372" data-name="Rectángulo 346372" width="84.807" height="85.004" fill="none"/>
    </clipPath>
  </defs>
  <g id="Grupo_1002340" data-name="Grupo 1002340" transform="translate(11842.319 12232.065)">
    <path id="Trazado_710607" data-name="Trazado 710607" d="M1130.5,509.613a71.133,71.133,0,1,1-71.133-71.133,71.133,71.133,0,0,1,71.133,71.133" transform="translate(-12830.557 -12670.545)" fill="#12263f"/>
    <path id="Trazado_710608" data-name="Trazado 710608" d="M1177.541,570.676a57.107,57.107,0,1,1-57.107-57.107,57.107,57.107,0,0,1,57.107,57.107" transform="translate(-12891.619 -12731.607)" fill="#fff"/>
    <g id="Grupo_1002313" data-name="Grupo 1002313" transform="translate(-11812.821 -12201.016)">
      <g id="Grupo_1002208" data-name="Grupo 1002208" transform="translate(0 0)" clip-path="url(#clip-path)">
        <path id="Trazado_707879" data-name="Trazado 707879" d="M213.453,225.3l1.107-1.5a.184.184,0,0,0,.106-.119,40.175,40.175,0,0,1,7.159-7.169l.131-.117,1.629-1.2.194-.132a44.726,44.726,0,0,1,8.15-4.348l.136-.134a23.671,23.671,0,0,0,3.23-.886,29.35,29.35,0,0,1,7.416-1.281,40.016,40.016,0,0,1,5.922.137c1.678.245,3.36.416,5.029.764a2.581,2.581,0,0,1,2.247,2.305,37.132,37.132,0,0,1,.966,8.786,43.158,43.158,0,0,1-1.055,8.18,37.848,37.848,0,0,1-7.532,15.21,42.9,42.9,0,0,1-11.165,9.778,36.743,36.743,0,0,1-7.883,3.53,37.158,37.158,0,0,1-6.251,1.349c-.509.075-1.017.142-1.529.183-.176.006-.394-.142-.5.134h-6.3c-.024-.132-.119-.16-.236-.168a31.485,31.485,0,0,1-5-.827,2.2,2.2,0,0,1-1.86-1.484,36.219,36.219,0,0,1-1.189-8.546c-.006-.743-.018-1.487-.027-2.23a18.371,18.371,0,0,0,.31-2.909c.062-.668.5-1.366.08-2.061.178-.042.552.083.289-.337.09-.446.162-.9.274-1.338a39.771,39.771,0,0,1,6.144-13.564m7.483,14.223q.012-8.756.019-17.512c0-.064-.067-.127-.125-.231a1.5,1.5,0,0,0-.659.7,44.211,44.211,0,0,0-4.348,5.19c-.114-.047-.143,0-.12.108-.841,1.427-1.8,2.8-2.5,4.292a36.679,36.679,0,0,0-3.053,9.744,33.763,33.763,0,0,0-.249,8.863c.059.585-.126,1.326.457,1.814.194.534.4.146.562-.01q4.949-4.934,9.882-9.883c.144-.144.489-.3.132-.577q0-1.248,0-2.5M238.85,224.1c.451.4.572-.14.744-.311q5.452-5.408,10.87-10.849a2.741,2.741,0,0,0,.389-.425c.139-.217-.028-.281-.208-.314-.674-.087-1.208-.838-2.022-.351-.355.212-.779-.142-1.192-.158a51.782,51.782,0,0,1-6.393-.137.3.3,0,0,0-.207.106c-.454.482-1.1.391-1.656.507-.393.082-.489.182-.486.552.02,3.147.024,6.294.033,9.441a4.3,4.3,0,0,0,.128,1.939m-23.343,31.344,1.314-.026a33.816,33.816,0,0,0,19.849-5.489c-.125-.068-.165-.109-.2-.109q-9.151-.006-18.3-.014a.881.881,0,0,0-.858.5q-2.2,2.161-4.4,4.322c-.307.3-.308.376.165.533.76.251,1.522-.033,2.261.166l.173.118m19.695-27.7a13.38,13.38,0,0,0,.15-3.66q.014-5.212.032-10.425c0-.464-.087-.519-.571-.375a32.451,32.451,0,0,0-5.2,2.146,29.209,29.209,0,0,0-5.332,3.4c-.553.126-.326.576-.327.883q-.02,8.981-.01,17.962c0,.166-.009.332,0,.5.042.48.286.65.724.413a2.612,2.612,0,0,0,.586-.446q4.776-4.764,9.545-9.536c.241-.24.472-.472.4-.853m18.237-9.112a12.833,12.833,0,0,0-.381-3.848l-4.592,4.36a2.156,2.156,0,0,0-.26.193q-6.88,6.877-13.752,13.762c-.118.119-.348.2-.265.472h1.732q7.078,0,14.157,0c.308,0,.63.1.808-.338a36.307,36.307,0,0,0,2.438-9.172c.137-1.059.039-2.118.234-3.178a3.565,3.565,0,0,0-.118-2.246M221.029,246.5h1.028c5.769,0,11.54-.055,17.307.041a4.056,4.056,0,0,0,3.165-1.306,43.4,43.4,0,0,0,4.87-5.747,14.5,14.5,0,0,0,1.58-2.538,1.437,1.437,0,0,0-.237-.056q-8.82,0-17.639-.01a.927.927,0,0,0-.73.279c-3.057,3.067-6.125,6.124-9.345,9.338" transform="translate(-172.084 -173.762)" fill="#040504"/>
        <path id="Trazado_707880" data-name="Trazado 707880" d="M18.278,232.422c-3.945-.012-7.889-.019-11.834-.041-.522,0-.505.148-.319.57a37.46,37.46,0,0,0,4.841,7.979,36.123,36.123,0,0,0,4.621,4.895,37.911,37.911,0,0,0,6.666,4.775,31.778,31.778,0,0,0,6.657,2.832,1.734,1.734,0,0,1,1.375,2.063,1.765,1.765,0,0,1-2.472,1.116,38.718,38.718,0,0,1-10.9-5.449,41.006,41.006,0,0,1-5.565-4.759A42.762,42.762,0,0,1,4.5,237.278a27.947,27.947,0,0,1-1.857-4.084l-.134-.176A32.916,32.916,0,0,1,.5,225.771c-.151-1.067-.33-2.13-.5-3.194v-1.823a5.072,5.072,0,0,0,0-2.817V216.28a5.839,5.839,0,0,0,.321-2.011c.21-1.287.467-2.557.771-3.826.288-1.2,1.185-1.536,2.206-1.784,1.8-.439,3.667-.47,5.48-.838.228.26.292.093.335-.129a9.456,9.456,0,0,0,2.6.132,35.664,35.664,0,0,1,7.51.789,35.65,35.65,0,0,1,7.738,2.461,36.456,36.456,0,0,1,8.458,5.22c1.107.938,2.206,1.876,3.22,2.913a1.622,1.622,0,0,1,.263,2.384c-1.024.88-1.618.855-2.608-.081-.758-.717-1.514-1.439-2.307-2.116a27.875,27.875,0,0,0-3.164-2.382v1.043c0,5.347.071,10.7-.043,16.04a4.129,4.129,0,0,0,1.649,3.748,1.136,1.136,0,0,1,.554,1.122q0,.263,0,.526a1.471,1.471,0,0,1-2.418,1.081c-.333-.283-.717-.513-1.026-.819q-3.555-3.531-7.078-7.094a.768.768,0,0,0-.62-.285c-1.186.022-2.372.032-3.558.047M6.15,211.633c-.353.4.1.526.269.693,2.017,2.042,4.051,4.067,6.08,6.1,1,1,1.986,1.995,2.989,2.982.228.224.5.648.744-.007q0-4.666.008-9.333c0-.391.064-.739-.547-.77a42.665,42.665,0,0,0-5.089-.124,14.076,14.076,0,0,0-4.455.463m9.738,17.384H18.95c-2.084-1.979-3.859-3.974-5.862-5.74l-9.419-9.353c-.014,1.461-.4,2.642-.352,3.868a42.549,42.549,0,0,0,.313,6.459,36.689,36.689,0,0,0,.953,4.384c.1.315.207.422.541.42,3.588-.023,7.176-.028,10.763-.038m11.618,3.872c0-5.955,0-11.694.009-17.433a.608.608,0,0,0-.388-.625A23.191,23.191,0,0,0,23.7,213.3c-1.135-.344-2.289-.637-3.4-1.048-.638-.236-.757-.078-.755.529.014,3.864.007,7.728.008,11.592a.943.943,0,0,0,.2.767c2.538,2.528,5.068,5.063,7.749,7.744" transform="translate(0 -173.198)" fill="#040504"/>
        <path id="Trazado_707881" data-name="Trazado 707881" d="M319.853,0c-.288.336,0,.343.207.32A11.816,11.816,0,0,1,329.352,3.1a11.386,11.386,0,0,1,4.042,6.79,11.9,11.9,0,0,1-2.641,10.293,12.039,12.039,0,0,1-7.362,4.259,11.278,11.278,0,0,1-8.012-1.5,12.58,12.58,0,0,1-5.654-7.394,11.663,11.663,0,0,1,1.833-10.272,11.4,11.4,0,0,1,6.6-4.665c.439-.115.89-.183,1.331-.292.252-.062.213-.193.036-.321Zm1.6,21.206a8.954,8.954,0,0,0,8.842-8.271,8.861,8.861,0,1,0-17.7-.795,8.934,8.934,0,0,0,8.859,9.066" transform="translate(-257.882)" fill="#050605"/>
        <path id="Trazado_707882" data-name="Trazado 707882" d="M0,269.379A5.072,5.072,0,0,1,0,272.2Z" transform="translate(0 -224.64)" fill="#1f1e1e"/>
        <path id="Trazado_707883" data-name="Trazado 707883" d="M294.317,510.973c.1-.276.321-.129.5-.134,0,.045,0,.089,0,.134Z" transform="translate(-245.436 -425.968)" fill="#fcfcfc"/>
        <path id="Trazado_707884" data-name="Trazado 707884" d="M124.757,285.767a1.136,1.136,0,0,0-.554-1.121,4.13,4.13,0,0,1-1.649-3.749c.114-5.345.043-10.693.043-16.04v-1.043a27.843,27.843,0,0,1,3.164,2.382c.793.677,1.549,1.4,2.307,2.116.989.936,1.584.961,2.608.081.273.892,1.127,1.346,1.59,2.1a8.761,8.761,0,0,0,.881,1.045A39.77,39.77,0,0,0,127,285.1c-.113.441-.184.892-.274,1.338-.141.074-.275.154-.288.337.418.7-.018,1.393-.08,2.061a18.376,18.376,0,0,1-.309,2.909c-1.018-.492-2.059-.94-3.048-1.484a39.069,39.069,0,0,1-7.825-5.494,42.442,42.442,0,0,1-5.12-5.547c1.186-.015,2.372-.025,3.558-.047a.769.769,0,0,1,.62.285q3.517,3.569,7.078,7.094c.309.306.693.536,1.026.819a1.471,1.471,0,0,0,2.418-1.081c.229-.175.235-.351,0-.526" transform="translate(-91.777 -219.999)" fill="#008e8b"/>
        <path id="Trazado_707885" data-name="Trazado 707885" d="M171.822.927c1.466.174,2.974.158,4.3.968.064.18.2.15.343.125l1.2.654.072,0a7.02,7.02,0,0,1,2.569,2.029c-.028.242-.129.526.292.512a1.584,1.584,0,0,1-1.966,1.967c-.028-.089-.062-.168-.181-.124-.729,0-1.066-.64-1.519-1.016-2.437-2.018-7.439-2.333-10.169-.414A8.856,8.856,0,0,0,170,21.792a9.482,9.482,0,0,0,6.205-1.068,8.642,8.642,0,0,0,1.544-1.314,1.816,1.816,0,0,1,2.032-.32,1.5,1.5,0,0,1,.818,1.84c-.09.026-.168.059-.124.178a5.961,5.961,0,0,1-2.282,2.156,12.814,12.814,0,0,1-4.644,1.829,12.1,12.1,0,0,1-13.9-9.519,11.7,11.7,0,0,1,2.7-10.435,11.7,11.7,0,0,1,6.88-4.013,5.934,5.934,0,0,1,2.264-.2c.016.106.029.232.165.233s.15-.126.166-.232" transform="translate(-132.883 -0.73)" fill="#040504"/>
        <path id="Trazado_707886" data-name="Trazado 707886" d="M53.874,13.1q0-5.219,0-10.438A1.534,1.534,0,0,1,55.53.981Q60.666.957,65.8.979a1.736,1.736,0,0,1,1.886,1.29c.273.795-.189,1.27-.7,1.732a1.46,1.46,0,0,1-1.066.292c-2.678-.01-5.357.015-8.035-.02-.587-.008-.729.147-.718.724q.059,2.9,0,5.8c-.01.554.157.683.687.672,1.684-.034,3.369-.025,5.053-.008,1.3.013,2.065.665,2.062,1.7s-.78,1.676-2.075,1.688c-1.684.015-3.369.029-5.053-.01-.554-.013-.681.157-.673.687.031,1.96.034,3.921,0,5.881-.01.532.154.63.647.625,2.623-.025,5.247-.037,7.869,0,1.258.017,1.753.415,2.031,1.331a1.658,1.658,0,0,1-1.452,1.968q-5.426.014-10.852,0a1.574,1.574,0,0,1-1.541-1.622q-.005-5.3,0-10.6" transform="translate(-44.924 -0.807)" fill="#040504"/>
        <path id="Trazado_707887" data-name="Trazado 707887" d="M282.891,197.3c.174.413-.173.79-.416,1.026a36.206,36.206,0,0,1-3.721,3.59,2.065,2.065,0,0,1-2.124-.01,2.2,2.2,0,0,1-.015-2.47c1.106-1.151,2.229-2.287,3.386-3.386a1.641,1.641,0,0,1,2.069-.257,1.5,1.5,0,0,1,.822,1.507" transform="translate(-230.363 -163.062)" fill="#060707"/>
        <path id="Trazado_707888" data-name="Trazado 707888" d="M194.257,198.164c-.2-.472-.563-.881-.425-1.464.35-1.47,1.677-1.744,2.91-.852,1.246,1.2,2.491,2.4,3.635,3.693.072.207-.122.477.149.637l.052.332c-.319.692-.585,1.437-1.517,1.517l-.331,0a2.042,2.042,0,0,1-.977-.366,42.581,42.581,0,0,0-3.5-3.5" transform="translate(-161.615 -162.896)" fill="#0b0b0a"/>
        <path id="Trazado_707889" data-name="Trazado 707889" d="M248.775,175.405a12.975,12.975,0,0,1-.183,2.89,1.923,1.923,0,0,1-1.745,1.182,1.847,1.847,0,0,1-1.406-1.512q-.008-2.526.007-5.052a1.642,1.642,0,0,1,3.144-.4,13.365,13.365,0,0,1,.184,2.894" transform="translate(-204.675 -143.024)" fill="#040504"/>
        <path id="Trazado_707890" data-name="Trazado 707890" d="M285.68,24.454c-.421.014-.32-.27-.292-.512.332.037.294.285.292.512" transform="translate(-237.965 -19.966)" fill="#f9f9f9"/>
        <path id="Trazado_707891" data-name="Trazado 707891" d="M223.481,235.614l.331,0c-.016.107-.028.234-.164.236s-.15-.126-.167-.233" transform="translate(-186.365 -196.48)" fill="#fefefe"/>
        <path id="Trazado_707892" data-name="Trazado 707892" d="M234.348,224.814l-.052-.332c.121.02.286,0,.278.179,0,.054-.147.1-.226.152" transform="translate(-195.383 -187.199)" fill="#fefefe"/>
        <path id="Trazado_707893" data-name="Trazado 707893" d="M232.792,1.179c-.017.106-.031.232-.166.232s-.149-.127-.165-.233h.332" transform="translate(-193.852 -0.982)" fill="#050605"/>
        <path id="Trazado_707894" data-name="Trazado 707894" d="M53.192,207.574c-.043.222-.107.389-.335.129.053-.2.2-.158.335-.129" transform="translate(-44.078 -173.08)" fill="#090909"/>
        <path id="Trazado_707895" data-name="Trazado 707895" d="M260.67,6.756c-.139.026-.279.056-.343-.125.149-.052.328-.191.343.125" transform="translate(-217.091 -5.467)" fill="#f9f9f9"/>
        <path id="Trazado_707896" data-name="Trazado 707896" d="M274.375,38.062c.119-.044.153.035.181.124l-.181-.124" transform="translate(-228.806 -31.73)" fill="#f6f6f6"/>
        <path id="Trazado_707897" data-name="Trazado 707897" d="M299.6,256.607l-.131.117c-.018-.108.012-.163.131-.117" transform="translate(-249.729 -213.975)" fill="#0b0b0a"/>
        <path id="Trazado_707898" data-name="Trazado 707898" d="M269.715,10.969l-.072,0,.038-.146.034.15" transform="translate(-224.86 -9.022)" fill="#f6f6f6"/>
        <path id="Trazado_707899" data-name="Trazado 707899" d="M255.763,300.523a.183.183,0,0,1-.105.119c-.049-.115,0-.14.105-.119" transform="translate(-213.182 -250.606)" fill="#0b0b0a"/>
        <path id="Trazado_707900" data-name="Trazado 707900" d="M310.288,248.592l-.194.132c.036-.086.069-.177.194-.132" transform="translate(-258.593 -207.295)" fill="#090909"/>
        <path id="Trazado_707901" data-name="Trazado 707901" d="M360.436,221.626l-.136.134c-.025-.116.02-.162.136-.134" transform="translate(-300.454 -184.811)" fill="#0b0b0a"/>
        <path id="Trazado_707902" data-name="Trazado 707902" d="M286.489,121.809c-.044-.119.035-.153.124-.178l-.124.178" transform="translate(-238.898 -101.43)" fill="#f9f9f9"/>
        <path id="Trazado_707903" data-name="Trazado 707903" d="M294.7,389.707c3.22-3.213,6.288-6.27,9.345-9.338a.927.927,0,0,1,.73-.279q8.82.01,17.639.01a1.437,1.437,0,0,1,.237.056,14.5,14.5,0,0,1-1.58,2.538,43.4,43.4,0,0,1-4.87,5.747,4.056,4.056,0,0,1-3.165,1.306c-5.768-.1-11.538-.041-17.307-.041H294.7" transform="translate(-245.757 -316.965)" fill="#00716f"/>
        <path id="Trazado_707904" data-name="Trazado 707904" d="M393.1,270.219a3.565,3.565,0,0,1,.118,2.246c-.195,1.06-.1,2.119-.233,3.178a36.318,36.318,0,0,1-2.438,9.172c-.178.434-.5.338-.808.338q-7.078,0-14.157,0h-1.732c-.084-.275.147-.353.265-.472q6.87-6.887,13.752-13.762a2.159,2.159,0,0,1,.26-.193c1.542-.08,3.069-.362,4.62-.334.117,0,.236-.115.353-.177" transform="translate(-311.746 -225.34)" fill="#00716f"/>
        <path id="Trazado_707905" data-name="Trazado 707905" d="M269.851,458.4a.88.88,0,0,1,.857-.5q9.151.02,18.3.014c.04,0,.08.041.2.109a33.816,33.816,0,0,1-19.849,5.489,48.018,48.018,0,0,1,.485-5.112" transform="translate(-224.629 -381.846)" fill="#00716f"/>
        <path id="Trazado_707906" data-name="Trazado 707906" d="M314.434,313.025a44.864,44.864,0,0,1,10.453-9.705,4.02,4.02,0,0,1,.593-.27,13.385,13.385,0,0,1-.15,3.659c-3.675,3.457-7.054,7.22-10.9,10.654Z" transform="translate(-262.212 -252.719)" fill="#00716f"/>
        <path id="Trazado_707907" data-name="Trazado 707907" d="M312.456,286.62v4.339c3.842-3.434,7.221-7.2,10.9-10.655.076.381-.155.613-.4.853q-4.774,4.766-9.545,9.536a2.619,2.619,0,0,1-.586.447c-.438.238-.682.067-.724-.413-.014-.164,0-.331,0-.5q0-8.981.01-17.962c0-.307-.226-.757.327-.883q.011,7.617.021,15.234" transform="translate(-260.234 -226.313)" fill="#050605"/>
        <path id="Trazado_707908" data-name="Trazado 707908" d="M404.99,240.108c.026-.009.059-.011.077-.029q4.368-4.3,8.734-8.612c.18.033.347.1.208.315a2.73,2.73,0,0,1-.389.425q-5.429,5.431-10.87,10.849c-.172.171-.293.711-.744.311.621-.641,1.263-1.263,1.857-1.929.386-.433.97-.7,1.128-1.331" transform="translate(-335.24 -193.024)" fill="#050605"/>
        <path id="Trazado_707909" data-name="Trazado 707909" d="M230.466,421.455q3.978-4.029,7.958-8.057c.212-.214.441-.412.661-.618.11.01.148-.053.152-.15l-.011.012,1.816-1.658c.358.281.012.433-.132.577q-4.932,4.95-9.882,9.883c-.157.156-.367.544-.562.01" transform="translate(-192.19 -342.727)" fill="#050605"/>
        <path id="Trazado_707910" data-name="Trazado 707910" d="M404.1,283.495c-.157.627-.742.9-1.128,1.33-.593.666-1.235,1.288-1.856,1.929a4.3,4.3,0,0,1-.128-1.939l3.113-1.32" transform="translate(-334.349 -236.411)" fill="#00716f"/>
        <path id="Trazado_707911" data-name="Trazado 707911" d="M284.894,396a.593.593,0,0,1,.131-.038q0,1.248,0,2.5l-1.815,1.658a12.428,12.428,0,0,1,1.495-3.678c.075-.14.128-.292.191-.438" transform="translate(-236.173 -330.198)" fill="#00716f"/>
        <path id="Trazado_707912" data-name="Trazado 707912" d="M208.7,400.385c.013-.183.148-.263.289-.337.264.42-.11.3-.289.337" transform="translate(-174.041 -333.607)" fill="#080b07"/>
        <path id="Trazado_707913" data-name="Trazado 707913" d="M262.722,324.49l-.12.108c-.023-.106.006-.155.12-.108" transform="translate(-218.982 -270.584)" fill="#f6f6f6"/>
        <path id="Trazado_707914" data-name="Trazado 707914" d="M260.415,491.088c.109-.037.142.039.173.118l-.173-.118" transform="translate(-217.165 -409.519)" fill="#0b0b0a"/>
        <path id="Trazado_707915" data-name="Trazado 707915" d="M128.987,428.81a14.126,14.126,0,0,1-3.042-1.008,33.2,33.2,0,0,1-7.066-3.824,1.737,1.737,0,0,1-.842-2.045,1.614,1.614,0,0,1,2.432-.9c1.333.732,2.535,1.678,3.894,2.379a35.567,35.567,0,0,0,4.94,2.061c1.439.485,1.88,1.41,1.236,2.548a1.736,1.736,0,0,1-1.554.786" transform="translate(-98.366 -350.907)" fill="#060707"/>
        <path id="Trazado_707916" data-name="Trazado 707916" d="M94.31,402.384a1.7,1.7,0,0,1-1.528-1.663,1.651,1.651,0,1,1,3.3.023,1.741,1.741,0,0,1-1.773,1.64" transform="translate(-77.372 -332.794)" fill="#060707"/>
        <path id="Trazado_707917" data-name="Trazado 707917" d="M15.089,360.178l.134.176c-.1-.019-.168-.057-.134-.176" transform="translate(-12.576 -300.359)" fill="#0b0b0a"/>
        <path id="Trazado_707918" data-name="Trazado 707918" d="M125.644,255.285c-2.681-2.682-5.212-5.217-7.749-7.744a.943.943,0,0,1-.2-.767c0-3.864.006-7.728-.008-11.592,0-.607.117-.765.755-.529,1.11.411,2.265.7,3.4,1.048a23.188,23.188,0,0,1,3.427,1.527.608.608,0,0,1,.388.625c-.013,5.739-.009,11.477-.009,17.433" transform="translate(-98.138 -195.593)" fill="#008e8b"/>
        <path id="Trazado_707919" data-name="Trazado 707919" d="M63.848,228.428a42.66,42.66,0,0,1,5.089.124c.61.031.547.38.547.771q-.007,4.666-.008,9.333a.41.41,0,0,1-.429-.167q-2.362-2.394-4.728-4.785c-.147-1.759-.484-3.5-.47-5.275" transform="translate(-53.244 -190.455)" fill="#008e8b"/>
        <path id="Trazado_707920" data-name="Trazado 707920" d="M81.606,307.274a28.482,28.482,0,0,1-2.8-5.74c2,1.765,3.778,3.76,5.862,5.74Z" transform="translate(-65.719 -251.454)" fill="#008e8b"/>
        <path id="Trazado_707921" data-name="Trazado 707921" d="M36.372,231.423l4.925,4.813q2.364,2.392,4.728,4.785a.41.41,0,0,0,.429.166c-.24.655-.516.23-.744.007-1-.987-1.994-1.987-2.989-2.982-2.029-2.029-4.063-4.054-6.08-6.1-.165-.167-.622-.3-.269-.693" transform="translate(-30.222 -192.988)" fill="#050605"/>
        <path id="Trazado_707922" data-name="Trazado 707922" d="M198.572,395.993c.235.176.229.351,0,.526q0-.263,0-.526" transform="translate(-165.592 -330.225)" fill="#080b07"/>
        <path id="Trazado_707923" data-name="Trazado 707923" d="M282.514,420.834c0,.1-.042.16-.152.15.018-.083,0-.2.152-.15" transform="translate(-235.467 -350.931)" fill="#95bf27"/>
      </g>
    </g>
  </g>
</svg>
