<svg xmlns="http://www.w3.org/2000/svg" width="338.335" height="214.607" viewBox="0 0 338.335 214.607">
  <g id="Grupo_1007081" data-name="Grupo 1007081" transform="translate(-5.993 -241.551)">
    <g id="Grupo_1006959" data-name="Grupo 1006959" transform="translate(5.993 241.992)">
      <g id="Grupo_1006958" data-name="Grupo 1006958" style="isolation: isolate">
        <g id="Grupo_1006953" data-name="Grupo 1006953" transform="translate(154.252 89.058)">
          <path id="Trazado_720712" data-name="Trazado 720712" d="M249.5,276.028l-.026,9.194L65.415,392.185l.026-9.194Z" transform="translate(-65.415 -276.028)" fill="#68a333"/>
        </g>
        <g id="Grupo_1006954" data-name="Grupo 1006954" transform="translate(0 106.962)">
          <path id="Trazado_720713" data-name="Trazado 720713" d="M160.272,371.983l-.026,9.194L5.993,292.12l.026-9.194Z" transform="translate(-5.993 -282.926)" fill="#588a2b"/>
        </g>
        <g id="Grupo_1006955" data-name="Grupo 1006955" transform="translate(154.252 98.01)">
          <path id="Trazado_720714" data-name="Trazado 720714" d="M249.5,279.477l-.026,9.194L65.415,395.633l.026-9.194Z" transform="translate(-65.415 -279.477)" fill="#575756"/>
        </g>
        <g id="Grupo_1006956" data-name="Grupo 1006956" transform="translate(0 115.915)">
          <path id="Trazado_720715" data-name="Trazado 720715" d="M160.272,375.432l-.026,9.194L5.993,295.568l.026-9.194Z" transform="translate(-5.993 -286.374)" fill="#3c3c3b"/>
        </g>
        <g id="Grupo_1006957" data-name="Grupo 1006957" transform="translate(0.026)">
          <path id="Trazado_720716" data-name="Trazado 720716" d="M344.313,330.779,160.256,437.741,6,348.683,190.06,241.721Z" transform="translate(-6.004 -241.721)" fill="#83ce41"/>
        </g>
      </g>
    </g>
    <g id="Grupo_1006968" data-name="Grupo 1006968" transform="translate(106.422 271.227)">
      <g id="Grupo_1006963" data-name="Grupo 1006963" transform="translate(0 17.462)">
        <g id="Grupo_1006962" data-name="Grupo 1006962" style="isolation: isolate">
          <g id="Grupo_1006960" data-name="Grupo 1006960" transform="translate(0 7.817)">
            <path id="Trazado_720717" data-name="Trazado 720717" d="M44.681,262.8l.01,3.227c.005,2,1.316,3.992,3.938,5.516,5.28,3.068,13.865,3.066,19.176,0,2.674-1.545,4.011-3.572,4.005-5.594l-.01-3.227c.005,2.022-1.329,4.047-4.005,5.592-5.309,3.066-13.893,3.068-19.173,0C46,266.789,44.689,264.8,44.681,262.8Z" transform="translate(-44.681 -262.721)" fill="#3c3c3b"/>
          </g>
          <g id="Grupo_1006961" data-name="Grupo 1006961" transform="translate(0.001)">
            <path id="Trazado_720718" data-name="Trazado 720718" d="M48.683,262.01c-5.311,3.066-5.34,8.042-.062,11.108s13.865,3.066,19.173,0,5.345-8.039.062-11.108S54,258.942,48.683,262.01Z" transform="translate(-44.681 -259.71)" fill="#fff"/>
          </g>
        </g>
      </g>
      <g id="Grupo_1006967" data-name="Grupo 1006967" transform="translate(2.103)">
        <path id="Trazado_720719" data-name="Trazado 720719" d="M68.408,264.41a11.458,11.458,0,1,1-11.492-11.427A11.456,11.456,0,0,1,68.408,264.41Z" transform="translate(-45.491 -252.983)" fill="#f6f6f6"/>
        <g id="Grupo_1006965" data-name="Grupo 1006965" transform="translate(0 11.427)" style="isolation: isolate">
          <g id="Grupo_1006964" data-name="Grupo 1006964">
            <path id="Trazado_720720" data-name="Trazado 720720" d="M45.491,257.45l.008,12.408c.005,1.687,1.114,3.372,3.328,4.66,4.462,2.593,11.718,2.591,16.2,0,2.261-1.3,3.39-3.016,3.385-4.724l-.008-12.408c.005,1.708-1.124,3.419-3.385,4.724-4.486,2.591-11.741,2.593-16.2,0C46.6,260.822,45.5,259.137,45.491,257.45Z" transform="translate(-45.491 -257.385)" fill="#c6c6c6"/>
          </g>
        </g>
        <g id="Grupo_1006966" data-name="Grupo 1006966" transform="translate(0.008 13.525)">
          <path id="Trazado_720721" data-name="Trazado 720721" d="M45.494,258.193c-.01,1.7,1.1,3.4,3.328,4.693,4.462,2.593,11.718,2.591,16.2,0,2.245-1.3,3.375-3,3.385-4.693v1.238c-.01,1.7-1.14,3.4-3.385,4.693-4.486,2.591-11.741,2.593-16.2,0-2.23-1.3-3.338-2.993-3.328-4.693Z" transform="translate(-45.494 -258.193)" fill="#d04158"/>
        </g>
      </g>
    </g>
    <g id="Grupo_1006971" data-name="Grupo 1006971" transform="translate(64.914 270.086)">
      <path id="Trazado_720722" data-name="Trazado 720722" d="M28.691,330.949,133.039,391.2l130.085-75.107v-8.564L158.777,255.843,28.691,322.385Z" transform="translate(-28.691 -247.278)" fill="#575756"/>
      <path id="Trazado_720723" data-name="Trazado 720723" d="M28.691,327.65,133.039,387.9,263.124,312.79,158.777,252.543Z" transform="translate(-28.691 -252.543)" fill="#f6f6f6"/>
      <g id="Grupo_1006969" data-name="Grupo 1006969" transform="translate(7.865 4.535)">
        <path id="Trazado_720724" data-name="Trazado 720724" d="M66.892,272.143l3.494,2.015,93,53.7,27.429-15.838L194.3,310,97.815,254.29Z" transform="translate(24.408 -254.29)" fill="#3c3c3b"/>
        <path id="Trazado_720725" data-name="Trazado 720725" d="M31.721,292.445l3.485,2.015,93,53.7,27.429-15.838,3.485-2.015L62.635,274.6Z" transform="translate(-31.721 -221.876)" fill="#3c3c3b"/>
        <path id="Trazado_720726" data-name="Trazado 720726" d="M71.161,307.7l3.485,2.015,25.2,14.55,49.566-28.618,3.495-2.015-28.691-16.564Z" transform="translate(31.221 -217.948)" fill="#3c3c3b"/>
        <path id="Trazado_720727" data-name="Trazado 720727" d="M45.042,292.615l3.485,2.015L73.733,309.18,123.3,280.562l3.486-2.015L98.094,261.982Z" transform="translate(-10.461 -242.014)" fill="#3c3c3b"/>
        <path id="Trazado_720728" data-name="Trazado 720728" d="M57.763,299.961l3.486,2.006,26.966,15.575,49.566-28.618,3.485-2.015-30.451-17.581Z" transform="translate(9.839 -230.291)" fill="#3c3c3b"/>
      </g>
      <g id="Grupo_1006970" data-name="Grupo 1006970" transform="translate(11.35 8.564)">
        <path id="Trazado_720729" data-name="Trazado 720729" d="M68.238,271.681l93,53.7,27.429-15.838-93-53.7Z" transform="translate(23.071 -255.843)" fill="#3f76ab"/>
        <path id="Trazado_720730" data-name="Trazado 720730" d="M33.064,291.988l93,53.7,27.429-15.838-93-53.7Z" transform="translate(-33.064 -223.434)" fill="#48c8d9"/>
        <path id="Trazado_720731" data-name="Trazado 720731" d="M72.5,307.233l25.2,14.55,49.566-28.618-25.2-14.549Z" transform="translate(29.878 -219.5)" fill="#539be0"/>
        <path id="Trazado_720732" data-name="Trazado 720732" d="M46.385,292.153,71.59,306.7l49.566-28.618-25.205-14.55Z" transform="translate(-11.804 -243.567)" fill="#539be0"/>
        <path id="Trazado_720733" data-name="Trazado 720733" d="M59.105,299.5l26.966,15.575,49.566-28.618-26.966-15.575Z" transform="translate(8.496 -231.849)" fill="#3f76ab"/>
      </g>
    </g>
    <g id="Grupo_1006980" data-name="Grupo 1006980" transform="translate(150.909 298.78)">
      <g id="Grupo_1006975" data-name="Grupo 1006975" style="isolation: isolate">
        <g id="Grupo_1006972" data-name="Grupo 1006972" transform="translate(0 16.181)">
          <path id="Trazado_720734" data-name="Trazado 720734" d="M61.818,269.831l.092,21,34.325,19.948-.092-21Z" transform="translate(-61.818 -269.831)" fill="#dadada"/>
        </g>
        <g id="Grupo_1006973" data-name="Grupo 1006973" transform="translate(34.325 19.948)">
          <path id="Trazado_720735" data-name="Trazado 720735" d="M75.041,287.463l.092,21,28.026-16.181-.092-21Z" transform="translate(-75.041 -271.282)" fill="#575756"/>
        </g>
        <g id="Grupo_1006974" data-name="Grupo 1006974">
          <path id="Trazado_720736" data-name="Trazado 720736" d="M61.818,279.778l34.325,19.948,28.026-16.181L89.845,263.6Z" transform="translate(-61.818 -263.597)" fill="#f6f6f6"/>
        </g>
      </g>
      <g id="Grupo_1006979" data-name="Grupo 1006979" transform="translate(4.801 25.999)">
        <g id="Grupo_1006976" data-name="Grupo 1006976" transform="translate(0.002)">
          <path id="Trazado_720737" data-name="Trazado 720737" d="M84.6,285.69l-.038,5.04-.006,2.59-20.89-12.071.044-7.636,2.24,1.292,10.753,6.217,2.272,1.317.414.235.585.344Z" transform="translate(-63.669 -273.613)" fill="#539be0"/>
        </g>
        <g id="Grupo_1006977" data-name="Grupo 1006977" transform="translate(0 6.331)">
          <path id="Trazado_720738" data-name="Trazado 720738" d="M84.567,286.834l-.006,2.59L63.668,277.356l2.246-1.3Z" transform="translate(-63.668 -276.052)" fill="#3c3c3b"/>
        </g>
        <g id="Grupo_1006978" data-name="Grupo 1006978">
          <path id="Trazado_720739" data-name="Trazado 720739" d="M65.952,274.9l-.038,5.04-2.246,1.3.044-7.636Z" transform="translate(-63.668 -273.613)" fill="#3c3c3b"/>
        </g>
      </g>
    </g>
    <g id="Grupo_1006997" data-name="Grupo 1006997" transform="translate(126.929 289.786)">
      <g id="Grupo_1006984" data-name="Grupo 1006984" transform="translate(13.096 22.436)">
        <g id="Grupo_1006983" data-name="Grupo 1006983">
          <g id="Grupo_1006981" data-name="Grupo 1006981">
            <path id="Trazado_720740" data-name="Trazado 720740" d="M58.34,269.135c-.947.478-.953,1.254-.01,1.734a4.276,4.276,0,0,0,3.427,0c.95-.48.955-1.256.01-1.734A4.255,4.255,0,0,0,58.34,269.135Z" transform="translate(-57.626 -268.775)" fill="#a62338"/>
          </g>
          <g id="Grupo_1006982" data-name="Grupo 1006982">
            <path id="Trazado_720741" data-name="Trazado 720741" d="M58.34,269.135c-.947.478-.953,1.254-.01,1.734a4.276,4.276,0,0,0,3.427,0c.95-.48.955-1.256.01-1.734A4.255,4.255,0,0,0,58.34,269.135Z" transform="translate(-57.626 -268.775)" fill="#fff"/>
          </g>
        </g>
      </g>
      <g id="Grupo_1006992" data-name="Grupo 1006992">
        <g id="Grupo_1006988" data-name="Grupo 1006988">
          <g id="Grupo_1006987" data-name="Grupo 1006987" style="isolation: isolate">
            <g id="Grupo_1006985" data-name="Grupo 1006985">
              <path id="Trazado_720742" data-name="Trazado 720742" d="M57.487,260.708l-.716-.413a1.731,1.731,0,0,0-1.731.169,5.421,5.421,0,0,0-2.458,4.26,1.74,1.74,0,0,0,.729,1.607l.716.41a1.739,1.739,0,0,1-.727-1.607,5.42,5.42,0,0,1,2.458-4.257A1.727,1.727,0,0,1,57.487,260.708Z" transform="translate(-52.581 -260.133)" fill="#fff"/>
            </g>
            <g id="Grupo_1006986" data-name="Grupo 1006986" transform="translate(0.719 0.413)">
              <path id="Trazado_720743" data-name="Trazado 720743" d="M57.775,262.06c0-1.573-1.1-2.217-2.458-1.438a5.42,5.42,0,0,0-2.458,4.257c0,1.576,1.1,2.22,2.458,1.438A5.413,5.413,0,0,0,57.775,262.06Z" transform="translate(-52.858 -260.292)" fill="#3c3c3b"/>
            </g>
          </g>
        </g>
        <g id="Grupo_1006991" data-name="Grupo 1006991" transform="translate(1.562 1.408)">
          <g id="Grupo_1006989" data-name="Grupo 1006989">
            <path id="Trazado_720744" data-name="Trazado 720744" d="M56.395,261.817c.062-1.062-.61-1.454-1.5-.875a4.256,4.256,0,0,0-1.713,2.967c-.06,1.062.61,1.454,1.5.875A4.257,4.257,0,0,0,56.395,261.817Z" transform="translate(-53.183 -260.675)" fill="#a62338"/>
          </g>
          <g id="Grupo_1006990" data-name="Grupo 1006990">
            <path id="Trazado_720745" data-name="Trazado 720745" d="M56.395,261.817c.062-1.062-.61-1.454-1.5-.875a4.256,4.256,0,0,0-1.713,2.967c-.06,1.062.61,1.454,1.5.875A4.257,4.257,0,0,0,56.395,261.817Z" transform="translate(-53.183 -260.675)" fill="#fff"/>
          </g>
        </g>
      </g>
      <path id="Trazado_720746" data-name="Trazado 720746" d="M64.479,282.877h4.847v-6.684A14.442,14.442,0,0,0,62.7,264.716l-6.941-4.008-2.425,4.2,6.944,4.008a9.6,9.6,0,0,1,4.2,7.279Z" transform="translate(-51.382 -259.214)" fill="#fff"/>
      <g id="Grupo_1006993" data-name="Grupo 1006993" transform="translate(13.096 19.432)">
        <path id="Trazado_720747" data-name="Trazado 720747" d="M57.626,267.618a1.2,1.2,0,0,0,.7.994,3.778,3.778,0,0,0,3.427,0,1.22,1.22,0,0,0,.716-.994v1.456a1.22,1.22,0,0,1-.716.992,3.778,3.778,0,0,1-3.427,0,1.194,1.194,0,0,1-.7-.992Z" transform="translate(-57.626 -267.618)" fill="#a62338"/>
      </g>
      <g id="Grupo_1006994" data-name="Grupo 1006994" transform="translate(13.096 17.184)">
        <path id="Trazado_720748" data-name="Trazado 720748" d="M57.626,266.752a1.194,1.194,0,0,0,.7.992,3.778,3.778,0,0,0,3.427,0,1.217,1.217,0,0,0,.716-.992v1.454a1.214,1.214,0,0,1-.716.992,3.762,3.762,0,0,1-3.427,0,1.191,1.191,0,0,1-.7-.992Z" transform="translate(-57.626 -266.752)" fill="#a62338"/>
      </g>
      <g id="Grupo_1006995" data-name="Grupo 1006995" transform="translate(3.938 2.815)">
        <path id="Trazado_720749" data-name="Trazado 720749" d="M58.283,262.061a1.2,1.2,0,0,0-1.21.112,3.784,3.784,0,0,0-1.716,2.97,1.216,1.216,0,0,0,.5,1.116l-1.262-.727a1.221,1.221,0,0,1-.5-1.116,3.78,3.78,0,0,1,1.713-2.97,1.2,1.2,0,0,1,1.212-.112Z" transform="translate(-54.098 -261.217)" fill="#a62338"/>
      </g>
      <g id="Grupo_1006996" data-name="Grupo 1006996" transform="translate(5.887 3.939)">
        <path id="Trazado_720750" data-name="Trazado 720750" d="M59.034,262.494a1.2,1.2,0,0,0-1.212.114,3.772,3.772,0,0,0-1.713,2.967,1.221,1.221,0,0,0,.5,1.116l-1.259-.727a1.215,1.215,0,0,1-.5-1.116,3.772,3.772,0,0,1,1.713-2.967,1.193,1.193,0,0,1,1.21-.114Z" transform="translate(-54.849 -261.65)" fill="#a62338"/>
      </g>
    </g>
    <g id="Grupo_1007018" data-name="Grupo 1007018" transform="translate(195.383 330.31)">
      <g id="Grupo_1007007" data-name="Grupo 1007007" transform="translate(6.108)">
        <path id="Trazado_720751" data-name="Trazado 720751" d="M86.867,284.436c-.916.462-.922,1.212-.01,1.674a4.114,4.114,0,0,0,3.31,0c.916-.462.922-1.212.01-1.674A4.125,4.125,0,0,0,86.867,284.436Z" transform="translate(-73.529 -262.423)" fill="#dadada"/>
        <g id="Grupo_1007002" data-name="Grupo 1007002">
          <g id="Grupo_1007001" data-name="Grupo 1007001">
            <g id="Grupo_1007000" data-name="Grupo 1007000" style="isolation: isolate">
              <g id="Grupo_1006998" data-name="Grupo 1006998">
                <path id="Trazado_720752" data-name="Trazado 720752" d="M86.044,276.3l-.693-.4a1.667,1.667,0,0,0-1.672.161,5.229,5.229,0,0,0-2.375,4.112,1.684,1.684,0,0,0,.7,1.552l.693.4a1.682,1.682,0,0,1-.7-1.55,5.24,5.24,0,0,1,2.375-4.115A1.667,1.667,0,0,1,86.044,276.3Z" transform="translate(-81.304 -275.743)" fill="#dadada"/>
              </g>
              <g id="Grupo_1006999" data-name="Grupo 1006999" transform="translate(0.693 0.396)">
                <path id="Trazado_720753" data-name="Trazado 720753" d="M86.321,277.6c0-1.519-1.064-2.142-2.375-1.389a5.24,5.24,0,0,0-2.375,4.115c0,1.519,1.064,2.142,2.375,1.389A5.236,5.236,0,0,0,86.321,277.6Z" transform="translate(-81.571 -275.896)" fill="#fff"/>
              </g>
            </g>
          </g>
          <path id="Trazado_720754" data-name="Trazado 720754" d="M84.988,277.371c.06-1.025-.589-1.4-1.443-.846a4.126,4.126,0,0,0-1.656,2.866c-.057,1.025.589,1.4,1.446.846A4.114,4.114,0,0,0,84.988,277.371Z" transform="translate(-80.377 -274.908)" fill="#dadada"/>
        </g>
        <path id="Trazado_720755" data-name="Trazado 720755" d="M92.794,297.709h4.68v-6.456a13.953,13.953,0,0,0-6.4-11.082L84.37,276.3l-2.341,4.055,6.708,3.871a9.262,9.262,0,0,1,4.057,7.03Z" transform="translate(-80.147 -274.858)" fill="#dadada"/>
        <g id="Grupo_1007003" data-name="Grupo 1007003" transform="translate(12.647 18.765)">
          <path id="Trazado_720756" data-name="Trazado 720756" d="M86.176,282.972a1.152,1.152,0,0,0,.68.958,3.638,3.638,0,0,0,3.31,0,1.177,1.177,0,0,0,.691-.958v1.4a1.181,1.181,0,0,1-.691.961,3.654,3.654,0,0,1-3.31,0,1.156,1.156,0,0,1-.68-.961Z" transform="translate(-86.176 -282.972)" fill="#ff4756"/>
        </g>
        <g id="Grupo_1007004" data-name="Grupo 1007004" transform="translate(12.647 16.593)">
          <path id="Trazado_720757" data-name="Trazado 720757" d="M86.176,282.135a1.156,1.156,0,0,0,.68.96,3.654,3.654,0,0,0,3.31,0,1.181,1.181,0,0,0,.691-.96v1.407a1.181,1.181,0,0,1-.691.958,3.646,3.646,0,0,1-3.31,0,1.156,1.156,0,0,1-.68-.958Z" transform="translate(-86.176 -282.135)" fill="#ff4756"/>
        </g>
        <g id="Grupo_1007005" data-name="Grupo 1007005" transform="translate(3.803 2.716)">
          <path id="Trazado_720758" data-name="Trazado 720758" d="M86.811,277.606a1.156,1.156,0,0,0-1.171.109,3.645,3.645,0,0,0-1.654,2.866,1.17,1.17,0,0,0,.485,1.077l-1.217-.7a1.183,1.183,0,0,1-.485-1.08,3.645,3.645,0,0,1,1.656-2.866,1.157,1.157,0,0,1,1.168-.109Z" transform="translate(-82.769 -276.79)" fill="#ff4756"/>
        </g>
        <g id="Grupo_1007006" data-name="Grupo 1007006" transform="translate(5.685 3.803)">
          <path id="Trazado_720759" data-name="Trazado 720759" d="M87.536,278.023a1.163,1.163,0,0,0-1.171.112A3.64,3.64,0,0,0,84.711,281a1.179,1.179,0,0,0,.483,1.08l-1.215-.7a1.17,1.17,0,0,1-.485-1.077,3.645,3.645,0,0,1,1.654-2.866,1.156,1.156,0,0,1,1.171-.109Z" transform="translate(-83.494 -277.208)" fill="#ff4756"/>
        </g>
      </g>
      <g id="Grupo_1007017" data-name="Grupo 1007017" transform="translate(0 3.561)">
        <path id="Trazado_720760" data-name="Trazado 720760" d="M84.514,285.808c-.916.462-.922,1.212-.01,1.674a4.118,4.118,0,0,0,3.307,0c.919-.462.924-1.212.013-1.674A4.124,4.124,0,0,0,84.514,285.808Z" transform="translate(-71.176 -263.795)" fill="#dadada"/>
        <g id="Grupo_1007012" data-name="Grupo 1007012">
          <g id="Grupo_1007011" data-name="Grupo 1007011">
            <g id="Grupo_1007010" data-name="Grupo 1007010" style="isolation: isolate">
              <g id="Grupo_1007008" data-name="Grupo 1007008">
                <path id="Trazado_720761" data-name="Trazado 720761" d="M83.688,277.671l-.693-.4a1.675,1.675,0,0,0-1.672.164,5.233,5.233,0,0,0-2.373,4.112,1.678,1.678,0,0,0,.7,1.552l.693.4a1.682,1.682,0,0,1-.7-1.55,5.233,5.233,0,0,1,2.375-4.115A1.662,1.662,0,0,1,83.688,277.671Z" transform="translate(-78.951 -277.115)" fill="#dadada"/>
              </g>
              <g id="Grupo_1007009" data-name="Grupo 1007009" transform="translate(0.693 0.398)">
                <path id="Trazado_720762" data-name="Trazado 720762" d="M83.968,278.976c0-1.519-1.064-2.139-2.375-1.389a5.233,5.233,0,0,0-2.375,4.115c0,1.519,1.062,2.142,2.375,1.389A5.236,5.236,0,0,0,83.968,278.976Z" transform="translate(-79.218 -277.268)" fill="#fff"/>
              </g>
            </g>
          </g>
          <path id="Trazado_720763" data-name="Trazado 720763" d="M82.635,278.743c.057-1.025-.589-1.4-1.443-.846a4.117,4.117,0,0,0-1.656,2.866c-.057,1.025.589,1.4,1.446.846A4.123,4.123,0,0,0,82.635,278.743Z" transform="translate(-78.024 -276.279)" fill="#dadada"/>
        </g>
        <path id="Trazado_720764" data-name="Trazado 720764" d="M90.441,299.081h4.68v-6.456a13.953,13.953,0,0,0-6.4-11.082l-6.705-3.873-2.341,4.055,6.705,3.87a9.266,9.266,0,0,1,4.06,7.03Z" transform="translate(-77.794 -276.229)" fill="#dadada"/>
        <g id="Grupo_1007013" data-name="Grupo 1007013" transform="translate(12.647 18.766)">
          <path id="Trazado_720765" data-name="Trazado 720765" d="M83.823,284.344a1.149,1.149,0,0,0,.68.958,3.641,3.641,0,0,0,3.307,0,1.176,1.176,0,0,0,.693-.958v1.4a1.179,1.179,0,0,1-.693.961,3.641,3.641,0,0,1-3.307,0,1.156,1.156,0,0,1-.68-.961Z" transform="translate(-83.823 -284.344)" fill="#ff4756"/>
        </g>
        <g id="Grupo_1007014" data-name="Grupo 1007014" transform="translate(12.647 16.593)">
          <path id="Trazado_720766" data-name="Trazado 720766" d="M83.823,283.507a1.156,1.156,0,0,0,.68.961,3.649,3.649,0,0,0,3.307,0,1.179,1.179,0,0,0,.693-.961v1.407a1.179,1.179,0,0,1-.693.958,3.641,3.641,0,0,1-3.307,0,1.156,1.156,0,0,1-.68-.958Z" transform="translate(-83.823 -283.507)" fill="#ff4756"/>
        </g>
        <g id="Grupo_1007015" data-name="Grupo 1007015" transform="translate(3.803 2.718)">
          <path id="Trazado_720767" data-name="Trazado 720767" d="M84.458,278.977a1.155,1.155,0,0,0-1.171.109,3.645,3.645,0,0,0-1.654,2.866,1.174,1.174,0,0,0,.483,1.077l-1.217-.7a1.177,1.177,0,0,1-.483-1.077,3.654,3.654,0,0,1,1.654-2.868,1.168,1.168,0,0,1,1.171-.109Z" transform="translate(-80.416 -278.162)" fill="#ff4756"/>
        </g>
        <g id="Grupo_1007016" data-name="Grupo 1007016" transform="translate(5.685 3.804)">
          <path id="Trazado_720768" data-name="Trazado 720768" d="M85.18,279.395a1.157,1.157,0,0,0-1.168.109,3.656,3.656,0,0,0-1.656,2.866,1.18,1.18,0,0,0,.485,1.08l-1.217-.7a1.174,1.174,0,0,1-.483-1.077,3.645,3.645,0,0,1,1.654-2.866,1.156,1.156,0,0,1,1.171-.109Z" transform="translate(-81.141 -278.58)" fill="#ff4756"/>
        </g>
      </g>
    </g>
    <g id="Grupo_1007027" data-name="Grupo 1007027" transform="translate(163.144 298.78)">
      <g id="Grupo_1007023" data-name="Grupo 1007023" transform="translate(1.435 2.868)">
        <g id="Grupo_1007022" data-name="Grupo 1007022" style="isolation: isolate">
          <g id="Grupo_1007019" data-name="Grupo 1007019" transform="translate(6.732 3.881)">
            <path id="Trazado_720769" data-name="Trazado 720769" d="M69.678,276.07l8.252-4.8.024-2.585V266.2L69.7,271v2.389Z" transform="translate(-69.678 -266.197)" fill="#575756"/>
          </g>
          <g id="Grupo_1007020" data-name="Grupo 1007020" transform="translate(0 4.798)">
            <path id="Trazado_720770" data-name="Trazado 720770" d="M67.085,266.55v5.071l6.732,3.885.024-2.682v-2.389Z" transform="translate(-67.085 -266.55)" fill="#706f6f"/>
          </g>
          <g id="Grupo_1007021" data-name="Grupo 1007021" transform="translate(0.011)">
            <path id="Trazado_720771" data-name="Trazado 720771" d="M82.075,268.591l-8.25,4.794L67.089,269.5l8.25-4.795Z" transform="translate(-67.089 -264.702)" fill="#ccc"/>
          </g>
        </g>
      </g>
      <g id="Grupo_1007026" data-name="Grupo 1007026">
        <path id="Trazado_720772" data-name="Trazado 720772" d="M67.085,267.149v2.365l6.754,3.909c.073.047,8.252-4.706,8.252-4.706v-2.484l-8.252,4.8Z" transform="translate(-65.649 -259.391)" opacity="0.15"/>
        <g id="Grupo_1007024" data-name="Grupo 1007024" transform="translate(8.024 4.632)">
          <path id="Trazado_720773" data-name="Trazado 720773" d="M79.454,265.382l0,2.7-9.828,5.711,0-2.7Z" transform="translate(-69.623 -265.382)" fill="#575756"/>
        </g>
        <g id="Grupo_1007025" data-name="Grupo 1007025" transform="translate(0 5.71)">
          <path id="Trazado_720774" data-name="Trazado 720774" d="M74.559,270.43l0,2.7L66.532,268.5l0-2.7Z" transform="translate(-66.532 -265.797)" fill="#706f6f"/>
        </g>
        <path id="Trazado_720775" data-name="Trazado 720775" d="M66.534,269.311l8.025,4.631,9.82-5.713-1.672-.967L76.363,263.6l-5.681,3.3Z" transform="translate(-66.528 -263.597)" fill="#dadada"/>
      </g>
    </g>
    <g id="Grupo_1007036" data-name="Grupo 1007036" transform="translate(181.331 309.876)">
      <g id="Grupo_1007032" data-name="Grupo 1007032" transform="translate(1.435 2.868)">
        <g id="Grupo_1007031" data-name="Grupo 1007031" style="isolation: isolate">
          <g id="Grupo_1007028" data-name="Grupo 1007028" transform="translate(6.732 3.881)">
            <path id="Trazado_720776" data-name="Trazado 720776" d="M76.684,280.345l8.252-4.8.024-2.586v-2.486l-8.252,4.8v2.389Z" transform="translate(-76.684 -270.472)" fill="#575756"/>
          </g>
          <g id="Grupo_1007029" data-name="Grupo 1007029" transform="translate(0 4.798)">
            <path id="Trazado_720777" data-name="Trazado 720777" d="M74.09,270.825V275.9l6.732,3.885.024-2.682V274.71Z" transform="translate(-74.09 -270.825)" fill="#706f6f"/>
          </g>
          <g id="Grupo_1007030" data-name="Grupo 1007030" transform="translate(0.01)">
            <path id="Trazado_720778" data-name="Trazado 720778" d="M89.081,272.865l-8.25,4.795-6.736-3.889,8.25-4.794Z" transform="translate(-74.095 -268.977)" fill="#ccc"/>
          </g>
        </g>
      </g>
      <g id="Grupo_1007035" data-name="Grupo 1007035">
        <path id="Trazado_720779" data-name="Trazado 720779" d="M74.091,271.423v2.365l6.755,3.909c.073.049,8.252-4.7,8.252-4.7v-2.487l-8.252,4.8Z" transform="translate(-72.655 -263.666)" opacity="0.15"/>
        <g id="Grupo_1007033" data-name="Grupo 1007033" transform="translate(8.024 4.632)">
          <path id="Trazado_720780" data-name="Trazado 720780" d="M86.46,269.656l0,2.7-9.828,5.711,0-2.7Z" transform="translate(-76.629 -269.656)" fill="#575756"/>
        </g>
        <g id="Grupo_1007034" data-name="Grupo 1007034" transform="translate(0 5.71)">
          <path id="Trazado_720781" data-name="Trazado 720781" d="M81.565,274.7l0,2.7-8.024-4.633,0-2.7Z" transform="translate(-73.538 -270.071)" fill="#706f6f"/>
        </g>
        <path id="Trazado_720782" data-name="Trazado 720782" d="M73.54,273.585l8.025,4.631,9.82-5.713-1.672-.967-6.345-3.664-5.681,3.3Z" transform="translate(-73.534 -267.872)" fill="#dadada"/>
      </g>
    </g>
    <g id="Grupo_1007044" data-name="Grupo 1007044" transform="translate(243.794 290.06)">
      <g id="Grupo_1007040" data-name="Grupo 1007040" transform="translate(18.384 10.19)">
        <g id="Grupo_1007039" data-name="Grupo 1007039" style="isolation: isolate">
          <g id="Grupo_1007037" data-name="Grupo 1007037" transform="translate(0 3.892)">
            <path id="Trazado_720783" data-name="Trazado 720783" d="M104.682,265.7l.005,1.609a3.354,3.354,0,0,0,1.96,2.746,10.529,10.529,0,0,0,9.553,0,3.375,3.375,0,0,0,1.994-2.785l0-1.609a3.385,3.385,0,0,1-2,2.788,10.531,10.531,0,0,1-9.55,0A3.359,3.359,0,0,1,104.682,265.7Z" transform="translate(-104.682 -265.663)" fill="#3c3c3b"/>
          </g>
          <g id="Grupo_1007038" data-name="Grupo 1007038">
            <path id="Trazado_720784" data-name="Trazado 720784" d="M106.676,265.309c-2.645,1.526-2.661,4.005-.031,5.534a10.531,10.531,0,0,0,9.55,0c2.648-1.529,2.663-4.005.031-5.534A10.523,10.523,0,0,0,106.676,265.309Z" transform="translate(-104.682 -264.164)" fill="#fff"/>
          </g>
        </g>
      </g>
      <g id="Grupo_1007043" data-name="Grupo 1007043" transform="translate(0)">
        <path id="Trazado_720785" data-name="Trazado 720785" d="M97.6,286.456h6.861v-5.078a12.646,12.646,0,0,1,5.54-9.6l7.2-4.156c1.067-.615,1.633-.548,1.7-.509s.41.5.41,1.726v5.08h6.861v-5.08c0-3.463-1.4-6.259-3.839-7.668s-5.563-1.223-8.561.509l-7.2,4.156A19.563,19.563,0,0,0,97.6,281.379Z" transform="translate(-97.6 -260.238)" fill="#dadada"/>
        <g id="Grupo_1007041" data-name="Grupo 1007041" transform="translate(21.71 11.684)">
          <path id="Trazado_720786" data-name="Trazado 720786" d="M106.975,265.32c-1.342.776-1.35,2.035-.016,2.811a5.353,5.353,0,0,0,4.852,0c1.345-.779,1.35-2.035.016-2.811A5.354,5.354,0,0,0,106.975,265.32Z" transform="translate(-105.963 -264.739)" fill="#dadada"/>
        </g>
        <g id="Grupo_1007042" data-name="Grupo 1007042" transform="translate(0 24.232)">
          <path id="Trazado_720787" data-name="Trazado 720787" d="M98.612,270.155c-1.345.776-1.35,2.035-.016,2.809a5.34,5.34,0,0,0,4.849,0c1.345-.776,1.352-2.033.018-2.809A5.345,5.345,0,0,0,98.612,270.155Z" transform="translate(-97.6 -269.573)" fill="#dadada"/>
        </g>
      </g>
    </g>
    <g id="Grupo_1007052" data-name="Grupo 1007052" transform="translate(215.327 272.593)">
      <g id="Grupo_1007048" data-name="Grupo 1007048" transform="translate(18.384 10.191)">
        <g id="Grupo_1007047" data-name="Grupo 1007047" style="isolation: isolate">
          <g id="Grupo_1007045" data-name="Grupo 1007045" transform="translate(0 3.893)">
            <path id="Trazado_720788" data-name="Trazado 720788" d="M93.716,258.974l.005,1.607a3.355,3.355,0,0,0,1.96,2.747,10.521,10.521,0,0,0,9.553,0,3.38,3.38,0,0,0,1.994-2.785l0-1.607a3.387,3.387,0,0,1-2,2.785,10.523,10.523,0,0,1-9.55,0A3.353,3.353,0,0,1,93.716,258.974Z" transform="translate(-93.716 -258.935)" fill="#3c3c3b"/>
          </g>
          <g id="Grupo_1007046" data-name="Grupo 1007046">
            <path id="Trazado_720789" data-name="Trazado 720789" d="M95.71,258.582c-2.645,1.526-2.661,4-.031,5.532a10.523,10.523,0,0,0,9.55,0c2.648-1.529,2.661-4.005.031-5.532A10.515,10.515,0,0,0,95.71,258.582Z" transform="translate(-93.716 -257.435)" fill="#fff"/>
          </g>
        </g>
      </g>
      <g id="Grupo_1007051" data-name="Grupo 1007051" transform="translate(0)">
        <path id="Trazado_720790" data-name="Trazado 720790" d="M86.634,279.729h6.861v-5.08a12.651,12.651,0,0,1,5.54-9.6l7.2-4.156c1.067-.615,1.633-.545,1.7-.509s.41.5.41,1.729v5.078H115.2v-5.078c0-3.466-1.4-6.259-3.839-7.668s-5.563-1.225-8.561.509l-7.2,4.153a19.563,19.563,0,0,0-8.971,15.539Z" transform="translate(-86.634 -253.509)" fill="#dadada"/>
        <g id="Grupo_1007049" data-name="Grupo 1007049" transform="translate(21.71 11.684)">
          <path id="Trazado_720791" data-name="Trazado 720791" d="M96.009,258.593c-1.342.774-1.35,2.033-.016,2.809a5.346,5.346,0,0,0,4.852,0c1.345-.776,1.35-2.033.016-2.809A5.338,5.338,0,0,0,96.009,258.593Z" transform="translate(-94.997 -258.01)" fill="#dadada"/>
        </g>
        <g id="Grupo_1007050" data-name="Grupo 1007050" transform="translate(0 24.232)">
          <path id="Trazado_720792" data-name="Trazado 720792" d="M87.646,263.425c-1.345.776-1.35,2.035-.016,2.811a5.348,5.348,0,0,0,4.849,0c1.345-.776,1.352-2.035.016-2.811A5.348,5.348,0,0,0,87.646,263.425Z" transform="translate(-86.634 -262.844)" fill="#dadada"/>
        </g>
      </g>
    </g>
    <g id="Grupo_1007056" data-name="Grupo 1007056" transform="translate(72.995 368.337)">
      <g id="Grupo_1007055" data-name="Grupo 1007055" style="isolation: isolate">
        <g id="Grupo_1007053" data-name="Grupo 1007053" transform="translate(0 5.28)">
          <path id="Trazado_720793" data-name="Trazado 720793" d="M31.8,292.48l.005,2.181c.005,1.35.89,2.7,2.663,3.725a14.274,14.274,0,0,0,12.956,0c1.807-1.044,2.71-2.412,2.7-3.777l-.005-2.183c0,1.368-.9,2.736-2.708,3.78a14.274,14.274,0,0,1-12.956,0C32.694,295.178,31.809,293.83,31.8,292.48Z" transform="translate(-31.804 -292.426)" fill="#3c3c3b"/>
        </g>
        <g id="Grupo_1007054" data-name="Grupo 1007054">
          <path id="Trazado_720794" data-name="Trazado 720794" d="M34.509,291.947c-3.59,2.072-3.608,5.433-.044,7.5a14.274,14.274,0,0,0,12.956,0c3.593-2.074,3.611-5.431.044-7.5A14.274,14.274,0,0,0,34.509,291.947Z" transform="translate(-31.804 -290.392)" fill="#fff"/>
        </g>
      </g>
    </g>
    <g id="Grupo_1007060" data-name="Grupo 1007060" transform="translate(77.509 337.592)">
      <g id="Grupo_1007059" data-name="Grupo 1007059">
        <path id="Trazado_720795" data-name="Trazado 720795" d="M33.543,314.113h9.306v-6.889c0-4.623,3.512-10.705,7.515-13.018l9.766-5.636c1.446-.836,2.214-.742,2.308-.69s.556.672.556,2.344v6.887H72.3v-6.887c0-4.7-1.9-8.491-5.21-10.4s-7.544-1.661-11.611.688l-9.766,5.638c-6.825,3.938-12.17,13.2-12.17,21.076Z" transform="translate(-33.543 -278.549)" fill="#575756"/>
        <g id="Grupo_1007057" data-name="Grupo 1007057" transform="translate(29.45 15.848)">
          <path id="Trazado_720796" data-name="Trazado 720796" d="M46.261,285.443c-1.822,1.051-1.833,2.759-.021,3.811a7.246,7.246,0,0,0,6.578,0c1.825-1.051,1.835-2.757.023-3.811A7.251,7.251,0,0,0,46.261,285.443Z" transform="translate(-44.888 -284.654)" fill="#575756"/>
        </g>
        <g id="Grupo_1007058" data-name="Grupo 1007058" transform="translate(0.001 32.869)">
          <path id="Trazado_720797" data-name="Trazado 720797" d="M34.916,292c-1.822,1.051-1.83,2.757-.021,3.811a7.259,7.259,0,0,0,6.581,0c1.822-1.054,1.833-2.759.021-3.811A7.243,7.243,0,0,0,34.916,292Z" transform="translate(-33.543 -291.211)" fill="#575756"/>
        </g>
      </g>
    </g>
    <g id="Grupo_1007080" data-name="Grupo 1007080" transform="translate(98.515 241.551)">
      <g id="Grupo_1007079" data-name="Grupo 1007079">
        <g id="Grupo_1007078" data-name="Grupo 1007078">
          <g id="Grupo_1007068" data-name="Grupo 1007068" transform="translate(16.847 28.475)">
            <g id="Grupo_1007064" data-name="Grupo 1007064">
              <g id="Grupo_1007063" data-name="Grupo 1007063" style="isolation: isolate">
                <g id="Grupo_1007061" data-name="Grupo 1007061" transform="translate(0 2.576)">
                  <path id="Trazado_720798" data-name="Trazado 720798" d="M48.125,253.539l.005,1.064a2.214,2.214,0,0,0,1.3,1.817,6.957,6.957,0,0,0,6.321,0,2.234,2.234,0,0,0,1.321-1.843l0-1.064a2.24,2.24,0,0,1-1.321,1.843,6.957,6.957,0,0,1-6.321,0A2.223,2.223,0,0,1,48.125,253.539Z" transform="translate(-48.125 -253.513)" fill="#575756"/>
                </g>
                <g id="Grupo_1007062" data-name="Grupo 1007062" transform="translate(0.002)">
                  <path id="Trazado_720799" data-name="Trazado 720799" d="M49.445,253.28c-1.752,1.01-1.76,2.65-.021,3.66a6.957,6.957,0,0,0,6.321,0c1.752-1.01,1.763-2.65.021-3.66A6.957,6.957,0,0,0,49.445,253.28Z" transform="translate(-48.126 -252.521)" fill="#dadada"/>
                </g>
              </g>
            </g>
            <g id="Grupo_1007067" data-name="Grupo 1007067" transform="translate(1.367 1.018)">
              <g id="Grupo_1007065" data-name="Grupo 1007065">
                <path id="Trazado_720800" data-name="Trazado 720800" d="M49.572,253.376c-1.22.613-1.228,1.612-.016,2.227a5.488,5.488,0,0,0,4.405,0c1.22-.615,1.228-1.612.016-2.227A5.467,5.467,0,0,0,49.572,253.376Z" transform="translate(-48.652 -252.913)" fill="#575756"/>
              </g>
              <g id="Grupo_1007066" data-name="Grupo 1007066">
                <path id="Trazado_720801" data-name="Trazado 720801" d="M49.572,253.376c-1.22.613-1.228,1.612-.016,2.227a5.488,5.488,0,0,0,4.405,0c1.22-.615,1.228-1.612.016-2.227A5.467,5.467,0,0,0,49.572,253.376Z" transform="translate(-48.652 -252.913)" fill="#575756"/>
              </g>
            </g>
          </g>
          <g id="Grupo_1007076" data-name="Grupo 1007076">
            <g id="Grupo_1007072" data-name="Grupo 1007072">
              <g id="Grupo_1007071" data-name="Grupo 1007071" style="isolation: isolate">
                <g id="Grupo_1007069" data-name="Grupo 1007069">
                  <path id="Trazado_720802" data-name="Trazado 720802" d="M54.529,246.008l-7.51-4.247a2.22,2.22,0,0,0-2.225.215,6.969,6.969,0,0,0-3.159,5.475,2.244,2.244,0,0,0,.935,2.066l7.51,4.247a2.237,2.237,0,0,1-.937-2.066,6.969,6.969,0,0,1,3.162-5.475A2.22,2.22,0,0,1,54.529,246.008Z" transform="translate(-41.635 -241.551)" fill="#706f6f"/>
                </g>
                <g id="Grupo_1007070" data-name="Grupo 1007070" transform="translate(7.507 4.247)">
                  <path id="Trazado_720803" data-name="Trazado 720803" d="M50.851,245.46c0-2.022-1.417-2.848-3.162-1.848a6.969,6.969,0,0,0-3.162,5.475c0,2.025,1.415,2.85,3.162,1.851A6.973,6.973,0,0,0,50.851,245.46Z" transform="translate(-44.527 -243.188)" fill="#dadada"/>
                </g>
              </g>
            </g>
            <g id="Grupo_1007075" data-name="Grupo 1007075" transform="translate(8.593 5.526)">
              <g id="Grupo_1007073" data-name="Grupo 1007073">
                <path id="Trazado_720804" data-name="Trazado 720804" d="M49.075,245.149c.078-1.363-.784-1.869-1.924-1.127a5.482,5.482,0,0,0-2.2,3.816c-.078,1.365.784,1.869,1.924,1.127A5.5,5.5,0,0,0,49.075,245.149Z" transform="translate(-44.945 -243.68)" fill="#a62338"/>
              </g>
              <g id="Grupo_1007074" data-name="Grupo 1007074">
                <path id="Trazado_720805" data-name="Trazado 720805" d="M49.075,245.149c.078-1.363-.784-1.869-1.924-1.127a5.482,5.482,0,0,0-2.2,3.816c-.078,1.365.784,1.869,1.924,1.127A5.5,5.5,0,0,0,49.075,245.149Z" transform="translate(-44.945 -243.68)" fill="#575756"/>
              </g>
            </g>
          </g>
          <path id="Trazado_720806" data-name="Trazado 720806" d="M54.259,269.155h6.23v-8.592a18.569,18.569,0,0,0-8.517-14.753l-3.72-2.087-3.115,5.394,3.72,2.087a12.325,12.325,0,0,1,5.4,9.358Z" transform="translate(-36.046 -238.085)" fill="#575756"/>
          <g id="Grupo_1007077" data-name="Grupo 1007077" transform="translate(18.213 25.631)">
            <path id="Trazado_720807" data-name="Trazado 720807" d="M48.651,251.425a1.548,1.548,0,0,0,.906,1.277,4.861,4.861,0,0,0,4.405,0,1.566,1.566,0,0,0,.919-1.277V253.3a1.562,1.562,0,0,1-.919,1.275,4.853,4.853,0,0,1-4.405,0,1.541,1.541,0,0,1-.906-1.275Z" transform="translate(-48.651 -251.425)" fill="#7befff"/>
          </g>
        </g>
      </g>
    </g>
  </g>
</svg>
