<svg xmlns="http://www.w3.org/2000/svg" width="820" height="1002" viewBox="0 0 820 1002">
  <g id="Grupo_1007184" data-name="Grupo 1007184" transform="translate(-390 -7038)">
    <path id="Trazado_720923" data-name="Trazado 720923" d="M0,0H820V1002H0Z" transform="translate(390 7038)" fill="#f6f6f6"/>
    <path id="Trazado_720924" data-name="Trazado 720924" d="M9.945-3.789A4.025,4.025,0,0,1,8.59-.9,4.76,4.76,0,0,1,5.367.156,4.28,4.28,0,0,1,1.926-1.316,6.038,6.038,0,0,1,.672-5.359v-.7A6.819,6.819,0,0,1,1.25-8.945,4.332,4.332,0,0,1,2.9-10.863a4.629,4.629,0,0,1,2.5-.668A4.637,4.637,0,0,1,8.57-10.477,4.326,4.326,0,0,1,9.961-7.516H7.617A2.376,2.376,0,0,0,7-9.113a2.271,2.271,0,0,0-1.605-.5,1.991,1.991,0,0,0-1.754.84,4.707,4.707,0,0,0-.6,2.605V-5.3a5.038,5.038,0,0,0,.559,2.7,1.954,1.954,0,0,0,1.762.852,2.314,2.314,0,0,0,1.621-.5A2.241,2.241,0,0,0,7.6-3.789ZM10.984-4.3a5.013,5.013,0,0,1,.484-2.242A3.546,3.546,0,0,1,12.863-8.07a4.069,4.069,0,0,1,2.113-.539A3.849,3.849,0,0,1,17.77-7.562a4.2,4.2,0,0,1,1.207,2.844l.016.578A4.418,4.418,0,0,1,17.906-1.02,3.775,3.775,0,0,1,14.992.156a3.793,3.793,0,0,1-2.918-1.172A4.5,4.5,0,0,1,10.984-4.2Zm2.258.16A3.16,3.16,0,0,0,13.7-2.3a1.5,1.5,0,0,0,1.3.638,1.5,1.5,0,0,0,1.281-.63,3.457,3.457,0,0,0,.461-2.015,3.128,3.128,0,0,0-.461-1.831,1.5,1.5,0,0,0-1.3-.649,1.474,1.474,0,0,0-1.281.646A3.516,3.516,0,0,0,13.242-4.144ZM25.133-6.336A6.134,6.134,0,0,0,24.32-6.4a1.654,1.654,0,0,0-1.68.867V0H20.383V-8.453h2.133l.063,1.008a2.092,2.092,0,0,1,1.883-1.164,2.366,2.366,0,0,1,.7.1Zm4.18-4.2v2.078h1.445V-6.8H29.313v4.219a1.007,1.007,0,0,0,.18.672.9.9,0,0,0,.688.2,3.6,3.6,0,0,0,.664-.055V-.047a4.648,4.648,0,0,1-1.367.2,2.156,2.156,0,0,1-2.422-2.4V-6.8H25.82V-8.453h1.234v-2.078ZM35.906.156A4.15,4.15,0,0,1,32.879-.984a4.054,4.054,0,0,1-1.168-3.039v-.219A5.106,5.106,0,0,1,32.2-6.52,3.612,3.612,0,0,1,33.6-8.066a3.914,3.914,0,0,1,2.059-.543,3.508,3.508,0,0,1,2.73,1.094,4.444,4.444,0,0,1,1,3.1v.922H34a2.1,2.1,0,0,0,.66,1.328,2,2,0,0,0,1.395.5,2.437,2.437,0,0,0,2.039-.945L39.2-1.367A3.389,3.389,0,0,1,37.828-.246,4.511,4.511,0,0,1,35.906.156Zm-.258-6.945a1.411,1.411,0,0,0-1.09.455,2.357,2.357,0,0,0-.535,1.3h3.141v-.181a1.681,1.681,0,0,0-.406-1.165A1.456,1.456,0,0,0,35.648-6.789Zm15.57,4.445H47.109L46.328,0H43.836L48.07-11.375h2.172L54.5,0H52.008Zm-3.477-1.9h2.844L49.156-8.5ZM59.8-3.961h-4.4v-1.82h4.4Zm8.383,1.617H64.078L63.3,0H60.8l4.234-11.375h2.172L71.469,0H68.977Zm-3.477-1.9h2.844L66.125-8.5Z" transform="translate(768 7455.676)"/>
    <path id="Trazado_720847" data-name="Trazado 720847" d="M300.5,183.5v28h-16v100h40L374,361h40.5l53.25-53.25L589,429h33.5L743.75,307.75H783.5V258.5h77v-15l-7-3,3-10v-12l-5-13-1-11,4-5v-6Z" transform="translate(262.613 6986.5)" fill="#f3f9ff" stroke="#12263f" stroke-miterlimit="10" stroke-width="1"/>
    <path id="Trazado_720925" data-name="Trazado 720925" d="M0,0H103V23H0Z" transform="translate(485.113 7200)" fill="#fff" stroke="#12263f" stroke-width="1"/>
    <path id="Trazado_720848" data-name="Trazado 720848" d="M744.5,196.5h-426v90h7l57,57h24l61-61,127,127h23l126-126Z" transform="translate(262.613 6986.5)" fill="#fff" stroke="#12263f" stroke-miterlimit="10" stroke-width="1"/>
    <path id="Trazado_720926" data-name="Trazado 720926" d="M0,0H24V44H0Z" transform="translate(645.113 7286)" fill="none" stroke="#12263f" stroke-width="0.91"/>
    <path id="Trazado_720927" data-name="Trazado 720927" d="M0,0H24V51H0Z" transform="translate(856.113 7345)" fill="none" stroke="#12263f" stroke-width="0.979"/>
    <path id="Trazado_720928" data-name="Trazado 720928" d="M0,0H422" transform="translate(581.113 7273)" fill="none" stroke="#12263f" stroke-width="0.979" stroke-dasharray="10"/>
    <path id="Trazado_720929" data-name="Trazado 720929" d="M0,0H367" transform="translate(612.113 7297)" fill="none" stroke="#12263f" stroke-width="3" stroke-dasharray="10"/>
    <path id="Trazado_720930" data-name="Trazado 720930" d="M0,0V111" transform="translate(588.113 7115)" fill="none" stroke="#12263f" stroke-width="5"/>
    <path id="Trazado_720931" data-name="Trazado 720931" d="M0,0H24" transform="translate(576.113 7114)" fill="none" stroke="#12263f" stroke-width="5"/>
    <path id="Trazado_720932" data-name="Trazado 720932" d="M0,0V111" transform="translate(653.113 7115)" fill="none" stroke="#12263f" stroke-width="5"/>
    <path id="Trazado_720933" data-name="Trazado 720933" d="M0,0H24" transform="translate(641.113 7114)" fill="none" stroke="#12263f" stroke-width="5"/>
    <path id="Trazado_720934" data-name="Trazado 720934" d="M0,0V111" transform="translate(868.113 7115)" fill="none" stroke="#12263f" stroke-width="5"/>
    <path id="Trazado_720935" data-name="Trazado 720935" d="M0,0H24" transform="translate(856.113 7114)" fill="none" stroke="#12263f" stroke-width="5"/>
    <path id="Trazado_720936" data-name="Trazado 720936" d="M0,0V111" transform="translate(1030.113 7115)" fill="none" stroke="#12263f" stroke-width="5"/>
    <path id="Trazado_720937" data-name="Trazado 720937" d="M0,0H24" transform="translate(1018.113 7114)" fill="none" stroke="#12263f" stroke-width="5"/>
    <path id="Trazado_720938" data-name="Trazado 720938" d="M0,0H23" transform="translate(1007.113 7205)" fill="none" stroke="#12263f" stroke-width="1"/>
    <path id="Trazado_720939" data-name="Trazado 720939" d="M0,0H18" transform="translate(563.113 7184)" fill="none" stroke="#12263f" stroke-width="1"/>
    <path id="Trazado_720940" data-name="Trazado 720940" d="M0,0V13" transform="translate(574.113 7170)" fill="none" stroke="#12263f" stroke-width="1"/>
    <path id="Trazado_720941" data-name="Trazado 720941" d="M0,0V14" transform="translate(581.113 7170)" fill="none" stroke="#12263f" stroke-width="1"/>
    <path id="Trazado_720942" data-name="Trazado 720942" d="M0,0V63" transform="translate(657.113 7260)" fill="none" stroke="#12263f" stroke-width="1"/>
    <path id="Trazado_720943" data-name="Trazado 720943" d="M0,0V111.5" transform="translate(868.113 7272.5)" fill="none" stroke="#12263f" stroke-width="1"/>
    <path id="Trazado_720944" data-name="Trazado 720944" d="M0,0H24" transform="translate(856.113 7375)" fill="none" stroke="#12263f" stroke-width="1"/>
    <path id="Trazado_720945" data-name="Trazado 720945" d="M0,0H117" transform="translate(1006.113 7232)" fill="none" stroke="#12263f" stroke-width="1"/>
    <path id="Trazado_720849" data-name="Trazado 720849" d="M579.353,184v12.5H568.765l-93.632,93.632L467.5,282.5l99.176-99.176Z" transform="translate(262.613 6986.5)" fill="#d2e1f1" stroke="#12263f" stroke-miterlimit="10" stroke-width="1"/>
    <path id="Trazado_720850" data-name="Trazado 720850" d="M413.178,324.16C429.7,309.447,515.927,228.483,481.5,170.5" transform="translate(262.613 6986.5)" fill="none" stroke="#ffa031" stroke-miterlimit="10" stroke-width="1"/>
    <g id="Grupo_1007109" data-name="Grupo 1007109" transform="translate(262.613 6986.5)">
      <path id="Trazado_720851" data-name="Trazado 720851" d="M413.468,323.874a7.377,7.377,0,0,0-1.825-4.453A13.636,13.636,0,0,1,410.5,326.5a14.39,14.39,0,0,1,7.166-.272A7.638,7.638,0,0,0,413.468,323.874Z" fill="#fbb03b" stroke="#ffa031" stroke-width="1"/>
    </g>
    <path id="Trazado_720852" data-name="Trazado 720852" d="M394.5,349.5v57h31" transform="translate(262.613 6986.5)" fill="none" stroke="#ffa031" stroke-miterlimit="10" stroke-width="1"/>
    <path id="Trazado_720946" data-name="Trazado 720946" d="M55,0,0,21" transform="translate(794.113 7375)" fill="none" stroke="#ffa031" stroke-width="1"/>
    <path id="Trazado_720947" data-name="Trazado 720947" d="M6.781,8.4H2.468v3.527H7.479V13H1.155V3.047H7.41V4.12H2.468V7.326H6.781ZM10.288,13H9.023V2.5h1.265Zm9.064-6.262a3.79,3.79,0,0,0-.622-.048,1.667,1.667,0,0,0-1.688,1.06V13H15.777V5.6h1.23l.021.854a1.969,1.969,0,0,1,1.764-.991,1.292,1.292,0,0,1,.561.1ZM24.808,13a2.657,2.657,0,0,1-.178-.779,2.822,2.822,0,0,1-2.105.916,2.611,2.611,0,0,1-1.794-.619,2,2,0,0,1-.7-1.569,2.091,2.091,0,0,1,.878-1.794,4.142,4.142,0,0,1,2.471-.639h1.23V7.935a1.42,1.42,0,0,0-.4-1.056,1.593,1.593,0,0,0-1.169-.393,1.844,1.844,0,0,0-1.135.342,1.007,1.007,0,0,0-.458.827H20.18a1.745,1.745,0,0,1,.393-1.07,2.683,2.683,0,0,1,1.066-.817,3.588,3.588,0,0,1,1.48-.3,2.924,2.924,0,0,1,2,.639,2.306,2.306,0,0,1,.752,1.76v3.4a4.162,4.162,0,0,0,.26,1.62V13Zm-2.1-.964a2.223,2.223,0,0,0,1.128-.308,1.861,1.861,0,0,0,.772-.8V9.411h-.991q-2.324,0-2.324,1.36a1.151,1.151,0,0,0,.4.93A1.524,1.524,0,0,0,22.709,12.036Zm9.454-1a.931.931,0,0,0-.386-.8,3.718,3.718,0,0,0-1.347-.489,6.367,6.367,0,0,1-1.524-.492,2.169,2.169,0,0,1-.834-.684,1.635,1.635,0,0,1-.27-.943A1.919,1.919,0,0,1,28.571,6.1a3,3,0,0,1,1.965-.629,3.091,3.091,0,0,1,2.041.649,2.063,2.063,0,0,1,.783,1.661H32.088a1.142,1.142,0,0,0-.441-.9,1.652,1.652,0,0,0-1.111-.376,1.729,1.729,0,0,0-1.08.3.947.947,0,0,0-.39.786.767.767,0,0,0,.362.69,4.458,4.458,0,0,0,1.309.444,6.821,6.821,0,0,1,1.535.506,2.239,2.239,0,0,1,.872.708,1.74,1.74,0,0,1,.284,1.008,1.893,1.893,0,0,1-.793,1.589,3.326,3.326,0,0,1-2.058.6A3.725,3.725,0,0,1,29,12.822a2.557,2.557,0,0,1-1.07-.878,2.117,2.117,0,0,1-.386-1.22h1.265a1.309,1.309,0,0,0,.509,1.008,1.976,1.976,0,0,0,1.254.373,2.039,2.039,0,0,0,1.152-.291A.893.893,0,0,0,32.163,11.038Zm4.628-7.226V5.6h1.381v.978H36.791v4.593a1.027,1.027,0,0,0,.185.667.777.777,0,0,0,.629.222,3.062,3.062,0,0,0,.6-.082V13a3.688,3.688,0,0,1-.971.136,1.575,1.575,0,0,1-1.278-.513,2.2,2.2,0,0,1-.431-1.456V6.581H34.18V5.6h1.347V3.813Zm6.433,2.926A3.79,3.79,0,0,0,42.6,6.69a1.667,1.667,0,0,0-1.688,1.06V13H39.648V5.6h1.23l.021.854a1.969,1.969,0,0,1,1.764-.991,1.292,1.292,0,0,1,.561.1ZM45.76,13H44.5V5.6H45.76ZM44.393,3.642a.755.755,0,0,1,.188-.52.706.706,0,0,1,.557-.212.717.717,0,0,1,.561.212.747.747,0,0,1,.191.52.722.722,0,0,1-.191.513.73.73,0,0,1-.561.205.718.718,0,0,1-.557-.205A.73.73,0,0,1,44.393,3.642ZM49.157,13H47.893V2.5h1.265Zm3.4,0H51.29V2.5h1.265Zm1.688-3.767a4.369,4.369,0,0,1,.427-1.955,3.187,3.187,0,0,1,1.189-1.34,3.238,3.238,0,0,1,1.74-.472,3.119,3.119,0,0,1,2.444,1.046,4.024,4.024,0,0,1,.933,2.782v.089a4.407,4.407,0,0,1-.414,1.938,3.14,3.14,0,0,1-1.183,1.336,3.275,3.275,0,0,1-1.767.479,3.111,3.111,0,0,1-2.437-1.046,4,4,0,0,1-.933-2.769Zm1.271.15a3.164,3.164,0,0,0,.571,1.976,1.934,1.934,0,0,0,3.059-.01,3.46,3.46,0,0,0,.567-2.116,3.159,3.159,0,0,0-.578-1.972A1.836,1.836,0,0,0,57.6,6.506a1.816,1.816,0,0,0-1.511.745A3.435,3.435,0,0,0,55.515,9.384Zm16.762,0A4.429,4.429,0,0,1,71.5,12.1a2.476,2.476,0,0,1-2.092,1.032,2.713,2.713,0,0,1-2.119-.854v3.562H66.028V5.6h1.155l.062.82a2.605,2.605,0,0,1,2.146-.957,2.522,2.522,0,0,1,2.109,1,4.477,4.477,0,0,1,.776,2.8ZM71.012,9.24a3.268,3.268,0,0,0-.533-1.976,1.718,1.718,0,0,0-1.463-.725,1.859,1.859,0,0,0-1.723,1.019v3.534A1.863,1.863,0,0,0,69.029,12.1a1.71,1.71,0,0,0,1.446-.721A3.567,3.567,0,0,0,71.012,9.24Zm7.438,3.028a2.686,2.686,0,0,1-2.167.868,2.3,2.3,0,0,1-1.8-.687,2.974,2.974,0,0,1-.625-2.034V5.6H75.12v4.778q0,1.682,1.367,1.682a1.893,1.893,0,0,0,1.928-1.08V5.6H79.68V13h-1.2Zm6.221.868a3.232,3.232,0,0,1-2.447-.988,3.666,3.666,0,0,1-.943-2.642V9.274a4.438,4.438,0,0,1,.42-1.965,3.28,3.28,0,0,1,1.176-1.354,2.956,2.956,0,0,1,1.637-.489,2.77,2.77,0,0,1,2.242.95,4.114,4.114,0,0,1,.8,2.721v.526H82.544a2.629,2.629,0,0,0,.639,1.767,2.009,2.009,0,0,0,1.555.673,2.2,2.2,0,0,0,1.135-.273,2.851,2.851,0,0,0,.813-.725l.772.6A3.106,3.106,0,0,1,84.67,13.137Zm-.157-6.631a1.687,1.687,0,0,0-1.285.557,2.708,2.708,0,0,0-.643,1.562H86.29v-.1a2.409,2.409,0,0,0-.52-1.494A1.588,1.588,0,0,0,84.513,6.506Zm4.2,2.734A4.333,4.333,0,0,1,89.517,6.5a2.745,2.745,0,0,1,4.17-.147V2.5h1.265V13H93.789l-.062-.793a2.575,2.575,0,0,1-2.112.93,2.526,2.526,0,0,1-2.1-1.053,4.382,4.382,0,0,1-.81-2.748Zm1.265.144a3.281,3.281,0,0,0,.52,1.969,1.68,1.68,0,0,0,1.436.711,1.845,1.845,0,0,0,1.757-1.08v-3.4A1.859,1.859,0,0,0,91.943,6.54a1.687,1.687,0,0,0-1.449.718A3.612,3.612,0,0,0,89.975,9.384Zm10.008,3.753a3.232,3.232,0,0,1-2.447-.988,3.666,3.666,0,0,1-.943-2.642V9.274a4.438,4.438,0,0,1,.42-1.965,3.28,3.28,0,0,1,1.176-1.354,2.956,2.956,0,0,1,1.637-.489,2.77,2.77,0,0,1,2.242.95,4.114,4.114,0,0,1,.8,2.721v.526H97.856a2.629,2.629,0,0,0,.639,1.767,2.009,2.009,0,0,0,1.555.673,2.2,2.2,0,0,0,1.135-.273,2.851,2.851,0,0,0,.813-.725l.772.6A3.106,3.106,0,0,1,99.982,13.137Zm-.157-6.631a1.687,1.687,0,0,0-1.285.557A2.708,2.708,0,0,0,97.9,8.625H101.6v-.1a2.409,2.409,0,0,0-.52-1.494A1.588,1.588,0,0,0,99.825,6.506ZM112.362,13a2.657,2.657,0,0,1-.178-.779,2.822,2.822,0,0,1-2.105.916,2.611,2.611,0,0,1-1.794-.619,2,2,0,0,1-.7-1.569,2.091,2.091,0,0,1,.878-1.794,4.141,4.141,0,0,1,2.471-.639h1.23V7.935a1.42,1.42,0,0,0-.4-1.056,1.593,1.593,0,0,0-1.169-.393,1.844,1.844,0,0,0-1.135.342,1.007,1.007,0,0,0-.458.827h-1.271a1.745,1.745,0,0,1,.393-1.07,2.683,2.683,0,0,1,1.066-.817,3.588,3.588,0,0,1,1.48-.3,2.924,2.924,0,0,1,2,.639,2.306,2.306,0,0,1,.752,1.76v3.4a4.162,4.162,0,0,0,.26,1.62V13Zm-2.1-.964a2.223,2.223,0,0,0,1.128-.308,1.861,1.861,0,0,0,.772-.8V9.411h-.991q-2.324,0-2.324,1.36a1.151,1.151,0,0,0,.4.93A1.524,1.524,0,0,0,110.264,12.036Zm6.521.964h-1.265V2.5h1.265Zm4.99-.9a1.822,1.822,0,0,0,1.183-.41,1.443,1.443,0,0,0,.561-1.025h1.2a2.293,2.293,0,0,1-.437,1.21,2.882,2.882,0,0,1-1.077.916,3.107,3.107,0,0,1-1.425.342,3.047,3.047,0,0,1-2.4-1.008,4.016,4.016,0,0,1-.892-2.758V9.158a4.453,4.453,0,0,1,.4-1.921,3.02,3.02,0,0,1,1.138-1.306,3.233,3.233,0,0,1,1.753-.465,2.966,2.966,0,0,1,2.068.745,2.663,2.663,0,0,1,.878,1.935h-1.2a1.743,1.743,0,0,0-.543-1.179,1.691,1.691,0,0,0-1.207-.461,1.77,1.77,0,0,0-1.494.694,3.259,3.259,0,0,0-.53,2.006v.239a3.194,3.194,0,0,0,.526,1.969A1.779,1.779,0,0,0,121.775,12.1Zm8.928.9a2.657,2.657,0,0,1-.178-.779,2.822,2.822,0,0,1-2.105.916,2.611,2.611,0,0,1-1.794-.619,2,2,0,0,1-.7-1.569,2.091,2.091,0,0,1,.878-1.794,4.142,4.142,0,0,1,2.471-.639h1.23V7.935a1.42,1.42,0,0,0-.4-1.056,1.593,1.593,0,0,0-1.169-.393,1.844,1.844,0,0,0-1.135.342,1.007,1.007,0,0,0-.458.827h-1.271a1.745,1.745,0,0,1,.393-1.07,2.683,2.683,0,0,1,1.066-.817,3.588,3.588,0,0,1,1.48-.3,2.924,2.924,0,0,1,2,.639,2.306,2.306,0,0,1,.752,1.76v3.4a4.162,4.162,0,0,0,.26,1.62V13Zm-2.1-.964a2.223,2.223,0,0,0,1.128-.308,1.861,1.861,0,0,0,.772-.8V9.411h-.991q-2.324,0-2.324,1.36a1.151,1.151,0,0,0,.4.93A1.524,1.524,0,0,0,128.6,12.036ZM134.948,5.6l.041.93A2.7,2.7,0,0,1,137.2,5.467q2.345,0,2.365,2.646V13H138.3V8.105a1.7,1.7,0,0,0-.366-1.183,1.466,1.466,0,0,0-1.118-.383,1.825,1.825,0,0,0-1.08.328,2.228,2.228,0,0,0-.725.861V13h-1.265V5.6Zm7.718,6.364h4.327V13h-5.872v-.93L145.2,6.649h-4.02V5.6h5.605v.9ZM152.981,13a2.657,2.657,0,0,1-.178-.779,2.822,2.822,0,0,1-2.105.916,2.611,2.611,0,0,1-1.794-.619,2,2,0,0,1-.7-1.569,2.091,2.091,0,0,1,.878-1.794,4.142,4.142,0,0,1,2.471-.639h1.23V7.935a1.42,1.42,0,0,0-.4-1.056,1.593,1.593,0,0,0-1.169-.393,1.844,1.844,0,0,0-1.135.342,1.007,1.007,0,0,0-.458.827h-1.271a1.745,1.745,0,0,1,.393-1.07,2.683,2.683,0,0,1,1.066-.817,3.588,3.588,0,0,1,1.48-.3,2.924,2.924,0,0,1,2,.639,2.306,2.306,0,0,1,.752,1.76v3.4a4.162,4.162,0,0,0,.26,1.62V13Zm-2.1-.964a2.223,2.223,0,0,0,1.128-.308,1.861,1.861,0,0,0,.772-.8V9.411h-.991q-2.324,0-2.324,1.36a1.151,1.151,0,0,0,.4.93A1.524,1.524,0,0,0,150.883,12.036Zm8.723-5.3a3.79,3.79,0,0,0-.622-.048,1.667,1.667,0,0,0-1.688,1.06V13H156.03V5.6h1.23l.021.854a1.969,1.969,0,0,1,1.764-.991,1.292,1.292,0,0,1,.561.1ZM4.026,31.137a3.232,3.232,0,0,1-2.447-.988,3.666,3.666,0,0,1-.943-2.642v-.232a4.438,4.438,0,0,1,.42-1.965,3.28,3.28,0,0,1,1.176-1.354,2.956,2.956,0,0,1,1.637-.489,2.77,2.77,0,0,1,2.242.95,4.114,4.114,0,0,1,.8,2.721v.526H1.9a2.629,2.629,0,0,0,.639,1.767,2.009,2.009,0,0,0,1.555.673,2.2,2.2,0,0,0,1.135-.273,2.851,2.851,0,0,0,.813-.725l.772.6A3.106,3.106,0,0,1,4.026,31.137Zm-.157-6.631a1.687,1.687,0,0,0-1.285.557,2.708,2.708,0,0,0-.643,1.562H5.646v-.1a2.409,2.409,0,0,0-.52-1.494A1.588,1.588,0,0,0,3.869,24.506ZM9.748,31H8.483V20.5H9.748Zm6.111,0V24.581H14.69V23.6h1.169v-.759a2.519,2.519,0,0,1,.636-1.839,2.4,2.4,0,0,1,1.8-.649,3.339,3.339,0,0,1,.868.115l-.068,1.019a3.632,3.632,0,0,0-.684-.062,1.234,1.234,0,0,0-.95.36,1.46,1.46,0,0,0-.335,1.032V23.6H18.7v.978H17.124V31Zm3.9-3.767a4.369,4.369,0,0,1,.427-1.955,3.187,3.187,0,0,1,1.189-1.34,3.238,3.238,0,0,1,1.74-.472,3.119,3.119,0,0,1,2.444,1.046,4.024,4.024,0,0,1,.933,2.782v.089a4.407,4.407,0,0,1-.414,1.938A3.14,3.14,0,0,1,24.9,30.658a3.275,3.275,0,0,1-1.767.479A3.111,3.111,0,0,1,20.7,30.091a4,4,0,0,1-.933-2.769Zm1.271.15a3.164,3.164,0,0,0,.571,1.976,1.934,1.934,0,0,0,3.059-.01,3.46,3.46,0,0,0,.567-2.116,3.159,3.159,0,0,0-.578-1.972,1.836,1.836,0,0,0-1.535-.755,1.816,1.816,0,0,0-1.511.745A3.434,3.434,0,0,0,21.034,27.384Zm8.244-3.78.041.93a2.7,2.7,0,0,1,2.215-1.066q2.345,0,2.365,2.646V31H32.635V26.105a1.7,1.7,0,0,0-.366-1.183,1.466,1.466,0,0,0-1.118-.383,1.825,1.825,0,0,0-1.08.328,2.228,2.228,0,0,0-.725.861V31H28.082V23.6ZM35.5,27.24a4.333,4.333,0,0,1,.807-2.738,2.745,2.745,0,0,1,4.17-.147V20.5H41.74V31H40.578l-.062-.793a2.575,2.575,0,0,1-2.112.93,2.526,2.526,0,0,1-2.1-1.053,4.382,4.382,0,0,1-.81-2.748Zm1.265.144a3.281,3.281,0,0,0,.52,1.969,1.68,1.68,0,0,0,1.436.711,1.845,1.845,0,0,0,1.757-1.08v-3.4a1.859,1.859,0,0,0-1.743-1.046,1.687,1.687,0,0,0-1.449.718A3.612,3.612,0,0,0,36.764,27.384Zm6.6-.15a4.369,4.369,0,0,1,.427-1.955,3.187,3.187,0,0,1,1.189-1.34,3.238,3.238,0,0,1,1.74-.472,3.119,3.119,0,0,1,2.444,1.046,4.024,4.024,0,0,1,.933,2.782v.089a4.407,4.407,0,0,1-.414,1.938A3.14,3.14,0,0,1,48.5,30.658a3.275,3.275,0,0,1-1.767.479A3.111,3.111,0,0,1,44.3,30.091a4,4,0,0,1-.933-2.769Zm1.271.15a3.164,3.164,0,0,0,.571,1.976,1.934,1.934,0,0,0,3.059-.01,3.46,3.46,0,0,0,.567-2.116,3.159,3.159,0,0,0-.578-1.972,1.836,1.836,0,0,0-1.535-.755,1.816,1.816,0,0,0-1.511.745A3.434,3.434,0,0,0,44.639,27.384Zm10.206-.144a4.333,4.333,0,0,1,.807-2.738,2.745,2.745,0,0,1,4.17-.147V20.5h1.265V31H59.924l-.062-.793a2.575,2.575,0,0,1-2.112.93,2.526,2.526,0,0,1-2.1-1.053,4.382,4.382,0,0,1-.81-2.748Zm1.265.144a3.281,3.281,0,0,0,.52,1.969,1.68,1.68,0,0,0,1.436.711,1.845,1.845,0,0,0,1.757-1.08v-3.4a1.859,1.859,0,0,0-1.743-1.046,1.687,1.687,0,0,0-1.449.718A3.612,3.612,0,0,0,56.109,27.384Zm10.008,3.753a3.232,3.232,0,0,1-2.447-.988,3.666,3.666,0,0,1-.943-2.642v-.232a4.438,4.438,0,0,1,.42-1.965,3.279,3.279,0,0,1,1.176-1.354,2.956,2.956,0,0,1,1.637-.489,2.77,2.77,0,0,1,2.242.95,4.114,4.114,0,0,1,.8,2.721v.526H63.991a2.629,2.629,0,0,0,.639,1.767,2.009,2.009,0,0,0,1.555.673,2.2,2.2,0,0,0,1.135-.273,2.851,2.851,0,0,0,.813-.725l.772.6A3.106,3.106,0,0,1,66.117,31.137Zm-.157-6.631a1.687,1.687,0,0,0-1.285.557,2.708,2.708,0,0,0-.643,1.562h3.705v-.1a2.409,2.409,0,0,0-.52-1.494A1.588,1.588,0,0,0,65.96,24.506ZM71.839,31H70.574V20.5h1.265Zm7.205-9.187V23.6h1.381v.978H79.044v4.593a1.027,1.027,0,0,0,.185.667.777.777,0,0,0,.629.222,3.062,3.062,0,0,0,.6-.082V31a3.688,3.688,0,0,1-.971.136,1.575,1.575,0,0,1-1.278-.513,2.2,2.2,0,0,1-.431-1.456V24.581H76.433V23.6h1.347V21.813ZM86.468,31a2.657,2.657,0,0,1-.178-.779,2.822,2.822,0,0,1-2.105.916,2.611,2.611,0,0,1-1.794-.619,2,2,0,0,1-.7-1.569,2.091,2.091,0,0,1,.878-1.794,4.141,4.141,0,0,1,2.471-.639h1.23v-.581a1.42,1.42,0,0,0-.4-1.056,1.593,1.593,0,0,0-1.169-.393,1.844,1.844,0,0,0-1.135.342,1.007,1.007,0,0,0-.458.827H81.84a1.745,1.745,0,0,1,.393-1.07,2.683,2.683,0,0,1,1.066-.817,3.588,3.588,0,0,1,1.48-.3,2.924,2.924,0,0,1,2,.639,2.306,2.306,0,0,1,.752,1.76v3.4a4.162,4.162,0,0,0,.26,1.62V31Zm-2.1-.964a2.223,2.223,0,0,0,1.128-.308,1.861,1.861,0,0,0,.772-.8V27.411h-.991q-2.324,0-2.324,1.36a1.151,1.151,0,0,0,.4.93A1.524,1.524,0,0,0,84.369,30.036ZM90.713,23.6l.041.93a2.7,2.7,0,0,1,2.215-1.066q2.345,0,2.365,2.646V31H94.069V26.105a1.7,1.7,0,0,0-.366-1.183,1.466,1.466,0,0,0-1.118-.383,1.825,1.825,0,0,0-1.08.328,2.228,2.228,0,0,0-.725.861V31H89.517V23.6Zm6.221,3.637a4.341,4.341,0,0,1,.8-2.758,2.823,2.823,0,0,1,4.218-.133l.055-.745h1.162v10.24H101.9V30.316a2.654,2.654,0,0,1-2.037.82,2.551,2.551,0,0,1-2.136-1.042,4.438,4.438,0,0,1-.8-2.765Zm1.265.144a3.291,3.291,0,0,0,.537,2,1.707,1.707,0,0,0,1.446.725,1.894,1.894,0,0,0,1.723-1V25.483a1.9,1.9,0,0,0-1.709-.978,1.72,1.72,0,0,0-1.456.728A3.583,3.583,0,0,0,98.2,27.384Zm11.566,2.885a2.686,2.686,0,0,1-2.167.868,2.3,2.3,0,0,1-1.8-.687,2.974,2.974,0,0,1-.625-2.034V23.6h1.265v4.778q0,1.682,1.367,1.682a1.893,1.893,0,0,0,1.928-1.08V23.6H111V31h-1.2Zm6.221.868a3.232,3.232,0,0,1-2.447-.988,3.666,3.666,0,0,1-.943-2.642v-.232a4.438,4.438,0,0,1,.42-1.965,3.28,3.28,0,0,1,1.176-1.354,2.956,2.956,0,0,1,1.637-.489,2.77,2.77,0,0,1,2.242.95,4.114,4.114,0,0,1,.8,2.721v.526h-5.011a2.629,2.629,0,0,0,.639,1.767,2.009,2.009,0,0,0,1.555.673,2.2,2.2,0,0,0,1.135-.273,2.851,2.851,0,0,0,.813-.725l.772.6A3.106,3.106,0,0,1,115.985,31.137Zm-.157-6.631a1.687,1.687,0,0,0-1.285.557,2.708,2.708,0,0,0-.643,1.562h3.705v-.1a2.409,2.409,0,0,0-.52-1.494A1.588,1.588,0,0,0,115.828,24.506Z" transform="translate(675.73 7116.676)" fill="#12263f"/>
    <path id="Trazado_720948" data-name="Trazado 720948" d="M4.806-4.026H2.468V0H1.148V-9.953H4.443a3.9,3.9,0,0,1,2.587.766,2.755,2.755,0,0,1,.906,2.229,2.68,2.68,0,0,1-.5,1.62,3,3,0,0,1-1.4,1.032L8.374-.082V0H6.966ZM2.468-5.1H4.484A2.275,2.275,0,0,0,6.04-5.606a1.714,1.714,0,0,0,.578-1.356,1.8,1.8,0,0,0-.55-1.418,2.33,2.33,0,0,0-1.589-.5H2.468ZM12.646.137A3.232,3.232,0,0,1,10.2-.851a3.666,3.666,0,0,1-.943-2.642v-.232a4.438,4.438,0,0,1,.42-1.965,3.28,3.28,0,0,1,1.176-1.354,2.956,2.956,0,0,1,1.637-.489,2.77,2.77,0,0,1,2.242.95,4.114,4.114,0,0,1,.8,2.721v.526H10.521a2.629,2.629,0,0,0,.639,1.767A2.009,2.009,0,0,0,12.715-.9a2.2,2.2,0,0,0,1.135-.273,2.851,2.851,0,0,0,.813-.725l.772.6A3.106,3.106,0,0,1,12.646.137Zm-.157-6.631a1.687,1.687,0,0,0-1.285.557,2.708,2.708,0,0,0-.643,1.562h3.705v-.1a2.409,2.409,0,0,0-.52-1.494A1.588,1.588,0,0,0,12.489-6.494ZM18.3-7.4V.854q0,2.133-1.935,2.133a2.36,2.36,0,0,1-.772-.122V1.859a2.445,2.445,0,0,0,.574.055.859.859,0,0,0,.646-.229,1.133,1.133,0,0,0,.222-.8V-7.4ZM16.905-9.358a.758.758,0,0,1,.188-.516.691.691,0,0,1,.55-.215.717.717,0,0,1,.561.212.747.747,0,0,1,.191.52.722.722,0,0,1-.191.513.73.73,0,0,1-.561.205.707.707,0,0,1-.554-.205A.738.738,0,0,1,16.905-9.358ZM21.711,0H20.446V-7.4h1.265ZM20.344-9.358a.755.755,0,0,1,.188-.52.706.706,0,0,1,.557-.212.717.717,0,0,1,.561.212.747.747,0,0,1,.191.52.722.722,0,0,1-.191.513.73.73,0,0,1-.561.205.718.718,0,0,1-.557-.205A.73.73,0,0,1,20.344-9.358ZM25.108,0H23.844V-10.5h1.265Zm3.4,0H27.241V-10.5h1.265ZM35.1,0a2.657,2.657,0,0,1-.178-.779,2.822,2.822,0,0,1-2.105.916,2.611,2.611,0,0,1-1.794-.619,2,2,0,0,1-.7-1.569A2.091,2.091,0,0,1,31.2-3.845a4.142,4.142,0,0,1,2.471-.639H34.9v-.581a1.42,1.42,0,0,0-.4-1.056,1.593,1.593,0,0,0-1.169-.393,1.844,1.844,0,0,0-1.135.342,1.007,1.007,0,0,0-.458.827H30.468a1.745,1.745,0,0,1,.393-1.07,2.683,2.683,0,0,1,1.066-.817,3.588,3.588,0,0,1,1.48-.3,2.924,2.924,0,0,1,2,.639,2.306,2.306,0,0,1,.752,1.76v3.4a4.162,4.162,0,0,0,.26,1.62V0ZM33-.964a2.223,2.223,0,0,0,1.128-.308,1.861,1.861,0,0,0,.772-.8V-3.589h-.991q-2.324,0-2.324,1.36a1.151,1.151,0,0,0,.4.93A1.524,1.524,0,0,0,33-.964ZM45.459-4.026H43.121V0H41.8V-9.953H45.1a3.9,3.9,0,0,1,2.587.766,2.755,2.755,0,0,1,.906,2.229,2.68,2.68,0,0,1-.5,1.62,3,3,0,0,1-1.4,1.032L49.027-.082V0H47.619ZM43.121-5.1h2.017a2.275,2.275,0,0,0,1.555-.507,1.714,1.714,0,0,0,.578-1.356,1.8,1.8,0,0,0-.55-1.418,2.33,2.33,0,0,0-1.589-.5h-2.01ZM53.3.137a3.232,3.232,0,0,1-2.447-.988,3.666,3.666,0,0,1-.943-2.642v-.232a4.438,4.438,0,0,1,.42-1.965,3.28,3.28,0,0,1,1.176-1.354,2.956,2.956,0,0,1,1.637-.489,2.77,2.77,0,0,1,2.242.95,4.114,4.114,0,0,1,.8,2.721v.526H51.174a2.629,2.629,0,0,0,.639,1.767A2.009,2.009,0,0,0,53.368-.9,2.2,2.2,0,0,0,54.5-1.169a2.851,2.851,0,0,0,.813-.725l.772.6A3.106,3.106,0,0,1,53.3.137Zm-.157-6.631a1.687,1.687,0,0,0-1.285.557,2.708,2.708,0,0,0-.643,1.562H54.92v-.1a2.409,2.409,0,0,0-.52-1.494A1.588,1.588,0,0,0,53.143-6.494Zm5.694-.9.034.82a2.732,2.732,0,0,1,2.194-.957,2.115,2.115,0,0,1,2.112,1.189,2.8,2.8,0,0,1,.96-.861,2.837,2.837,0,0,1,1.4-.328q2.434,0,2.475,2.577V0H66.746V-4.881a1.7,1.7,0,0,0-.362-1.186,1.6,1.6,0,0,0-1.217-.393A1.677,1.677,0,0,0,64-6.04a1.706,1.706,0,0,0-.54,1.131V0H62.187V-4.847A1.411,1.411,0,0,0,60.607-6.46a1.692,1.692,0,0,0-1.7,1.06V0H57.641V-7.4Zm10.746,3.63a4.369,4.369,0,0,1,.427-1.955A3.187,3.187,0,0,1,71.2-7.062a3.238,3.238,0,0,1,1.74-.472,3.119,3.119,0,0,1,2.444,1.046,4.024,4.024,0,0,1,.933,2.782v.089A4.407,4.407,0,0,1,75.9-1.678,3.14,3.14,0,0,1,74.72-.342a3.275,3.275,0,0,1-1.767.479A3.111,3.111,0,0,1,70.516-.909a4,4,0,0,1-.933-2.769Zm1.271.15a3.164,3.164,0,0,0,.571,1.976A1.827,1.827,0,0,0,72.953-.9a1.816,1.816,0,0,0,1.531-.755,3.46,3.46,0,0,0,.567-2.116,3.159,3.159,0,0,0-.578-1.972,1.836,1.836,0,0,0-1.535-.755,1.816,1.816,0,0,0-1.511.745A3.434,3.434,0,0,0,70.854-3.616Zm9.386,1.9L82.072-7.4h1.292L80.712,0h-.964l-2.68-7.4H78.36ZM85.955,0H84.69V-7.4h1.265ZM84.588-9.358a.755.755,0,0,1,.188-.52.706.706,0,0,1,.557-.212.717.717,0,0,1,.561.212.747.747,0,0,1,.191.52.722.722,0,0,1-.191.513.73.73,0,0,1-.561.205.718.718,0,0,1-.557-.205A.73.73,0,0,1,84.588-9.358ZM94.24-3.616a4.4,4.4,0,0,1-.779,2.724A2.49,2.49,0,0,1,91.369.137,2.578,2.578,0,0,1,89.2-.854L89.141,0H87.979V-10.5h1.265v3.917a2.564,2.564,0,0,1,2.112-.95,2.505,2.505,0,0,1,2.116,1.019,4.53,4.53,0,0,1,.769,2.789ZM92.976-3.76a3.417,3.417,0,0,0-.5-2,1.652,1.652,0,0,0-1.436-.7,1.857,1.857,0,0,0-1.8,1.162v3.2A1.909,1.909,0,0,0,91.055-.937a1.643,1.643,0,0,0,1.415-.7A3.634,3.634,0,0,0,92.976-3.76ZM97.207,0H95.942V-10.5h1.265ZM102.3.137a3.232,3.232,0,0,1-2.447-.988,3.666,3.666,0,0,1-.943-2.642v-.232a4.438,4.438,0,0,1,.42-1.965,3.28,3.28,0,0,1,1.176-1.354,2.956,2.956,0,0,1,1.637-.489,2.77,2.77,0,0,1,2.242.95,4.114,4.114,0,0,1,.8,2.721v.526h-5.011a2.629,2.629,0,0,0,.639,1.767,2.009,2.009,0,0,0,1.555.673,2.2,2.2,0,0,0,1.135-.273,2.851,2.851,0,0,0,.813-.725l.772.6A3.106,3.106,0,0,1,102.3.137Zm-.157-6.631a1.687,1.687,0,0,0-1.285.557,2.708,2.708,0,0,0-.643,1.562h3.705v-.1a2.409,2.409,0,0,0-.52-1.494A1.588,1.588,0,0,0,102.143-6.494Z" transform="translate(887.73 7151.676)"/>
    <path id="Trazado_720949" data-name="Trazado 720949" d="M8.032-8.88h-3.2V0H3.527V-8.88H.335V-9.953h7.7ZM13.1,0a2.657,2.657,0,0,1-.178-.779,2.822,2.822,0,0,1-2.105.916A2.611,2.611,0,0,1,9.027-.482a2,2,0,0,1-.7-1.569A2.091,2.091,0,0,1,9.2-3.845a4.142,4.142,0,0,1,2.471-.639h1.23v-.581a1.42,1.42,0,0,0-.4-1.056,1.593,1.593,0,0,0-1.169-.393,1.844,1.844,0,0,0-1.135.342,1.007,1.007,0,0,0-.458.827H8.477a1.745,1.745,0,0,1,.393-1.07,2.683,2.683,0,0,1,1.066-.817,3.588,3.588,0,0,1,1.48-.3,2.924,2.924,0,0,1,2,.639,2.306,2.306,0,0,1,.752,1.76v3.4a4.162,4.162,0,0,0,.26,1.62V0Zm-2.1-.964a2.223,2.223,0,0,0,1.128-.308,1.861,1.861,0,0,0,.772-.8V-3.589h-.991q-2.324,0-2.324,1.36a1.151,1.151,0,0,0,.4.93A1.524,1.524,0,0,0,11.006-.964ZM17.35-7.4l.041.93a2.7,2.7,0,0,1,2.215-1.066q2.345,0,2.365,2.646V0H20.706V-4.895a1.7,1.7,0,0,0-.366-1.183,1.466,1.466,0,0,0-1.118-.383,1.825,1.825,0,0,0-1.08.328,2.228,2.228,0,0,0-.725.861V0H16.153V-7.4ZM23.57-3.76a4.341,4.341,0,0,1,.8-2.758,2.592,2.592,0,0,1,2.146-1.015,2.59,2.59,0,0,1,2.071.882l.055-.745H29.8V2.844H28.54V-.684A2.654,2.654,0,0,1,26.5.137,2.551,2.551,0,0,1,24.367-.906a4.438,4.438,0,0,1-.8-2.765Zm1.265.144a3.291,3.291,0,0,0,.537,2A1.707,1.707,0,0,0,26.817-.9a1.894,1.894,0,0,0,1.723-1V-5.517a1.9,1.9,0,0,0-1.709-.978,1.72,1.72,0,0,0-1.456.728A3.583,3.583,0,0,0,24.835-3.616ZM36.4-.731a2.686,2.686,0,0,1-2.167.868,2.3,2.3,0,0,1-1.8-.687,2.974,2.974,0,0,1-.625-2.034V-7.4h1.265v4.778q0,1.682,1.367,1.682a1.893,1.893,0,0,0,1.928-1.08V-7.4h1.265V0h-1.2Zm6.221.868a3.232,3.232,0,0,1-2.447-.988,3.666,3.666,0,0,1-.943-2.642v-.232a4.438,4.438,0,0,1,.42-1.965,3.28,3.28,0,0,1,1.176-1.354,2.956,2.956,0,0,1,1.637-.489,2.77,2.77,0,0,1,2.242.95,4.114,4.114,0,0,1,.8,2.721v.526H40.5a2.629,2.629,0,0,0,.639,1.767A2.009,2.009,0,0,0,42.69-.9a2.2,2.2,0,0,0,1.135-.273,2.851,2.851,0,0,0,.813-.725l.772.6A3.106,3.106,0,0,1,42.622.137Zm-.157-6.631a1.687,1.687,0,0,0-1.285.557,2.708,2.708,0,0,0-.643,1.562h3.705v-.1a2.409,2.409,0,0,0-.52-1.494A1.588,1.588,0,0,0,42.465-6.494ZM50.128-3.76A4.333,4.333,0,0,1,50.935-6.5a2.551,2.551,0,0,1,2.112-1.036,2.565,2.565,0,0,1,2.058.889V-10.5h1.265V0H55.207l-.062-.793a2.575,2.575,0,0,1-2.112.93,2.526,2.526,0,0,1-2.1-1.053,4.382,4.382,0,0,1-.81-2.748Zm1.265.144a3.281,3.281,0,0,0,.52,1.969,1.68,1.68,0,0,0,1.436.711A1.845,1.845,0,0,0,55.1-2.017v-3.4A1.859,1.859,0,0,0,53.361-6.46a1.687,1.687,0,0,0-1.449.718A3.612,3.612,0,0,0,51.393-3.616ZM61.4.137a3.232,3.232,0,0,1-2.447-.988,3.666,3.666,0,0,1-.943-2.642v-.232a4.438,4.438,0,0,1,.42-1.965,3.28,3.28,0,0,1,1.176-1.354,2.956,2.956,0,0,1,1.637-.489,2.77,2.77,0,0,1,2.242.95,4.114,4.114,0,0,1,.8,2.721v.526H59.274a2.629,2.629,0,0,0,.639,1.767A2.009,2.009,0,0,0,61.469-.9,2.2,2.2,0,0,0,62.6-1.169a2.851,2.851,0,0,0,.813-.725l.772.6A3.106,3.106,0,0,1,61.4.137Zm-.157-6.631a1.687,1.687,0,0,0-1.285.557,2.708,2.708,0,0,0-.643,1.562h3.705v-.1a2.409,2.409,0,0,0-.52-1.494A1.588,1.588,0,0,0,61.243-6.494ZM69.412,0V-9.953h2.81a4.523,4.523,0,0,1,2.3.574A3.884,3.884,0,0,1,76.06-7.745a5.318,5.318,0,0,1,.55,2.434v.636a5.336,5.336,0,0,1-.543,2.468A3.823,3.823,0,0,1,74.515-.581,4.811,4.811,0,0,1,72.167,0Zm1.313-8.88v7.807h1.381a3,3,0,0,0,2.362-.944,3.9,3.9,0,0,0,.844-2.689v-.582a3.963,3.963,0,0,0-.8-2.637,2.834,2.834,0,0,0-2.259-.954ZM81.464.137a3.232,3.232,0,0,1-2.447-.988,3.666,3.666,0,0,1-.943-2.642v-.232a4.438,4.438,0,0,1,.42-1.965,3.28,3.28,0,0,1,1.176-1.354,2.956,2.956,0,0,1,1.637-.489,2.77,2.77,0,0,1,2.242.95,4.114,4.114,0,0,1,.8,2.721v.526H79.338a2.629,2.629,0,0,0,.639,1.767A2.009,2.009,0,0,0,81.532-.9a2.2,2.2,0,0,0,1.135-.273,2.851,2.851,0,0,0,.813-.725l.772.6A3.106,3.106,0,0,1,81.464.137Zm-.157-6.631a1.687,1.687,0,0,0-1.285.557,2.708,2.708,0,0,0-.643,1.562h3.705v-.1a2.409,2.409,0,0,0-.52-1.494A1.588,1.588,0,0,0,81.307-6.494Zm6.221-2.693V-7.4h1.381v.978H87.527v4.593a1.027,1.027,0,0,0,.185.667.777.777,0,0,0,.629.222,3.062,3.062,0,0,0,.6-.082V0a3.688,3.688,0,0,1-.971.136,1.575,1.575,0,0,1-1.278-.513,2.2,2.2,0,0,1-.431-1.456V-6.419H84.916V-7.4h1.347V-9.187ZM93.96-6.262a3.79,3.79,0,0,0-.622-.048,1.667,1.667,0,0,0-1.688,1.06V0H90.385V-7.4h1.23l.021.854A1.969,1.969,0,0,1,93.4-7.533a1.292,1.292,0,0,1,.561.1ZM96.5,0H95.231V-7.4H96.5ZM95.129-9.358a.755.755,0,0,1,.188-.52.706.706,0,0,1,.557-.212.717.717,0,0,1,.561.212.747.747,0,0,1,.191.52.722.722,0,0,1-.191.513.73.73,0,0,1-.561.205.718.718,0,0,1-.557-.205A.73.73,0,0,1,95.129-9.358Zm5.106.171V-7.4h1.381v.978h-1.381v4.593a1.027,1.027,0,0,0,.185.667.777.777,0,0,0,.629.222,3.062,3.062,0,0,0,.6-.082V0a3.688,3.688,0,0,1-.971.136A1.575,1.575,0,0,1,99.4-.376a2.2,2.2,0,0,1-.431-1.456V-6.419H97.624V-7.4h1.347V-9.187Zm7.424,8.456a2.686,2.686,0,0,1-2.167.868,2.3,2.3,0,0,1-1.8-.687,2.974,2.974,0,0,1-.625-2.034V-7.4h1.265v4.778q0,1.682,1.367,1.682a1.893,1.893,0,0,0,1.928-1.08V-7.4h1.265V0h-1.2Zm7.458-1.23a.931.931,0,0,0-.386-.8,3.718,3.718,0,0,0-1.347-.489,6.367,6.367,0,0,1-1.524-.492,2.169,2.169,0,0,1-.834-.684,1.635,1.635,0,0,1-.27-.943,1.919,1.919,0,0,1,.769-1.538,3,3,0,0,1,1.965-.629,3.091,3.091,0,0,1,2.041.649,2.063,2.063,0,0,1,.783,1.661h-1.271a1.142,1.142,0,0,0-.441-.9,1.652,1.652,0,0,0-1.111-.376,1.729,1.729,0,0,0-1.08.3.947.947,0,0,0-.39.786.767.767,0,0,0,.362.69,4.458,4.458,0,0,0,1.309.444,6.821,6.821,0,0,1,1.535.506,2.239,2.239,0,0,1,.872.708,1.74,1.74,0,0,1,.284,1.008,1.893,1.893,0,0,1-.793,1.589,3.326,3.326,0,0,1-2.058.6,3.725,3.725,0,0,1-1.572-.314,2.557,2.557,0,0,1-1.07-.878,2.117,2.117,0,0,1-.386-1.22h1.265a1.309,1.309,0,0,0,.509,1.008,1.976,1.976,0,0,0,1.254.373,2.039,2.039,0,0,0,1.152-.291A.893.893,0,0,0,115.117-1.962Z" transform="translate(848.73 7244.676)"/>
    <path id="Trazado_720950" data-name="Trazado 720950" d="M6.651-2.6H2.481L1.545,0H.191l3.8-9.953H5.141L8.948,0H7.6ZM2.878-3.678H6.262l-1.7-4.655ZM14.711-9.433a9,9,0,0,0-1.367-.137q-1.367,0-1.367,1.44V-7.4h1.579v.978H11.977V0H10.712V-6.419H9.543V-7.4h1.169V-8.2a2.413,2.413,0,0,1,.663-1.812,2.59,2.59,0,0,1,1.866-.629,17.227,17.227,0,0,1,2.734.417V0H14.711Zm7.9,8.7a2.686,2.686,0,0,1-2.167.868,2.3,2.3,0,0,1-1.8-.687,2.974,2.974,0,0,1-.625-2.034V-7.4h1.265v4.778q0,1.682,1.367,1.682a1.893,1.893,0,0,0,1.928-1.08V-7.4h1.265V0h-1.2Zm6.221.868A3.232,3.232,0,0,1,26.38-.851a3.666,3.666,0,0,1-.943-2.642v-.232a4.438,4.438,0,0,1,.42-1.965,3.28,3.28,0,0,1,1.176-1.354,2.956,2.956,0,0,1,1.637-.489,2.77,2.77,0,0,1,2.242.95,4.114,4.114,0,0,1,.8,2.721v.526H26.7a2.629,2.629,0,0,0,.639,1.767A2.009,2.009,0,0,0,28.9-.9a2.2,2.2,0,0,0,1.135-.273,2.851,2.851,0,0,0,.813-.725l.772.6A3.106,3.106,0,0,1,28.827.137ZM28.67-6.494a1.687,1.687,0,0,0-1.285.557,2.708,2.708,0,0,0-.643,1.562h3.705v-.1a2.409,2.409,0,0,0-.52-1.494A1.588,1.588,0,0,0,28.67-6.494Zm5.7-.9.041.93a2.7,2.7,0,0,1,2.215-1.066q2.345,0,2.365,2.646V0H37.728V-4.895a1.7,1.7,0,0,0-.366-1.183,1.466,1.466,0,0,0-1.118-.383,1.825,1.825,0,0,0-1.08.328,2.228,2.228,0,0,0-.725.861V0H33.175V-7.4Zm8.244-1.791V-7.4H44v.978H42.615v4.593a1.027,1.027,0,0,0,.185.667.777.777,0,0,0,.629.222,3.062,3.062,0,0,0,.6-.082V0a3.688,3.688,0,0,1-.971.136,1.575,1.575,0,0,1-1.278-.513,2.2,2.2,0,0,1-.431-1.456V-6.419H40V-7.4h1.347V-9.187ZM48.542.137a3.232,3.232,0,0,1-2.447-.988,3.666,3.666,0,0,1-.943-2.642v-.232a4.438,4.438,0,0,1,.42-1.965,3.28,3.28,0,0,1,1.176-1.354,2.956,2.956,0,0,1,1.637-.489,2.77,2.77,0,0,1,2.242.95,4.114,4.114,0,0,1,.8,2.721v.526H46.416a2.629,2.629,0,0,0,.639,1.767A2.009,2.009,0,0,0,48.61-.9a2.2,2.2,0,0,0,1.135-.273,2.851,2.851,0,0,0,.813-.725l.772.6A3.106,3.106,0,0,1,48.542.137Zm-.157-6.631a1.687,1.687,0,0,0-1.285.557,2.708,2.708,0,0,0-.643,1.562h3.705v-.1a2.409,2.409,0,0,0-.52-1.494A1.588,1.588,0,0,0,48.385-6.494Z" transform="translate(493.73 7215.676)"/>
    <path id="Trazado_720951" data-name="Trazado 720951" d="M6.781-4.6H2.468v3.527H7.479V0H1.155V-9.953H7.41V-8.88H2.468v3.206H6.781Zm6.754-4.833a9,9,0,0,0-1.367-.137Q10.8-9.57,10.8-8.13V-7.4H12.38v.978H10.8V0H9.536V-6.419H8.367V-7.4H9.536V-8.2a2.413,2.413,0,0,1,.663-1.812,2.59,2.59,0,0,1,1.866-.629,17.227,17.227,0,0,1,2.734.417V0H13.535Zm7.9,8.7a2.686,2.686,0,0,1-2.167.868,2.3,2.3,0,0,1-1.8-.687,2.974,2.974,0,0,1-.625-2.034V-7.4H18.1v4.778q0,1.682,1.367,1.682A1.893,1.893,0,0,0,21.4-2.017V-7.4h1.265V0h-1.2Zm6.221.868A3.232,3.232,0,0,1,25.2-.851a3.666,3.666,0,0,1-.943-2.642v-.232a4.438,4.438,0,0,1,.42-1.965,3.28,3.28,0,0,1,1.176-1.354,2.956,2.956,0,0,1,1.637-.489,2.77,2.77,0,0,1,2.242.95,4.114,4.114,0,0,1,.8,2.721v.526H25.525a2.629,2.629,0,0,0,.639,1.767A2.009,2.009,0,0,0,27.72-.9a2.2,2.2,0,0,0,1.135-.273,2.851,2.851,0,0,0,.813-.725l.772.6A3.106,3.106,0,0,1,27.651.137Zm-.157-6.631a1.687,1.687,0,0,0-1.285.557,2.708,2.708,0,0,0-.643,1.562h3.705v-.1a2.409,2.409,0,0,0-.52-1.494A1.588,1.588,0,0,0,27.494-6.494Zm5.7-.9.041.93a2.7,2.7,0,0,1,2.215-1.066q2.345,0,2.365,2.646V0H36.552V-4.895a1.7,1.7,0,0,0-.366-1.183,1.466,1.466,0,0,0-1.118-.383,1.825,1.825,0,0,0-1.08.328,2.228,2.228,0,0,0-.725.861V0H32V-7.4Zm8.244-1.791V-7.4H42.82v.978H41.439v4.593a1.027,1.027,0,0,0,.185.667.777.777,0,0,0,.629.222,3.062,3.062,0,0,0,.6-.082V0a3.688,3.688,0,0,1-.971.136,1.575,1.575,0,0,1-1.278-.513,2.2,2.2,0,0,1-.431-1.456V-6.419H38.828V-7.4h1.347V-9.187ZM47.366.137a3.232,3.232,0,0,1-2.447-.988,3.666,3.666,0,0,1-.943-2.642v-.232a4.438,4.438,0,0,1,.42-1.965,3.28,3.28,0,0,1,1.176-1.354,2.956,2.956,0,0,1,1.637-.489,2.77,2.77,0,0,1,2.242.95,4.114,4.114,0,0,1,.8,2.721v.526H45.24a2.629,2.629,0,0,0,.639,1.767A2.009,2.009,0,0,0,47.435-.9a2.2,2.2,0,0,0,1.135-.273,2.851,2.851,0,0,0,.813-.725l.772.6A3.106,3.106,0,0,1,47.366.137Zm-.157-6.631a1.687,1.687,0,0,0-1.285.557,2.708,2.708,0,0,0-.643,1.562h3.705v-.1a2.409,2.409,0,0,0-.52-1.494A1.588,1.588,0,0,0,47.209-6.494Z" transform="translate(1048.73 7215.676)"/>
    <path id="Trazado_720952" data-name="Trazado 720952" d="M8.477-3.158A3.662,3.662,0,0,1,7.311-.721,3.82,3.82,0,0,1,4.7.137,3.507,3.507,0,0,1,1.876-1.128,5.088,5.088,0,0,1,.813-4.512v-.957a5.671,5.671,0,0,1,.5-2.44,3.7,3.7,0,0,1,1.4-1.617,3.911,3.911,0,0,1,2.105-.564A3.6,3.6,0,0,1,7.362-9.2,3.706,3.706,0,0,1,8.477-6.754H7.157a2.86,2.86,0,0,0-.742-1.728,2.244,2.244,0,0,0-1.6-.535,2.348,2.348,0,0,0-1.972.93,4.271,4.271,0,0,0-.714,2.648v.965A4.391,4.391,0,0,0,2.81-1.894,2.187,2.187,0,0,0,4.7-.937a2.526,2.526,0,0,0,1.678-.5,2.75,2.75,0,0,0,.776-1.726Zm1.258-.608a4.369,4.369,0,0,1,.427-1.955,3.187,3.187,0,0,1,1.189-1.34,3.238,3.238,0,0,1,1.74-.472,3.119,3.119,0,0,1,2.444,1.046,4.024,4.024,0,0,1,.933,2.782v.089a4.407,4.407,0,0,1-.414,1.938A3.14,3.14,0,0,1,14.872-.342,3.275,3.275,0,0,1,13.1.137,3.111,3.111,0,0,1,10.667-.909a4,4,0,0,1-.933-2.769Zm1.271.15a3.164,3.164,0,0,0,.571,1.976A1.827,1.827,0,0,0,13.1-.9a1.816,1.816,0,0,0,1.531-.755A3.46,3.46,0,0,0,15.2-3.767a3.159,3.159,0,0,0-.578-1.972,1.836,1.836,0,0,0-1.535-.755,1.816,1.816,0,0,0-1.511.745A3.434,3.434,0,0,0,11.006-3.616ZM19.243-7.4l.034.82a2.732,2.732,0,0,1,2.194-.957,2.115,2.115,0,0,1,2.112,1.189,2.8,2.8,0,0,1,.96-.861,2.837,2.837,0,0,1,1.4-.328q2.434,0,2.475,2.577V0H27.152V-4.881a1.7,1.7,0,0,0-.362-1.186,1.6,1.6,0,0,0-1.217-.393,1.677,1.677,0,0,0-1.169.42,1.706,1.706,0,0,0-.54,1.131V0H22.593V-4.847A1.411,1.411,0,0,0,21.014-6.46a1.692,1.692,0,0,0-1.7,1.06V0H18.047V-7.4Zm17.329,3.78A4.429,4.429,0,0,1,35.8-.9,2.476,2.476,0,0,1,33.708.137a2.713,2.713,0,0,1-2.119-.854V2.844H30.324V-7.4h1.155l.062.82a2.605,2.605,0,0,1,2.146-.957,2.522,2.522,0,0,1,2.109,1,4.477,4.477,0,0,1,.776,2.8ZM35.308-3.76a3.268,3.268,0,0,0-.533-1.976,1.718,1.718,0,0,0-1.463-.725,1.859,1.859,0,0,0-1.723,1.019v3.534A1.863,1.863,0,0,0,33.325-.9a1.71,1.71,0,0,0,1.446-.721A3.567,3.567,0,0,0,35.308-3.76ZM42.745-.731a2.686,2.686,0,0,1-2.167.868,2.3,2.3,0,0,1-1.8-.687,2.974,2.974,0,0,1-.625-2.034V-7.4h1.265v4.778q0,1.682,1.367,1.682a1.893,1.893,0,0,0,1.928-1.08V-7.4h1.265V0h-1.2Zm6.221.868a3.232,3.232,0,0,1-2.447-.988,3.666,3.666,0,0,1-.943-2.642v-.232A4.438,4.438,0,0,1,46-5.691a3.28,3.28,0,0,1,1.176-1.354,2.956,2.956,0,0,1,1.637-.489,2.77,2.77,0,0,1,2.242.95,4.114,4.114,0,0,1,.8,2.721v.526H46.84a2.629,2.629,0,0,0,.639,1.767A2.009,2.009,0,0,0,49.034-.9a2.2,2.2,0,0,0,1.135-.273,2.851,2.851,0,0,0,.813-.725l.772.6A3.106,3.106,0,0,1,48.966.137Zm-.157-6.631a1.687,1.687,0,0,0-1.285.557,2.708,2.708,0,0,0-.643,1.562h3.705v-.1a2.409,2.409,0,0,0-.52-1.494A1.588,1.588,0,0,0,48.809-6.494Zm8.08.232a3.79,3.79,0,0,0-.622-.048,1.667,1.667,0,0,0-1.688,1.06V0H53.313V-7.4h1.23l.021.854a1.969,1.969,0,0,1,1.764-.991,1.292,1.292,0,0,1,.561.1Zm3.22-2.926V-7.4h1.381v.978H60.108v4.593a1.027,1.027,0,0,0,.185.667.777.777,0,0,0,.629.222,3.062,3.062,0,0,0,.6-.082V0a3.688,3.688,0,0,1-.971.136,1.575,1.575,0,0,1-1.278-.513,2.2,2.2,0,0,1-.431-1.456V-6.419H57.5V-7.4h1.347V-9.187ZM67.532,0a2.657,2.657,0,0,1-.178-.779,2.822,2.822,0,0,1-2.105.916,2.611,2.611,0,0,1-1.794-.619,2,2,0,0,1-.7-1.569,2.091,2.091,0,0,1,.878-1.794A4.141,4.141,0,0,1,66.1-4.484h1.23v-.581a1.42,1.42,0,0,0-.4-1.056,1.593,1.593,0,0,0-1.169-.393,1.844,1.844,0,0,0-1.135.342,1.007,1.007,0,0,0-.458.827H62.9a1.745,1.745,0,0,1,.393-1.07,2.683,2.683,0,0,1,1.066-.817,3.588,3.588,0,0,1,1.48-.3,2.924,2.924,0,0,1,2,.639,2.306,2.306,0,0,1,.752,1.76v3.4a4.162,4.162,0,0,0,.26,1.62V0Zm-2.1-.964a2.223,2.223,0,0,0,1.128-.308,1.861,1.861,0,0,0,.772-.8V-3.589h-.991q-2.324,0-2.324,1.36a1.151,1.151,0,0,0,.4.93A1.524,1.524,0,0,0,65.434-.964Zm9.454-1a.931.931,0,0,0-.386-.8,3.718,3.718,0,0,0-1.347-.489,6.367,6.367,0,0,1-1.524-.492,2.169,2.169,0,0,1-.834-.684,1.635,1.635,0,0,1-.27-.943A1.919,1.919,0,0,1,71.3-6.9a3,3,0,0,1,1.965-.629,3.091,3.091,0,0,1,2.041.649,2.063,2.063,0,0,1,.783,1.661H74.813a1.142,1.142,0,0,0-.441-.9,1.652,1.652,0,0,0-1.111-.376,1.729,1.729,0,0,0-1.08.3.947.947,0,0,0-.39.786.767.767,0,0,0,.362.69,4.458,4.458,0,0,0,1.309.444A6.821,6.821,0,0,1,75-3.767a2.239,2.239,0,0,1,.872.708,1.74,1.74,0,0,1,.284,1.008,1.893,1.893,0,0,1-.793,1.589,3.326,3.326,0,0,1-2.058.6,3.725,3.725,0,0,1-1.572-.314,2.557,2.557,0,0,1-1.07-.878,2.117,2.117,0,0,1-.386-1.22h1.265a1.309,1.309,0,0,0,.509,1.008A1.976,1.976,0,0,0,73.3-.9a2.039,2.039,0,0,0,1.152-.291A.893.893,0,0,0,74.888-1.962Z" transform="translate(700.73 7392.676)"/>
    <path id="Trazado_720953" data-name="Trazado 720953" d="M2.468-3.9V0H1.155V-9.953H4.826a3.688,3.688,0,0,1,2.56.834,2.827,2.827,0,0,1,.926,2.208,2.79,2.79,0,0,1-.906,2.232A3.853,3.853,0,0,1,4.813-3.9Zm0-1.073H4.826a2.358,2.358,0,0,0,1.613-.5A1.815,1.815,0,0,0,7-6.9a1.876,1.876,0,0,0-.561-1.424A2.209,2.209,0,0,0,4.9-8.88H2.468Zm6.9,1.2a4.369,4.369,0,0,1,.427-1.955,3.187,3.187,0,0,1,1.189-1.34,3.238,3.238,0,0,1,1.74-.472,3.119,3.119,0,0,1,2.444,1.046A4.024,4.024,0,0,1,16.1-3.705v.089a4.407,4.407,0,0,1-.414,1.938A3.14,3.14,0,0,1,14.5-.342a3.275,3.275,0,0,1-1.767.479A3.111,3.111,0,0,1,10.3-.909a4,4,0,0,1-.933-2.769Zm1.271.15a3.164,3.164,0,0,0,.571,1.976A1.827,1.827,0,0,0,12.735-.9a1.816,1.816,0,0,0,1.531-.755,3.46,3.46,0,0,0,.567-2.116,3.159,3.159,0,0,0-.578-1.972,1.836,1.836,0,0,0-1.535-.755,1.816,1.816,0,0,0-1.511.745A3.434,3.434,0,0,0,10.637-3.616Zm8.128,2.584h4.327V0H17.22V-.93L21.3-6.351h-4.02V-7.4h5.605v.9Zm5.3-2.734A4.369,4.369,0,0,1,24.5-5.722a3.187,3.187,0,0,1,1.189-1.34,3.238,3.238,0,0,1,1.74-.472A3.119,3.119,0,0,1,29.87-6.487,4.024,4.024,0,0,1,30.8-3.705v.089a4.407,4.407,0,0,1-.414,1.938A3.14,3.14,0,0,1,29.207-.342a3.275,3.275,0,0,1-1.767.479A3.111,3.111,0,0,1,25-.909a4,4,0,0,1-.933-2.769Zm1.271.15a3.164,3.164,0,0,0,.571,1.976A1.827,1.827,0,0,0,27.439-.9a1.816,1.816,0,0,0,1.531-.755,3.46,3.46,0,0,0,.567-2.116,3.159,3.159,0,0,0-.578-1.972,1.836,1.836,0,0,0-1.535-.755,1.816,1.816,0,0,0-1.511.745A3.434,3.434,0,0,0,25.341-3.616ZM36.053,0V-9.953h2.81a4.523,4.523,0,0,1,2.3.574A3.884,3.884,0,0,1,42.7-7.745a5.318,5.318,0,0,1,.55,2.434v.636a5.336,5.336,0,0,1-.543,2.468A3.823,3.823,0,0,1,41.156-.581,4.811,4.811,0,0,1,38.808,0Zm1.313-8.88v7.807h1.381a3,3,0,0,0,2.362-.944,3.9,3.9,0,0,0,.844-2.689v-.582a3.963,3.963,0,0,0-.8-2.637A2.834,2.834,0,0,0,38.9-8.88ZM48.1.137a3.232,3.232,0,0,1-2.447-.988,3.666,3.666,0,0,1-.943-2.642v-.232a4.438,4.438,0,0,1,.42-1.965A3.28,3.28,0,0,1,46.31-7.044a2.956,2.956,0,0,1,1.637-.489,2.77,2.77,0,0,1,2.242.95,4.114,4.114,0,0,1,.8,2.721v.526H45.979a2.629,2.629,0,0,0,.639,1.767A2.009,2.009,0,0,0,48.173-.9a2.2,2.2,0,0,0,1.135-.273,2.851,2.851,0,0,0,.813-.725l.772.6A3.106,3.106,0,0,1,48.1.137Zm-.157-6.631a1.687,1.687,0,0,0-1.285.557,2.708,2.708,0,0,0-.643,1.562h3.705v-.1a2.409,2.409,0,0,0-.52-1.494A1.588,1.588,0,0,0,47.947-6.494Zm11.1,2.058a6.172,6.172,0,0,1-2.458-1.193,2.279,2.279,0,0,1-.769-1.747,2.408,2.408,0,0,1,.94-1.945,3.736,3.736,0,0,1,2.444-.769,4.078,4.078,0,0,1,1.829.4A3.007,3.007,0,0,1,62.279-8.6a2.8,2.8,0,0,1,.441,1.524H61.4A1.82,1.82,0,0,0,60.826-8.5a2.335,2.335,0,0,0-1.62-.518,2.391,2.391,0,0,0-1.514.428A1.428,1.428,0,0,0,57.148-7.4a1.285,1.285,0,0,0,.516,1.031,5.062,5.062,0,0,0,1.757.77,8.151,8.151,0,0,1,1.941.77,2.946,2.946,0,0,1,1.039.981,2.5,2.5,0,0,1,.338,1.319A2.326,2.326,0,0,1,61.8-.591a4.022,4.022,0,0,1-2.522.728A4.678,4.678,0,0,1,57.36-.256,3.221,3.221,0,0,1,55.99-1.333a2.627,2.627,0,0,1-.482-1.552h1.319a1.714,1.714,0,0,0,.667,1.425,2.806,2.806,0,0,0,1.781.523,2.58,2.58,0,0,0,1.593-.424,1.377,1.377,0,0,0,.554-1.155,1.351,1.351,0,0,0-.513-1.131A5.911,5.911,0,0,0,59.049-4.437Zm4.84.67a4.369,4.369,0,0,1,.427-1.955,3.187,3.187,0,0,1,1.189-1.34,3.238,3.238,0,0,1,1.74-.472,3.119,3.119,0,0,1,2.444,1.046,4.024,4.024,0,0,1,.933,2.782v.089a4.407,4.407,0,0,1-.414,1.938A3.14,3.14,0,0,1,69.026-.342a3.275,3.275,0,0,1-1.767.479A3.111,3.111,0,0,1,64.822-.909a4,4,0,0,1-.933-2.769Zm1.271.15a3.164,3.164,0,0,0,.571,1.976A1.827,1.827,0,0,0,67.259-.9a1.816,1.816,0,0,0,1.531-.755,3.46,3.46,0,0,0,.567-2.116,3.159,3.159,0,0,0-.578-1.972,1.836,1.836,0,0,0-1.535-.755,1.816,1.816,0,0,0-1.511.745A3.434,3.434,0,0,0,65.16-3.616ZM73.582,0H72.317V-10.5h1.265Zm3.4,0H75.715V-7.4h1.265ZM75.612-9.358a.755.755,0,0,1,.188-.52.706.706,0,0,1,.557-.212.717.717,0,0,1,.561.212.747.747,0,0,1,.191.52.722.722,0,0,1-.191.513.73.73,0,0,1-.561.205.718.718,0,0,1-.557-.205A.73.73,0,0,1,75.612-9.358ZM78.7-3.76A4.333,4.333,0,0,1,79.5-6.5a2.551,2.551,0,0,1,2.112-1.036,2.565,2.565,0,0,1,2.058.889V-10.5h1.265V0H83.774l-.062-.793A2.575,2.575,0,0,1,81.6.137a2.526,2.526,0,0,1-2.1-1.053,4.382,4.382,0,0,1-.81-2.748Zm1.265.144a3.281,3.281,0,0,0,.52,1.969,1.68,1.68,0,0,0,1.436.711,1.845,1.845,0,0,0,1.757-1.08v-3.4A1.859,1.859,0,0,0,81.929-6.46a1.687,1.687,0,0,0-1.449.718A3.612,3.612,0,0,0,79.96-3.616Zm6.6-.15a4.369,4.369,0,0,1,.427-1.955,3.187,3.187,0,0,1,1.189-1.34,3.238,3.238,0,0,1,1.74-.472,3.119,3.119,0,0,1,2.444,1.046A4.024,4.024,0,0,1,93.3-3.705v.089a4.407,4.407,0,0,1-.414,1.938A3.14,3.14,0,0,1,91.7-.342a3.275,3.275,0,0,1-1.767.479A3.111,3.111,0,0,1,87.5-.909a4,4,0,0,1-.933-2.769Zm1.271.15a3.164,3.164,0,0,0,.571,1.976A1.827,1.827,0,0,0,89.934-.9a1.816,1.816,0,0,0,1.531-.755,3.46,3.46,0,0,0,.567-2.116,3.159,3.159,0,0,0-.578-1.972,1.836,1.836,0,0,0-1.535-.755,1.816,1.816,0,0,0-1.511.745A3.434,3.434,0,0,0,87.835-3.616ZM99.189-1.962a.931.931,0,0,0-.386-.8,3.718,3.718,0,0,0-1.347-.489,6.367,6.367,0,0,1-1.524-.492,2.169,2.169,0,0,1-.834-.684,1.635,1.635,0,0,1-.27-.943A1.919,1.919,0,0,1,95.6-6.9a3,3,0,0,1,1.965-.629,3.091,3.091,0,0,1,2.041.649,2.063,2.063,0,0,1,.783,1.661H99.114a1.142,1.142,0,0,0-.441-.9,1.652,1.652,0,0,0-1.111-.376,1.729,1.729,0,0,0-1.08.3.947.947,0,0,0-.39.786.767.767,0,0,0,.362.69,4.458,4.458,0,0,0,1.309.444,6.821,6.821,0,0,1,1.535.506,2.239,2.239,0,0,1,.872.708,1.74,1.74,0,0,1,.284,1.008,1.893,1.893,0,0,1-.793,1.589,3.326,3.326,0,0,1-2.058.6,3.725,3.725,0,0,1-1.572-.314,2.557,2.557,0,0,1-1.07-.878,2.117,2.117,0,0,1-.386-1.22H95.84a1.309,1.309,0,0,0,.509,1.008A1.976,1.976,0,0,0,97.6-.9a2.039,2.039,0,0,0,1.152-.291A.893.893,0,0,0,99.189-1.962ZM107.078-3.9V0h-1.312V-9.953h3.671a3.688,3.688,0,0,1,2.56.834,2.827,2.827,0,0,1,.926,2.208,2.79,2.79,0,0,1-.906,2.232,3.853,3.853,0,0,1-2.594.783Zm0-1.073h2.358a2.358,2.358,0,0,0,1.613-.5A1.815,1.815,0,0,0,111.61-6.9a1.876,1.876,0,0,0-.561-1.424,2.209,2.209,0,0,0-1.538-.555h-2.434ZM117.38.137a3.232,3.232,0,0,1-2.447-.988,3.666,3.666,0,0,1-.943-2.642v-.232a4.438,4.438,0,0,1,.42-1.965,3.28,3.28,0,0,1,1.176-1.354,2.956,2.956,0,0,1,1.637-.489,2.77,2.77,0,0,1,2.242.95,4.114,4.114,0,0,1,.8,2.721v.526h-5.011a2.629,2.629,0,0,0,.639,1.767,2.009,2.009,0,0,0,1.555.673,2.2,2.2,0,0,0,1.135-.273,2.851,2.851,0,0,0,.813-.725l.772.6A3.106,3.106,0,0,1,117.38.137Zm-.157-6.631a1.687,1.687,0,0,0-1.285.557,2.708,2.708,0,0,0-.643,1.562H119v-.1a2.409,2.409,0,0,0-.52-1.494A1.588,1.588,0,0,0,117.223-6.494Zm8.812,4.532a.931.931,0,0,0-.386-.8,3.718,3.718,0,0,0-1.347-.489,6.367,6.367,0,0,1-1.524-.492,2.169,2.169,0,0,1-.834-.684,1.635,1.635,0,0,1-.27-.943,1.919,1.919,0,0,1,.769-1.538,3,3,0,0,1,1.965-.629,3.091,3.091,0,0,1,2.041.649,2.063,2.063,0,0,1,.783,1.661h-1.271a1.142,1.142,0,0,0-.441-.9,1.652,1.652,0,0,0-1.111-.376,1.729,1.729,0,0,0-1.08.3.947.947,0,0,0-.39.786.767.767,0,0,0,.362.69,4.458,4.458,0,0,0,1.309.444,6.821,6.821,0,0,1,1.535.506,2.239,2.239,0,0,1,.872.708,1.74,1.74,0,0,1,.284,1.008,1.893,1.893,0,0,1-.793,1.589,3.326,3.326,0,0,1-2.058.6,3.725,3.725,0,0,1-1.572-.314,2.557,2.557,0,0,1-1.07-.878,2.117,2.117,0,0,1-.386-1.22h1.265a1.309,1.309,0,0,0,.509,1.008,1.976,1.976,0,0,0,1.254.373,2.039,2.039,0,0,0,1.152-.291A.893.893,0,0,0,126.034-1.962ZM133.513,0a2.657,2.657,0,0,1-.178-.779,2.822,2.822,0,0,1-2.105.916,2.611,2.611,0,0,1-1.794-.619,2,2,0,0,1-.7-1.569,2.091,2.091,0,0,1,.878-1.794,4.142,4.142,0,0,1,2.471-.639h1.23v-.581a1.42,1.42,0,0,0-.4-1.056,1.593,1.593,0,0,0-1.169-.393,1.844,1.844,0,0,0-1.135.342,1.007,1.007,0,0,0-.458.827h-1.271a1.745,1.745,0,0,1,.393-1.07,2.683,2.683,0,0,1,1.066-.817,3.588,3.588,0,0,1,1.48-.3,2.924,2.924,0,0,1,2,.639,2.306,2.306,0,0,1,.752,1.76v3.4a4.162,4.162,0,0,0,.26,1.62V0Zm-2.1-.964a2.223,2.223,0,0,0,1.128-.308,1.861,1.861,0,0,0,.772-.8V-3.589h-.991Q130-3.589,130-2.229a1.151,1.151,0,0,0,.4.93A1.524,1.524,0,0,0,131.414-.964Zm4.84-2.8a4.333,4.333,0,0,1,.807-2.738,2.551,2.551,0,0,1,2.112-1.036,2.565,2.565,0,0,1,2.058.889V-10.5H142.5V0h-1.162l-.062-.793a2.575,2.575,0,0,1-2.112.93,2.526,2.526,0,0,1-2.1-1.053,4.382,4.382,0,0,1-.81-2.748Zm1.265.144a3.281,3.281,0,0,0,.52,1.969,1.68,1.68,0,0,0,1.436.711,1.845,1.845,0,0,0,1.757-1.08v-3.4a1.859,1.859,0,0,0-1.743-1.046,1.687,1.687,0,0,0-1.449.718A3.612,3.612,0,0,0,137.519-3.616Zm6.6-.15a4.369,4.369,0,0,1,.427-1.955,3.187,3.187,0,0,1,1.189-1.34,3.238,3.238,0,0,1,1.74-.472,3.119,3.119,0,0,1,2.444,1.046,4.024,4.024,0,0,1,.933,2.782v.089a4.407,4.407,0,0,1-.414,1.938,3.14,3.14,0,0,1-1.183,1.336,3.275,3.275,0,0,1-1.767.479,3.111,3.111,0,0,1-2.437-1.046,4,4,0,0,1-.933-2.769Zm1.271.15a3.164,3.164,0,0,0,.571,1.976,1.827,1.827,0,0,0,1.528.745,1.816,1.816,0,0,0,1.531-.755,3.46,3.46,0,0,0,.567-2.116,3.159,3.159,0,0,0-.578-1.972,1.836,1.836,0,0,0-1.535-.755,1.816,1.816,0,0,0-1.511.745A3.434,3.434,0,0,0,145.394-3.616Zm11.354,1.654a.931.931,0,0,0-.386-.8,3.718,3.718,0,0,0-1.347-.489,6.367,6.367,0,0,1-1.524-.492,2.169,2.169,0,0,1-.834-.684,1.635,1.635,0,0,1-.27-.943,1.919,1.919,0,0,1,.769-1.538,3,3,0,0,1,1.965-.629,3.091,3.091,0,0,1,2.041.649,2.063,2.063,0,0,1,.783,1.661h-1.271a1.142,1.142,0,0,0-.441-.9,1.652,1.652,0,0,0-1.111-.376,1.729,1.729,0,0,0-1.08.3.947.947,0,0,0-.39.786.767.767,0,0,0,.362.69,4.458,4.458,0,0,0,1.309.444,6.821,6.821,0,0,1,1.535.506,2.239,2.239,0,0,1,.872.708,1.74,1.74,0,0,1,.284,1.008,1.893,1.893,0,0,1-.793,1.589,3.326,3.326,0,0,1-2.058.6,3.725,3.725,0,0,1-1.572-.314,2.557,2.557,0,0,1-1.07-.878,2.117,2.117,0,0,1-.386-1.22H153.4a1.309,1.309,0,0,0,.509,1.008,1.976,1.976,0,0,0,1.254.373,2.039,2.039,0,0,0,1.152-.291A.893.893,0,0,0,156.748-1.962Z" transform="translate(664.73 7225.676)"/>
    <path id="Trazado_720954" data-name="Trazado 720954" d="M0,0H36.965" transform="translate(428.613 7211.5)" fill="none" stroke="#12263f" stroke-width="1"/>
    <g id="Grupo_1007111" data-name="Grupo 1007111" transform="translate(262.613 6986.5)">
      <path id="Trazado_720853" data-name="Trazado 720853" d="M209,225a30.231,30.231,0,0,0-8.547,4.756l1.72-4.756-1.72-4.755A30.2,30.2,0,0,0,209,225Z" fill="#12263f" stroke="#12263f" stroke-width="1"/>
    </g>
    <path id="Trazado_720955" data-name="Trazado 720955" d="M0,0H36.965" transform="translate(1134.613 7211.5)" fill="none" stroke="#12263f" stroke-width="1"/>
    <g id="Grupo_1007113" data-name="Grupo 1007113" transform="translate(262.613 6986.5)">
      <path id="Trazado_720854" data-name="Trazado 720854" d="M915,225a30.231,30.231,0,0,0-8.547,4.756l1.72-4.756-1.72-4.755A30.2,30.2,0,0,0,915,225Z" fill="#12263f" stroke="#12263f" stroke-width="1"/>
    </g>
    <path id="Trazado_720855" data-name="Trazado 720855" d="M305,562V725h33v68H305V959H763V798H662V720H763V562Z" transform="translate(262.613 6986.5)" fill="#fff" stroke="#12263f" stroke-miterlimit="10" stroke-width="1"/>
    <path id="Trazado_720956" data-name="Trazado 720956" d="M7.438-2.344H3.328L2.547,0H.055L4.289-11.375H6.461L10.719,0H8.227Zm-3.477-1.9H6.8L5.375-8.5Z" transform="translate(422 7892.676)"/>
    <path id="Trazado_720957" data-name="Trazado 720957" d="M7.438-2.344H3.328L2.547,0H.055L4.289-11.375H6.461L10.719,0H8.227Zm-3.477-1.9H6.8L5.375-8.5Z" transform="translate(1168 7892.676)" stroke="#12263f" stroke-width="1"/>
    <path id="Trazado_720958" data-name="Trazado 720958" d="M6.651-2.6H2.481L1.545,0H.191l3.8-9.953H5.141L8.948,0H7.6ZM2.878-3.678H6.262l-1.7-4.655Zm12.2,2.6H19.79V0H13.754V-9.953h1.319Zm5.681-2.693a4.369,4.369,0,0,1,.427-1.955,3.187,3.187,0,0,1,1.189-1.34,3.238,3.238,0,0,1,1.74-.472,3.119,3.119,0,0,1,2.444,1.046,4.024,4.024,0,0,1,.933,2.782v.089a4.407,4.407,0,0,1-.414,1.938A3.14,3.14,0,0,1,25.891-.342a3.275,3.275,0,0,1-1.767.479A3.111,3.111,0,0,1,21.687-.909a4,4,0,0,1-.933-2.769Zm1.271.15A3.164,3.164,0,0,0,22.6-1.641,1.827,1.827,0,0,0,24.124-.9a1.816,1.816,0,0,0,1.531-.755,3.46,3.46,0,0,0,.567-2.116,3.159,3.159,0,0,0-.578-1.972,1.836,1.836,0,0,0-1.535-.755,1.816,1.816,0,0,0-1.511.745A3.434,3.434,0,0,0,22.025-3.616ZM33.38-1.962a.931.931,0,0,0-.386-.8,3.718,3.718,0,0,0-1.347-.489,6.367,6.367,0,0,1-1.524-.492,2.169,2.169,0,0,1-.834-.684,1.635,1.635,0,0,1-.27-.943A1.919,1.919,0,0,1,29.788-6.9a3,3,0,0,1,1.965-.629,3.091,3.091,0,0,1,2.041.649,2.063,2.063,0,0,1,.783,1.661H33.3a1.142,1.142,0,0,0-.441-.9,1.652,1.652,0,0,0-1.111-.376,1.729,1.729,0,0,0-1.08.3.947.947,0,0,0-.39.786.767.767,0,0,0,.362.69,4.458,4.458,0,0,0,1.309.444,6.821,6.821,0,0,1,1.535.506,2.239,2.239,0,0,1,.872.708,1.74,1.74,0,0,1,.284,1.008,1.893,1.893,0,0,1-.793,1.589,3.326,3.326,0,0,1-2.058.6,3.725,3.725,0,0,1-1.572-.314,2.557,2.557,0,0,1-1.07-.878,2.117,2.117,0,0,1-.386-1.22H30.03a1.309,1.309,0,0,0,.509,1.008A1.976,1.976,0,0,0,31.794-.9a2.039,2.039,0,0,0,1.152-.291A.893.893,0,0,0,33.38-1.962Zm7.9.889h4.717V0H39.956V-9.953h1.319ZM50.36.137a3.232,3.232,0,0,1-2.447-.988,3.666,3.666,0,0,1-.943-2.642v-.232a4.438,4.438,0,0,1,.42-1.965,3.28,3.28,0,0,1,1.176-1.354A2.956,2.956,0,0,1,50.2-7.533a2.77,2.77,0,0,1,2.242.95,4.114,4.114,0,0,1,.8,2.721v.526H48.234a2.629,2.629,0,0,0,.639,1.767A2.009,2.009,0,0,0,50.429-.9a2.2,2.2,0,0,0,1.135-.273,2.851,2.851,0,0,0,.813-.725l.772.6A3.106,3.106,0,0,1,50.36.137ZM50.2-6.494a1.687,1.687,0,0,0-1.285.557,2.708,2.708,0,0,0-.643,1.562H51.98v-.1a2.409,2.409,0,0,0-.52-1.494A1.588,1.588,0,0,0,50.2-6.494ZM57.675-.9a1.822,1.822,0,0,0,1.183-.41,1.443,1.443,0,0,0,.561-1.025h1.2a2.293,2.293,0,0,1-.437,1.21A2.881,2.881,0,0,1,59.1-.205a3.107,3.107,0,0,1-1.425.342,3.047,3.047,0,0,1-2.4-1.008A4.016,4.016,0,0,1,54.38-3.63v-.212a4.453,4.453,0,0,1,.4-1.921,3.02,3.02,0,0,1,1.138-1.306,3.233,3.233,0,0,1,1.753-.465,2.966,2.966,0,0,1,2.068.745,2.663,2.663,0,0,1,.878,1.935h-1.2a1.743,1.743,0,0,0-.543-1.179,1.691,1.691,0,0,0-1.207-.461,1.77,1.77,0,0,0-1.494.694,3.259,3.259,0,0,0-.53,2.006v.239a3.194,3.194,0,0,0,.526,1.969A1.779,1.779,0,0,0,57.675-.9ZM63.3-6.5a2.689,2.689,0,0,1,2.188-1.032q2.345,0,2.365,2.646V0H66.589V-4.895a1.7,1.7,0,0,0-.366-1.183,1.466,1.466,0,0,0-1.118-.383,1.825,1.825,0,0,0-1.08.328,2.228,2.228,0,0,0-.725.861V0H62.036V-10.5H63.3Zm6.111,2.734a4.369,4.369,0,0,1,.427-1.955,3.187,3.187,0,0,1,1.189-1.34,3.238,3.238,0,0,1,1.74-.472,3.119,3.119,0,0,1,2.444,1.046,4.024,4.024,0,0,1,.933,2.782v.089a4.407,4.407,0,0,1-.414,1.938A3.14,3.14,0,0,1,74.549-.342a3.275,3.275,0,0,1-1.767.479A3.111,3.111,0,0,1,70.345-.909a4,4,0,0,1-.933-2.769Zm1.271.15a3.164,3.164,0,0,0,.571,1.976A1.827,1.827,0,0,0,72.782-.9a1.816,1.816,0,0,0,1.531-.755,3.46,3.46,0,0,0,.567-2.116A3.159,3.159,0,0,0,74.3-5.739a1.836,1.836,0,0,0-1.535-.755,1.816,1.816,0,0,0-1.511.745A3.434,3.434,0,0,0,70.684-3.616ZM82.038-1.962a.931.931,0,0,0-.386-.8,3.718,3.718,0,0,0-1.347-.489,6.367,6.367,0,0,1-1.524-.492,2.169,2.169,0,0,1-.834-.684,1.635,1.635,0,0,1-.27-.943A1.919,1.919,0,0,1,78.446-6.9a3,3,0,0,1,1.965-.629,3.091,3.091,0,0,1,2.041.649,2.063,2.063,0,0,1,.783,1.661H81.963a1.142,1.142,0,0,0-.441-.9,1.652,1.652,0,0,0-1.111-.376,1.729,1.729,0,0,0-1.08.3.947.947,0,0,0-.39.786.767.767,0,0,0,.362.69,4.458,4.458,0,0,0,1.309.444,6.821,6.821,0,0,1,1.535.506,2.239,2.239,0,0,1,.872.708A1.74,1.74,0,0,1,83.3-2.051,1.893,1.893,0,0,1,82.51-.461a3.326,3.326,0,0,1-2.058.6A3.725,3.725,0,0,1,78.88-.178a2.557,2.557,0,0,1-1.07-.878,2.117,2.117,0,0,1-.386-1.22h1.265A1.309,1.309,0,0,0,79.2-1.268,1.976,1.976,0,0,0,80.452-.9,2.039,2.039,0,0,0,81.6-1.186.893.893,0,0,0,82.038-1.962Zm6.07-1.8A4.333,4.333,0,0,1,88.915-6.5a2.551,2.551,0,0,1,2.112-1.036,2.565,2.565,0,0,1,2.058.889V-10.5H94.35V0H93.188l-.062-.793a2.575,2.575,0,0,1-2.112.93,2.526,2.526,0,0,1-2.1-1.053,4.382,4.382,0,0,1-.81-2.748Zm1.265.144a3.281,3.281,0,0,0,.52,1.969,1.68,1.68,0,0,0,1.436.711,1.845,1.845,0,0,0,1.757-1.08v-3.4A1.859,1.859,0,0,0,91.342-6.46a1.687,1.687,0,0,0-1.449.718A3.612,3.612,0,0,0,89.373-3.616ZM99.381.137a3.232,3.232,0,0,1-2.447-.988,3.666,3.666,0,0,1-.943-2.642v-.232a4.438,4.438,0,0,1,.42-1.965,3.28,3.28,0,0,1,1.176-1.354,2.956,2.956,0,0,1,1.637-.489,2.77,2.77,0,0,1,2.242.95,4.114,4.114,0,0,1,.8,2.721v.526H97.255a2.629,2.629,0,0,0,.639,1.767A2.009,2.009,0,0,0,99.449-.9a2.2,2.2,0,0,0,1.135-.273,2.851,2.851,0,0,0,.813-.725l.772.6A3.106,3.106,0,0,1,99.381.137Zm-.157-6.631a1.687,1.687,0,0,0-1.285.557A2.708,2.708,0,0,0,97.3-4.375H101v-.1a2.409,2.409,0,0,0-.52-1.494A1.588,1.588,0,0,0,99.224-6.494Zm11.1,2.058a6.172,6.172,0,0,1-2.458-1.193,2.279,2.279,0,0,1-.769-1.747,2.408,2.408,0,0,1,.94-1.945,3.736,3.736,0,0,1,2.444-.769,4.078,4.078,0,0,1,1.829.4A3.007,3.007,0,0,1,113.555-8.6,2.8,2.8,0,0,1,114-7.075h-1.319A1.82,1.82,0,0,0,112.1-8.5a2.335,2.335,0,0,0-1.62-.518,2.391,2.391,0,0,0-1.514.428,1.428,1.428,0,0,0-.543,1.188,1.285,1.285,0,0,0,.516,1.031,5.062,5.062,0,0,0,1.757.77,8.152,8.152,0,0,1,1.941.77,2.946,2.946,0,0,1,1.039.981,2.5,2.5,0,0,1,.338,1.319,2.326,2.326,0,0,1-.943,1.938,4.022,4.022,0,0,1-2.522.728,4.678,4.678,0,0,1-1.914-.393,3.221,3.221,0,0,1-1.371-1.077,2.627,2.627,0,0,1-.482-1.552H108.1a1.714,1.714,0,0,0,.667,1.425,2.806,2.806,0,0,0,1.781.523,2.58,2.58,0,0,0,1.593-.424,1.377,1.377,0,0,0,.554-1.155,1.351,1.351,0,0,0-.513-1.131A5.911,5.911,0,0,0,110.325-4.437ZM118.569.137a3.232,3.232,0,0,1-2.447-.988,3.666,3.666,0,0,1-.943-2.642v-.232a4.438,4.438,0,0,1,.42-1.965,3.28,3.28,0,0,1,1.176-1.354,2.956,2.956,0,0,1,1.637-.489,2.77,2.77,0,0,1,2.242.95,4.114,4.114,0,0,1,.8,2.721v.526h-5.011a2.629,2.629,0,0,0,.639,1.767,2.009,2.009,0,0,0,1.555.673,2.2,2.2,0,0,0,1.135-.273,2.851,2.851,0,0,0,.813-.725l.772.6A3.106,3.106,0,0,1,118.569.137Zm-.157-6.631a1.687,1.687,0,0,0-1.285.557,2.708,2.708,0,0,0-.643,1.562h3.705v-.1a2.409,2.409,0,0,0-.52-1.494A1.588,1.588,0,0,0,118.412-6.494Zm7.472,5.6a1.822,1.822,0,0,0,1.183-.41,1.443,1.443,0,0,0,.561-1.025h1.2a2.293,2.293,0,0,1-.437,1.21,2.881,2.881,0,0,1-1.077.916,3.107,3.107,0,0,1-1.425.342,3.047,3.047,0,0,1-2.4-1.008,4.016,4.016,0,0,1-.892-2.758v-.212a4.453,4.453,0,0,1,.4-1.921,3.02,3.02,0,0,1,1.138-1.306,3.233,3.233,0,0,1,1.753-.465,2.966,2.966,0,0,1,2.068.745,2.663,2.663,0,0,1,.878,1.935h-1.2a1.743,1.743,0,0,0-.543-1.179,1.691,1.691,0,0,0-1.207-.461,1.77,1.77,0,0,0-1.494.694,3.259,3.259,0,0,0-.53,2.006v.239a3.194,3.194,0,0,0,.526,1.969A1.779,1.779,0,0,0,125.884-.9Zm8.928.9a2.657,2.657,0,0,1-.178-.779,2.822,2.822,0,0,1-2.105.916,2.611,2.611,0,0,1-1.794-.619,2,2,0,0,1-.7-1.569,2.091,2.091,0,0,1,.878-1.794,4.142,4.142,0,0,1,2.471-.639h1.23v-.581a1.42,1.42,0,0,0-.4-1.056,1.593,1.593,0,0,0-1.169-.393,1.844,1.844,0,0,0-1.135.342,1.007,1.007,0,0,0-.458.827h-1.271a1.745,1.745,0,0,1,.393-1.07,2.683,2.683,0,0,1,1.066-.817,3.588,3.588,0,0,1,1.48-.3,2.924,2.924,0,0,1,2,.639,2.306,2.306,0,0,1,.752,1.76v3.4a4.162,4.162,0,0,0,.26,1.62V0Zm-2.1-.964a2.223,2.223,0,0,0,1.128-.308,1.861,1.861,0,0,0,.772-.8V-3.589h-.991q-2.324,0-2.324,1.36a1.151,1.151,0,0,0,.4.93A1.524,1.524,0,0,0,132.713-.964Zm4.84-2.8a4.333,4.333,0,0,1,.807-2.738,2.551,2.551,0,0,1,2.112-1.036,2.565,2.565,0,0,1,2.058.889V-10.5h1.265V0h-1.162l-.062-.793a2.575,2.575,0,0,1-2.112.93,2.526,2.526,0,0,1-2.1-1.053,4.382,4.382,0,0,1-.81-2.748Zm1.265.144a3.281,3.281,0,0,0,.52,1.969,1.68,1.68,0,0,0,1.436.711,1.845,1.845,0,0,0,1.757-1.08v-3.4a1.859,1.859,0,0,0-1.743-1.046,1.687,1.687,0,0,0-1.449.718A3.612,3.612,0,0,0,138.817-3.616Zm6.6-.15a4.369,4.369,0,0,1,.427-1.955,3.187,3.187,0,0,1,1.189-1.34,3.238,3.238,0,0,1,1.74-.472,3.119,3.119,0,0,1,2.444,1.046,4.024,4.024,0,0,1,.933,2.782v.089a4.407,4.407,0,0,1-.414,1.938,3.14,3.14,0,0,1-1.183,1.336,3.275,3.275,0,0,1-1.767.479,3.111,3.111,0,0,1-2.437-1.046,4,4,0,0,1-.933-2.769Zm1.271.15a3.164,3.164,0,0,0,.571,1.976,1.827,1.827,0,0,0,1.528.745,1.816,1.816,0,0,0,1.531-.755,3.46,3.46,0,0,0,.567-2.116,3.159,3.159,0,0,0-.578-1.972,1.836,1.836,0,0,0-1.535-.755,1.816,1.816,0,0,0-1.511.745A3.434,3.434,0,0,0,146.692-3.616Z" transform="translate(958 7773.676)"/>
    <path id="Trazado_720959" data-name="Trazado 720959" d="M2.468-3.9V0H1.155V-9.953H4.826a3.688,3.688,0,0,1,2.56.834,2.827,2.827,0,0,1,.926,2.208,2.79,2.79,0,0,1-.906,2.232A3.853,3.853,0,0,1,4.813-3.9Zm0-1.073H4.826a2.358,2.358,0,0,0,1.613-.5A1.815,1.815,0,0,0,7-6.9a1.876,1.876,0,0,0-.561-1.424A2.209,2.209,0,0,0,4.9-8.88H2.468Zm6.9,1.2a4.369,4.369,0,0,1,.427-1.955,3.187,3.187,0,0,1,1.189-1.34,3.238,3.238,0,0,1,1.74-.472,3.119,3.119,0,0,1,2.444,1.046A4.024,4.024,0,0,1,16.1-3.705v.089a4.407,4.407,0,0,1-.414,1.938A3.14,3.14,0,0,1,14.5-.342a3.275,3.275,0,0,1-1.767.479A3.111,3.111,0,0,1,10.3-.909a4,4,0,0,1-.933-2.769Zm1.271.15a3.164,3.164,0,0,0,.571,1.976A1.827,1.827,0,0,0,12.735-.9a1.816,1.816,0,0,0,1.531-.755,3.46,3.46,0,0,0,.567-2.116,3.159,3.159,0,0,0-.578-1.972,1.836,1.836,0,0,0-1.535-.755,1.816,1.816,0,0,0-1.511.745A3.434,3.434,0,0,0,10.637-3.616Zm8.128,2.584h4.327V0H17.22V-.93L21.3-6.351h-4.02V-7.4h5.605v.9Zm5.3-2.734A4.369,4.369,0,0,1,24.5-5.722a3.187,3.187,0,0,1,1.189-1.34,3.238,3.238,0,0,1,1.74-.472A3.119,3.119,0,0,1,29.87-6.487,4.024,4.024,0,0,1,30.8-3.705v.089a4.407,4.407,0,0,1-.414,1.938A3.14,3.14,0,0,1,29.207-.342a3.275,3.275,0,0,1-1.767.479A3.111,3.111,0,0,1,25-.909a4,4,0,0,1-.933-2.769Zm1.271.15a3.164,3.164,0,0,0,.571,1.976A1.827,1.827,0,0,0,27.439-.9a1.816,1.816,0,0,0,1.531-.755,3.46,3.46,0,0,0,.567-2.116,3.159,3.159,0,0,0-.578-1.972,1.836,1.836,0,0,0-1.535-.755,1.816,1.816,0,0,0-1.511.745A3.434,3.434,0,0,0,25.341-3.616ZM36.7-1.962a.931.931,0,0,0-.386-.8,3.718,3.718,0,0,0-1.347-.489,6.367,6.367,0,0,1-1.524-.492,2.169,2.169,0,0,1-.834-.684,1.635,1.635,0,0,1-.27-.943A1.919,1.919,0,0,1,33.1-6.9a3,3,0,0,1,1.965-.629,3.091,3.091,0,0,1,2.041.649,2.063,2.063,0,0,1,.783,1.661H36.62a1.142,1.142,0,0,0-.441-.9,1.652,1.652,0,0,0-1.111-.376,1.729,1.729,0,0,0-1.08.3.947.947,0,0,0-.39.786.767.767,0,0,0,.362.69,4.458,4.458,0,0,0,1.309.444,6.821,6.821,0,0,1,1.535.506,2.239,2.239,0,0,1,.872.708,1.74,1.74,0,0,1,.284,1.008,1.893,1.893,0,0,1-.793,1.589,3.326,3.326,0,0,1-2.058.6,3.725,3.725,0,0,1-1.572-.314,2.557,2.557,0,0,1-1.07-.878,2.117,2.117,0,0,1-.386-1.22h1.265a1.309,1.309,0,0,0,.509,1.008A1.976,1.976,0,0,0,35.109-.9a2.039,2.039,0,0,0,1.152-.291A.893.893,0,0,0,36.7-1.962Zm6.07-1.8A4.333,4.333,0,0,1,43.572-6.5a2.551,2.551,0,0,1,2.112-1.036,2.565,2.565,0,0,1,2.058.889V-10.5h1.265V0H47.845l-.062-.793a2.575,2.575,0,0,1-2.112.93,2.526,2.526,0,0,1-2.1-1.053,4.382,4.382,0,0,1-.81-2.748Zm1.265.144a3.281,3.281,0,0,0,.52,1.969,1.68,1.68,0,0,0,1.436.711,1.845,1.845,0,0,0,1.757-1.08v-3.4A1.859,1.859,0,0,0,46-6.46a1.687,1.687,0,0,0-1.449.718A3.612,3.612,0,0,0,44.03-3.616ZM54.038.137a3.232,3.232,0,0,1-2.447-.988,3.666,3.666,0,0,1-.943-2.642v-.232a4.438,4.438,0,0,1,.42-1.965,3.28,3.28,0,0,1,1.176-1.354,2.956,2.956,0,0,1,1.637-.489,2.77,2.77,0,0,1,2.242.95,4.114,4.114,0,0,1,.8,2.721v.526H51.912a2.629,2.629,0,0,0,.639,1.767A2.009,2.009,0,0,0,54.106-.9a2.2,2.2,0,0,0,1.135-.273,2.851,2.851,0,0,0,.813-.725l.772.6A3.106,3.106,0,0,1,54.038.137Zm-.157-6.631a1.687,1.687,0,0,0-1.285.557,2.708,2.708,0,0,0-.643,1.562h3.705v-.1a2.409,2.409,0,0,0-.52-1.494A1.588,1.588,0,0,0,53.881-6.494ZM63.458,0H62.146V-9.953h1.313Zm3.4-7.4.041.93a2.7,2.7,0,0,1,2.215-1.066q2.345,0,2.365,2.646V0H70.212V-4.895a1.7,1.7,0,0,0-.366-1.183,1.466,1.466,0,0,0-1.118-.383,1.825,1.825,0,0,0-1.08.328,2.228,2.228,0,0,0-.725.861V0H65.659V-7.4ZM77.69-1.962a.931.931,0,0,0-.386-.8,3.718,3.718,0,0,0-1.347-.489,6.367,6.367,0,0,1-1.524-.492,2.169,2.169,0,0,1-.834-.684,1.635,1.635,0,0,1-.27-.943A1.919,1.919,0,0,1,74.1-6.9a3,3,0,0,1,1.965-.629,3.091,3.091,0,0,1,2.041.649,2.063,2.063,0,0,1,.783,1.661H77.615a1.142,1.142,0,0,0-.441-.9,1.652,1.652,0,0,0-1.111-.376,1.729,1.729,0,0,0-1.08.3.947.947,0,0,0-.39.786.767.767,0,0,0,.362.69,4.458,4.458,0,0,0,1.309.444,6.821,6.821,0,0,1,1.535.506,2.239,2.239,0,0,1,.872.708,1.74,1.74,0,0,1,.284,1.008,1.893,1.893,0,0,1-.793,1.589,3.326,3.326,0,0,1-2.058.6,3.725,3.725,0,0,1-1.572-.314,2.557,2.557,0,0,1-1.07-.878,2.117,2.117,0,0,1-.386-1.22h1.265a1.309,1.309,0,0,0,.509,1.008A1.976,1.976,0,0,0,76.1-.9a2.039,2.039,0,0,0,1.152-.291A.893.893,0,0,0,77.69-1.962Zm9.16-1.654A4.429,4.429,0,0,1,86.078-.9,2.476,2.476,0,0,1,83.986.137a2.713,2.713,0,0,1-2.119-.854V2.844H80.6V-7.4h1.155l.062.82a2.605,2.605,0,0,1,2.146-.957,2.522,2.522,0,0,1,2.109,1,4.477,4.477,0,0,1,.776,2.8ZM85.586-3.76a3.268,3.268,0,0,0-.533-1.976A1.718,1.718,0,0,0,83.59-6.46a1.859,1.859,0,0,0-1.723,1.019v3.534A1.863,1.863,0,0,0,83.6-.9a1.71,1.71,0,0,0,1.446-.721A3.567,3.567,0,0,0,85.586-3.76Zm5.94,3.9a3.232,3.232,0,0,1-2.447-.988,3.666,3.666,0,0,1-.943-2.642v-.232a4.438,4.438,0,0,1,.42-1.965,3.28,3.28,0,0,1,1.176-1.354,2.956,2.956,0,0,1,1.637-.489,2.77,2.77,0,0,1,2.242.95,4.114,4.114,0,0,1,.8,2.721v.526H89.4a2.629,2.629,0,0,0,.639,1.767A2.009,2.009,0,0,0,91.595-.9a2.2,2.2,0,0,0,1.135-.273,2.851,2.851,0,0,0,.813-.725l.772.6A3.106,3.106,0,0,1,91.526.137Zm-.157-6.631a1.687,1.687,0,0,0-1.285.557,2.708,2.708,0,0,0-.643,1.562h3.705v-.1a2.409,2.409,0,0,0-.52-1.494A1.588,1.588,0,0,0,91.369-6.494ZM98.841-.9a1.822,1.822,0,0,0,1.183-.41,1.443,1.443,0,0,0,.561-1.025h1.2a2.293,2.293,0,0,1-.437,1.21,2.882,2.882,0,0,1-1.077.916,3.107,3.107,0,0,1-1.425.342,3.047,3.047,0,0,1-2.4-1.008,4.016,4.016,0,0,1-.892-2.758v-.212a4.453,4.453,0,0,1,.4-1.921,3.02,3.02,0,0,1,1.138-1.306,3.233,3.233,0,0,1,1.753-.465,2.966,2.966,0,0,1,2.068.745,2.663,2.663,0,0,1,.878,1.935h-1.2a1.743,1.743,0,0,0-.543-1.179,1.691,1.691,0,0,0-1.207-.461A1.77,1.77,0,0,0,97.34-5.8a3.259,3.259,0,0,0-.53,2.006v.239a3.194,3.194,0,0,0,.526,1.969A1.779,1.779,0,0,0,98.841-.9Zm7.328,0a1.822,1.822,0,0,0,1.183-.41,1.443,1.443,0,0,0,.561-1.025h1.2a2.293,2.293,0,0,1-.437,1.21,2.882,2.882,0,0,1-1.077.916,3.107,3.107,0,0,1-1.425.342,3.047,3.047,0,0,1-2.4-1.008,4.016,4.016,0,0,1-.892-2.758v-.212a4.453,4.453,0,0,1,.4-1.921,3.02,3.02,0,0,1,1.138-1.306,3.233,3.233,0,0,1,1.753-.465,2.966,2.966,0,0,1,2.068.745,2.663,2.663,0,0,1,.878,1.935h-1.2a1.743,1.743,0,0,0-.543-1.179,1.691,1.691,0,0,0-1.207-.461,1.77,1.77,0,0,0-1.494.694,3.259,3.259,0,0,0-.53,2.006v.239a3.194,3.194,0,0,0,.526,1.969A1.779,1.779,0,0,0,106.169-.9ZM111.9,0H110.64V-7.4H111.9Zm-1.367-9.358a.755.755,0,0,1,.188-.52.706.706,0,0,1,.557-.212.717.717,0,0,1,.561.212.747.747,0,0,1,.191.52.722.722,0,0,1-.191.513.73.73,0,0,1-.561.205.718.718,0,0,1-.557-.205A.73.73,0,0,1,110.537-9.358Zm3.056,5.592a4.369,4.369,0,0,1,.427-1.955,3.187,3.187,0,0,1,1.189-1.34,3.238,3.238,0,0,1,1.74-.472,3.119,3.119,0,0,1,2.444,1.046,4.024,4.024,0,0,1,.933,2.782v.089a4.407,4.407,0,0,1-.414,1.938A3.14,3.14,0,0,1,118.73-.342a3.275,3.275,0,0,1-1.767.479,3.111,3.111,0,0,1-2.437-1.046,4,4,0,0,1-.933-2.769Zm1.271.15a3.164,3.164,0,0,0,.571,1.976,1.827,1.827,0,0,0,1.528.745,1.816,1.816,0,0,0,1.531-.755,3.46,3.46,0,0,0,.567-2.116,3.159,3.159,0,0,0-.578-1.972,1.836,1.836,0,0,0-1.535-.755,1.816,1.816,0,0,0-1.511.745A3.434,3.434,0,0,0,114.864-3.616Zm2.659-6.884h1.531l-1.832,2.01-1.019,0Zm5.585,3.1.041.93a2.7,2.7,0,0,1,2.215-1.066q2.345,0,2.365,2.646V0h-1.265V-4.895a1.7,1.7,0,0,0-.366-1.183,1.466,1.466,0,0,0-1.118-.383,1.825,1.825,0,0,0-1.08.328,2.228,2.228,0,0,0-.725.861V0h-1.265V-7.4Z" transform="translate(698 7798.676)"/>
    <path id="Trazado_720960" data-name="Trazado 720960" d="M1.155,0V-9.953h2.81a4.523,4.523,0,0,1,2.3.574A3.884,3.884,0,0,1,7.8-7.745a5.318,5.318,0,0,1,.55,2.434v.636A5.336,5.336,0,0,1,7.81-2.208,3.823,3.823,0,0,1,6.258-.581,4.811,4.811,0,0,1,3.91,0ZM2.468-8.88v7.807H3.849A3,3,0,0,0,6.21-2.017a3.9,3.9,0,0,0,.844-2.689v-.582a3.963,3.963,0,0,0-.8-2.637A2.834,2.834,0,0,0,4-8.88ZM13.207.137A3.232,3.232,0,0,1,10.76-.851a3.666,3.666,0,0,1-.943-2.642v-.232a4.438,4.438,0,0,1,.42-1.965,3.28,3.28,0,0,1,1.176-1.354,2.956,2.956,0,0,1,1.637-.489,2.77,2.77,0,0,1,2.242.95,4.114,4.114,0,0,1,.8,2.721v.526H11.081a2.629,2.629,0,0,0,.639,1.767A2.009,2.009,0,0,0,13.275-.9a2.2,2.2,0,0,0,1.135-.273,2.851,2.851,0,0,0,.813-.725l.772.6A3.106,3.106,0,0,1,13.207.137ZM13.05-6.494a1.687,1.687,0,0,0-1.285.557,2.708,2.708,0,0,0-.643,1.562h3.705v-.1a2.409,2.409,0,0,0-.52-1.494A1.588,1.588,0,0,0,13.05-6.494Zm6.221-2.693V-7.4h1.381v.978H19.271v4.593a1.027,1.027,0,0,0,.185.667.777.777,0,0,0,.629.222,3.062,3.062,0,0,0,.6-.082V0a3.688,3.688,0,0,1-.971.136,1.575,1.575,0,0,1-1.278-.513,2.2,2.2,0,0,1-.431-1.456V-6.419H16.659V-7.4h1.347V-9.187ZM25.7-6.262a3.79,3.79,0,0,0-.622-.048,1.667,1.667,0,0,0-1.688,1.06V0H22.128V-7.4h1.23l.021.854a1.969,1.969,0,0,1,1.764-.991,1.292,1.292,0,0,1,.561.1ZM28.239,0H26.975V-7.4h1.265ZM26.872-9.358a.755.755,0,0,1,.188-.52.706.706,0,0,1,.557-.212.717.717,0,0,1,.561.212.747.747,0,0,1,.191.52.722.722,0,0,1-.191.513.73.73,0,0,1-.561.205.718.718,0,0,1-.557-.205A.73.73,0,0,1,26.872-9.358Zm5.106.171V-7.4h1.381v.978H31.979v4.593a1.027,1.027,0,0,0,.185.667.777.777,0,0,0,.629.222,3.062,3.062,0,0,0,.6-.082V0a3.688,3.688,0,0,1-.971.136,1.575,1.575,0,0,1-1.278-.513,2.2,2.2,0,0,1-.431-1.456V-6.419H29.367V-7.4h1.347V-9.187ZM39.4-.731a2.686,2.686,0,0,1-2.167.868,2.3,2.3,0,0,1-1.8-.687,2.974,2.974,0,0,1-.625-2.034V-7.4h1.265v4.778q0,1.682,1.367,1.682a1.893,1.893,0,0,0,1.928-1.08V-7.4h1.265V0h-1.2Zm7.458-1.23a.931.931,0,0,0-.386-.8,3.718,3.718,0,0,0-1.347-.489A6.367,6.367,0,0,1,43.6-3.739a2.169,2.169,0,0,1-.834-.684,1.635,1.635,0,0,1-.27-.943A1.919,1.919,0,0,1,43.268-6.9a3,3,0,0,1,1.965-.629,3.091,3.091,0,0,1,2.041.649,2.063,2.063,0,0,1,.783,1.661H46.785a1.142,1.142,0,0,0-.441-.9,1.652,1.652,0,0,0-1.111-.376,1.729,1.729,0,0,0-1.08.3.947.947,0,0,0-.39.786.767.767,0,0,0,.362.69,4.458,4.458,0,0,0,1.309.444,6.821,6.821,0,0,1,1.535.506,2.239,2.239,0,0,1,.872.708,1.74,1.74,0,0,1,.284,1.008,1.893,1.893,0,0,1-.793,1.589,3.326,3.326,0,0,1-2.058.6A3.725,3.725,0,0,1,43.7-.178a2.557,2.557,0,0,1-1.07-.878,2.117,2.117,0,0,1-.386-1.22h1.265a1.309,1.309,0,0,0,.509,1.008A1.976,1.976,0,0,0,45.274-.9a2.039,2.039,0,0,0,1.152-.291A.893.893,0,0,0,46.86-1.962Z" transform="translate(739 7731.676)"/>
    <path id="Trazado_720961" data-name="Trazado 720961" d="M8.477-3.158A3.662,3.662,0,0,1,7.311-.721,3.82,3.82,0,0,1,4.7.137,3.507,3.507,0,0,1,1.876-1.128,5.088,5.088,0,0,1,.813-4.512v-.957a5.671,5.671,0,0,1,.5-2.44,3.7,3.7,0,0,1,1.4-1.617,3.911,3.911,0,0,1,2.105-.564A3.6,3.6,0,0,1,7.362-9.2,3.706,3.706,0,0,1,8.477-6.754H7.157a2.86,2.86,0,0,0-.742-1.728,2.244,2.244,0,0,0-1.6-.535,2.348,2.348,0,0,0-1.972.93,4.271,4.271,0,0,0-.714,2.648v.965A4.391,4.391,0,0,0,2.81-1.894,2.187,2.187,0,0,0,4.7-.937a2.526,2.526,0,0,0,1.678-.5,2.75,2.75,0,0,0,.776-1.726ZM14.636,0a2.657,2.657,0,0,1-.178-.779,2.822,2.822,0,0,1-2.105.916,2.611,2.611,0,0,1-1.794-.619,2,2,0,0,1-.7-1.569,2.091,2.091,0,0,1,.878-1.794,4.142,4.142,0,0,1,2.471-.639h1.23v-.581a1.42,1.42,0,0,0-.4-1.056,1.593,1.593,0,0,0-1.169-.393,1.844,1.844,0,0,0-1.135.342,1.007,1.007,0,0,0-.458.827H10.008a1.745,1.745,0,0,1,.393-1.07,2.683,2.683,0,0,1,1.066-.817,3.588,3.588,0,0,1,1.48-.3,2.924,2.924,0,0,1,2,.639,2.306,2.306,0,0,1,.752,1.76v3.4a4.162,4.162,0,0,0,.26,1.62V0Zm-2.1-.964a2.223,2.223,0,0,0,1.128-.308,1.861,1.861,0,0,0,.772-.8V-3.589h-.991q-2.324,0-2.324,1.36a1.151,1.151,0,0,0,.4.93A1.524,1.524,0,0,0,12.537-.964ZM18.881-7.4l.041.93a2.7,2.7,0,0,1,2.215-1.066q2.345,0,2.365,2.646V0H22.237V-4.895a1.7,1.7,0,0,0-.366-1.183,1.466,1.466,0,0,0-1.118-.383,1.825,1.825,0,0,0-1.08.328,2.228,2.228,0,0,0-.725.861V0H17.685V-7.4ZM29.976,0A2.657,2.657,0,0,1,29.8-.779a2.822,2.822,0,0,1-2.105.916A2.611,2.611,0,0,1,25.9-.482a2,2,0,0,1-.7-1.569,2.091,2.091,0,0,1,.878-1.794,4.142,4.142,0,0,1,2.471-.639h1.23v-.581a1.42,1.42,0,0,0-.4-1.056,1.593,1.593,0,0,0-1.169-.393,1.844,1.844,0,0,0-1.135.342,1.007,1.007,0,0,0-.458.827H25.348a1.745,1.745,0,0,1,.393-1.07,2.683,2.683,0,0,1,1.066-.817,3.588,3.588,0,0,1,1.48-.3,2.924,2.924,0,0,1,2,.639,2.306,2.306,0,0,1,.752,1.76v3.4a4.162,4.162,0,0,0,.26,1.62V0Zm-2.1-.964A2.223,2.223,0,0,0,29-1.271a1.861,1.861,0,0,0,.772-.8V-3.589h-.991q-2.324,0-2.324,1.36a1.151,1.151,0,0,0,.4.93A1.524,1.524,0,0,0,27.877-.964ZM34.4,0H33.134V-10.5H34.4Zm5.093.137a3.232,3.232,0,0,1-2.447-.988A3.666,3.666,0,0,1,36.1-3.493v-.232a4.438,4.438,0,0,1,.42-1.965A3.28,3.28,0,0,1,37.7-7.044a2.956,2.956,0,0,1,1.637-.489,2.77,2.77,0,0,1,2.242.95,4.114,4.114,0,0,1,.8,2.721v.526H37.365A2.629,2.629,0,0,0,38-1.569,2.009,2.009,0,0,0,39.56-.9a2.2,2.2,0,0,0,1.135-.273,2.851,2.851,0,0,0,.813-.725l.772.6A3.106,3.106,0,0,1,39.491.137Zm-.157-6.631a1.687,1.687,0,0,0-1.285.557,2.708,2.708,0,0,0-.643,1.562h3.705v-.1a2.409,2.409,0,0,0-.52-1.494A1.588,1.588,0,0,0,39.334-6.494Zm8.812,4.532a.931.931,0,0,0-.386-.8,3.718,3.718,0,0,0-1.347-.489,6.367,6.367,0,0,1-1.524-.492,2.169,2.169,0,0,1-.834-.684,1.635,1.635,0,0,1-.27-.943A1.919,1.919,0,0,1,44.553-6.9a3,3,0,0,1,1.965-.629,3.091,3.091,0,0,1,2.041.649,2.063,2.063,0,0,1,.783,1.661H48.07a1.142,1.142,0,0,0-.441-.9,1.652,1.652,0,0,0-1.111-.376,1.729,1.729,0,0,0-1.08.3.947.947,0,0,0-.39.786.767.767,0,0,0,.362.69,4.458,4.458,0,0,0,1.309.444,6.821,6.821,0,0,1,1.535.506,2.239,2.239,0,0,1,.872.708,1.74,1.74,0,0,1,.284,1.008,1.893,1.893,0,0,1-.793,1.589,3.326,3.326,0,0,1-2.058.6,3.725,3.725,0,0,1-1.572-.314,2.557,2.557,0,0,1-1.07-.878,2.117,2.117,0,0,1-.386-1.22H44.8a1.309,1.309,0,0,0,.509,1.008A1.976,1.976,0,0,0,46.56-.9a2.039,2.039,0,0,0,1.152-.291A.893.893,0,0,0,48.146-1.962Z" transform="translate(868 7589.676)"/>
    <path id="Trazado_720962" data-name="Trazado 720962" d="M8.477-3.158A3.662,3.662,0,0,1,7.311-.721,3.82,3.82,0,0,1,4.7.137,3.507,3.507,0,0,1,1.876-1.128,5.088,5.088,0,0,1,.813-4.512v-.957a5.671,5.671,0,0,1,.5-2.44,3.7,3.7,0,0,1,1.4-1.617,3.911,3.911,0,0,1,2.105-.564A3.6,3.6,0,0,1,7.362-9.2,3.706,3.706,0,0,1,8.477-6.754H7.157a2.86,2.86,0,0,0-.742-1.728,2.244,2.244,0,0,0-1.6-.535,2.348,2.348,0,0,0-1.972.93,4.271,4.271,0,0,0-.714,2.648v.965A4.391,4.391,0,0,0,2.81-1.894,2.187,2.187,0,0,0,4.7-.937a2.526,2.526,0,0,0,1.678-.5,2.75,2.75,0,0,0,.776-1.726ZM13.139.137a3.232,3.232,0,0,1-2.447-.988,3.666,3.666,0,0,1-.943-2.642v-.232a4.438,4.438,0,0,1,.42-1.965,3.28,3.28,0,0,1,1.176-1.354,2.956,2.956,0,0,1,1.637-.489,2.77,2.77,0,0,1,2.242.95,4.114,4.114,0,0,1,.8,2.721v.526H11.013a2.629,2.629,0,0,0,.639,1.767A2.009,2.009,0,0,0,13.207-.9a2.2,2.2,0,0,0,1.135-.273,2.851,2.851,0,0,0,.813-.725l.772.6A3.106,3.106,0,0,1,13.139.137Zm-.157-6.631a1.687,1.687,0,0,0-1.285.557,2.708,2.708,0,0,0-.643,1.562h3.705v-.1a2.409,2.409,0,0,0-.52-1.494A1.588,1.588,0,0,0,12.981-6.494Zm8.08.232a3.79,3.79,0,0,0-.622-.048,1.667,1.667,0,0,0-1.688,1.06V0H17.486V-7.4h1.23l.021.854A1.969,1.969,0,0,1,20.5-7.533a1.292,1.292,0,0,1,.561.1Zm4.737,0a3.79,3.79,0,0,0-.622-.048,1.667,1.667,0,0,0-1.688,1.06V0H22.224V-7.4h1.23l.021.854a1.969,1.969,0,0,1,1.764-.991,1.292,1.292,0,0,1,.561.1ZM31.254,0a2.657,2.657,0,0,1-.178-.779,2.822,2.822,0,0,1-2.105.916,2.611,2.611,0,0,1-1.794-.619,2,2,0,0,1-.7-1.569,2.091,2.091,0,0,1,.878-1.794,4.142,4.142,0,0,1,2.471-.639h1.23v-.581a1.42,1.42,0,0,0-.4-1.056,1.593,1.593,0,0,0-1.169-.393,1.844,1.844,0,0,0-1.135.342,1.007,1.007,0,0,0-.458.827H26.626a1.745,1.745,0,0,1,.393-1.07,2.683,2.683,0,0,1,1.066-.817,3.588,3.588,0,0,1,1.48-.3,2.924,2.924,0,0,1,2,.639,2.306,2.306,0,0,1,.752,1.76v3.4a4.162,4.162,0,0,0,.26,1.62V0Zm-2.1-.964a2.223,2.223,0,0,0,1.128-.308,1.861,1.861,0,0,0,.772-.8V-3.589h-.991q-2.324,0-2.324,1.36a1.151,1.151,0,0,0,.4.93A1.524,1.524,0,0,0,29.155-.964ZM34-3.76A4.333,4.333,0,0,1,34.8-6.5a2.551,2.551,0,0,1,2.112-1.036,2.565,2.565,0,0,1,2.058.889V-10.5h1.265V0H39.074l-.062-.793A2.575,2.575,0,0,1,36.9.137a2.526,2.526,0,0,1-2.1-1.053A4.382,4.382,0,0,1,34-3.664Zm1.265.144a3.281,3.281,0,0,0,.52,1.969,1.68,1.68,0,0,0,1.436.711,1.845,1.845,0,0,0,1.757-1.08v-3.4A1.859,1.859,0,0,0,37.229-6.46a1.687,1.687,0,0,0-1.449.718A3.612,3.612,0,0,0,35.26-3.616Zm11.5,2.885A2.686,2.686,0,0,1,44.6.137,2.3,2.3,0,0,1,42.8-.55a2.974,2.974,0,0,1-.625-2.034V-7.4h1.265v4.778q0,1.682,1.367,1.682a1.893,1.893,0,0,0,1.928-1.08V-7.4H48V0h-1.2Zm6.727-5.53a3.79,3.79,0,0,0-.622-.048,1.667,1.667,0,0,0-1.688,1.06V0H49.916V-7.4h1.23l.021.854a1.969,1.969,0,0,1,1.764-.991,1.292,1.292,0,0,1,.561.1ZM58.946,0a2.657,2.657,0,0,1-.178-.779,2.822,2.822,0,0,1-2.105.916,2.611,2.611,0,0,1-1.794-.619,2,2,0,0,1-.7-1.569,2.091,2.091,0,0,1,.878-1.794,4.142,4.142,0,0,1,2.471-.639h1.23v-.581a1.42,1.42,0,0,0-.4-1.056,1.593,1.593,0,0,0-1.169-.393,1.844,1.844,0,0,0-1.135.342,1.007,1.007,0,0,0-.458.827H54.318a1.745,1.745,0,0,1,.393-1.07,2.683,2.683,0,0,1,1.066-.817,3.588,3.588,0,0,1,1.48-.3,2.924,2.924,0,0,1,2,.639,2.306,2.306,0,0,1,.752,1.76v3.4a4.162,4.162,0,0,0,.26,1.62V0Zm-2.1-.964a2.223,2.223,0,0,0,1.128-.308,1.861,1.861,0,0,0,.772-.8V-3.589h-.991q-2.324,0-2.324,1.36a1.151,1.151,0,0,0,.4.93A1.524,1.524,0,0,0,56.848-.964Zm9.454-1a.931.931,0,0,0-.386-.8,3.718,3.718,0,0,0-1.347-.489,6.367,6.367,0,0,1-1.524-.492,2.169,2.169,0,0,1-.834-.684,1.635,1.635,0,0,1-.27-.943A1.919,1.919,0,0,1,62.709-6.9a3,3,0,0,1,1.965-.629,3.091,3.091,0,0,1,2.041.649A2.063,2.063,0,0,1,67.5-5.223H66.227a1.142,1.142,0,0,0-.441-.9,1.652,1.652,0,0,0-1.111-.376,1.729,1.729,0,0,0-1.08.3.947.947,0,0,0-.39.786.767.767,0,0,0,.362.69,4.458,4.458,0,0,0,1.309.444,6.821,6.821,0,0,1,1.535.506,2.239,2.239,0,0,1,.872.708,1.74,1.74,0,0,1,.284,1.008,1.893,1.893,0,0,1-.793,1.589,3.326,3.326,0,0,1-2.058.6,3.725,3.725,0,0,1-1.572-.314,2.557,2.557,0,0,1-1.07-.878,2.117,2.117,0,0,1-.386-1.22h1.265a1.309,1.309,0,0,0,.509,1.008A1.976,1.976,0,0,0,64.716-.9a2.039,2.039,0,0,0,1.152-.291A.893.893,0,0,0,66.3-1.962Z" transform="translate(868 7910.676)"/>
    <path id="Trazado_720963" data-name="Trazado 720963" d="M0,0H419V127H0Z" transform="translate(586.113 7565)" fill="none" stroke="#12263f" stroke-width="1"/>
    <path id="Trazado_720964" data-name="Trazado 720964" d="M0,0V127" transform="translate(646.113 7565)" fill="none" stroke="#12263f" stroke-width="1"/>
    <path id="Trazado_720965" data-name="Trazado 720965" d="M0,0V127" transform="translate(670.113 7565)" fill="none" stroke="#12263f" stroke-width="1"/>
    <path id="Trazado_720966" data-name="Trazado 720966" d="M0,0V165" transform="translate(838.113 7546)" fill="none" stroke="#12263f" stroke-width="1"/>
    <path id="Trazado_720967" data-name="Trazado 720967" d="M0,0V165" transform="translate(857.113 7546)" fill="none" stroke="#12263f" stroke-width="1"/>
    <path id="Trazado_720968" data-name="Trazado 720968" d="M123,0,0,103" transform="translate(882.113 7565)" fill="none" stroke="#12263f" stroke-width="1"/>
    <path id="Trazado_720969" data-name="Trazado 720969" d="M0,0H25V25H0Z" transform="translate(857.113 7667)" fill="none" stroke="#12263f" stroke-width="1"/>
    <path id="Trazado_720970" data-name="Trazado 720970" d="M8.5,0A8.5,8.5,0,1,1,0,8.5,8.5,8.5,0,0,1,8.5,0Z" transform="translate(861.113 7671)" fill="#12263f" stroke="#12263f" stroke-width="1"/>
    <path id="Trazado_720971" data-name="Trazado 720971" d="M8.5,0A8.5,8.5,0,1,1,0,8.5,8.5,8.5,0,0,1,8.5,0Z" transform="translate(649.113 7671)" fill="#12263f" stroke="#12263f" stroke-width="1"/>
    <path id="Trazado_720972" data-name="Trazado 720972" d="M8.5,0A8.5,8.5,0,1,1,0,8.5,8.5,8.5,0,0,1,8.5,0Z" transform="translate(581.113 7624)" fill="#12263f" stroke="#12263f" stroke-width="1"/>
    <path id="Trazado_720973" data-name="Trazado 720973" d="M8.5,0A8.5,8.5,0,1,1,0,8.5,8.5,8.5,0,0,1,8.5,0Z" transform="translate(1022.613 7624.5)" fill="#12263f" stroke="#12263f" stroke-width="1"/>
    <path id="Trazado_720974" data-name="Trazado 720974" d="M0,0H109V127H0Z" transform="translate(729.113 7565)" fill="none" stroke="#12263f" stroke-width="1"/>
    <path id="Trazado_720975" data-name="Trazado 720975" d="M0,0H109" transform="translate(729.113 7569)" fill="none" stroke="#12263f" stroke-width="1"/>
    <path id="Trazado_720976" data-name="Trazado 720976" d="M0,0H109" transform="translate(729.113 7572)" fill="none" stroke="#12263f" stroke-width="1"/>
    <path id="Trazado_720977" data-name="Trazado 720977" d="M0,0H109" transform="translate(729.113 7575)" fill="none" stroke="#12263f" stroke-width="1"/>
    <path id="Trazado_720978" data-name="Trazado 720978" d="M0,0H109" transform="translate(729.113 7578)" fill="none" stroke="#12263f" stroke-width="1"/>
    <path id="Trazado_720979" data-name="Trazado 720979" d="M0,0H109" transform="translate(729.113 7581)" fill="none" stroke="#12263f" stroke-width="1"/>
    <path id="Trazado_720980" data-name="Trazado 720980" d="M0,0H109" transform="translate(729.113 7584)" fill="none" stroke="#12263f" stroke-width="1"/>
    <path id="Trazado_720981" data-name="Trazado 720981" d="M0,0H109" transform="translate(729.113 7587)" fill="none" stroke="#12263f" stroke-width="1"/>
    <path id="Trazado_720982" data-name="Trazado 720982" d="M0,0H109" transform="translate(729.113 7590)" fill="none" stroke="#12263f" stroke-width="1"/>
    <path id="Trazado_720983" data-name="Trazado 720983" d="M0,0H109" transform="translate(729.113 7593)" fill="none" stroke="#12263f" stroke-width="1"/>
    <path id="Trazado_720984" data-name="Trazado 720984" d="M0,0H109" transform="translate(729.113 7596)" fill="none" stroke="#12263f" stroke-width="1"/>
    <path id="Trazado_720985" data-name="Trazado 720985" d="M0,0H109" transform="translate(729.113 7599)" fill="none" stroke="#12263f" stroke-width="1"/>
    <path id="Trazado_720986" data-name="Trazado 720986" d="M0,0H109" transform="translate(729.113 7602)" fill="none" stroke="#12263f" stroke-width="1"/>
    <path id="Trazado_720987" data-name="Trazado 720987" d="M0,0H109" transform="translate(729.113 7605)" fill="none" stroke="#12263f" stroke-width="1"/>
    <path id="Trazado_720988" data-name="Trazado 720988" d="M0,0H109" transform="translate(729.113 7608)" fill="none" stroke="#12263f" stroke-width="1"/>
    <path id="Trazado_720989" data-name="Trazado 720989" d="M0,0H109" transform="translate(729.113 7611)" fill="none" stroke="#12263f" stroke-width="1"/>
    <path id="Trazado_720990" data-name="Trazado 720990" d="M0,0H109" transform="translate(729.113 7614)" fill="none" stroke="#12263f" stroke-width="1"/>
    <path id="Trazado_720991" data-name="Trazado 720991" d="M0,0H109" transform="translate(729.113 7617)" fill="none" stroke="#12263f" stroke-width="1"/>
    <path id="Trazado_720992" data-name="Trazado 720992" d="M0,0H109" transform="translate(729.113 7620)" fill="none" stroke="#12263f" stroke-width="1"/>
    <path id="Trazado_720993" data-name="Trazado 720993" d="M0,0H109" transform="translate(729.113 7623)" fill="none" stroke="#12263f" stroke-width="1"/>
    <path id="Trazado_720994" data-name="Trazado 720994" d="M0,0H109" transform="translate(729.113 7626)" fill="none" stroke="#12263f" stroke-width="1"/>
    <path id="Trazado_720995" data-name="Trazado 720995" d="M0,0H109" transform="translate(729.113 7629)" fill="none" stroke="#12263f" stroke-width="1"/>
    <path id="Trazado_720996" data-name="Trazado 720996" d="M0,0H109" transform="translate(729.113 7632)" fill="none" stroke="#12263f" stroke-width="1"/>
    <path id="Trazado_720997" data-name="Trazado 720997" d="M0,0H109" transform="translate(729.113 7635)" fill="none" stroke="#12263f" stroke-width="1"/>
    <path id="Trazado_720998" data-name="Trazado 720998" d="M0,0H109" transform="translate(729.113 7638)" fill="none" stroke="#12263f" stroke-width="1"/>
    <path id="Trazado_720999" data-name="Trazado 720999" d="M0,0H109" transform="translate(729.113 7641)" fill="none" stroke="#12263f" stroke-width="1"/>
    <path id="Trazado_721000" data-name="Trazado 721000" d="M0,0H109" transform="translate(729.113 7644)" fill="none" stroke="#12263f" stroke-width="1"/>
    <path id="Trazado_721001" data-name="Trazado 721001" d="M0,0H109" transform="translate(729.113 7647)" fill="none" stroke="#12263f" stroke-width="1"/>
    <path id="Trazado_721002" data-name="Trazado 721002" d="M0,0H109" transform="translate(729.113 7650)" fill="none" stroke="#12263f" stroke-width="1"/>
    <path id="Trazado_721003" data-name="Trazado 721003" d="M0,0H109" transform="translate(729.113 7653)" fill="none" stroke="#12263f" stroke-width="1"/>
    <path id="Trazado_721004" data-name="Trazado 721004" d="M0,0H109" transform="translate(729.113 7656)" fill="none" stroke="#12263f" stroke-width="1"/>
    <path id="Trazado_721005" data-name="Trazado 721005" d="M0,0H109" transform="translate(729.113 7659)" fill="none" stroke="#12263f" stroke-width="1"/>
    <path id="Trazado_721006" data-name="Trazado 721006" d="M0,0H109" transform="translate(729.113 7662)" fill="none" stroke="#12263f" stroke-width="1"/>
    <path id="Trazado_721007" data-name="Trazado 721007" d="M0,0H109" transform="translate(729.113 7665)" fill="none" stroke="#12263f" stroke-width="1"/>
    <path id="Trazado_721008" data-name="Trazado 721008" d="M0,0H109" transform="translate(729.113 7668)" fill="none" stroke="#12263f" stroke-width="1"/>
    <path id="Trazado_721009" data-name="Trazado 721009" d="M0,0H109" transform="translate(729.113 7671)" fill="none" stroke="#12263f" stroke-width="1"/>
    <path id="Trazado_721010" data-name="Trazado 721010" d="M0,0H109" transform="translate(729.113 7674)" fill="none" stroke="#12263f" stroke-width="1"/>
    <path id="Trazado_721011" data-name="Trazado 721011" d="M0,0H109" transform="translate(729.113 7677)" fill="none" stroke="#12263f" stroke-width="1"/>
    <path id="Trazado_721012" data-name="Trazado 721012" d="M0,0H109" transform="translate(729.113 7680)" fill="none" stroke="#12263f" stroke-width="1"/>
    <path id="Trazado_721013" data-name="Trazado 721013" d="M0,0H109" transform="translate(729.113 7683)" fill="none" stroke="#12263f" stroke-width="1"/>
    <path id="Trazado_721014" data-name="Trazado 721014" d="M0,0H109" transform="translate(729.113 7686)" fill="none" stroke="#12263f" stroke-width="1"/>
    <path id="Trazado_721015" data-name="Trazado 721015" d="M0,0H419V127H0Z" transform="translate(586.113 7803)" fill="none" stroke="#12263f" stroke-width="1"/>
    <path id="Trazado_721016" data-name="Trazado 721016" d="M0,127V0" transform="translate(646.113 7803)" fill="none" stroke="#12263f" stroke-width="1"/>
    <path id="Trazado_721017" data-name="Trazado 721017" d="M0,127V0" transform="translate(670.113 7803)" fill="none" stroke="#12263f" stroke-width="1"/>
    <path id="Trazado_721018" data-name="Trazado 721018" d="M0,165V0" transform="translate(838.113 7784)" fill="none" stroke="#12263f" stroke-width="1"/>
    <path id="Trazado_721019" data-name="Trazado 721019" d="M0,165V0" transform="translate(857.113 7784)" fill="none" stroke="#12263f" stroke-width="1"/>
    <path id="Trazado_721020" data-name="Trazado 721020" d="M123,103,0,0" transform="translate(882.113 7827)" fill="none" stroke="#12263f" stroke-width="1"/>
    <path id="Trazado_721021" data-name="Trazado 721021" d="M0,0H25V25H0Z" transform="translate(857.113 7803)" fill="none" stroke="#12263f" stroke-width="1"/>
    <path id="Trazado_721022" data-name="Trazado 721022" d="M8.5,0A8.5,8.5,0,1,1,0,8.5,8.5,8.5,0,0,1,8.5,0Z" transform="translate(861.113 7807)" fill="#12263f" stroke="#12263f" stroke-width="1"/>
    <path id="Trazado_721023" data-name="Trazado 721023" d="M8.5,0A8.5,8.5,0,1,1,0,8.5,8.5,8.5,0,0,1,8.5,0Z" transform="translate(649.113 7807)" fill="#12263f" stroke="#12263f" stroke-width="1"/>
    <path id="Trazado_721024" data-name="Trazado 721024" d="M0,0H109V127H0Z" transform="translate(729.113 7803)" fill="none" stroke="#12263f" stroke-width="1"/>
    <path id="Trazado_721025" data-name="Trazado 721025" d="M0,0H109" transform="translate(729.113 7926)" fill="none" stroke="#12263f" stroke-width="1"/>
    <path id="Trazado_721026" data-name="Trazado 721026" d="M0,0H109" transform="translate(729.113 7923)" fill="none" stroke="#12263f" stroke-width="1"/>
    <path id="Trazado_721027" data-name="Trazado 721027" d="M0,0H109" transform="translate(729.113 7920)" fill="none" stroke="#12263f" stroke-width="1"/>
    <path id="Trazado_721028" data-name="Trazado 721028" d="M0,0H109" transform="translate(729.113 7917)" fill="none" stroke="#12263f" stroke-width="1"/>
    <path id="Trazado_721029" data-name="Trazado 721029" d="M0,0H109" transform="translate(729.113 7914)" fill="none" stroke="#12263f" stroke-width="1"/>
    <path id="Trazado_721030" data-name="Trazado 721030" d="M0,0H109" transform="translate(729.113 7911)" fill="none" stroke="#12263f" stroke-width="1"/>
    <path id="Trazado_721031" data-name="Trazado 721031" d="M0,0H109" transform="translate(729.113 7908)" fill="none" stroke="#12263f" stroke-width="1"/>
    <path id="Trazado_721032" data-name="Trazado 721032" d="M0,0H109" transform="translate(729.113 7905)" fill="none" stroke="#12263f" stroke-width="1"/>
    <path id="Trazado_721033" data-name="Trazado 721033" d="M0,0H109" transform="translate(729.113 7902)" fill="none" stroke="#12263f" stroke-width="1"/>
    <path id="Trazado_721034" data-name="Trazado 721034" d="M0,0H109" transform="translate(729.113 7899)" fill="none" stroke="#12263f" stroke-width="1"/>
    <path id="Trazado_721035" data-name="Trazado 721035" d="M0,0H109" transform="translate(729.113 7896)" fill="none" stroke="#12263f" stroke-width="1"/>
    <path id="Trazado_721036" data-name="Trazado 721036" d="M0,0H109" transform="translate(729.113 7893)" fill="none" stroke="#12263f" stroke-width="1"/>
    <path id="Trazado_721037" data-name="Trazado 721037" d="M0,0H109" transform="translate(729.113 7890)" fill="none" stroke="#12263f" stroke-width="1"/>
    <path id="Trazado_721038" data-name="Trazado 721038" d="M0,0H109" transform="translate(729.113 7887)" fill="none" stroke="#12263f" stroke-width="1"/>
    <path id="Trazado_721039" data-name="Trazado 721039" d="M0,0H109" transform="translate(729.113 7884)" fill="none" stroke="#12263f" stroke-width="1"/>
    <path id="Trazado_721040" data-name="Trazado 721040" d="M0,0H109" transform="translate(729.113 7881)" fill="none" stroke="#12263f" stroke-width="1"/>
    <path id="Trazado_721041" data-name="Trazado 721041" d="M0,0H109" transform="translate(729.113 7878)" fill="none" stroke="#12263f" stroke-width="1"/>
    <path id="Trazado_721042" data-name="Trazado 721042" d="M0,0H109" transform="translate(729.113 7875)" fill="none" stroke="#12263f" stroke-width="1"/>
    <path id="Trazado_721043" data-name="Trazado 721043" d="M0,0H109" transform="translate(729.113 7872)" fill="none" stroke="#12263f" stroke-width="1"/>
    <path id="Trazado_721044" data-name="Trazado 721044" d="M0,0H109" transform="translate(729.113 7869)" fill="none" stroke="#12263f" stroke-width="1"/>
    <path id="Trazado_721045" data-name="Trazado 721045" d="M0,0H109" transform="translate(729.113 7866)" fill="none" stroke="#12263f" stroke-width="1"/>
    <path id="Trazado_721046" data-name="Trazado 721046" d="M0,0H109" transform="translate(729.113 7863)" fill="none" stroke="#12263f" stroke-width="1"/>
    <path id="Trazado_721047" data-name="Trazado 721047" d="M0,0H109" transform="translate(729.113 7860)" fill="none" stroke="#12263f" stroke-width="1"/>
    <path id="Trazado_721048" data-name="Trazado 721048" d="M0,0H109" transform="translate(729.113 7857)" fill="none" stroke="#12263f" stroke-width="1"/>
    <path id="Trazado_721049" data-name="Trazado 721049" d="M0,0H109" transform="translate(729.113 7854)" fill="none" stroke="#12263f" stroke-width="1"/>
    <path id="Trazado_721050" data-name="Trazado 721050" d="M0,0H109" transform="translate(729.113 7851)" fill="none" stroke="#12263f" stroke-width="1"/>
    <path id="Trazado_721051" data-name="Trazado 721051" d="M0,0H109" transform="translate(729.113 7848)" fill="none" stroke="#12263f" stroke-width="1"/>
    <path id="Trazado_721052" data-name="Trazado 721052" d="M0,0H109" transform="translate(729.113 7845)" fill="none" stroke="#12263f" stroke-width="1"/>
    <path id="Trazado_721053" data-name="Trazado 721053" d="M0,0H109" transform="translate(729.113 7842)" fill="none" stroke="#12263f" stroke-width="1"/>
    <path id="Trazado_721054" data-name="Trazado 721054" d="M0,0H109" transform="translate(729.113 7839)" fill="none" stroke="#12263f" stroke-width="1"/>
    <path id="Trazado_721055" data-name="Trazado 721055" d="M0,0H109" transform="translate(729.113 7836)" fill="none" stroke="#12263f" stroke-width="1"/>
    <path id="Trazado_721056" data-name="Trazado 721056" d="M0,0H109" transform="translate(729.113 7833)" fill="none" stroke="#12263f" stroke-width="1"/>
    <path id="Trazado_721057" data-name="Trazado 721057" d="M0,0H109" transform="translate(729.113 7830)" fill="none" stroke="#12263f" stroke-width="1"/>
    <path id="Trazado_721058" data-name="Trazado 721058" d="M0,0H109" transform="translate(729.113 7827)" fill="none" stroke="#12263f" stroke-width="1"/>
    <path id="Trazado_721059" data-name="Trazado 721059" d="M0,0H109" transform="translate(729.113 7824)" fill="none" stroke="#12263f" stroke-width="1"/>
    <path id="Trazado_721060" data-name="Trazado 721060" d="M0,0H109" transform="translate(729.113 7821)" fill="none" stroke="#12263f" stroke-width="1"/>
    <path id="Trazado_721061" data-name="Trazado 721061" d="M0,0H109" transform="translate(729.113 7818)" fill="none" stroke="#12263f" stroke-width="1"/>
    <path id="Trazado_721062" data-name="Trazado 721062" d="M0,0H109" transform="translate(729.113 7815)" fill="none" stroke="#12263f" stroke-width="1"/>
    <path id="Trazado_721063" data-name="Trazado 721063" d="M0,0H109" transform="translate(729.113 7812)" fill="none" stroke="#12263f" stroke-width="1"/>
    <path id="Trazado_721064" data-name="Trazado 721064" d="M0,0H109" transform="translate(729.113 7809)" fill="none" stroke="#12263f" stroke-width="1"/>
    <path id="Trazado_721065" data-name="Trazado 721065" d="M0,0,109,85" transform="translate(729.113 7565)" fill="none" stroke="#12263f" stroke-width="1"/>
    <path id="Trazado_721066" data-name="Trazado 721066" d="M109,0,0,84" transform="translate(729.113 7842)" fill="none" stroke="#12263f" stroke-width="1"/>
    <path id="Trazado_720856" data-name="Trazado 720856" d="M763.5,719.5h19v-180h-498v185h21" transform="translate(262.613 6986.5)" fill="none" stroke="#12263f" stroke-miterlimit="10" stroke-width="1" stroke-dasharray="10"/>
    <path id="Trazado_720857" data-name="Trazado 720857" d="M765.5,797.5h19v180h-498v-185h21" transform="translate(262.613 6986.5)" fill="none" stroke="#12263f" stroke-miterlimit="10" stroke-width="1" stroke-dasharray="10"/>
    <path id="Trazado_721067" data-name="Trazado 721067" d="M0,0H102V29H0Z" transform="translate(489.113 7618)" fill="none" stroke="#12263f" stroke-width="1" stroke-dasharray="10"/>
    <path id="Trazado_721068" data-name="Trazado 721068" d="M8.5,0A8.5,8.5,0,1,1,0,8.5,8.5,8.5,0,0,1,8.5,0Z" transform="translate(581.113 7861)" fill="#12263f" stroke="#12263f" stroke-width="1"/>
    <path id="Trazado_720858" data-name="Trazado 720858" d="M328.5,897.5h-111v-29h111Z" transform="translate(262.613 6986.5)" fill="none" stroke="#12263f" stroke-miterlimit="10" stroke-width="1.043" stroke-dasharray="10.432"/>
    <path id="Trazado_720859" data-name="Trazado 720859" d="M165.5,864.5v19h52" transform="translate(262.613 6986.5)" fill="none" stroke="#12263f" stroke-miterlimit="10" stroke-width="1.043"/>
    <path id="Trazado_720860" data-name="Trazado 720860" d="M905.5,864.5v19h-52" transform="translate(262.613 6986.5)" fill="none" stroke="#12263f" stroke-miterlimit="10" stroke-width="1.043"/>
    <path id="Trazado_721069" data-name="Trazado 721069" d="M72.5,0H0" transform="translate(1095.613 7747)" fill="none" stroke="#12263f" stroke-width="1.043"/>
    <path id="Trazado_721070" data-name="Trazado 721070" d="M0,0H111V24H0Z" transform="translate(1005.113 7620)" fill="none" stroke="#12263f" stroke-width="1.043"/>
    <path id="Trazado_721071" data-name="Trazado 721071" d="M8.5,0A8.5,8.5,0,1,1,0,8.5,8.5,8.5,0,0,1,8.5,0Z" transform="translate(1022.613 7858.5)" fill="#12263f" stroke="#12263f" stroke-width="1"/>
    <path id="Trazado_721072" data-name="Trazado 721072" d="M0,0H111V24H0Z" transform="translate(1005.113 7854)" fill="none" stroke="#12263f" stroke-width="1.043"/>
    <path id="Trazado_721073" data-name="Trazado 721073" d="M0,0H76V76H0Z" transform="translate(622.113 7711)" fill="none" stroke="#12263f" stroke-width="1.043"/>
    <path id="Trazado_721074" data-name="Trazado 721074" d="M0,0H97V73H0Z" transform="translate(714.113 7711)" fill="none" stroke="#12263f" stroke-width="1.043"/>
    <path id="Trazado_721075" data-name="Trazado 721075" d="M0,0H73V73H0Z" transform="translate(831.113 7711)" fill="none" stroke="#12263f" stroke-width="1.043"/>
    <path id="Trazado_720861" data-name="Trazado 720861" d="M386.5,724.5s6,28,17,37c0,0-20,17-17,39h21s-4-30,20-30h179a49.633,49.633,0,0,0-8,27h21s1-25.912,22-25.912V751.824s-22-2.324-22-27.324h-21s-2,19,8,29h-180s-19-6-19-29Z" transform="translate(262.613 6986.5)" fill="none" stroke="#12263f" stroke-miterlimit="10" stroke-width="1.043"/>
    <path id="Trazado_721076" data-name="Trazado 721076" d="M0,0H32V25H0Z" transform="translate(600.113 7736)" fill="none" stroke="#12263f" stroke-width="1.043"/>
    <path id="Trazado_721077" data-name="Trazado 721077" d="M0,0H208V20H0Z" transform="translate(904.113 7738)" fill="none" stroke="#12263f" stroke-width="1.043" stroke-dasharray="10"/>
    <path id="Trazado_720862" data-name="Trazado 720862" d="M853.5,678.5h-91v-66h88l3,4.676-1,4.235,1,7.088Z" transform="translate(262.613 6986.5)" fill="none" stroke="#12263f" stroke-miterlimit="10" stroke-width="1.043" stroke-dasharray="10"/>
    <path id="Trazado_720863" data-name="Trazado 720863" d="M853.5,916.5h-91v-66h88l3,4.676-1,4.235,1,7.088Z" transform="translate(262.613 6986.5)" fill="none" stroke="#12263f" stroke-miterlimit="10" stroke-width="1.043" stroke-dasharray="10"/>
    <path id="Trazado_720864" data-name="Trazado 720864" d="M695,838h35v43h38" transform="translate(262.613 6986.5)" fill="none" stroke="#12263f" stroke-miterlimit="10" stroke-width="1.043" stroke-dasharray="10"/>
  </g>
</svg>
