<svg xmlns="http://www.w3.org/2000/svg" width="820" height="1233" viewBox="0 0 820 1233">
  <g id="Grupo_1007181" data-name="Grupo 1007181" transform="translate(-390 -3807)">
    <path id="Trazado_720917" data-name="Trazado 720917" d="M0,0H820V1233H0Z" transform="translate(390 3807)" fill="#f6f6f6"/>
    <path id="Trazado_720918" data-name="Trazado 720918" d="M3.359-4.008V0H1.016V-11.375H5.453a5.134,5.134,0,0,1,2.254.469A3.454,3.454,0,0,1,9.2-9.574a3.714,3.714,0,0,1,.523,1.965A3.266,3.266,0,0,1,8.582-4.973a4.767,4.767,0,0,1-3.168.965Zm0-1.9H5.453a2.059,2.059,0,0,0,1.418-.437,1.591,1.591,0,0,0,.488-1.25,1.876,1.876,0,0,0-.492-1.352,1.839,1.839,0,0,0-1.359-.531H3.359ZM13.57,0H11.3V-12H13.57Zm6.758,0A2.507,2.507,0,0,1,20.1-.758a2.732,2.732,0,0,1-2.133.914A3,3,0,0,1,15.91-.562a2.312,2.312,0,0,1-.816-1.812,2.389,2.389,0,0,1,1-2.062,4.915,4.915,0,0,1,2.879-.727h1.039v-.484a1.393,1.393,0,0,0-.3-.937,1.183,1.183,0,0,0-.949-.352,1.345,1.345,0,0,0-.895.273.929.929,0,0,0-.324.75H15.281a2.268,2.268,0,0,1,.453-1.359,3,3,0,0,1,1.281-.98,4.669,4.669,0,0,1,1.859-.355,3.689,3.689,0,0,1,2.48.785,2.747,2.747,0,0,1,.918,2.207v3.664a4.041,4.041,0,0,0,.336,1.82V0ZM18.461-1.57a1.945,1.945,0,0,0,.922-.223,1.462,1.462,0,0,0,.625-.6V-3.844h-.844q-1.7,0-1.8,1.172l-.008.133a.9.9,0,0,0,.3.7A1.153,1.153,0,0,0,18.461-1.57Zm7.625-6.883.07.977a2.951,2.951,0,0,1,2.43-1.133,2.453,2.453,0,0,1,2,.789,3.682,3.682,0,0,1,.672,2.359V0H29V-5.406a1.465,1.465,0,0,0-.312-1.043,1.4,1.4,0,0,0-1.039-.324,1.553,1.553,0,0,0-1.43.813V0H23.961V-8.453Zm9.586-2.078v2.078h1.445V-6.8H35.672v4.219a1.007,1.007,0,0,0,.18.672.9.9,0,0,0,.688.2,3.6,3.6,0,0,0,.664-.055V-.047a4.648,4.648,0,0,1-1.367.2,2.156,2.156,0,0,1-2.422-2.4V-6.8H32.18V-8.453h1.234v-2.078ZM43.273,0a2.507,2.507,0,0,1-.227-.758,2.732,2.732,0,0,1-2.133.914,3,3,0,0,1-2.059-.719,2.312,2.312,0,0,1-.816-1.812,2.389,2.389,0,0,1,1-2.062,4.915,4.915,0,0,1,2.879-.727h1.039v-.484a1.393,1.393,0,0,0-.3-.937,1.183,1.183,0,0,0-.949-.352,1.345,1.345,0,0,0-.895.273.929.929,0,0,0-.324.75H38.227a2.268,2.268,0,0,1,.453-1.359,3,3,0,0,1,1.281-.98,4.669,4.669,0,0,1,1.859-.355,3.689,3.689,0,0,1,2.48.785,2.747,2.747,0,0,1,.918,2.207v3.664a4.041,4.041,0,0,0,.336,1.82V0ZM41.406-1.57a1.945,1.945,0,0,0,.922-.223,1.462,1.462,0,0,0,.625-.6V-3.844h-.844q-1.7,0-1.8,1.172l-.008.133a.9.9,0,0,0,.3.7A1.153,1.153,0,0,0,41.406-1.57Z" transform="translate(735 4114.176)" fill="#12263f"/>
    <path id="Trazado_720816" data-name="Trazado 720816" d="M649,93,595,63H379L324,93V246l53,25H596l53-29Z" transform="translate(272.17 3820)" fill="#fff" stroke="#12263f" stroke-miterlimit="10" stroke-width="1"/>
    <path id="Trazado_720817" data-name="Trazado 720817" d="M620,111.5,583.637,89H386.185L353,111.5V226.25L384.542,245H584.458L620,223.25Z" transform="translate(272.17 3820)" fill="none" stroke="#12263f" stroke-miterlimit="10" stroke-width="0.785"/>
    <path id="Trazado_720818" data-name="Trazado 720818" d="M324,204.5H303.416a9.029,9.029,0,0,1-8.21-5.205c-2.85-6.162-5.063-17.407,5.294-31.648,0,0,10-19,1-37H324Z" transform="translate(272.17 3820)" fill="none" stroke="#12263f" stroke-miterlimit="10" stroke-width="1"/>
    <path id="Trazado_720819" data-name="Trazado 720819" d="M648.831,204.5h20.583a9.031,9.031,0,0,0,8.211-5.205c2.849-6.162,5.062-17.407-5.294-31.648,0,0-10-19-1-37h-22.5Z" transform="translate(272.17 3820)" fill="none" stroke="#12263f" stroke-miterlimit="10" stroke-width="1"/>
    <path id="Trazado_720820" data-name="Trazado 720820" d="M648.831,130.647h20.583a9.031,9.031,0,0,1,8.211,5.205c2.849,6.162,5.062,17.408-5.294,31.648,0,0-10,19-1,37h-22.5Z" transform="translate(272.17 3820)" fill="#fff" stroke="#12263f" stroke-miterlimit="10" stroke-width="1"/>
    <path id="Trazado_720919" data-name="Trazado 720919" d="M0,0H221V2H0Z" transform="translate(694.67 3912.5)" fill="none" stroke="#12263f" stroke-width="0.785"/>
    <path id="Trazado_720920" data-name="Trazado 720920" d="M0,0H221V2H0Z" transform="translate(694.67 3918.5)" fill="none" stroke="#12263f" stroke-width="0.785"/>
    <path id="Trazado_720921" data-name="Trazado 720921" d="M0,0H221V2H0Z" transform="translate(694.67 3924.5)" fill="none" stroke="#12263f" stroke-width="0.785"/>
    <path id="Trazado_720922" data-name="Trazado 720922" d="M0,0H221V2H0Z" transform="translate(694.67 3930.5)" fill="none" stroke="#12263f" stroke-width="0.785"/>
    <path id="Trazado_720923" data-name="Trazado 720923" d="M0,0H221V2H0Z" transform="translate(694.67 3936.5)" fill="none" stroke="#12263f" stroke-width="0.785"/>
    <path id="Trazado_720924" data-name="Trazado 720924" d="M0,0H221V2H0Z" transform="translate(694.67 3942.5)" fill="none" stroke="#12263f" stroke-width="0.785"/>
    <path id="Trazado_720925" data-name="Trazado 720925" d="M0,0H221V2H0Z" transform="translate(694.67 3948.5)" fill="none" stroke="#12263f" stroke-width="0.785"/>
    <path id="Trazado_720926" data-name="Trazado 720926" d="M0,0H221V2H0Z" transform="translate(694.67 3954.5)" fill="none" stroke="#12263f" stroke-width="0.785"/>
    <path id="Trazado_720927" data-name="Trazado 720927" d="M0,0H221V2H0Z" transform="translate(694.67 3960.5)" fill="none" stroke="#12263f" stroke-width="0.785"/>
    <path id="Trazado_720928" data-name="Trazado 720928" d="M0,0H221V2H0Z" transform="translate(694.67 3966.5)" fill="none" stroke="#12263f" stroke-width="0.785"/>
    <path id="Trazado_720929" data-name="Trazado 720929" d="M0,0H221V2H0Z" transform="translate(694.67 3972.5)" fill="none" stroke="#12263f" stroke-width="0.785"/>
    <path id="Trazado_720930" data-name="Trazado 720930" d="M0,0H221V2H0Z" transform="translate(694.67 3978.5)" fill="none" stroke="#12263f" stroke-width="0.785"/>
    <path id="Trazado_720931" data-name="Trazado 720931" d="M0,0H221V2H0Z" transform="translate(694.67 3984.5)" fill="none" stroke="#12263f" stroke-width="0.785"/>
    <path id="Trazado_720932" data-name="Trazado 720932" d="M0,0H221V2H0Z" transform="translate(694.67 3990.5)" fill="none" stroke="#12263f" stroke-width="0.785"/>
    <path id="Trazado_720933" data-name="Trazado 720933" d="M0,0H221V2H0Z" transform="translate(694.67 3996.5)" fill="none" stroke="#12263f" stroke-width="0.785"/>
    <path id="Trazado_720934" data-name="Trazado 720934" d="M0,0H221V2H0Z" transform="translate(694.67 4002.5)" fill="none" stroke="#12263f" stroke-width="0.785"/>
    <path id="Trazado_720935" data-name="Trazado 720935" d="M0,0H221V2H0Z" transform="translate(694.67 4008.5)" fill="none" stroke="#12263f" stroke-width="0.785"/>
    <path id="Trazado_720936" data-name="Trazado 720936" d="M0,0H221V2H0Z" transform="translate(694.67 4014.5)" fill="none" stroke="#12263f" stroke-width="0.785"/>
    <path id="Trazado_720937" data-name="Trazado 720937" d="M0,0H221V2H0Z" transform="translate(694.67 4020.5)" fill="none" stroke="#12263f" stroke-width="0.785"/>
    <path id="Trazado_720938" data-name="Trazado 720938" d="M0,0H221V2H0Z" transform="translate(694.67 4026.5)" fill="none" stroke="#12263f" stroke-width="0.785"/>
    <path id="Trazado_720939" data-name="Trazado 720939" d="M0,0H221V2H0Z" transform="translate(694.67 4032.5)" fill="none" stroke="#12263f" stroke-width="0.785"/>
    <path id="Trazado_720940" data-name="Trazado 720940" d="M0,0H221V2H0Z" transform="translate(694.67 4038.5)" fill="none" stroke="#12263f" stroke-width="0.785"/>
    <path id="Trazado_720941" data-name="Trazado 720941" d="M0,0H221V2H0Z" transform="translate(694.67 4044.5)" fill="none" stroke="#12263f" stroke-width="0.785"/>
    <path id="Trazado_720942" data-name="Trazado 720942" d="M0,0H221V2H0Z" transform="translate(694.67 4050.5)" fill="none" stroke="#12263f" stroke-width="0.785"/>
    <path id="Trazado_720943" data-name="Trazado 720943" d="M0,0H221V2H0Z" transform="translate(694.67 4056.5)" fill="none" stroke="#12263f" stroke-width="0.785"/>
    <path id="Trazado_720944" data-name="Trazado 720944" d="M0,0H221V2H0Z" transform="translate(694.67 4062.5)" fill="none" stroke="#12263f" stroke-width="0.785"/>
    <path id="Trazado_720821" data-name="Trazado 720821" d="M324,130.647H303.416a9.029,9.029,0,0,0-8.21,5.205c-2.85,6.162-5.063,17.408,5.294,31.648,0,0,10,19,1,37H324Z" transform="translate(272.17 3820)" fill="#fff" stroke="#12263f" stroke-miterlimit="10" stroke-width="1"/>
    <path id="Trazado_720945" data-name="Trazado 720945" d="M9.945-3.789A4.025,4.025,0,0,1,8.59-.9,4.76,4.76,0,0,1,5.367.156,4.28,4.28,0,0,1,1.926-1.316,6.038,6.038,0,0,1,.672-5.359v-.7A6.819,6.819,0,0,1,1.25-8.945,4.332,4.332,0,0,1,2.9-10.863a4.629,4.629,0,0,1,2.5-.668A4.637,4.637,0,0,1,8.57-10.477,4.326,4.326,0,0,1,9.961-7.516H7.617A2.376,2.376,0,0,0,7-9.113a2.271,2.271,0,0,0-1.605-.5,1.991,1.991,0,0,0-1.754.84,4.707,4.707,0,0,0-.6,2.605V-5.3a5.038,5.038,0,0,0,.559,2.7,1.954,1.954,0,0,0,1.762.852,2.314,2.314,0,0,0,1.621-.5A2.241,2.241,0,0,0,7.6-3.789ZM10.984-4.3a5.013,5.013,0,0,1,.484-2.242A3.546,3.546,0,0,1,12.863-8.07a4.069,4.069,0,0,1,2.113-.539A3.849,3.849,0,0,1,17.77-7.562a4.2,4.2,0,0,1,1.207,2.844l.016.578A4.418,4.418,0,0,1,17.906-1.02,3.775,3.775,0,0,1,14.992.156a3.793,3.793,0,0,1-2.918-1.172A4.5,4.5,0,0,1,10.984-4.2Zm2.258.16A3.16,3.16,0,0,0,13.7-2.3a1.5,1.5,0,0,0,1.3.638,1.5,1.5,0,0,0,1.281-.63,3.457,3.457,0,0,0,.461-2.015,3.128,3.128,0,0,0-.461-1.831,1.5,1.5,0,0,0-1.3-.649,1.474,1.474,0,0,0-1.281.646A3.516,3.516,0,0,0,13.242-4.144ZM25.133-6.336A6.134,6.134,0,0,0,24.32-6.4a1.654,1.654,0,0,0-1.68.867V0H20.383V-8.453h2.133l.063,1.008a2.092,2.092,0,0,1,1.883-1.164,2.366,2.366,0,0,1,.7.1Zm4.18-4.2v2.078h1.445V-6.8H29.313v4.219a1.007,1.007,0,0,0,.18.672.9.9,0,0,0,.688.2,3.6,3.6,0,0,0,.664-.055V-.047a4.648,4.648,0,0,1-1.367.2,2.156,2.156,0,0,1-2.422-2.4V-6.8H25.82V-8.453h1.234v-2.078ZM35.906.156A4.15,4.15,0,0,1,32.879-.984a4.054,4.054,0,0,1-1.168-3.039v-.219A5.106,5.106,0,0,1,32.2-6.52,3.612,3.612,0,0,1,33.6-8.066a3.914,3.914,0,0,1,2.059-.543,3.508,3.508,0,0,1,2.73,1.094,4.444,4.444,0,0,1,1,3.1v.922H34a2.1,2.1,0,0,0,.66,1.328,2,2,0,0,0,1.395.5,2.437,2.437,0,0,0,2.039-.945L39.2-1.367A3.389,3.389,0,0,1,37.828-.246,4.511,4.511,0,0,1,35.906.156Zm-.258-6.945a1.411,1.411,0,0,0-1.09.455,2.357,2.357,0,0,0-.535,1.3h3.141v-.181a1.681,1.681,0,0,0-.406-1.165A1.456,1.456,0,0,0,35.648-6.789Z" transform="translate(741 4455.176)" fill="#12263f"/>
    <path id="Trazado_720946" data-name="Trazado 720946" d="M5.492-4.6H2.82V0H1.313V-11.375H5.078a4.457,4.457,0,0,1,2.957.875A3.148,3.148,0,0,1,9.07-7.953,3.062,3.062,0,0,1,8.5-6.1a3.428,3.428,0,0,1-1.6,1.18L9.57-.094V0H7.961ZM2.82-5.828h2.3A2.6,2.6,0,0,0,6.9-6.407a1.959,1.959,0,0,0,.66-1.55,2.062,2.062,0,0,0-.629-1.62,2.663,2.663,0,0,0-1.816-.571H2.82ZM14.453.156a3.693,3.693,0,0,1-2.8-1.129,4.19,4.19,0,0,1-1.078-3.02v-.266a5.073,5.073,0,0,1,.48-2.246A3.748,3.748,0,0,1,12.4-8.051a3.378,3.378,0,0,1,1.871-.559,3.166,3.166,0,0,1,2.563,1.086,4.7,4.7,0,0,1,.914,3.109v.6H12.023a3,3,0,0,0,.73,2.02,2.3,2.3,0,0,0,1.777.77,2.517,2.517,0,0,0,1.3-.312,3.259,3.259,0,0,0,.93-.828l.883.688A3.55,3.55,0,0,1,14.453.156Zm-.18-7.578a1.928,1.928,0,0,0-1.469.637A3.1,3.1,0,0,0,12.07-5H16.3v-.109a2.753,2.753,0,0,0-.594-1.707A1.815,1.815,0,0,0,14.273-7.422Zm6.641-1.031V.977q0,2.437-2.211,2.438a2.7,2.7,0,0,1-.883-.14V2.125a2.794,2.794,0,0,0,.656.063.982.982,0,0,0,.738-.262,1.3,1.3,0,0,0,.254-.911V-8.453ZM19.32-10.7a.867.867,0,0,1,.215-.59.79.79,0,0,1,.629-.246.819.819,0,0,1,.641.242.854.854,0,0,1,.219.594.826.826,0,0,1-.219.586.834.834,0,0,1-.641.234.808.808,0,0,1-.633-.234A.843.843,0,0,1,19.32-10.7ZM24.813,0H23.367V-8.453h1.445ZM23.25-10.7a.863.863,0,0,1,.215-.594.807.807,0,0,1,.637-.242.819.819,0,0,1,.641.242.854.854,0,0,1,.219.594.826.826,0,0,1-.219.586.834.834,0,0,1-.641.234.821.821,0,0,1-.637-.234A.834.834,0,0,1,23.25-10.7ZM28.7,0H27.25V-12H28.7Zm3.883,0H31.133V-12h1.445Zm7.531,0a3.036,3.036,0,0,1-.2-.891A3.225,3.225,0,0,1,37.5.156a2.984,2.984,0,0,1-2.051-.707,2.287,2.287,0,0,1-.8-1.793,2.39,2.39,0,0,1,1-2.051,4.733,4.733,0,0,1,2.824-.73h1.406v-.664A1.623,1.623,0,0,0,39.43-7a1.821,1.821,0,0,0-1.336-.449,2.107,2.107,0,0,0-1.3.391,1.151,1.151,0,0,0-.523.945H34.82a2,2,0,0,1,.449-1.223,3.066,3.066,0,0,1,1.219-.934,4.1,4.1,0,0,1,1.691-.344,3.342,3.342,0,0,1,2.289.73,2.635,2.635,0,0,1,.859,2.012v3.891a4.757,4.757,0,0,0,.3,1.852V0Zm-2.4-1.1A2.54,2.54,0,0,0,39-1.453a2.127,2.127,0,0,0,.883-.914V-4.1H38.75q-2.656,0-2.656,1.555a1.316,1.316,0,0,0,.453,1.063A1.742,1.742,0,0,0,37.711-1.1Zm10.8-1.141a1.064,1.064,0,0,0-.441-.91,4.249,4.249,0,0,0-1.539-.559,7.277,7.277,0,0,1-1.742-.562,2.479,2.479,0,0,1-.953-.781,1.869,1.869,0,0,1-.309-1.078,2.193,2.193,0,0,1,.879-1.758,3.432,3.432,0,0,1,2.246-.719,3.532,3.532,0,0,1,2.332.742,2.357,2.357,0,0,1,.895,1.9H48.43a1.3,1.3,0,0,0-.5-1.023,1.888,1.888,0,0,0-1.27-.43,1.976,1.976,0,0,0-1.234.344,1.082,1.082,0,0,0-.445.9.877.877,0,0,0,.414.789,5.1,5.1,0,0,0,1.5.508,7.8,7.8,0,0,1,1.754.578,2.558,2.558,0,0,1,1,.809,1.988,1.988,0,0,1,.324,1.152,2.163,2.163,0,0,1-.906,1.816A3.8,3.8,0,0,1,46.7.156a4.257,4.257,0,0,1-1.8-.359,2.922,2.922,0,0,1-1.223-1A2.42,2.42,0,0,1,43.242-2.6h1.445a1.5,1.5,0,0,0,.582,1.152,2.258,2.258,0,0,0,1.434.426,2.331,2.331,0,0,0,1.316-.332A1.02,1.02,0,0,0,48.516-2.242ZM55.453-4.3a4.952,4.952,0,0,1,.922-3.129,2.915,2.915,0,0,1,2.414-1.184,2.932,2.932,0,0,1,2.352,1.016V-12h1.445V0H61.258l-.07-.906A2.943,2.943,0,0,1,58.773.156a2.887,2.887,0,0,1-2.395-1.2,5.008,5.008,0,0,1-.926-3.141Zm1.445.164a3.749,3.749,0,0,0,.594,2.25,1.92,1.92,0,0,0,1.641.813A2.108,2.108,0,0,0,61.141-2.3V-6.187a2.125,2.125,0,0,0-1.992-1.2,1.929,1.929,0,0,0-1.656.82A4.128,4.128,0,0,0,56.9-4.133ZM68.336.156a3.693,3.693,0,0,1-2.8-1.129,4.19,4.19,0,0,1-1.078-3.02v-.266a5.073,5.073,0,0,1,.48-2.246,3.748,3.748,0,0,1,1.344-1.547,3.378,3.378,0,0,1,1.871-.559,3.166,3.166,0,0,1,2.563,1.086,4.7,4.7,0,0,1,.914,3.109v.6H65.906a3,3,0,0,0,.73,2.02,2.3,2.3,0,0,0,1.777.77,2.517,2.517,0,0,0,1.3-.312,3.259,3.259,0,0,0,.93-.828l.883.688A3.55,3.55,0,0,1,68.336.156Zm-.18-7.578a1.928,1.928,0,0,0-1.469.637A3.1,3.1,0,0,0,65.953-5h4.234v-.109a2.753,2.753,0,0,0-.594-1.707A1.815,1.815,0,0,0,68.156-7.422ZM78.836,0H77.391V-12h1.445Zm3.883,0H81.273V-8.453h1.445ZM81.156-10.7a.863.863,0,0,1,.215-.594.807.807,0,0,1,.637-.242.819.819,0,0,1,.641.242.854.854,0,0,1,.219.594.826.826,0,0,1-.219.586.834.834,0,0,1-.641.234.821.821,0,0,1-.637-.234A.834.834,0,0,1,81.156-10.7Zm5.234,2.242.039.938a3.122,3.122,0,0,1,2.508-1.094A2.417,2.417,0,0,1,91.352-7.25a3.2,3.2,0,0,1,1.1-.984,3.242,3.242,0,0,1,1.6-.375q2.781,0,2.828,2.945V0H95.43V-5.578a1.941,1.941,0,0,0-.414-1.355,1.823,1.823,0,0,0-1.391-.449,1.916,1.916,0,0,0-1.336.48,1.949,1.949,0,0,0-.617,1.293V0H90.219V-5.539a1.613,1.613,0,0,0-1.8-1.844,1.934,1.934,0,0,0-1.945,1.211V0H85.023V-8.453Zm19.8,4.32a5.062,5.062,0,0,1-.883,3.109,2.829,2.829,0,0,1-2.391,1.18A3.1,3.1,0,0,1,100.5-.82V3.25H99.055v-11.7h1.32l.07.938A2.977,2.977,0,0,1,102.9-8.609a2.882,2.882,0,0,1,2.41,1.148,5.117,5.117,0,0,1,.887,3.2ZM104.75-4.3a3.735,3.735,0,0,0-.609-2.258,1.963,1.963,0,0,0-1.672-.828A2.125,2.125,0,0,0,100.5-6.219V-2.18a2.129,2.129,0,0,0,1.984,1.156,1.954,1.954,0,0,0,1.652-.824A4.077,4.077,0,0,0,104.75-4.3ZM109.6,0h-1.445V-8.453H109.6Zm-1.562-10.7a.863.863,0,0,1,.215-.594.807.807,0,0,1,.637-.242.819.819,0,0,1,.641.242.854.854,0,0,1,.219.594.826.826,0,0,1-.219.586.834.834,0,0,1-.641.234.821.821,0,0,1-.637-.234A.834.834,0,0,1,108.039-10.7ZM115.422.156a3.693,3.693,0,0,1-2.8-1.129,4.19,4.19,0,0,1-1.078-3.02v-.266a5.073,5.073,0,0,1,.48-2.246,3.748,3.748,0,0,1,1.344-1.547,3.378,3.378,0,0,1,1.871-.559A3.166,3.166,0,0,1,117.8-7.523a4.7,4.7,0,0,1,.914,3.109v.6h-5.727a3,3,0,0,0,.73,2.02,2.3,2.3,0,0,0,1.777.77,2.517,2.517,0,0,0,1.3-.312,3.259,3.259,0,0,0,.93-.828l.883.688A3.55,3.55,0,0,1,115.422.156Zm-.18-7.578a1.928,1.928,0,0,0-1.469.637A3.1,3.1,0,0,0,113.039-5h4.234v-.109a2.753,2.753,0,0,0-.594-1.707A1.815,1.815,0,0,0,115.242-7.422ZM121.75-1.18H126.7V0h-6.711V-1.062l4.664-6.2h-4.594v-1.2h6.406V-7.43ZM133.539,0a3.036,3.036,0,0,1-.2-.891A3.225,3.225,0,0,1,130.93.156a2.984,2.984,0,0,1-2.051-.707,2.287,2.287,0,0,1-.8-1.793,2.39,2.39,0,0,1,1-2.051,4.733,4.733,0,0,1,2.824-.73h1.406v-.664A1.623,1.623,0,0,0,132.859-7a1.821,1.821,0,0,0-1.336-.449,2.107,2.107,0,0,0-1.3.391,1.151,1.151,0,0,0-.523.945H128.25a2,2,0,0,1,.449-1.223,3.066,3.066,0,0,1,1.219-.934,4.1,4.1,0,0,1,1.691-.344,3.342,3.342,0,0,1,2.289.73,2.635,2.635,0,0,1,.859,2.012v3.891a4.757,4.757,0,0,0,.3,1.852V0Zm-2.4-1.1a2.54,2.54,0,0,0,1.289-.352,2.127,2.127,0,0,0,.883-.914V-4.1H132.18q-2.656,0-2.656,1.555a1.316,1.316,0,0,0,.453,1.063A1.742,1.742,0,0,0,131.141-1.1Zm11.2-7.352.039.938a3.122,3.122,0,0,1,2.508-1.094A2.417,2.417,0,0,1,147.3-7.25a3.2,3.2,0,0,1,1.1-.984,3.242,3.242,0,0,1,1.6-.375q2.781,0,2.828,2.945V0h-1.445V-5.578a1.941,1.941,0,0,0-.414-1.355,1.823,1.823,0,0,0-1.391-.449,1.917,1.917,0,0,0-1.336.48,1.949,1.949,0,0,0-.617,1.293V0h-1.453V-5.539a1.613,1.613,0,0,0-1.8-1.844,1.934,1.934,0,0,0-1.945,1.211V0h-1.445V-8.453ZM160.227,0a3.036,3.036,0,0,1-.2-.891A3.225,3.225,0,0,1,157.617.156a2.984,2.984,0,0,1-2.051-.707,2.287,2.287,0,0,1-.8-1.793,2.39,2.39,0,0,1,1-2.051,4.733,4.733,0,0,1,2.824-.73H160v-.664A1.623,1.623,0,0,0,159.547-7a1.821,1.821,0,0,0-1.336-.449,2.107,2.107,0,0,0-1.3.391,1.151,1.151,0,0,0-.523.945h-1.453a2,2,0,0,1,.449-1.223,3.066,3.066,0,0,1,1.219-.934,4.1,4.1,0,0,1,1.691-.344,3.342,3.342,0,0,1,2.289.73,2.635,2.635,0,0,1,.859,2.012v3.891a4.757,4.757,0,0,0,.3,1.852V0Zm-2.4-1.1a2.54,2.54,0,0,0,1.289-.352A2.127,2.127,0,0,0,160-2.367V-4.1h-1.133q-2.656,0-2.656,1.555a1.316,1.316,0,0,0,.453,1.063A1.742,1.742,0,0,0,157.828-1.1Zm7.25-7.352.047,1.063a3.08,3.08,0,0,1,2.531-1.219q2.68,0,2.7,3.023V0h-1.445V-5.594a1.946,1.946,0,0,0-.418-1.352,1.675,1.675,0,0,0-1.277-.437,2.086,2.086,0,0,0-1.234.375,2.546,2.546,0,0,0-.828.984V0h-1.445V-8.453Zm12.68,7.617a3.07,3.07,0,0,1-2.477.992,2.628,2.628,0,0,1-2.059-.785,3.4,3.4,0,0,1-.715-2.324v-5.5h1.445v5.461q0,1.922,1.563,1.922a2.163,2.163,0,0,0,2.2-1.234V-8.453h1.445V0h-1.375Zm8.82.836a3.036,3.036,0,0,1-.2-.891A3.225,3.225,0,0,1,183.969.156a2.984,2.984,0,0,1-2.051-.707,2.287,2.287,0,0,1-.8-1.793,2.39,2.39,0,0,1,1-2.051,4.733,4.733,0,0,1,2.824-.73h1.406v-.664A1.623,1.623,0,0,0,185.9-7a1.821,1.821,0,0,0-1.336-.449,2.107,2.107,0,0,0-1.3.391,1.151,1.151,0,0,0-.523.945h-1.453a2,2,0,0,1,.449-1.223,3.066,3.066,0,0,1,1.219-.934,4.1,4.1,0,0,1,1.691-.344,3.342,3.342,0,0,1,2.289.73,2.635,2.635,0,0,1,.859,2.012v3.891a4.757,4.757,0,0,0,.3,1.852V0Zm-2.4-1.1a2.54,2.54,0,0,0,1.289-.352,2.127,2.127,0,0,0,.883-.914V-4.1h-1.133q-2.656,0-2.656,1.555a1.316,1.316,0,0,0,.453,1.063A1.742,1.742,0,0,0,184.18-1.1ZM191.633,0h-1.445V-12h1.445Z" transform="translate(662 4480.176)" fill="#12263f"/>
    <path id="Trazado_720947" data-name="Trazado 720947" d="M0,0H324V270H0Z" transform="translate(597 4160.5)" fill="#f3f9ff" stroke="#12263f" stroke-width="1"/>
    <path id="Trazado_720823" data-name="Trazado 720823" d="M387.588,313.5v217l41.912,26,110,2,46-28v-214" transform="translate(272.5 3847)" fill="#fff" stroke="#12263f" stroke-miterlimit="10" stroke-width="1"/>
    <path id="Trazado_720948" data-name="Trazado 720948" d="M5.227-4.164H3.359V0H1.016V-11.375H5.242a4.778,4.778,0,0,1,3.109.9A3.1,3.1,0,0,1,9.445-7.937,3.5,3.5,0,0,1,8.941-6,3.437,3.437,0,0,1,7.414-4.758L9.875-.109V0H7.359Zm-1.867-1.9H5.25a1.936,1.936,0,0,0,1.367-.449A1.606,1.606,0,0,0,7.1-7.75a1.719,1.719,0,0,0-.457-1.266,1.9,1.9,0,0,0-1.4-.461H3.359ZM14.969.156A4.15,4.15,0,0,1,11.941-.984a4.054,4.054,0,0,1-1.168-3.039v-.219a5.106,5.106,0,0,1,.492-2.277A3.612,3.612,0,0,1,12.66-8.066a3.914,3.914,0,0,1,2.059-.543,3.508,3.508,0,0,1,2.73,1.094,4.444,4.444,0,0,1,1,3.1v.922H13.063a2.1,2.1,0,0,0,.66,1.328,2,2,0,0,0,1.395.5,2.437,2.437,0,0,0,2.039-.945l1.109,1.242A3.389,3.389,0,0,1,16.891-.246,4.511,4.511,0,0,1,14.969.156Zm-.258-6.945a1.411,1.411,0,0,0-1.09.455,2.357,2.357,0,0,0-.535,1.3h3.141v-.181a1.681,1.681,0,0,0-.406-1.165A1.456,1.456,0,0,0,14.711-6.789Zm7.406-1.664V.461a3.024,3.024,0,0,1-.742,2.176,2.821,2.821,0,0,1-2.141.777,4.591,4.591,0,0,1-1.117-.133V1.492a4.238,4.238,0,0,0,.711.07q1.023,0,1.023-1.086v-8.93Zm-2.445-2.187a1.112,1.112,0,0,1,.34-.836,1.277,1.277,0,0,1,.926-.328,1.277,1.277,0,0,1,.926.328,1.112,1.112,0,0,1,.34.836,1.108,1.108,0,0,1-.348.844,1.283,1.283,0,0,1-.918.328A1.283,1.283,0,0,1,20.02-9.8,1.108,1.108,0,0,1,19.672-10.641ZM26.266,0H24V-8.453h2.266Zm-2.4-10.641a1.112,1.112,0,0,1,.34-.836,1.277,1.277,0,0,1,.926-.328,1.28,1.28,0,0,1,.922.328,1.105,1.105,0,0,1,.344.836,1.108,1.108,0,0,1-.348.844,1.283,1.283,0,0,1-.918.328,1.283,1.283,0,0,1-.918-.328A1.108,1.108,0,0,1,23.867-10.641ZM30.508,0H28.242V-12h2.266ZM34.75,0H32.484V-12H34.75Zm6.758,0a2.507,2.507,0,0,1-.227-.758,2.732,2.732,0,0,1-2.133.914A3,3,0,0,1,37.09-.562a2.312,2.312,0,0,1-.816-1.812,2.389,2.389,0,0,1,1-2.062,4.915,4.915,0,0,1,2.879-.727h1.039v-.484a1.393,1.393,0,0,0-.3-.937,1.183,1.183,0,0,0-.949-.352,1.345,1.345,0,0,0-.895.273.929.929,0,0,0-.324.75H36.461a2.268,2.268,0,0,1,.453-1.359,3,3,0,0,1,1.281-.98,4.669,4.669,0,0,1,1.859-.355,3.689,3.689,0,0,1,2.48.785,2.747,2.747,0,0,1,.918,2.207v3.664a4.041,4.041,0,0,0,.336,1.82V0ZM39.641-1.57a1.945,1.945,0,0,0,.922-.223,1.462,1.462,0,0,0,.625-.6V-3.844h-.844q-1.7,0-1.8,1.172l-.008.133a.9.9,0,0,0,.3.7A1.153,1.153,0,0,0,39.641-1.57Z" transform="translate(773.383 4311.176)" fill="#12263f"/>
    <path id="Trazado_720822" data-name="Trazado 720822" d="M431.5,543.5l97.522-192.255L537.5,355.5l5-10-8-4,12.147-25H643.5v-9h-101l-118,231Z" transform="translate(272.5 3847)" fill="#727997" stroke="#12263f" stroke-miterlimit="10" stroke-width="1"/>
    <path id="Trazado_720949" data-name="Trazado 720949" d="M0,0V214" transform="translate(894 4163.5)" fill="none" stroke="#12263f" stroke-width="1"/>
    <path id="Trazado_720950" data-name="Trazado 720950" d="M325,0H0" transform="translate(596 4377.5)" fill="none" stroke="#12263f" stroke-width="1"/>
    <path id="Trazado_720951" data-name="Trazado 720951" d="M0,0V217" transform="translate(626 4161)" fill="none" stroke="#12263f" stroke-width="1"/>
    <path id="Trazado_720824" data-name="Trazado 720824" d="M352.5,417.5h-52l-5,8v83s7,11,0,22v9h58Z" transform="translate(272.5 3847)" fill="#fff" stroke="#12263f" stroke-miterlimit="10" stroke-width="1"/>
    <path id="Trazado_720825" data-name="Trazado 720825" d="M295.5,424.5h57v-7h-52Z" transform="translate(272.5 3847)" fill="#12263f" stroke="#12263f" stroke-miterlimit="10" stroke-width="1"/>
    <path id="Trazado_720952" data-name="Trazado 720952" d="M0,0H58V9H0Z" transform="translate(568 4377.5)" fill="none" stroke="#12263f" stroke-width="1"/>
    <path id="Trazado_720826" data-name="Trazado 720826" d="M622.5,536.5h52l5-8v-83s-7-11,0-22v-9h-58Z" transform="translate(272.5 3847)" fill="#fff" stroke="#12263f" stroke-miterlimit="10" stroke-width="1"/>
    <path id="Trazado_720827" data-name="Trazado 720827" d="M679.5,529.5h-57v7h52Z" transform="translate(272.5 3847)" fill="none" stroke="#12263f" stroke-miterlimit="10" stroke-width="1"/>
    <path id="Trazado_720953" data-name="Trazado 720953" d="M0,0H58V9H0Z" transform="translate(952 4270.5) rotate(180)" fill="#12263f" stroke="#12263f" stroke-width="1"/>
    <g id="Grupo_1007091" data-name="Grupo 1007091" transform="translate(272.5 3847)">
      <line id="Línea_2708" data-name="Línea 2708" x2="25.824" transform="translate(307.5 475.5)" fill="none" stroke="#12263f" stroke-miterlimit="10" stroke-width="1"/>
      <g id="Grupo_1007090" data-name="Grupo 1007090">
        <path id="Trazado_720828" data-name="Trazado 720828" d="M331.865,480.486,340.5,475.5l-8.635-4.986Z" fill="#12263f" stroke="#12263f" stroke-width="1"/>
      </g>
    </g>
    <g id="Grupo_1007093" data-name="Grupo 1007093" transform="translate(272.5 3847)">
      <line id="Línea_2709" data-name="Línea 2709" x2="25.824" transform="translate(632.5 475.5)" fill="none" stroke="#12263f" stroke-miterlimit="10" stroke-width="1"/>
      <g id="Grupo_1007092" data-name="Grupo 1007092">
        <path id="Trazado_720829" data-name="Trazado 720829" d="M656.865,480.486,665.5,475.5l-8.635-4.986Z" fill="#12263f" stroke="#12263f" stroke-width="1"/>
      </g>
    </g>
    <path id="Trazado_720954" data-name="Trazado 720954" d="M3.359-4.008V0H1.016V-11.375H5.453a5.134,5.134,0,0,1,2.254.469A3.454,3.454,0,0,1,9.2-9.574a3.714,3.714,0,0,1,.523,1.965A3.266,3.266,0,0,1,8.582-4.973a4.767,4.767,0,0,1-3.168.965Zm0-1.9H5.453a2.059,2.059,0,0,0,1.418-.437,1.591,1.591,0,0,0,.488-1.25,1.876,1.876,0,0,0-.492-1.352,1.839,1.839,0,0,0-1.359-.531H3.359ZM13.57,0H11.3V-12H13.57Zm6.758,0A2.507,2.507,0,0,1,20.1-.758a2.732,2.732,0,0,1-2.133.914A3,3,0,0,1,15.91-.562a2.312,2.312,0,0,1-.816-1.812,2.389,2.389,0,0,1,1-2.062,4.915,4.915,0,0,1,2.879-.727h1.039v-.484a1.393,1.393,0,0,0-.3-.937,1.183,1.183,0,0,0-.949-.352,1.345,1.345,0,0,0-.895.273.929.929,0,0,0-.324.75H15.281a2.268,2.268,0,0,1,.453-1.359,3,3,0,0,1,1.281-.98,4.669,4.669,0,0,1,1.859-.355,3.689,3.689,0,0,1,2.48.785,2.747,2.747,0,0,1,.918,2.207v3.664a4.041,4.041,0,0,0,.336,1.82V0ZM18.461-1.57a1.945,1.945,0,0,0,.922-.223,1.462,1.462,0,0,0,.625-.6V-3.844h-.844q-1.7,0-1.8,1.172l-.008.133a.9.9,0,0,0,.3.7A1.153,1.153,0,0,0,18.461-1.57Zm7.625-6.883.07.977a2.951,2.951,0,0,1,2.43-1.133,2.453,2.453,0,0,1,2,.789,3.682,3.682,0,0,1,.672,2.359V0H29V-5.406a1.465,1.465,0,0,0-.312-1.043,1.4,1.4,0,0,0-1.039-.324,1.553,1.553,0,0,0-1.43.813V0H23.961V-8.453Zm9.586-2.078v2.078h1.445V-6.8H35.672v4.219a1.007,1.007,0,0,0,.18.672.9.9,0,0,0,.688.2,3.6,3.6,0,0,0,.664-.055V-.047a4.648,4.648,0,0,1-1.367.2,2.156,2.156,0,0,1-2.422-2.4V-6.8H32.18V-8.453h1.234v-2.078ZM43.273,0a2.507,2.507,0,0,1-.227-.758,2.732,2.732,0,0,1-2.133.914,3,3,0,0,1-2.059-.719,2.312,2.312,0,0,1-.816-1.812,2.389,2.389,0,0,1,1-2.062,4.915,4.915,0,0,1,2.879-.727h1.039v-.484a1.393,1.393,0,0,0-.3-.937,1.183,1.183,0,0,0-.949-.352,1.345,1.345,0,0,0-.895.273.929.929,0,0,0-.324.75H38.227a2.268,2.268,0,0,1,.453-1.359,3,3,0,0,1,1.281-.98,4.669,4.669,0,0,1,1.859-.355,3.689,3.689,0,0,1,2.48.785,2.747,2.747,0,0,1,.918,2.207v3.664a4.041,4.041,0,0,0,.336,1.82V0ZM41.406-1.57a1.945,1.945,0,0,0,.922-.223,1.462,1.462,0,0,0,.625-.6V-3.844h-.844q-1.7,0-1.8,1.172l-.008.133a.9.9,0,0,0,.3.7A1.153,1.153,0,0,0,41.406-1.57Z" transform="translate(777 4725.176)" fill="#12263f"/>
    <path id="Trazado_720955" data-name="Trazado 720955" d="M4.806-4.026H2.468V0H1.148V-9.953H4.443a3.9,3.9,0,0,1,2.587.766,2.755,2.755,0,0,1,.906,2.229,2.68,2.68,0,0,1-.5,1.62,3,3,0,0,1-1.4,1.032L8.374-.082V0H6.966ZM2.468-5.1H4.484A2.275,2.275,0,0,0,6.04-5.606a1.714,1.714,0,0,0,.578-1.356,1.8,1.8,0,0,0-.55-1.418,2.33,2.33,0,0,0-1.589-.5H2.468ZM12.646.137A3.232,3.232,0,0,1,10.2-.851a3.666,3.666,0,0,1-.943-2.642v-.232a4.438,4.438,0,0,1,.42-1.965,3.28,3.28,0,0,1,1.176-1.354,2.956,2.956,0,0,1,1.637-.489,2.77,2.77,0,0,1,2.242.95,4.114,4.114,0,0,1,.8,2.721v.526H10.521a2.629,2.629,0,0,0,.639,1.767A2.009,2.009,0,0,0,12.715-.9a2.2,2.2,0,0,0,1.135-.273,2.851,2.851,0,0,0,.813-.725l.772.6A3.106,3.106,0,0,1,12.646.137Zm-.157-6.631a1.687,1.687,0,0,0-1.285.557,2.708,2.708,0,0,0-.643,1.562h3.705v-.1a2.409,2.409,0,0,0-.52-1.494A1.588,1.588,0,0,0,12.489-6.494ZM18.3-7.4V.854q0,2.133-1.935,2.133a2.36,2.36,0,0,1-.772-.122V1.859a2.445,2.445,0,0,0,.574.055.859.859,0,0,0,.646-.229,1.133,1.133,0,0,0,.222-.8V-7.4ZM16.905-9.358a.758.758,0,0,1,.188-.516.691.691,0,0,1,.55-.215.717.717,0,0,1,.561.212.747.747,0,0,1,.191.52.722.722,0,0,1-.191.513.73.73,0,0,1-.561.205.707.707,0,0,1-.554-.205A.738.738,0,0,1,16.905-9.358ZM21.711,0H20.446V-7.4h1.265ZM20.344-9.358a.755.755,0,0,1,.188-.52.706.706,0,0,1,.557-.212.717.717,0,0,1,.561.212.747.747,0,0,1,.191.52.722.722,0,0,1-.191.513.73.73,0,0,1-.561.205.718.718,0,0,1-.557-.205A.73.73,0,0,1,20.344-9.358ZM25.108,0H23.844V-10.5h1.265Zm3.4,0H27.241V-10.5h1.265ZM35.1,0a2.657,2.657,0,0,1-.178-.779,2.822,2.822,0,0,1-2.105.916,2.611,2.611,0,0,1-1.794-.619,2,2,0,0,1-.7-1.569A2.091,2.091,0,0,1,31.2-3.845a4.142,4.142,0,0,1,2.471-.639H34.9v-.581a1.42,1.42,0,0,0-.4-1.056,1.593,1.593,0,0,0-1.169-.393,1.844,1.844,0,0,0-1.135.342,1.007,1.007,0,0,0-.458.827H30.468a1.745,1.745,0,0,1,.393-1.07,2.683,2.683,0,0,1,1.066-.817,3.588,3.588,0,0,1,1.48-.3,2.924,2.924,0,0,1,2,.639,2.306,2.306,0,0,1,.752,1.76v3.4a4.162,4.162,0,0,0,.26,1.62V0ZM33-.964a2.223,2.223,0,0,0,1.128-.308,1.861,1.861,0,0,0,.772-.8V-3.589h-.991q-2.324,0-2.324,1.36a1.151,1.151,0,0,0,.4.93A1.524,1.524,0,0,0,33-.964Z" transform="translate(752.928 4611.176)" fill="#12263f"/>
    <path id="Trazado_720956" data-name="Trazado 720956" d="M5.492-4.6H2.82V0H1.313V-11.375H5.078a4.457,4.457,0,0,1,2.957.875A3.148,3.148,0,0,1,9.07-7.953,3.062,3.062,0,0,1,8.5-6.1a3.428,3.428,0,0,1-1.6,1.18L9.57-.094V0H7.961ZM2.82-5.828h2.3A2.6,2.6,0,0,0,6.9-6.407a1.959,1.959,0,0,0,.66-1.55,2.062,2.062,0,0,0-.629-1.62,2.663,2.663,0,0,0-1.816-.571H2.82ZM14.453.156a3.693,3.693,0,0,1-2.8-1.129,4.19,4.19,0,0,1-1.078-3.02v-.266a5.073,5.073,0,0,1,.48-2.246A3.748,3.748,0,0,1,12.4-8.051a3.378,3.378,0,0,1,1.871-.559,3.166,3.166,0,0,1,2.563,1.086,4.7,4.7,0,0,1,.914,3.109v.6H12.023a3,3,0,0,0,.73,2.02,2.3,2.3,0,0,0,1.777.77,2.517,2.517,0,0,0,1.3-.312,3.259,3.259,0,0,0,.93-.828l.883.688A3.55,3.55,0,0,1,14.453.156Zm-.18-7.578a1.928,1.928,0,0,0-1.469.637A3.1,3.1,0,0,0,12.07-5H16.3v-.109a2.753,2.753,0,0,0-.594-1.707A1.815,1.815,0,0,0,14.273-7.422Zm6.641-1.031V.977q0,2.437-2.211,2.438a2.7,2.7,0,0,1-.883-.14V2.125a2.794,2.794,0,0,0,.656.063.982.982,0,0,0,.738-.262,1.3,1.3,0,0,0,.254-.911V-8.453ZM19.32-10.7a.867.867,0,0,1,.215-.59.79.79,0,0,1,.629-.246.819.819,0,0,1,.641.242.854.854,0,0,1,.219.594.826.826,0,0,1-.219.586.834.834,0,0,1-.641.234.808.808,0,0,1-.633-.234A.843.843,0,0,1,19.32-10.7ZM24.813,0H23.367V-8.453h1.445ZM23.25-10.7a.863.863,0,0,1,.215-.594.807.807,0,0,1,.637-.242.819.819,0,0,1,.641.242.854.854,0,0,1,.219.594.826.826,0,0,1-.219.586.834.834,0,0,1-.641.234.821.821,0,0,1-.637-.234A.834.834,0,0,1,23.25-10.7ZM28.7,0H27.25V-12H28.7Zm3.883,0H31.133V-12h1.445Zm7.531,0a3.036,3.036,0,0,1-.2-.891A3.225,3.225,0,0,1,37.5.156a2.984,2.984,0,0,1-2.051-.707,2.287,2.287,0,0,1-.8-1.793,2.39,2.39,0,0,1,1-2.051,4.733,4.733,0,0,1,2.824-.73h1.406v-.664A1.623,1.623,0,0,0,39.43-7a1.821,1.821,0,0,0-1.336-.449,2.107,2.107,0,0,0-1.3.391,1.151,1.151,0,0,0-.523.945H34.82a2,2,0,0,1,.449-1.223,3.066,3.066,0,0,1,1.219-.934,4.1,4.1,0,0,1,1.691-.344,3.342,3.342,0,0,1,2.289.73,2.635,2.635,0,0,1,.859,2.012v3.891a4.757,4.757,0,0,0,.3,1.852V0Zm-2.4-1.1A2.54,2.54,0,0,0,39-1.453a2.127,2.127,0,0,0,.883-.914V-4.1H38.75q-2.656,0-2.656,1.555a1.316,1.316,0,0,0,.453,1.063A1.742,1.742,0,0,0,37.711-1.1Z" transform="translate(887.927 4550.176)" fill="#12263f"/>
    <path id="Trazado_720957" data-name="Trazado 720957" d="M9.688-3.609A4.185,4.185,0,0,1,8.355-.824a4.365,4.365,0,0,1-2.98.98,4.008,4.008,0,0,1-3.23-1.445A5.815,5.815,0,0,1,.93-5.156V-6.25A6.481,6.481,0,0,1,1.5-9.039,4.231,4.231,0,0,1,3.1-10.887a4.47,4.47,0,0,1,2.406-.645A4.11,4.11,0,0,1,8.414-10.52a4.235,4.235,0,0,1,1.273,2.8H8.18a3.268,3.268,0,0,0-.848-1.975A2.565,2.565,0,0,0,5.508-10.3,2.684,2.684,0,0,0,3.254-9.241a4.882,4.882,0,0,0-.816,3.026v1.1a5.018,5.018,0,0,0,.773,2.948A2.5,2.5,0,0,0,5.375-1.07a2.887,2.887,0,0,0,1.918-.566A3.143,3.143,0,0,0,8.18-3.609Zm1.438-.7a4.993,4.993,0,0,1,.488-2.234A3.643,3.643,0,0,1,12.973-8.07a3.7,3.7,0,0,1,1.988-.539,3.565,3.565,0,0,1,2.793,1.2,4.6,4.6,0,0,1,1.066,3.18v.1a5.036,5.036,0,0,1-.473,2.215A3.589,3.589,0,0,1,17-.391a3.743,3.743,0,0,1-2.02.547,3.556,3.556,0,0,1-2.785-1.2A4.575,4.575,0,0,1,11.125-4.2Zm1.453.172a3.616,3.616,0,0,0,.652,2.258,2.088,2.088,0,0,0,1.746.852,2.075,2.075,0,0,0,1.75-.863A3.955,3.955,0,0,0,17.375-4.3a3.61,3.61,0,0,0-.66-2.254,2.1,2.1,0,0,0-1.754-.863,2.075,2.075,0,0,0-1.727.852A3.925,3.925,0,0,0,12.578-4.133Zm9.414-4.32.039.938a3.122,3.122,0,0,1,2.508-1.094A2.417,2.417,0,0,1,26.953-7.25a3.2,3.2,0,0,1,1.1-.984,3.242,3.242,0,0,1,1.6-.375q2.781,0,2.828,2.945V0H31.031V-5.578a1.941,1.941,0,0,0-.414-1.355,1.823,1.823,0,0,0-1.391-.449,1.916,1.916,0,0,0-1.336.48,1.949,1.949,0,0,0-.617,1.293V0H25.82V-5.539a1.613,1.613,0,0,0-1.8-1.844A1.934,1.934,0,0,0,22.07-6.172V0H20.625V-8.453Zm19.8,4.32a5.062,5.062,0,0,1-.883,3.109A2.829,2.829,0,0,1,38.523.156,3.1,3.1,0,0,1,36.1-.82V3.25H34.656v-11.7h1.32l.07.938A2.977,2.977,0,0,1,38.5-8.609a2.882,2.882,0,0,1,2.41,1.148,5.117,5.117,0,0,1,.887,3.2ZM40.352-4.3a3.735,3.735,0,0,0-.609-2.258,1.963,1.963,0,0,0-1.672-.828A2.125,2.125,0,0,0,36.1-6.219V-2.18a2.129,2.129,0,0,0,1.984,1.156,1.954,1.954,0,0,0,1.652-.824A4.077,4.077,0,0,0,40.352-4.3Zm8.5,3.461a3.07,3.07,0,0,1-2.477.992,2.628,2.628,0,0,1-2.059-.785A3.4,3.4,0,0,1,43.6-2.953v-5.5h1.445v5.461q0,1.922,1.563,1.922a2.163,2.163,0,0,0,2.2-1.234V-8.453h1.445V0H48.883Zm7.109.992a3.693,3.693,0,0,1-2.8-1.129,4.19,4.19,0,0,1-1.078-3.02v-.266a5.073,5.073,0,0,1,.48-2.246A3.748,3.748,0,0,1,53.91-8.051a3.378,3.378,0,0,1,1.871-.559,3.166,3.166,0,0,1,2.563,1.086,4.7,4.7,0,0,1,.914,3.109v.6H53.531a3,3,0,0,0,.73,2.02,2.3,2.3,0,0,0,1.777.77,2.517,2.517,0,0,0,1.3-.312,3.259,3.259,0,0,0,.93-.828l.883.688A3.55,3.55,0,0,1,55.961.156Zm-.18-7.578a1.928,1.928,0,0,0-1.469.637A3.1,3.1,0,0,0,53.578-5h4.234v-.109a2.753,2.753,0,0,0-.594-1.707A1.815,1.815,0,0,0,55.781-7.422Zm9.234.266a4.331,4.331,0,0,0-.711-.055A1.9,1.9,0,0,0,62.375-6V0H60.93V-8.453h1.406l.023.977a2.251,2.251,0,0,1,2.016-1.133,1.477,1.477,0,0,1,.641.109ZM68.7-10.5v2.047h1.578v1.117H68.7v5.249a1.173,1.173,0,0,0,.211.763.888.888,0,0,0,.719.254,3.5,3.5,0,0,0,.688-.094V0A4.215,4.215,0,0,1,69.2.156,1.8,1.8,0,0,1,67.742-.43a2.517,2.517,0,0,1-.492-1.664V-7.336H65.711V-8.453H67.25V-10.5ZM77.18,0a3.036,3.036,0,0,1-.2-.891A3.225,3.225,0,0,1,74.57.156,2.984,2.984,0,0,1,72.52-.551a2.288,2.288,0,0,1-.8-1.793,2.39,2.39,0,0,1,1-2.051,4.733,4.733,0,0,1,2.824-.73h1.406v-.664A1.623,1.623,0,0,0,76.5-7a1.821,1.821,0,0,0-1.336-.449,2.108,2.108,0,0,0-1.3.391,1.151,1.151,0,0,0-.523.945H71.891a2,2,0,0,1,.449-1.223,3.066,3.066,0,0,1,1.219-.934,4.1,4.1,0,0,1,1.691-.344,3.342,3.342,0,0,1,2.289.73A2.635,2.635,0,0,1,78.4-5.867v3.891a4.757,4.757,0,0,0,.3,1.852V0Zm-2.4-1.1a2.54,2.54,0,0,0,1.289-.352,2.127,2.127,0,0,0,.883-.914V-4.1H75.82q-2.656,0-2.656,1.555a1.316,1.316,0,0,0,.453,1.063A1.742,1.742,0,0,0,74.781-1.1ZM.742,13.7a4.952,4.952,0,0,1,.922-3.129A2.915,2.915,0,0,1,4.078,9.391,2.932,2.932,0,0,1,6.43,10.406V6H7.875V18H6.547l-.07-.906a2.943,2.943,0,0,1-2.414,1.063,2.887,2.887,0,0,1-2.395-1.2,5.008,5.008,0,0,1-.926-3.141Zm1.445.164a3.749,3.749,0,0,0,.594,2.25,1.92,1.92,0,0,0,1.641.813A2.108,2.108,0,0,0,6.43,15.7V11.813a2.125,2.125,0,0,0-1.992-1.2,1.929,1.929,0,0,0-1.656.82A4.128,4.128,0,0,0,2.188,13.867Zm11.438,4.289a3.693,3.693,0,0,1-2.8-1.129,4.19,4.19,0,0,1-1.078-3.02v-.266a5.073,5.073,0,0,1,.48-2.246,3.748,3.748,0,0,1,1.344-1.547,3.378,3.378,0,0,1,1.871-.559,3.166,3.166,0,0,1,2.563,1.086,4.7,4.7,0,0,1,.914,3.109v.6H11.2a3,3,0,0,0,.73,2.02,2.3,2.3,0,0,0,1.777.77,2.517,2.517,0,0,0,1.3-.312,3.259,3.259,0,0,0,.93-.828l.883.688A3.55,3.55,0,0,1,13.625,18.156Zm-.18-7.578a1.928,1.928,0,0,0-1.469.637A3.1,3.1,0,0,0,11.242,13h4.234v-.109a2.753,2.753,0,0,0-.594-1.707A1.815,1.815,0,0,0,13.445,10.578ZM23.914,9.547l.039.938a3.122,3.122,0,0,1,2.508-1.094,2.417,2.417,0,0,1,2.414,1.359,3.2,3.2,0,0,1,1.1-.984,3.242,3.242,0,0,1,1.6-.375q2.781,0,2.828,2.945V18H32.953V12.422a1.941,1.941,0,0,0-.414-1.355,1.823,1.823,0,0,0-1.391-.449,1.916,1.916,0,0,0-1.336.48,1.949,1.949,0,0,0-.617,1.293V18H27.742V12.461a1.613,1.613,0,0,0-1.8-1.844,1.934,1.934,0,0,0-1.945,1.211V18H22.547V9.547ZM41.8,18a3.036,3.036,0,0,1-.2-.891,3.225,3.225,0,0,1-2.406,1.047,2.984,2.984,0,0,1-2.051-.707,2.287,2.287,0,0,1-.8-1.793,2.39,2.39,0,0,1,1-2.051,4.733,4.733,0,0,1,2.824-.73H41.57v-.664A1.623,1.623,0,0,0,41.117,11a1.821,1.821,0,0,0-1.336-.449,2.107,2.107,0,0,0-1.3.391,1.151,1.151,0,0,0-.523.945H36.508a2,2,0,0,1,.449-1.223,3.066,3.066,0,0,1,1.219-.934,4.1,4.1,0,0,1,1.691-.344,3.342,3.342,0,0,1,2.289.73,2.635,2.635,0,0,1,.859,2.012v3.891a4.757,4.757,0,0,0,.3,1.852V18Zm-2.4-1.1a2.54,2.54,0,0,0,1.289-.352,2.127,2.127,0,0,0,.883-.914V13.9H40.438q-2.656,0-2.656,1.555a1.316,1.316,0,0,0,.453,1.063A1.742,1.742,0,0,0,39.4,16.9Zm5.531-3.2a4.952,4.952,0,0,1,.922-3.129,3.137,3.137,0,0,1,4.766-.168V6h1.445V18H50.734l-.07-.906a2.943,2.943,0,0,1-2.414,1.063,2.887,2.887,0,0,1-2.395-1.2,5.008,5.008,0,0,1-.926-3.141Zm1.445.164a3.749,3.749,0,0,0,.594,2.25,1.92,1.92,0,0,0,1.641.813A2.108,2.108,0,0,0,50.617,15.7V11.813a2.125,2.125,0,0,0-1.992-1.2,1.929,1.929,0,0,0-1.656.82A4.128,4.128,0,0,0,46.375,13.867Zm11.438,4.289a3.693,3.693,0,0,1-2.8-1.129,4.19,4.19,0,0,1-1.078-3.02v-.266a5.073,5.073,0,0,1,.48-2.246,3.748,3.748,0,0,1,1.344-1.547,3.378,3.378,0,0,1,1.871-.559A3.166,3.166,0,0,1,60.2,10.477a4.7,4.7,0,0,1,.914,3.109v.6H55.383a3,3,0,0,0,.73,2.02,2.3,2.3,0,0,0,1.777.77,2.517,2.517,0,0,0,1.3-.312,3.259,3.259,0,0,0,.93-.828l.883.688A3.55,3.55,0,0,1,57.813,18.156Zm-.18-7.578a1.928,1.928,0,0,0-1.469.637A3.1,3.1,0,0,0,55.43,13h4.234v-.109a2.753,2.753,0,0,0-.594-1.707A1.815,1.815,0,0,0,57.633,10.578Zm9.234.266a4.331,4.331,0,0,0-.711-.055A1.9,1.9,0,0,0,64.227,12v6H62.781V9.547h1.406l.023.977a2.251,2.251,0,0,1,2.016-1.133,1.477,1.477,0,0,1,.641.109ZM73.1,18a3.036,3.036,0,0,1-.2-.891,3.225,3.225,0,0,1-2.406,1.047,2.984,2.984,0,0,1-2.051-.707,2.288,2.288,0,0,1-.8-1.793,2.39,2.39,0,0,1,1-2.051,4.733,4.733,0,0,1,2.824-.73h1.406v-.664A1.623,1.623,0,0,0,72.422,11a1.821,1.821,0,0,0-1.336-.449,2.108,2.108,0,0,0-1.3.391,1.151,1.151,0,0,0-.523.945H67.813a2,2,0,0,1,.449-1.223,3.066,3.066,0,0,1,1.219-.934,4.1,4.1,0,0,1,1.691-.344,3.342,3.342,0,0,1,2.289.73,2.635,2.635,0,0,1,.859,2.012v3.891a4.757,4.757,0,0,0,.3,1.852V18Zm-2.4-1.1a2.54,2.54,0,0,0,1.289-.352,2.127,2.127,0,0,0,.883-.914V13.9H71.742q-2.656,0-2.656,1.555a1.316,1.316,0,0,0,.453,1.063A1.742,1.742,0,0,0,70.7,16.9Z" transform="translate(926.927 4569.176)" fill="#12263f"/>
    <path id="Trazado_720958" data-name="Trazado 720958" d="M0,0V127" transform="translate(568.045 4566)" fill="none" stroke="#12263f" stroke-width="1"/>
    <path id="Trazado_720959" data-name="Trazado 720959" d="M0,0V127" transform="translate(1020.545 4566)" fill="none" stroke="#12263f" stroke-width="1"/>
    <path id="Trazado_720960" data-name="Trazado 720960" d="M0,0V166" transform="translate(797.545 4546.5)" fill="none" stroke="#12263f" stroke-width="1.143"/>
    <path id="Trazado_720830" data-name="Trazado 720830" d="M296,720.294v10.824h91.5l48-27.618h177l44,25h92V717.309h-92l-43-22.809h-179l-46,26Z" transform="translate(272.045 3877)" fill="#fff" stroke="#12263f" stroke-miterlimit="10" stroke-width="1"/>
    <path id="Trazado_720961" data-name="Trazado 720961" d="M0,0H122V40H0Z" transform="translate(741.545 4580.5)" fill="none" stroke="#12263f" stroke-width="1"/>
    <path id="Trazado_720962" data-name="Trazado 720962" d="M0,0V40.5" transform="translate(824.545 4580.5)" fill="none" stroke="#12263f" stroke-width="1"/>
    <path id="Trazado_720963" data-name="Trazado 720963" d="M0,0H83" transform="translate(742.045 4583.5)" fill="none" stroke="#12263f" stroke-width="1"/>
    <path id="Trazado_720964" data-name="Trazado 720964" d="M0,0H83" transform="translate(742.045 4587.5)" fill="none" stroke="#12263f" stroke-width="1"/>
    <path id="Trazado_720965" data-name="Trazado 720965" d="M0,0H83" transform="translate(742.045 4591.5)" fill="none" stroke="#12263f" stroke-width="1"/>
    <path id="Trazado_720966" data-name="Trazado 720966" d="M0,0H83" transform="translate(742.045 4589.5)" fill="none" stroke="#12263f" stroke-width="1"/>
    <path id="Trazado_720967" data-name="Trazado 720967" d="M0,0H83" transform="translate(742.045 4595.5)" fill="none" stroke="#12263f" stroke-width="1"/>
    <g id="Grupo_1007094" data-name="Grupo 1007094" transform="translate(272.045 3877)">
      <line id="Línea_2719" data-name="Línea 2719" y2="4" transform="translate(473.5 707)" fill="none" stroke="#12263f" stroke-miterlimit="10" stroke-width="1"/>
      <line id="Línea_2720" data-name="Línea 2720" y2="4" transform="translate(476.5 707)" fill="none" stroke="#12263f" stroke-miterlimit="10" stroke-width="1"/>
      <line id="Línea_2721" data-name="Línea 2721" y2="4" transform="translate(479.5 707)" fill="none" stroke="#12263f" stroke-miterlimit="10" stroke-width="1"/>
      <line id="Línea_2722" data-name="Línea 2722" y2="4" transform="translate(482.5 707)" fill="none" stroke="#12263f" stroke-miterlimit="10" stroke-width="1"/>
      <line id="Línea_2723" data-name="Línea 2723" y2="4" transform="translate(485.5 707)" fill="none" stroke="#12263f" stroke-miterlimit="10" stroke-width="1"/>
      <line id="Línea_2724" data-name="Línea 2724" y2="4" transform="translate(488.5 707)" fill="none" stroke="#12263f" stroke-miterlimit="10" stroke-width="1"/>
      <line id="Línea_2725" data-name="Línea 2725" y2="4" transform="translate(491.5 707)" fill="none" stroke="#12263f" stroke-miterlimit="10" stroke-width="1"/>
      <line id="Línea_2726" data-name="Línea 2726" y2="4" transform="translate(494.5 707)" fill="none" stroke="#12263f" stroke-miterlimit="10" stroke-width="1"/>
      <line id="Línea_2727" data-name="Línea 2727" y2="4" transform="translate(497.5 707)" fill="none" stroke="#12263f" stroke-miterlimit="10" stroke-width="1"/>
      <line id="Línea_2728" data-name="Línea 2728" y2="4" transform="translate(500.5 707)" fill="none" stroke="#12263f" stroke-miterlimit="10" stroke-width="1"/>
      <line id="Línea_2729" data-name="Línea 2729" y2="4" transform="translate(503.5 707)" fill="none" stroke="#12263f" stroke-miterlimit="10" stroke-width="1"/>
      <line id="Línea_2730" data-name="Línea 2730" y2="4" transform="translate(506.5 707)" fill="none" stroke="#12263f" stroke-miterlimit="10" stroke-width="1"/>
      <line id="Línea_2731" data-name="Línea 2731" y2="4" transform="translate(509.5 707)" fill="none" stroke="#12263f" stroke-miterlimit="10" stroke-width="1"/>
      <line id="Línea_2732" data-name="Línea 2732" y2="4" transform="translate(512.5 707)" fill="none" stroke="#12263f" stroke-miterlimit="10" stroke-width="1"/>
      <line id="Línea_2733" data-name="Línea 2733" y2="4" transform="translate(515.5 707)" fill="none" stroke="#12263f" stroke-miterlimit="10" stroke-width="1"/>
      <line id="Línea_2734" data-name="Línea 2734" y2="4" transform="translate(518.5 707)" fill="none" stroke="#12263f" stroke-miterlimit="10" stroke-width="1"/>
      <line id="Línea_2735" data-name="Línea 2735" y2="4" transform="translate(521.5 707)" fill="none" stroke="#12263f" stroke-miterlimit="10" stroke-width="1"/>
      <line id="Línea_2736" data-name="Línea 2736" y2="4" transform="translate(524.5 707)" fill="none" stroke="#12263f" stroke-miterlimit="10" stroke-width="1"/>
      <line id="Línea_2737" data-name="Línea 2737" y2="4" transform="translate(527.5 707)" fill="none" stroke="#12263f" stroke-miterlimit="10" stroke-width="1"/>
      <line id="Línea_2738" data-name="Línea 2738" y2="4" transform="translate(530.5 707)" fill="none" stroke="#12263f" stroke-miterlimit="10" stroke-width="1"/>
      <line id="Línea_2739" data-name="Línea 2739" y2="4" transform="translate(533.5 707)" fill="none" stroke="#12263f" stroke-miterlimit="10" stroke-width="1"/>
      <line id="Línea_2740" data-name="Línea 2740" y2="4" transform="translate(536.5 707)" fill="none" stroke="#12263f" stroke-miterlimit="10" stroke-width="1"/>
      <line id="Línea_2741" data-name="Línea 2741" y2="4" transform="translate(539.5 707)" fill="none" stroke="#12263f" stroke-miterlimit="10" stroke-width="1"/>
      <line id="Línea_2742" data-name="Línea 2742" y2="4" transform="translate(542.5 707)" fill="none" stroke="#12263f" stroke-miterlimit="10" stroke-width="1"/>
      <line id="Línea_2743" data-name="Línea 2743" y2="4" transform="translate(545.5 707)" fill="none" stroke="#12263f" stroke-miterlimit="10" stroke-width="1"/>
    </g>
    <g id="Grupo_1007095" data-name="Grupo 1007095" transform="translate(272.045 3877)">
      <line id="Línea_2744" data-name="Línea 2744" y2="4" transform="translate(473.5 714)" fill="none" stroke="#12263f" stroke-miterlimit="10" stroke-width="1"/>
      <line id="Línea_2745" data-name="Línea 2745" y2="4" transform="translate(476.5 714)" fill="none" stroke="#12263f" stroke-miterlimit="10" stroke-width="1"/>
      <line id="Línea_2746" data-name="Línea 2746" y2="4" transform="translate(479.5 714)" fill="none" stroke="#12263f" stroke-miterlimit="10" stroke-width="1"/>
      <line id="Línea_2747" data-name="Línea 2747" y2="4" transform="translate(482.5 714)" fill="none" stroke="#12263f" stroke-miterlimit="10" stroke-width="1"/>
      <line id="Línea_2748" data-name="Línea 2748" y2="4" transform="translate(485.5 714)" fill="none" stroke="#12263f" stroke-miterlimit="10" stroke-width="1"/>
      <line id="Línea_2749" data-name="Línea 2749" y2="4" transform="translate(488.5 714)" fill="none" stroke="#12263f" stroke-miterlimit="10" stroke-width="1"/>
      <line id="Línea_2750" data-name="Línea 2750" y2="4" transform="translate(491.5 714)" fill="none" stroke="#12263f" stroke-miterlimit="10" stroke-width="1"/>
      <line id="Línea_2751" data-name="Línea 2751" y2="4" transform="translate(494.5 714)" fill="none" stroke="#12263f" stroke-miterlimit="10" stroke-width="1"/>
      <line id="Línea_2752" data-name="Línea 2752" y2="4" transform="translate(497.5 714)" fill="none" stroke="#12263f" stroke-miterlimit="10" stroke-width="1"/>
      <line id="Línea_2753" data-name="Línea 2753" y2="4" transform="translate(500.5 714)" fill="none" stroke="#12263f" stroke-miterlimit="10" stroke-width="1"/>
      <line id="Línea_2754" data-name="Línea 2754" y2="4" transform="translate(503.5 714)" fill="none" stroke="#12263f" stroke-miterlimit="10" stroke-width="1"/>
      <line id="Línea_2755" data-name="Línea 2755" y2="4" transform="translate(506.5 714)" fill="none" stroke="#12263f" stroke-miterlimit="10" stroke-width="1"/>
      <line id="Línea_2756" data-name="Línea 2756" y2="4" transform="translate(509.5 714)" fill="none" stroke="#12263f" stroke-miterlimit="10" stroke-width="1"/>
      <line id="Línea_2757" data-name="Línea 2757" y2="4" transform="translate(512.5 714)" fill="none" stroke="#12263f" stroke-miterlimit="10" stroke-width="1"/>
      <line id="Línea_2758" data-name="Línea 2758" y2="4" transform="translate(515.5 714)" fill="none" stroke="#12263f" stroke-miterlimit="10" stroke-width="1"/>
      <line id="Línea_2759" data-name="Línea 2759" y2="4" transform="translate(518.5 714)" fill="none" stroke="#12263f" stroke-miterlimit="10" stroke-width="1"/>
      <line id="Línea_2760" data-name="Línea 2760" y2="4" transform="translate(521.5 714)" fill="none" stroke="#12263f" stroke-miterlimit="10" stroke-width="1"/>
      <line id="Línea_2761" data-name="Línea 2761" y2="4" transform="translate(524.5 714)" fill="none" stroke="#12263f" stroke-miterlimit="10" stroke-width="1"/>
      <line id="Línea_2762" data-name="Línea 2762" y2="4" transform="translate(527.5 714)" fill="none" stroke="#12263f" stroke-miterlimit="10" stroke-width="1"/>
      <line id="Línea_2763" data-name="Línea 2763" y2="4" transform="translate(530.5 714)" fill="none" stroke="#12263f" stroke-miterlimit="10" stroke-width="1"/>
      <line id="Línea_2764" data-name="Línea 2764" y2="4" transform="translate(533.5 714)" fill="none" stroke="#12263f" stroke-miterlimit="10" stroke-width="1"/>
      <line id="Línea_2765" data-name="Línea 2765" y2="4" transform="translate(536.5 714)" fill="none" stroke="#12263f" stroke-miterlimit="10" stroke-width="1"/>
      <line id="Línea_2766" data-name="Línea 2766" y2="4" transform="translate(539.5 714)" fill="none" stroke="#12263f" stroke-miterlimit="10" stroke-width="1"/>
      <line id="Línea_2767" data-name="Línea 2767" y2="4" transform="translate(542.5 714)" fill="none" stroke="#12263f" stroke-miterlimit="10" stroke-width="1"/>
      <line id="Línea_2768" data-name="Línea 2768" y2="4" transform="translate(545.5 714)" fill="none" stroke="#12263f" stroke-miterlimit="10" stroke-width="1"/>
    </g>
    <path id="Trazado_720968" data-name="Trazado 720968" d="M0,0V7" transform="translate(817.545 4597.5)" fill="none" stroke="#12263f" stroke-width="1"/>
    <path id="Trazado_720969" data-name="Trazado 720969" d="M0,0V7" transform="translate(817.545 4607)" fill="none" stroke="#12263f" stroke-width="1"/>
    <path id="Trazado_720970" data-name="Trazado 720970" d="M0,0V7" transform="translate(745.545 4597.5)" fill="none" stroke="#12263f" stroke-width="1"/>
    <path id="Trazado_720971" data-name="Trazado 720971" d="M0,0V7" transform="translate(745.545 4607)" fill="none" stroke="#12263f" stroke-width="1"/>
    <path id="Trazado_720972" data-name="Trazado 720972" d="M0,0H9V25H0Z" transform="translate(838.045 4590)" fill="#12263f" stroke="#12263f" stroke-width="1"/>
    <path id="Trazado_720973" data-name="Trazado 720973" d="M0,0,14,10" transform="translate(824.545 4580.5)" fill="none" stroke="#12263f" stroke-width="1"/>
    <path id="Trazado_720974" data-name="Trazado 720974" d="M17,0,0,10" transform="translate(846.545 4580.5)" fill="none" stroke="#12263f" stroke-width="1"/>
    <path id="Trazado_720975" data-name="Trazado 720975" d="M0,0,17,6" transform="translate(846.545 4614.5)" fill="none" stroke="#12263f" stroke-width="1"/>
    <path id="Trazado_720976" data-name="Trazado 720976" d="M14,0,0,6" transform="translate(824.545 4614.5)" fill="none" stroke="#12263f" stroke-width="1"/>
    <path id="Trazado_720831" data-name="Trazado 720831" d="M403.5,721.5l39,22L441,752l-45.831-25.295Z" transform="translate(272.045 3877)" fill="#fff" stroke="#12263f" stroke-miterlimit="10" stroke-width="1"/>
    <path id="Trazado_720832" data-name="Trazado 720832" d="M650.5,723.5l-43,24,1.169,4.5L654.5,726.705Z" transform="translate(272.045 3877)" fill="#fff" stroke="#12263f" stroke-miterlimit="10" stroke-width="1"/>
    <path id="Trazado_720833" data-name="Trazado 720833" d="M442,743.5H602l5.5,4" transform="translate(272.045 3877)" fill="none" stroke="#12263f" stroke-miterlimit="10" stroke-width="1"/>
    <path id="Trazado_720834" data-name="Trazado 720834" d="M296,785.206V774.382h91.5L435.5,802h177l44-25h92v11.191h-92L613.5,811h-179l-46-26Z" transform="translate(272.045 3877)" fill="#fff" stroke="#12263f" stroke-miterlimit="10" stroke-width="1"/>
    <path id="Trazado_720977" data-name="Trazado 720977" d="M0,0H122V40H0Z" transform="translate(741.545 4639)" fill="none" stroke="#12263f" stroke-width="1"/>
    <path id="Trazado_720978" data-name="Trazado 720978" d="M0,40.5V0" transform="translate(824.545 4638.5)" fill="none" stroke="#12263f" stroke-width="1"/>
    <path id="Trazado_720979" data-name="Trazado 720979" d="M0,7V0" transform="translate(817.545 4655)" fill="none" stroke="#12263f" stroke-width="1"/>
    <path id="Trazado_720980" data-name="Trazado 720980" d="M0,7V0" transform="translate(817.545 4666)" fill="none" stroke="#12263f" stroke-width="1"/>
    <path id="Trazado_720981" data-name="Trazado 720981" d="M0,7V0" transform="translate(745.545 4666)" fill="none" stroke="#12263f" stroke-width="1"/>
    <path id="Trazado_720982" data-name="Trazado 720982" d="M0,7V0" transform="translate(817.545 4645.5)" fill="none" stroke="#12263f" stroke-width="1"/>
    <path id="Trazado_720983" data-name="Trazado 720983" d="M0,7V0" transform="translate(745.545 4655)" fill="none" stroke="#12263f" stroke-width="1"/>
    <path id="Trazado_720984" data-name="Trazado 720984" d="M0,7V0" transform="translate(745.545 4645.5)" fill="none" stroke="#12263f" stroke-width="1"/>
    <path id="Trazado_720985" data-name="Trazado 720985" d="M0,0H9V25H0Z" transform="translate(838.045 4644.5)" fill="#12263f" stroke="#12263f" stroke-width="1"/>
    <path id="Trazado_720986" data-name="Trazado 720986" d="M0,10,14,0" transform="translate(824.545 4669)" fill="none" stroke="#12263f" stroke-width="1"/>
    <path id="Trazado_720987" data-name="Trazado 720987" d="M17,10,0,0" transform="translate(846.545 4669)" fill="none" stroke="#12263f" stroke-width="1"/>
    <path id="Trazado_720988" data-name="Trazado 720988" d="M0,6,17,0" transform="translate(846.545 4639)" fill="none" stroke="#12263f" stroke-width="1"/>
    <path id="Trazado_720989" data-name="Trazado 720989" d="M14,6,0,0" transform="translate(824.545 4639)" fill="none" stroke="#12263f" stroke-width="1"/>
    <path id="Trazado_720835" data-name="Trazado 720835" d="M403.5,784l39-22-1.5-8.5-45.831,25.295Z" transform="translate(272.045 3877)" fill="#fff" stroke="#12263f" stroke-miterlimit="10" stroke-width="1"/>
    <path id="Trazado_720836" data-name="Trazado 720836" d="M650.5,782l-43-24,1.169-4.5L654.5,778.795Z" transform="translate(272.045 3877)" fill="#fff" stroke="#12263f" stroke-miterlimit="10" stroke-width="1"/>
    <path id="Trazado_720837" data-name="Trazado 720837" d="M442,762H602l5.5-4" transform="translate(272.045 3877)" fill="none" stroke="#12263f" stroke-miterlimit="10" stroke-width="1"/>
    <path id="Trazado_720990" data-name="Trazado 720990" d="M0,0H505" transform="translate(561.545 4629.5)" fill="none" stroke="#12263f" stroke-width="1"/>
    <g id="Grupo_1007098" data-name="Grupo 1007098" transform="translate(272.045 3877)">
      <line id="Línea_2789" data-name="Línea 2789" y2="2.5" transform="translate(228.5 715.06)" fill="none" stroke="#12263f" stroke-miterlimit="10" stroke-width="1"/>
      <line id="Línea_2790" data-name="Línea 2790" y2="39.533" transform="translate(228.5 722.832)" fill="none" stroke="#12263f" stroke-miterlimit="10" stroke-width="1" stroke-dasharray="5.271 5.271"/>
      <path id="Trazado_720838" data-name="Trazado 720838" d="M228.5,765v2.5H231" fill="#12263f" stroke="#12263f" stroke-miterlimit="10" stroke-width="1"/>
      <line id="Línea_2791" data-name="Línea 2791" x2="586.513" transform="translate(235.992 767.5)" fill="none" stroke="#12263f" stroke-miterlimit="10" stroke-width="1" stroke-dasharray="4.992 4.992"/>
      <path id="Trazado_720839" data-name="Trazado 720839" d="M825,767.5h2.5V765" fill="#12263f" stroke="#12263f" stroke-miterlimit="10" stroke-width="1"/>
      <line id="Línea_2792" data-name="Línea 2792" y1="39.533" transform="translate(827.5 720.196)" fill="none" stroke="#12263f" stroke-miterlimit="10" stroke-width="1" stroke-dasharray="5.271 5.271"/>
      <line id="Línea_2793" data-name="Línea 2793" y1="2.5" transform="translate(827.5 715.06)" fill="none" stroke="#12263f" stroke-miterlimit="10" stroke-width="1"/>
      <g id="Grupo_1007096" data-name="Grupo 1007096">
        <path id="Trazado_720840" data-name="Trazado 720840" d="M228.5,715.463a7.378,7.378,0,0,0,4.545,1.584A13.63,13.63,0,0,1,228.5,711.5a14.38,14.38,0,0,1-4.545,5.547A7.638,7.638,0,0,0,228.5,715.463Z" fill="#12263f" stroke="#12263f" stroke-width="1"/>
      </g>
      <g id="Grupo_1007097" data-name="Grupo 1007097">
        <path id="Trazado_720841" data-name="Trazado 720841" d="M827.5,715.463a7.378,7.378,0,0,1-4.545,1.584A13.63,13.63,0,0,0,827.5,711.5a14.38,14.38,0,0,0,4.545,5.547A7.638,7.638,0,0,1,827.5,715.463Z" fill="#12263f" stroke="#12263f" stroke-width="1"/>
      </g>
    </g>
    <path id="Trazado_720842" data-name="Trazado 720842" d="M637,732V689h17.5" transform="translate(272.045 3877)" fill="none" stroke="#ffa031" stroke-miterlimit="10" stroke-width="1"/>
    <path id="Trazado_720991" data-name="Trazado 720991" d="M0,45.5,45,0" transform="translate(842.545 4544.5)" fill="none" stroke="#ffa031" stroke-width="1"/>
    <path id="Trazado_720846" data-name="Trazado 720846" d="M0,0H452V69.333l-264.667-.667L141.667,57H0Z" transform="translate(568 4846)" fill="#fff"/>
    <path id="Trazado_720992" data-name="Trazado 720992" d="M9.945-3.789A4.025,4.025,0,0,1,8.59-.9,4.76,4.76,0,0,1,5.367.156,4.28,4.28,0,0,1,1.926-1.316,6.038,6.038,0,0,1,.672-5.359v-.7A6.819,6.819,0,0,1,1.25-8.945,4.332,4.332,0,0,1,2.9-10.863a4.629,4.629,0,0,1,2.5-.668A4.637,4.637,0,0,1,8.57-10.477,4.326,4.326,0,0,1,9.961-7.516H7.617A2.376,2.376,0,0,0,7-9.113a2.271,2.271,0,0,0-1.605-.5,1.991,1.991,0,0,0-1.754.84,4.707,4.707,0,0,0-.6,2.605V-5.3a5.038,5.038,0,0,0,.559,2.7,1.954,1.954,0,0,0,1.762.852,2.314,2.314,0,0,0,1.621-.5A2.241,2.241,0,0,0,7.6-3.789ZM10.984-4.3a5.013,5.013,0,0,1,.484-2.242A3.546,3.546,0,0,1,12.863-8.07a4.069,4.069,0,0,1,2.113-.539A3.849,3.849,0,0,1,17.77-7.562a4.2,4.2,0,0,1,1.207,2.844l.016.578A4.418,4.418,0,0,1,17.906-1.02,3.775,3.775,0,0,1,14.992.156a3.793,3.793,0,0,1-2.918-1.172A4.5,4.5,0,0,1,10.984-4.2Zm2.258.16A3.16,3.16,0,0,0,13.7-2.3a1.5,1.5,0,0,0,1.3.638,1.5,1.5,0,0,0,1.281-.63,3.457,3.457,0,0,0,.461-2.015,3.128,3.128,0,0,0-.461-1.831,1.5,1.5,0,0,0-1.3-.649,1.474,1.474,0,0,0-1.281.646A3.516,3.516,0,0,0,13.242-4.144ZM25.133-6.336A6.134,6.134,0,0,0,24.32-6.4a1.654,1.654,0,0,0-1.68.867V0H20.383V-8.453h2.133l.063,1.008a2.092,2.092,0,0,1,1.883-1.164,2.366,2.366,0,0,1,.7.1Zm4.18-4.2v2.078h1.445V-6.8H29.313v4.219a1.007,1.007,0,0,0,.18.672.9.9,0,0,0,.688.2,3.6,3.6,0,0,0,.664-.055V-.047a4.648,4.648,0,0,1-1.367.2,2.156,2.156,0,0,1-2.422-2.4V-6.8H25.82V-8.453h1.234v-2.078ZM35.906.156A4.15,4.15,0,0,1,32.879-.984a4.054,4.054,0,0,1-1.168-3.039v-.219A5.106,5.106,0,0,1,32.2-6.52,3.612,3.612,0,0,1,33.6-8.066a3.914,3.914,0,0,1,2.059-.543,3.508,3.508,0,0,1,2.73,1.094,4.444,4.444,0,0,1,1,3.1v.922H34a2.1,2.1,0,0,0,.66,1.328,2,2,0,0,0,1.395.5,2.437,2.437,0,0,0,2.039-.945L39.2-1.367A3.389,3.389,0,0,1,37.828-.246,4.511,4.511,0,0,1,35.906.156Zm-.258-6.945a1.411,1.411,0,0,0-1.09.455,2.357,2.357,0,0,0-.535,1.3h3.141v-.181a1.681,1.681,0,0,0-.406-1.165A1.456,1.456,0,0,0,35.648-6.789Z" transform="translate(734.928 4959.176)" fill="#12263f"/>
    <path id="Trazado_720993" data-name="Trazado 720993" d="M9.688-3.609A4.185,4.185,0,0,1,8.355-.824a4.365,4.365,0,0,1-2.98.98,4.008,4.008,0,0,1-3.23-1.445A5.815,5.815,0,0,1,.93-5.156V-6.25A6.481,6.481,0,0,1,1.5-9.039,4.231,4.231,0,0,1,3.1-10.887a4.47,4.47,0,0,1,2.406-.645A4.11,4.11,0,0,1,8.414-10.52a4.235,4.235,0,0,1,1.273,2.8H8.18a3.268,3.268,0,0,0-.848-1.975A2.565,2.565,0,0,0,5.508-10.3,2.684,2.684,0,0,0,3.254-9.241a4.882,4.882,0,0,0-.816,3.026v1.1a5.018,5.018,0,0,0,.773,2.948A2.5,2.5,0,0,0,5.375-1.07a2.887,2.887,0,0,0,1.918-.566A3.143,3.143,0,0,0,8.18-3.609Zm1.438-.7a4.993,4.993,0,0,1,.488-2.234A3.643,3.643,0,0,1,12.973-8.07a3.7,3.7,0,0,1,1.988-.539,3.565,3.565,0,0,1,2.793,1.2,4.6,4.6,0,0,1,1.066,3.18v.1a5.036,5.036,0,0,1-.473,2.215A3.589,3.589,0,0,1,17-.391a3.743,3.743,0,0,1-2.02.547,3.556,3.556,0,0,1-2.785-1.2A4.575,4.575,0,0,1,11.125-4.2Zm1.453.172a3.616,3.616,0,0,0,.652,2.258,2.088,2.088,0,0,0,1.746.852,2.075,2.075,0,0,0,1.75-.863A3.955,3.955,0,0,0,17.375-4.3a3.61,3.61,0,0,0-.66-2.254,2.1,2.1,0,0,0-1.754-.863,2.075,2.075,0,0,0-1.727.852A3.925,3.925,0,0,0,12.578-4.133Zm9.414-4.32.039.938a3.122,3.122,0,0,1,2.508-1.094A2.417,2.417,0,0,1,26.953-7.25a3.2,3.2,0,0,1,1.1-.984,3.242,3.242,0,0,1,1.6-.375q2.781,0,2.828,2.945V0H31.031V-5.578a1.941,1.941,0,0,0-.414-1.355,1.823,1.823,0,0,0-1.391-.449,1.916,1.916,0,0,0-1.336.48,1.949,1.949,0,0,0-.617,1.293V0H25.82V-5.539a1.613,1.613,0,0,0-1.8-1.844A1.934,1.934,0,0,0,22.07-6.172V0H20.625V-8.453Zm19.8,4.32a5.062,5.062,0,0,1-.883,3.109A2.829,2.829,0,0,1,38.523.156,3.1,3.1,0,0,1,36.1-.82V3.25H34.656v-11.7h1.32l.07.938A2.977,2.977,0,0,1,38.5-8.609a2.882,2.882,0,0,1,2.41,1.148,5.117,5.117,0,0,1,.887,3.2ZM40.352-4.3a3.735,3.735,0,0,0-.609-2.258,1.963,1.963,0,0,0-1.672-.828A2.125,2.125,0,0,0,36.1-6.219V-2.18a2.129,2.129,0,0,0,1.984,1.156,1.954,1.954,0,0,0,1.652-.824A4.077,4.077,0,0,0,40.352-4.3Zm8.5,3.461a3.07,3.07,0,0,1-2.477.992,2.628,2.628,0,0,1-2.059-.785A3.4,3.4,0,0,1,43.6-2.953v-5.5h1.445v5.461q0,1.922,1.563,1.922a2.163,2.163,0,0,0,2.2-1.234V-8.453h1.445V0H48.883Zm7.109.992a3.693,3.693,0,0,1-2.8-1.129,4.19,4.19,0,0,1-1.078-3.02v-.266a5.073,5.073,0,0,1,.48-2.246A3.748,3.748,0,0,1,53.91-8.051a3.378,3.378,0,0,1,1.871-.559,3.166,3.166,0,0,1,2.563,1.086,4.7,4.7,0,0,1,.914,3.109v.6H53.531a3,3,0,0,0,.73,2.02,2.3,2.3,0,0,0,1.777.77,2.517,2.517,0,0,0,1.3-.312,3.259,3.259,0,0,0,.93-.828l.883.688A3.55,3.55,0,0,1,55.961.156Zm-.18-7.578a1.928,1.928,0,0,0-1.469.637A3.1,3.1,0,0,0,53.578-5h4.234v-.109a2.753,2.753,0,0,0-.594-1.707A1.815,1.815,0,0,0,55.781-7.422Zm9.234.266a4.331,4.331,0,0,0-.711-.055A1.9,1.9,0,0,0,62.375-6V0H60.93V-8.453h1.406l.023.977a2.251,2.251,0,0,1,2.016-1.133,1.477,1.477,0,0,1,.641.109ZM68.7-10.5v2.047h1.578v1.117H68.7v5.249a1.173,1.173,0,0,0,.211.763.888.888,0,0,0,.719.254,3.5,3.5,0,0,0,.688-.094V0A4.215,4.215,0,0,1,69.2.156,1.8,1.8,0,0,1,67.742-.43a2.517,2.517,0,0,1-.492-1.664V-7.336H65.711V-8.453H67.25V-10.5ZM77.18,0a3.036,3.036,0,0,1-.2-.891A3.225,3.225,0,0,1,74.57.156,2.984,2.984,0,0,1,72.52-.551a2.288,2.288,0,0,1-.8-1.793,2.39,2.39,0,0,1,1-2.051,4.733,4.733,0,0,1,2.824-.73h1.406v-.664A1.623,1.623,0,0,0,76.5-7a1.821,1.821,0,0,0-1.336-.449,2.108,2.108,0,0,0-1.3.391,1.151,1.151,0,0,0-.523.945H71.891a2,2,0,0,1,.449-1.223,3.066,3.066,0,0,1,1.219-.934,4.1,4.1,0,0,1,1.691-.344,3.342,3.342,0,0,1,2.289.73A2.635,2.635,0,0,1,78.4-5.867v3.891a4.757,4.757,0,0,0,.3,1.852V0Zm-2.4-1.1a2.54,2.54,0,0,0,1.289-.352,2.127,2.127,0,0,0,.883-.914V-4.1H75.82q-2.656,0-2.656,1.555a1.316,1.316,0,0,0,.453,1.063A1.742,1.742,0,0,0,74.781-1.1Z" transform="translate(648.545 4806.883)" fill="#12263f"/>
    <path id="Trazado_720994" data-name="Trazado 720994" d="M5.492-4.6H2.82V0H1.313V-11.375H5.078a4.457,4.457,0,0,1,2.957.875A3.148,3.148,0,0,1,9.07-7.953,3.062,3.062,0,0,1,8.5-6.1a3.428,3.428,0,0,1-1.6,1.18L9.57-.094V0H7.961ZM2.82-5.828h2.3A2.6,2.6,0,0,0,6.9-6.407a1.959,1.959,0,0,0,.66-1.55,2.062,2.062,0,0,0-.629-1.62,2.663,2.663,0,0,0-1.816-.571H2.82ZM14.453.156a3.693,3.693,0,0,1-2.8-1.129,4.19,4.19,0,0,1-1.078-3.02v-.266a5.073,5.073,0,0,1,.48-2.246A3.748,3.748,0,0,1,12.4-8.051a3.378,3.378,0,0,1,1.871-.559,3.166,3.166,0,0,1,2.563,1.086,4.7,4.7,0,0,1,.914,3.109v.6H12.023a3,3,0,0,0,.73,2.02,2.3,2.3,0,0,0,1.777.77,2.517,2.517,0,0,0,1.3-.312,3.259,3.259,0,0,0,.93-.828l.883.688A3.55,3.55,0,0,1,14.453.156Zm-.18-7.578a1.928,1.928,0,0,0-1.469.637A3.1,3.1,0,0,0,12.07-5H16.3v-.109a2.753,2.753,0,0,0-.594-1.707A1.815,1.815,0,0,0,14.273-7.422Zm6.641-1.031V.977q0,2.437-2.211,2.438a2.7,2.7,0,0,1-.883-.14V2.125a2.794,2.794,0,0,0,.656.063.982.982,0,0,0,.738-.262,1.3,1.3,0,0,0,.254-.911V-8.453ZM19.32-10.7a.867.867,0,0,1,.215-.59.79.79,0,0,1,.629-.246.819.819,0,0,1,.641.242.854.854,0,0,1,.219.594.826.826,0,0,1-.219.586.834.834,0,0,1-.641.234.808.808,0,0,1-.633-.234A.843.843,0,0,1,19.32-10.7ZM24.813,0H23.367V-8.453h1.445ZM23.25-10.7a.863.863,0,0,1,.215-.594.807.807,0,0,1,.637-.242.819.819,0,0,1,.641.242.854.854,0,0,1,.219.594.826.826,0,0,1-.219.586.834.834,0,0,1-.641.234.821.821,0,0,1-.637-.234A.834.834,0,0,1,23.25-10.7ZM28.7,0H27.25V-12H28.7Zm3.883,0H31.133V-12h1.445Zm7.531,0a3.036,3.036,0,0,1-.2-.891A3.225,3.225,0,0,1,37.5.156a2.984,2.984,0,0,1-2.051-.707,2.287,2.287,0,0,1-.8-1.793,2.39,2.39,0,0,1,1-2.051,4.733,4.733,0,0,1,2.824-.73h1.406v-.664A1.623,1.623,0,0,0,39.43-7a1.821,1.821,0,0,0-1.336-.449,2.107,2.107,0,0,0-1.3.391,1.151,1.151,0,0,0-.523.945H34.82a2,2,0,0,1,.449-1.223,3.066,3.066,0,0,1,1.219-.934,4.1,4.1,0,0,1,1.691-.344,3.342,3.342,0,0,1,2.289.73,2.635,2.635,0,0,1,.859,2.012v3.891a4.757,4.757,0,0,0,.3,1.852V0Zm-2.4-1.1A2.54,2.54,0,0,0,39-1.453a2.127,2.127,0,0,0,.883-.914V-4.1H38.75q-2.656,0-2.656,1.555a1.316,1.316,0,0,0,.453,1.063A1.742,1.742,0,0,0,37.711-1.1Z" transform="translate(776.927 4811.176)" fill="#12263f"/>
    <path id="Trazado_720995" data-name="Trazado 720995" d="M9.688-3.609A4.185,4.185,0,0,1,8.355-.824a4.365,4.365,0,0,1-2.98.98,4.008,4.008,0,0,1-3.23-1.445A5.815,5.815,0,0,1,.93-5.156V-6.25A6.481,6.481,0,0,1,1.5-9.039,4.231,4.231,0,0,1,3.1-10.887a4.47,4.47,0,0,1,2.406-.645A4.11,4.11,0,0,1,8.414-10.52a4.235,4.235,0,0,1,1.273,2.8H8.18a3.268,3.268,0,0,0-.848-1.975A2.565,2.565,0,0,0,5.508-10.3,2.684,2.684,0,0,0,3.254-9.241a4.882,4.882,0,0,0-.816,3.026v1.1a5.018,5.018,0,0,0,.773,2.948A2.5,2.5,0,0,0,5.375-1.07a2.887,2.887,0,0,0,1.918-.566A3.143,3.143,0,0,0,8.18-3.609ZM16.727,0a3.036,3.036,0,0,1-.2-.891A3.225,3.225,0,0,1,14.117.156a2.984,2.984,0,0,1-2.051-.707,2.287,2.287,0,0,1-.8-1.793,2.39,2.39,0,0,1,1-2.051,4.733,4.733,0,0,1,2.824-.73H16.5v-.664A1.623,1.623,0,0,0,16.047-7a1.821,1.821,0,0,0-1.336-.449,2.107,2.107,0,0,0-1.3.391,1.151,1.151,0,0,0-.523.945H11.438a2,2,0,0,1,.449-1.223,3.066,3.066,0,0,1,1.219-.934A4.1,4.1,0,0,1,14.8-8.609a3.342,3.342,0,0,1,2.289.73,2.635,2.635,0,0,1,.859,2.012v3.891a4.757,4.757,0,0,0,.3,1.852V0Zm-2.4-1.1a2.54,2.54,0,0,0,1.289-.352,2.127,2.127,0,0,0,.883-.914V-4.1H15.367q-2.656,0-2.656,1.555a1.316,1.316,0,0,0,.453,1.063A1.742,1.742,0,0,0,14.328-1.1Zm7.25-7.352.047,1.063a3.08,3.08,0,0,1,2.531-1.219q2.68,0,2.7,3.023V0H25.414V-5.594A1.946,1.946,0,0,0,25-6.945a1.675,1.675,0,0,0-1.277-.437,2.086,2.086,0,0,0-1.234.375,2.546,2.546,0,0,0-.828.984V0H20.211V-8.453ZM34.258,0a3.036,3.036,0,0,1-.2-.891A3.225,3.225,0,0,1,31.648.156,2.984,2.984,0,0,1,29.6-.551a2.287,2.287,0,0,1-.8-1.793,2.39,2.39,0,0,1,1-2.051,4.733,4.733,0,0,1,2.824-.73h1.406v-.664A1.623,1.623,0,0,0,33.578-7a1.821,1.821,0,0,0-1.336-.449,2.108,2.108,0,0,0-1.3.391,1.151,1.151,0,0,0-.523.945H28.969a2,2,0,0,1,.449-1.223,3.066,3.066,0,0,1,1.219-.934,4.1,4.1,0,0,1,1.691-.344,3.342,3.342,0,0,1,2.289.73,2.635,2.635,0,0,1,.859,2.012v3.891a4.757,4.757,0,0,0,.3,1.852V0Zm-2.4-1.1a2.54,2.54,0,0,0,1.289-.352,2.127,2.127,0,0,0,.883-.914V-4.1H32.9q-2.656,0-2.656,1.555A1.316,1.316,0,0,0,30.7-1.484,1.742,1.742,0,0,0,31.859-1.1ZM39.313,0H37.867V-12h1.445Z" transform="translate(802.927 4944.176)" fill="#12263f"/>
    <path id="Trazado_720996" data-name="Trazado 720996" d="M6.086-11.375H7.594V-3.32a3.336,3.336,0,0,1-.98,2.555A3.66,3.66,0,0,1,4,.156,3.762,3.762,0,0,1,1.359-.711a3.132,3.132,0,0,1-.945-2.43h1.5a2.086,2.086,0,0,0,.535,1.523A2.073,2.073,0,0,0,4-1.07a2.012,2.012,0,0,0,1.5-.586A2.27,2.27,0,0,0,6.086-3.3ZM15.141-.836a3.07,3.07,0,0,1-2.477.992,2.628,2.628,0,0,1-2.059-.785,3.4,3.4,0,0,1-.715-2.324v-5.5h1.445v5.461q0,1.922,1.563,1.922A2.163,2.163,0,0,0,15.1-2.3V-8.453h1.445V0H15.172Zm4.969-7.617.047,1.063a3.08,3.08,0,0,1,2.531-1.219q2.68,0,2.7,3.023V0H23.945V-5.594a1.946,1.946,0,0,0-.418-1.352,1.675,1.675,0,0,0-1.277-.437,2.086,2.086,0,0,0-1.234.375,2.546,2.546,0,0,0-.828.984V0H18.742V-8.453ZM29.531-10.5v2.047h1.578v1.117H29.531v5.249a1.173,1.173,0,0,0,.211.763.888.888,0,0,0,.719.254,3.5,3.5,0,0,0,.688-.094V0a4.215,4.215,0,0,1-1.109.155A1.8,1.8,0,0,1,28.578-.43a2.517,2.517,0,0,1-.492-1.664V-7.336H26.547V-8.453h1.539V-10.5ZM38.016,0a3.036,3.036,0,0,1-.2-.891A3.225,3.225,0,0,1,35.406.156a2.984,2.984,0,0,1-2.051-.707,2.287,2.287,0,0,1-.8-1.793,2.39,2.39,0,0,1,1-2.051,4.733,4.733,0,0,1,2.824-.73h1.406v-.664A1.623,1.623,0,0,0,37.336-7,1.821,1.821,0,0,0,36-7.445a2.107,2.107,0,0,0-1.3.391,1.151,1.151,0,0,0-.523.945H32.727a2,2,0,0,1,.449-1.223,3.066,3.066,0,0,1,1.219-.934,4.1,4.1,0,0,1,1.691-.344,3.342,3.342,0,0,1,2.289.73,2.635,2.635,0,0,1,.859,2.012v3.891a4.757,4.757,0,0,0,.3,1.852V0Zm-2.4-1.1a2.54,2.54,0,0,0,1.289-.352,2.127,2.127,0,0,0,.883-.914V-4.1H36.656Q34-4.1,34-2.547a1.316,1.316,0,0,0,.453,1.063A1.742,1.742,0,0,0,35.617-1.1Zm9.492-3.2a4.952,4.952,0,0,1,.922-3.129,2.915,2.915,0,0,1,2.414-1.184A2.932,2.932,0,0,1,50.8-7.594V-12h1.445V0H50.914l-.07-.906A2.943,2.943,0,0,1,48.43.156a2.887,2.887,0,0,1-2.395-1.2,5.008,5.008,0,0,1-.926-3.141Zm1.445.164a3.749,3.749,0,0,0,.594,2.25,1.92,1.92,0,0,0,1.641.813A2.108,2.108,0,0,0,50.8-2.3V-6.187a2.125,2.125,0,0,0-1.992-1.2,1.929,1.929,0,0,0-1.656.82A4.128,4.128,0,0,0,46.555-4.133ZM57.992.156A3.693,3.693,0,0,1,55.2-.973a4.19,4.19,0,0,1-1.078-3.02v-.266A5.073,5.073,0,0,1,54.6-6.5a3.748,3.748,0,0,1,1.344-1.547,3.378,3.378,0,0,1,1.871-.559,3.166,3.166,0,0,1,2.563,1.086,4.7,4.7,0,0,1,.914,3.109v.6H55.563a3,3,0,0,0,.73,2.02,2.3,2.3,0,0,0,1.777.77,2.517,2.517,0,0,0,1.3-.312,3.259,3.259,0,0,0,.93-.828l.883.688A3.55,3.55,0,0,1,57.992.156Zm-.18-7.578a1.928,1.928,0,0,0-1.469.637A3.1,3.1,0,0,0,55.609-5h4.234v-.109a2.753,2.753,0,0,0-.594-1.707A1.815,1.815,0,0,0,57.813-7.422ZM68.367-7.43a3.073,3.073,0,0,1,2.5-1.18q2.68,0,2.7,3.023V0H72.125V-5.594a1.946,1.946,0,0,0-.418-1.352,1.675,1.675,0,0,0-1.277-.437,2.086,2.086,0,0,0-1.234.375,2.546,2.546,0,0,0-.828.984V0H66.922V-12h1.445ZM77.3,0H75.859V-8.453H77.3ZM75.742-10.7a.863.863,0,0,1,.215-.594.807.807,0,0,1,.637-.242.819.819,0,0,1,.641.242.854.854,0,0,1,.219.594.826.826,0,0,1-.219.586.834.834,0,0,1-.641.234.821.821,0,0,1-.637-.234A.834.834,0,0,1,75.742-10.7ZM83.125.156a3.693,3.693,0,0,1-2.8-1.129,4.19,4.19,0,0,1-1.078-3.02v-.266A5.073,5.073,0,0,1,79.73-6.5a3.748,3.748,0,0,1,1.344-1.547,3.378,3.378,0,0,1,1.871-.559,3.166,3.166,0,0,1,2.563,1.086,4.7,4.7,0,0,1,.914,3.109v.6H80.7a3,3,0,0,0,.73,2.02,2.3,2.3,0,0,0,1.777.77,2.517,2.517,0,0,0,1.3-.312,3.259,3.259,0,0,0,.93-.828l.883.688A3.55,3.55,0,0,1,83.125.156Zm-.18-7.578a1.928,1.928,0,0,0-1.469.637A3.1,3.1,0,0,0,80.742-5h4.234v-.109a2.753,2.753,0,0,0-.594-1.707A1.815,1.815,0,0,0,82.945-7.422Zm9.234.266a4.331,4.331,0,0,0-.711-.055A1.9,1.9,0,0,0,89.539-6V0H88.094V-8.453H89.5l.023.977a2.251,2.251,0,0,1,2.016-1.133,1.477,1.477,0,0,1,.641.109Zm5.414,0a4.331,4.331,0,0,0-.711-.055A1.9,1.9,0,0,0,94.953-6V0H93.508V-8.453h1.406l.023.977a2.251,2.251,0,0,1,2.016-1.133,1.477,1.477,0,0,1,.641.109ZM98.383-4.3a4.993,4.993,0,0,1,.488-2.234A3.643,3.643,0,0,1,100.23-8.07a3.7,3.7,0,0,1,1.988-.539,3.565,3.565,0,0,1,2.793,1.2,4.6,4.6,0,0,1,1.066,3.18v.1a5.036,5.036,0,0,1-.473,2.215,3.589,3.589,0,0,1-1.352,1.527,3.743,3.743,0,0,1-2.02.547,3.556,3.556,0,0,1-2.785-1.2A4.575,4.575,0,0,1,98.383-4.2Zm1.453.172a3.616,3.616,0,0,0,.652,2.258,2.088,2.088,0,0,0,1.746.852,2.075,2.075,0,0,0,1.75-.863,3.955,3.955,0,0,0,.648-2.418,3.61,3.61,0,0,0-.66-2.254,2.1,2.1,0,0,0-1.754-.863,2.075,2.075,0,0,0-1.727.852A3.925,3.925,0,0,0,99.836-4.133Z" transform="translate(844.927 4811.176)" fill="#12263f"/>
    <path id="Trazado_720997" data-name="Trazado 720997" d="M0,0V110" transform="translate(568.045 4816)" fill="none" stroke="#12263f" stroke-width="1"/>
    <path id="Trazado_720998" data-name="Trazado 720998" d="M0,0V110" transform="translate(1021.545 4816)" fill="none" stroke="#12263f" stroke-width="1"/>
    <path id="Trazado_720999" data-name="Trazado 720999" d="M0,0H453" transform="translate(567.545 4845.5)" fill="none" stroke="#12263f" stroke-width="1"/>
    <path id="Trazado_720843" data-name="Trazado 720843" d="M296,947.118H437.5l46,12.382h265" transform="translate(272.045 3941)" fill="none" stroke="#12263f" stroke-miterlimit="10" stroke-width="1"/>
    <path id="Trazado_720844" data-name="Trazado 720844" d="M748.5,974.5h-265l-46-12.382H296V946.75H437.5l46,13h265Z" transform="translate(272.045 3941)" fill="#f3f9ff" stroke="#12263f" stroke-miterlimit="10" stroke-width="1"/>
    <path id="Trazado_720845" data-name="Trazado 720845" d="M555.588,904.5l-72.088,55h7.618Z" transform="translate(272.045 3941)" fill="none" stroke="#12263f" stroke-miterlimit="10" stroke-width="1"/>
    <path id="Trazado_721000" data-name="Trazado 721000" d="M0,0H79" transform="translate(574.545 4861.5)" fill="none" stroke="#12263f" stroke-width="1"/>
    <path id="Trazado_721001" data-name="Trazado 721001" d="M0,0H79" transform="translate(575.045 4877.5)" fill="none" stroke="#12263f" stroke-width="1"/>
    <path id="Trazado_721002" data-name="Trazado 721002" d="M0,0H65" transform="translate(575.045 4866.5)" fill="none" stroke="#12263f" stroke-width="1"/>
    <path id="Trazado_721003" data-name="Trazado 721003" d="M0,0H70" transform="translate(584.045 4871.5)" fill="none" stroke="#12263f" stroke-width="1"/>
    <path id="Trazado_721004" data-name="Trazado 721004" d="M0,0H79" transform="translate(936.545 4869.5)" fill="none" stroke="#12263f" stroke-width="1"/>
    <path id="Trazado_721005" data-name="Trazado 721005" d="M0,0H79" transform="translate(937.045 4885.5)" fill="none" stroke="#12263f" stroke-width="1"/>
    <path id="Trazado_721006" data-name="Trazado 721006" d="M0,0H65" transform="translate(937.045 4874.5)" fill="none" stroke="#12263f" stroke-width="1"/>
    <path id="Trazado_721007" data-name="Trazado 721007" d="M0,0H70" transform="translate(946.045 4879.5)" fill="none" stroke="#12263f" stroke-width="1"/>
    <path id="Trazado_721008" data-name="Trazado 721008" d="M0,0H58.5" transform="translate(809.045 4869.5)" fill="none" stroke="#12263f" stroke-width="1"/>
    <path id="Trazado_721009" data-name="Trazado 721009" d="M0,0H89" transform="translate(792.045 4885.5)" fill="none" stroke="#12263f" stroke-width="1"/>
    <path id="Trazado_721010" data-name="Trazado 721010" d="M0,0H72" transform="translate(802.045 4874.5)" fill="none" stroke="#12263f" stroke-width="1"/>
    <path id="Trazado_721011" data-name="Trazado 721011" d="M0,0H83" transform="translate(798.045 4879.5)" fill="none" stroke="#12263f" stroke-width="1"/>
    <path id="Trazado_721012" data-name="Trazado 721012" d="M0,0H73.5" transform="translate(718.545 4861.5)" fill="none" stroke="#12263f" stroke-width="0.828"/>
    <path id="Trazado_721013" data-name="Trazado 721013" d="M0,0H54.157" transform="translate(718.888 4877.5)" fill="none" stroke="#12263f" stroke-width="0.828"/>
    <path id="Trazado_721014" data-name="Trazado 721014" d="M0,0H69.157" transform="translate(718.888 4866.5)" fill="none" stroke="#12263f" stroke-width="0.828"/>
    <path id="Trazado_721015" data-name="Trazado 721015" d="M0,0H47.987" transform="translate(725.058 4871.5)" fill="none" stroke="#12263f" stroke-width="0.828"/>
    <path id="Trazado_721016" data-name="Trazado 721016" d="M0,0V43" transform="translate(660.545 4845.5)" fill="none" stroke="#12263f" stroke-width="1"/>
    <path id="Trazado_721017" data-name="Trazado 721017" d="M0,0V43" transform="translate(670.545 4846)" fill="none" stroke="#12263f" stroke-width="3"/>
    <path id="Trazado_721018" data-name="Trazado 721018" d="M0,0V43" transform="translate(688.545 4846)" fill="none" stroke="#12263f" stroke-width="1"/>
    <path id="Trazado_721019" data-name="Trazado 721019" d="M0,0V43" transform="translate(692.545 4846)" fill="none" stroke="#12263f" stroke-width="1"/>
    <path id="Trazado_721020" data-name="Trazado 721020" d="M0,0V8.5" transform="translate(844.545 4846)" fill="none" stroke="#12263f" stroke-width="1"/>
    <path id="Trazado_721021" data-name="Trazado 721021" d="M0,0V54.5" transform="translate(883.545 4846)" fill="none" stroke="#12263f" stroke-width="1"/>
    <path id="Trazado_721022" data-name="Trazado 721022" d="M0,0V54.5" transform="translate(897.545 4846)" fill="none" stroke="#12263f" stroke-width="1"/>
    <path id="Trazado_721023" data-name="Trazado 721023" d="M0,0V54.5" transform="translate(917.545 4846)" fill="none" stroke="#12263f" stroke-width="1"/>
    <path id="Trazado_721024" data-name="Trazado 721024" d="M0,0V54.5" transform="translate(921.545 4846)" fill="none" stroke="#12263f" stroke-width="1"/>
    <path id="Trazado_721025" data-name="Trazado 721025" d="M0,0V54.5" transform="translate(931.545 4846)" fill="none" stroke="#12263f" stroke-width="1"/>
    <path id="Trazado_721026" data-name="Trazado 721026" d="M0,0V54.5" transform="translate(900.545 4846)" fill="none" stroke="#12263f" stroke-width="1"/>
    <path id="Trazado_721027" data-name="Trazado 721027" d="M0,0V54.5" transform="translate(903.545 4846)" fill="none" stroke="#12263f" stroke-width="1"/>
    <path id="Trazado_721028" data-name="Trazado 721028" d="M0,0V54.5" transform="translate(906.545 4846)" fill="none" stroke="#12263f" stroke-width="3"/>
    <path id="Trazado_721029" data-name="Trazado 721029" d="M0,0V43" transform="translate(711.545 4846)" fill="none" stroke="#12263f" stroke-width="2"/>
    <path id="Trazado_721030" data-name="Trazado 721030" d="M0,0H34V9H0Z" transform="translate(827.545 4845.5)" fill="none" stroke="#12263f" stroke-width="0.828"/>
    <path id="Trazado_721031" data-name="Trazado 721031" d="M0,43.5,12.455,0" transform="translate(673.045 4813.5)" fill="none" stroke="#ffa031" stroke-width="1"/>
    <path id="Trazado_721032" data-name="Trazado 721032" d="M3,48,0,0" transform="translate(794.545 4818.5)" fill="none" stroke="#ffa031" stroke-width="1"/>
    <path id="Trazado_721033" data-name="Trazado 721033" d="M0,29,68,0" transform="translate(827.5 4816.5)" fill="none" stroke="#ffa031" stroke-width="1"/>
    <path id="Trazado_721034" data-name="Trazado 721034" d="M0,0,41,31" transform="translate(760.545 4903.5)" fill="none" stroke="#ffa031" stroke-width="1"/>
  </g>
</svg>
