<svg xmlns="http://www.w3.org/2000/svg" width="820" height="1092" viewBox="0 0 820 1092">
  <g id="Grupo_1007185" data-name="Grupo 1007185" transform="translate(-390 -9668)">
    <path id="Trazado_721078" data-name="Trazado 721078" d="M0,0H820V1092H0Z" transform="translate(390 9668)" fill="#f6f6f6"/>
    <path id="Trazado_721079" data-name="Trazado 721079" d="M0,0H499V257H0Z" transform="translate(520.353 9781.824)" fill="#fff" stroke="#12263f" stroke-width="1"/>
    <path id="Trazado_721080" data-name="Trazado 721080" d="M0,0H431V196H0Z" transform="translate(549.853 9813.324)" fill="none" stroke="#12263f" stroke-width="1" stroke-dasharray="10"/>
    <path id="Trazado_721081" data-name="Trazado 721081" d="M13.147,0H164.853A13.147,13.147,0,0,1,178,13.147V91.853A13.147,13.147,0,0,1,164.853,105H13.147A13.147,13.147,0,0,1,0,91.853V13.147A13.147,13.147,0,0,1,13.147,0Z" transform="translate(571.853 9854.324)" fill="#f3f9ff" stroke="#12263f" stroke-width="1.02"/>
    <path id="Trazado_721082" data-name="Trazado 721082" d="M0,0H157V85H0Z" transform="translate(584.853 9866.324)" fill="none" stroke="#12263f" stroke-width="1.02" stroke-dasharray="10"/>
    <path id="Trazado_721083" data-name="Trazado 721083" d="M26,0A26,26,0,1,1,0,26,26,26,0,0,1,26,0Z" transform="translate(553.853 9882.324)" fill="#fff" stroke="#12263f" stroke-width="1.529" stroke-dasharray="15.294"/>
    <path id="Trazado_721084" data-name="Trazado 721084" d="M19,0A19,19,0,1,1,0,19,19,19,0,0,1,19,0Z" transform="translate(560.853 9889.324)" fill="none" stroke="#12263f" stroke-width="1.118" stroke-dasharray="11.176"/>
    <path id="Trazado_721085" data-name="Trazado 721085" d="M0,0H11V52H0Z" transform="translate(538.353 9881.824)" fill="none" stroke="#12263f" stroke-width="1.529" stroke-dasharray="15.294"/>
    <path id="Trazado_720865" data-name="Trazado 720865" d="M286,264H245.953c-2.569,0-4.923-.962-6-2.486-2.083-2.944-3.7-8.316,3.87-15.119,0,0,7.31-9.076.731-17.674H286Z" transform="translate(252.353 9660.824)" fill="none" stroke="#12263f" stroke-miterlimit="10" stroke-width="0.591"/>
    <path id="Trazado_720866" data-name="Trazado 720866" d="M286,228.721H245.953c-2.569,0-4.923.962-6,2.486-2.083,2.943-3.7,8.316,3.87,15.118,0,0,7.31,9.076.731,17.675H286Z" transform="translate(252.353 9660.824)" fill="#fff" stroke="#12263f" stroke-miterlimit="10" stroke-width="0.591"/>
    <path id="Trazado_720867" data-name="Trazado 720867" d="M715.215,228.721h88.047c2.569,0,4.923.962,6,2.486,2.083,2.943,3.7,8.316-3.87,15.118,0,0-7.311,9.076-.731,17.675H715.215Z" transform="translate(252.353 9660.824)" fill="none" stroke="#12263f" stroke-miterlimit="10" stroke-width="0.591"/>
    <path id="Trazado_720868" data-name="Trazado 720868" d="M692.5,264H803.262c2.569,0,4.923-.962,6-2.486,2.083-2.944,3.7-8.316-3.87-15.119,0,0-7.311-9.076-.731-17.674H692.5Z" transform="translate(252.353 9660.824)" fill="#fff" stroke="#12263f" stroke-miterlimit="10" stroke-width="0.591"/>
    <path id="Trazado_721086" data-name="Trazado 721086" d="M0,0H29V6H0Z" transform="translate(647.853 9904.324)" fill="none" stroke="#12263f" stroke-width="2"/>
    <path id="Trazado_721087" data-name="Trazado 721087" d="M0,0V179.879" transform="translate(465.353 9820.385)" fill="none" stroke="#12263f" stroke-width="1"/>
    <g id="Grupo_1007124" data-name="Grupo 1007124" transform="translate(252.353 9660.824)">
      <path id="Trazado_720869" data-name="Trazado 720869" d="M213,159.963a7.378,7.378,0,0,0,4.545,1.584A13.63,13.63,0,0,1,213,156a14.38,14.38,0,0,1-4.545,5.547A7.638,7.638,0,0,0,213,159.963Z" fill="#12263f" stroke="#12263f" stroke-width="1"/>
    </g>
    <g id="Grupo_1007125" data-name="Grupo 1007125" transform="translate(252.353 9660.824)">
      <path id="Trazado_720870" data-name="Trazado 720870" d="M213,339.037a7.378,7.378,0,0,1,4.545-1.584A13.63,13.63,0,0,0,213,343a14.38,14.38,0,0,0-4.545-5.547A7.638,7.638,0,0,1,213,339.037Z" fill="#12263f" stroke="#12263f" stroke-width="1"/>
    </g>
    <path id="Trazado_721088" data-name="Trazado 721088" d="M0,0V83.115" transform="translate(789.853 9868.767)" fill="none" stroke="#12263f" stroke-width="0.686"/>
    <g id="Grupo_1007127" data-name="Grupo 1007127" transform="translate(252.353 9660.824)">
      <path id="Trazado_720871" data-name="Trazado 720871" d="M537.5,208.219a5.065,5.065,0,0,0,3.118,1.086,9.349,9.349,0,0,1-3.118-3.8,9.86,9.86,0,0,1-3.118,3.8A5.243,5.243,0,0,0,537.5,208.219Z" fill="#12263f" stroke="#12263f" stroke-width="1"/>
    </g>
    <g id="Grupo_1007128" data-name="Grupo 1007128" transform="translate(252.353 9660.824)">
      <path id="Trazado_720872" data-name="Trazado 720872" d="M537.5,290.781a5.065,5.065,0,0,1,3.118-1.086,9.349,9.349,0,0,0-3.118,3.8,9.86,9.86,0,0,0-3.118-3.8A5.243,5.243,0,0,1,537.5,290.781Z" fill="#12263f" stroke="#12263f" stroke-width="1"/>
    </g>
    <path id="Trazado_721089" data-name="Trazado 721089" d="M0,0V70.49" transform="translate(705.853 9875.579)" fill="none" stroke="#12263f" stroke-width="0.633"/>
    <g id="Grupo_1007130" data-name="Grupo 1007130" transform="translate(252.353 9660.824)">
      <path id="Trazado_720873" data-name="Trazado 720873" d="M453.5,215.01a4.677,4.677,0,0,0,2.878,1A8.631,8.631,0,0,1,453.5,212.5a9.106,9.106,0,0,1-2.878,3.513A4.842,4.842,0,0,0,453.5,215.01Z" fill="#12263f" stroke="#12263f" stroke-width="1"/>
    </g>
    <g id="Grupo_1007131" data-name="Grupo 1007131" transform="translate(252.353 9660.824)">
      <path id="Trazado_720874" data-name="Trazado 720874" d="M453.5,284.99a4.677,4.677,0,0,1,2.878-1A8.631,8.631,0,0,0,453.5,287.5a9.107,9.107,0,0,0-2.878-3.513A4.843,4.843,0,0,1,453.5,284.99Z" fill="#12263f" stroke="#12263f" stroke-width="1"/>
    </g>
    <path id="Trazado_721090" data-name="Trazado 721090" d="M409.879,0H0" transform="translate(561.413 9733.324)" fill="none" stroke="#12263f" stroke-width="1"/>
    <g id="Grupo_1007133" data-name="Grupo 1007133" transform="translate(252.353 9660.824)">
      <path id="Trazado_720875" data-name="Trazado 720875" d="M718.537,72.5a7.378,7.378,0,0,0-1.584,4.545A13.63,13.63,0,0,1,722.5,72.5a14.38,14.38,0,0,1-5.547-4.545A7.638,7.638,0,0,0,718.537,72.5Z" fill="#12263f" stroke="#12263f" stroke-width="1"/>
    </g>
    <g id="Grupo_1007134" data-name="Grupo 1007134" transform="translate(252.353 9660.824)">
      <path id="Trazado_720876" data-name="Trazado 720876" d="M309.463,72.5a7.378,7.378,0,0,1,1.584,4.545A13.63,13.63,0,0,0,305.5,72.5a14.379,14.379,0,0,0,5.547-4.545A7.638,7.638,0,0,1,309.463,72.5Z" fill="#12263f" stroke="#12263f" stroke-width="1"/>
    </g>
    <path id="Trazado_721091" data-name="Trazado 721091" d="M23.939,0H0" transform="translate(1073.853 9904.324)" fill="none" stroke="#12263f" stroke-width="1"/>
    <g id="Grupo_1007136" data-name="Grupo 1007136" transform="translate(252.353 9660.824)">
      <path id="Trazado_720877" data-name="Trazado 720877" d="M845.037,243.5a7.378,7.378,0,0,0-1.584,4.545A13.63,13.63,0,0,1,849,243.5a14.38,14.38,0,0,1-5.547-4.545A7.638,7.638,0,0,0,845.037,243.5Z" fill="#12263f" stroke="#12263f" stroke-width="1"/>
    </g>
    <path id="Trazado_721092" data-name="Trazado 721092" d="M157.879,0H0" transform="translate(583.413 9990.324)" fill="none" stroke="#12263f" stroke-width="1"/>
    <g id="Grupo_1007138" data-name="Grupo 1007138" transform="translate(252.353 9660.824)">
      <path id="Trazado_720878" data-name="Trazado 720878" d="M488.537,329.5a7.378,7.378,0,0,0-1.584,4.545A13.63,13.63,0,0,1,492.5,329.5a14.379,14.379,0,0,1-5.547-4.545A7.638,7.638,0,0,0,488.537,329.5Z" fill="#12263f" stroke="#12263f" stroke-width="1"/>
    </g>
    <g id="Grupo_1007139" data-name="Grupo 1007139" transform="translate(252.353 9660.824)">
      <path id="Trazado_720879" data-name="Trazado 720879" d="M331.463,329.5a7.378,7.378,0,0,1,1.584,4.545A13.63,13.63,0,0,0,327.5,329.5a14.379,14.379,0,0,0,5.547-4.545A7.638,7.638,0,0,1,331.463,329.5Z" fill="#12263f" stroke="#12263f" stroke-width="1"/>
    </g>
    <path id="Trazado_721093" data-name="Trazado 721093" d="M0,0H49" transform="translate(452.853 9813.324)" fill="none" stroke="#12263f" stroke-width="1"/>
    <path id="Trazado_721094" data-name="Trazado 721094" d="M0,0H49" transform="translate(766.353 9857.324)" fill="none" stroke="#12263f" stroke-width="1"/>
    <path id="Trazado_721095" data-name="Trazado 721095" d="M0,0H49" transform="translate(766.353 9963.324)" fill="none" stroke="#12263f" stroke-width="1"/>
    <path id="Trazado_721096" data-name="Trazado 721096" d="M0,0H49" transform="translate(453.353 10011.324)" fill="none" stroke="#12263f" stroke-width="1"/>
    <path id="Trazado_721097" data-name="Trazado 721097" d="M0,0V54" transform="translate(549.853 9716.324)" fill="none" stroke="#12263f" stroke-width="1"/>
    <path id="Trazado_721098" data-name="Trazado 721098" d="M0,0V54" transform="translate(976.853 9716.824)" fill="none" stroke="#12263f" stroke-width="1"/>
    <path id="Trazado_721099" data-name="Trazado 721099" d="M0,0V28" transform="translate(573.853 9965.324)" fill="none" stroke="#12263f" stroke-width="1"/>
    <path id="Trazado_721100" data-name="Trazado 721100" d="M0,0V28" transform="translate(749.853 9965.824)" fill="none" stroke="#12263f" stroke-width="1"/>
    <path id="Trazado_721101" data-name="Trazado 721101" d="M26,0A26,26,0,1,1,0,26,26,26,0,0,1,26,0Z" transform="translate(918.853 9882.324)" fill="#fff" stroke="#12263f" stroke-width="1.529" stroke-dasharray="15.294"/>
    <path id="Trazado_721102" data-name="Trazado 721102" d="M19,0A19,19,0,1,1,0,19,19,19,0,0,1,19,0Z" transform="translate(925.853 9889.324)" fill="#fff" stroke="#12263f" stroke-width="1.118" stroke-dasharray="11.176"/>
    <path id="Trazado_720880" data-name="Trazado 720880" d="M729,273h18V219H729l-6,10v35Z" transform="translate(252.353 9660.824)" fill="#fff" stroke="#12263f" stroke-miterlimit="10" stroke-width="1"/>
    <path id="Trazado_721103" data-name="Trazado 721103" d="M3.773-3.586l.219,1.5.32-1.352,2.25-7.937H7.828l2.2,7.938.313,1.375.242-1.531,1.766-7.781h1.508L11.094,0H9.727L7.383-8.289,7.2-9.156l-.18.867L4.594,0H3.227L.477-11.375h1.5Z" transform="translate(447 9914)" fill="#12263f"/>
    <path id="Trazado_721104" data-name="Trazado 721104" d="M8.078-4.852a6.61,6.61,0,0,1-.867,3.773A3.084,3.084,0,0,1,4.5.156,3.107,3.107,0,0,1,1.8-1.051,6.274,6.274,0,0,1,.9-4.656v-1.93a6.463,6.463,0,0,1,.867-3.727,3.108,3.108,0,0,1,2.719-1.219,3.136,3.136,0,0,1,2.7,1.176,6.237,6.237,0,0,1,.891,3.629ZM6.633-6.828A5.3,5.3,0,0,0,6.117-9.5a1.775,1.775,0,0,0-1.633-.84,1.751,1.751,0,0,0-1.617.836,5.171,5.171,0,0,0-.523,2.57v2.313A5.381,5.381,0,0,0,2.879-1.9,1.771,1.771,0,0,0,4.5-1.023a1.747,1.747,0,0,0,1.59-.828,5.186,5.186,0,0,0,.543-2.609Zm3.4,9.094L9.211,1.7A3.77,3.77,0,0,0,9.977-.406v-1.3h1.414V-.578A3.559,3.559,0,0,1,11,1,3.7,3.7,0,0,1,10.031,2.266Zm3.7-7.969.578-5.672h5.828v1.336h-4.6l-.344,3.1a3.671,3.671,0,0,1,1.9-.492A3.138,3.138,0,0,1,19.563-6.4a4.026,4.026,0,0,1,.914,2.777,3.886,3.886,0,0,1-.949,2.77A3.46,3.46,0,0,1,16.875.156,3.6,3.6,0,0,1,14.414-.68a3.337,3.337,0,0,1-1.086-2.312H14.7a2.3,2.3,0,0,0,.7,1.473,2.162,2.162,0,0,0,1.484.5,1.95,1.95,0,0,0,1.582-.687,2.874,2.874,0,0,0,.574-1.9,2.638,2.638,0,0,0-.621-1.832,2.113,2.113,0,0,0-1.652-.691,2.383,2.383,0,0,0-1.484.414l-.383.313Z" transform="translate(711 9914)" fill="#12263f"/>
    <path id="Trazado_721105" data-name="Trazado 721105" d="M8.078-4.852a6.61,6.61,0,0,1-.867,3.773A3.084,3.084,0,0,1,4.5.156,3.107,3.107,0,0,1,1.8-1.051,6.274,6.274,0,0,1,.9-4.656v-1.93a6.463,6.463,0,0,1,.867-3.727,3.108,3.108,0,0,1,2.719-1.219,3.136,3.136,0,0,1,2.7,1.176,6.237,6.237,0,0,1,.891,3.629ZM6.633-6.828A5.3,5.3,0,0,0,6.117-9.5a1.775,1.775,0,0,0-1.633-.84,1.751,1.751,0,0,0-1.617.836,5.171,5.171,0,0,0-.523,2.57v2.313A5.381,5.381,0,0,0,2.879-1.9,1.771,1.771,0,0,0,4.5-1.023a1.747,1.747,0,0,0,1.59-.828,5.186,5.186,0,0,0,.543-2.609Zm3.4,9.094L9.211,1.7A3.77,3.77,0,0,0,9.977-.406v-1.3h1.414V-.578A3.559,3.559,0,0,1,11,1,3.7,3.7,0,0,1,10.031,2.266Zm3.7-7.969.578-5.672h5.828v1.336h-4.6l-.344,3.1a3.671,3.671,0,0,1,1.9-.492A3.138,3.138,0,0,1,19.563-6.4a4.026,4.026,0,0,1,.914,2.777,3.886,3.886,0,0,1-.949,2.77A3.46,3.46,0,0,1,16.875.156,3.6,3.6,0,0,1,14.414-.68a3.337,3.337,0,0,1-1.086-2.312H14.7a2.3,2.3,0,0,0,.7,1.473,2.162,2.162,0,0,0,1.484.5,1.95,1.95,0,0,0,1.582-.687,2.874,2.874,0,0,0,.574-1.9,2.638,2.638,0,0,0-.621-1.832,2.113,2.113,0,0,0-1.652-.691,2.383,2.383,0,0,0-1.484.414l-.383.313Z" transform="translate(799 9914)" fill="#12263f"/>
    <path id="Trazado_721106" data-name="Trazado 721106" d="M8.078-4.852a6.61,6.61,0,0,1-.867,3.773A3.084,3.084,0,0,1,4.5.156,3.107,3.107,0,0,1,1.8-1.051,6.274,6.274,0,0,1,.9-4.656v-1.93a6.463,6.463,0,0,1,.867-3.727,3.108,3.108,0,0,1,2.719-1.219,3.136,3.136,0,0,1,2.7,1.176,6.237,6.237,0,0,1,.891,3.629ZM6.633-6.828A5.3,5.3,0,0,0,6.117-9.5a1.775,1.775,0,0,0-1.633-.84,1.751,1.751,0,0,0-1.617.836,5.171,5.171,0,0,0-.523,2.57v2.313A5.381,5.381,0,0,0,2.879-1.9,1.771,1.771,0,0,0,4.5-1.023a1.747,1.747,0,0,0,1.59-.828,5.186,5.186,0,0,0,.543-2.609Zm3.4,9.094L9.211,1.7A3.77,3.77,0,0,0,9.977-.406v-1.3h1.414V-.578A3.559,3.559,0,0,1,11,1,3.7,3.7,0,0,1,10.031,2.266ZM20.414-10.562,15.7,0H14.188l4.7-10.187H12.727v-1.187h7.688Zm2.3,4.859.578-5.672h5.828v1.336h-4.6l-.344,3.1a3.671,3.671,0,0,1,1.9-.492A3.138,3.138,0,0,1,28.547-6.4a4.026,4.026,0,0,1,.914,2.777,3.886,3.886,0,0,1-.949,2.77A3.46,3.46,0,0,1,25.859.156,3.6,3.6,0,0,1,23.4-.68a3.337,3.337,0,0,1-1.086-2.312H23.68a2.3,2.3,0,0,0,.7,1.473,2.162,2.162,0,0,0,1.484.5,1.95,1.95,0,0,0,1.582-.687,2.874,2.874,0,0,0,.574-1.9,2.638,2.638,0,0,0-.621-1.832,2.113,2.113,0,0,0-1.652-.691,2.383,2.383,0,0,0-1.484.414l-.383.313Zm13.789-2.75.039.938a3.122,3.122,0,0,1,2.508-1.094A2.417,2.417,0,0,1,41.469-7.25a3.2,3.2,0,0,1,1.1-.984,3.242,3.242,0,0,1,1.6-.375q2.781,0,2.828,2.945V0H45.547V-5.578a1.941,1.941,0,0,0-.414-1.355,1.823,1.823,0,0,0-1.391-.449,1.917,1.917,0,0,0-1.336.48,1.949,1.949,0,0,0-.617,1.293V0H40.336V-5.539a1.613,1.613,0,0,0-1.8-1.844,1.934,1.934,0,0,0-1.945,1.211V0H35.141V-8.453Z" transform="translate(643 9980)" fill="#12263f"/>
    <path id="Trazado_721107" data-name="Trazado 721107" d="M8.4,0H.945V-1.039L4.883-5.414A9.354,9.354,0,0,0,6.09-7.027a2.693,2.693,0,0,0,.332-1.285,2.041,2.041,0,0,0-.539-1.461,1.885,1.885,0,0,0-1.437-.57A2.232,2.232,0,0,0,2.77-9.73a2.343,2.343,0,0,0-.6,1.707H.727a3.355,3.355,0,0,1,1.012-2.539,3.751,3.751,0,0,1,2.707-.969,3.6,3.6,0,0,1,2.508.832,2.838,2.838,0,0,1,.922,2.215q0,1.68-2.141,4L2.688-1.18H8.4ZM19.258,0a3.036,3.036,0,0,1-.2-.891A3.225,3.225,0,0,1,16.648.156,2.984,2.984,0,0,1,14.6-.551a2.287,2.287,0,0,1-.8-1.793,2.39,2.39,0,0,1,1-2.051,4.733,4.733,0,0,1,2.824-.73h1.406v-.664A1.623,1.623,0,0,0,18.578-7a1.821,1.821,0,0,0-1.336-.449,2.108,2.108,0,0,0-1.3.391,1.151,1.151,0,0,0-.523.945H13.969a2,2,0,0,1,.449-1.223,3.066,3.066,0,0,1,1.219-.934,4.1,4.1,0,0,1,1.691-.344,3.342,3.342,0,0,1,2.289.73,2.635,2.635,0,0,1,.859,2.012v3.891a4.757,4.757,0,0,0,.3,1.852V0Zm-2.4-1.1a2.54,2.54,0,0,0,1.289-.352,2.127,2.127,0,0,0,.883-.914V-4.1H17.9q-2.656,0-2.656,1.555A1.316,1.316,0,0,0,15.7-1.484,1.742,1.742,0,0,0,16.859-1.1Zm11.8-5.289h1.086a2.387,2.387,0,0,0,1.609-.539,1.8,1.8,0,0,0,.586-1.414,1.764,1.764,0,0,0-1.992-2,2.072,2.072,0,0,0-1.5.535,1.873,1.873,0,0,0-.559,1.418H26.445a2.9,2.9,0,0,1,.988-2.246,3.6,3.6,0,0,1,2.512-.895,3.558,3.558,0,0,1,2.523.852,3.076,3.076,0,0,1,.914,2.367,2.5,2.5,0,0,1-.48,1.438,2.9,2.9,0,0,1-1.309,1.039,2.8,2.8,0,0,1,1.449.984,2.734,2.734,0,0,1,.512,1.68,3.1,3.1,0,0,1-1,2.43,3.745,3.745,0,0,1-2.6.9,3.844,3.844,0,0,1-2.605-.867,2.877,2.877,0,0,1-1-2.289H27.8a1.859,1.859,0,0,0,.586,1.438,2.229,2.229,0,0,0,1.57.539,2.187,2.187,0,0,0,1.6-.547,2.108,2.108,0,0,0,.555-1.57A1.912,1.912,0,0,0,31.5-4.664a2.655,2.655,0,0,0-1.758-.547H28.656ZM42.484-5.367l1.875-3.086h1.688l-2.766,4.18L46.133,0H44.461L42.508-3.164,40.555,0h-1.68l2.852-4.273-2.766-4.18h1.672ZM54.219-3.586l.219,1.5.32-1.352,2.25-7.937h1.266l2.2,7.938.313,1.375.242-1.531,1.766-7.781H64.3L61.539,0H60.172L57.828-8.289l-.18-.867-.18.867L55.039,0H53.672l-2.75-11.375h1.5Z" transform="translate(737.847 9721)" fill="#12263f"/>
    <path id="Trazado_721108" data-name="Trazado 721108" d="M3.359-4.008V0H1.016V-11.375H5.453a5.134,5.134,0,0,1,2.254.469A3.454,3.454,0,0,1,9.2-9.574a3.714,3.714,0,0,1,.523,1.965A3.266,3.266,0,0,1,8.582-4.973a4.767,4.767,0,0,1-3.168.965Zm0-1.9H5.453a2.059,2.059,0,0,0,1.418-.437,1.591,1.591,0,0,0,.488-1.25,1.876,1.876,0,0,0-.492-1.352,1.839,1.839,0,0,0-1.359-.531H3.359ZM13.57,0H11.3V-12H13.57Zm6.758,0A2.507,2.507,0,0,1,20.1-.758a2.732,2.732,0,0,1-2.133.914A3,3,0,0,1,15.91-.562a2.312,2.312,0,0,1-.816-1.812,2.389,2.389,0,0,1,1-2.062,4.915,4.915,0,0,1,2.879-.727h1.039v-.484a1.393,1.393,0,0,0-.3-.937,1.183,1.183,0,0,0-.949-.352,1.345,1.345,0,0,0-.895.273.929.929,0,0,0-.324.75H15.281a2.268,2.268,0,0,1,.453-1.359,3,3,0,0,1,1.281-.98,4.669,4.669,0,0,1,1.859-.355,3.689,3.689,0,0,1,2.48.785,2.747,2.747,0,0,1,.918,2.207v3.664a4.041,4.041,0,0,0,.336,1.82V0ZM18.461-1.57a1.945,1.945,0,0,0,.922-.223,1.462,1.462,0,0,0,.625-.6V-3.844h-.844q-1.7,0-1.8,1.172l-.008.133a.9.9,0,0,0,.3.7A1.153,1.153,0,0,0,18.461-1.57Zm7.625-6.883.07.977a2.951,2.951,0,0,1,2.43-1.133,2.453,2.453,0,0,1,2,.789,3.682,3.682,0,0,1,.672,2.359V0H29V-5.406a1.465,1.465,0,0,0-.312-1.043,1.4,1.4,0,0,0-1.039-.324,1.553,1.553,0,0,0-1.43.813V0H23.961V-8.453Zm9.586-2.078v2.078h1.445V-6.8H35.672v4.219a1.007,1.007,0,0,0,.18.672.9.9,0,0,0,.688.2,3.6,3.6,0,0,0,.664-.055V-.047a4.648,4.648,0,0,1-1.367.2,2.156,2.156,0,0,1-2.422-2.4V-6.8H32.18V-8.453h1.234v-2.078ZM43.273,0a2.507,2.507,0,0,1-.227-.758,2.732,2.732,0,0,1-2.133.914,3,3,0,0,1-2.059-.719,2.312,2.312,0,0,1-.816-1.812,2.389,2.389,0,0,1,1-2.062,4.915,4.915,0,0,1,2.879-.727h1.039v-.484a1.393,1.393,0,0,0-.3-.937,1.183,1.183,0,0,0-.949-.352,1.345,1.345,0,0,0-.895.273.929.929,0,0,0-.324.75H38.227a2.268,2.268,0,0,1,.453-1.359,3,3,0,0,1,1.281-.98,4.669,4.669,0,0,1,1.859-.355,3.689,3.689,0,0,1,2.48.785,2.747,2.747,0,0,1,.918,2.207v3.664a4.041,4.041,0,0,0,.336,1.82V0ZM41.406-1.57a1.945,1.945,0,0,0,.922-.223,1.462,1.462,0,0,0,.625-.6V-3.844h-.844q-1.7,0-1.8,1.172l-.008.133a.9.9,0,0,0,.3.7A1.153,1.153,0,0,0,41.406-1.57Z" transform="translate(737.847 10063)" fill="#12263f"/>
    <path id="Trazado_720881" data-name="Trazado 720881" d="M268,476v568H774V476H425v-9H401v9Z" transform="translate(252.353 9660.824)" fill="#f3f9ff" stroke="#12263f" stroke-miterlimit="10" stroke-width="1"/>
    <path id="Trazado_720903" data-name="Trazado 720903" d="M743.5,497.5v407l-4,7,7,6v69L739,994l7.5,7.5v18h-449l-1-48,1-34-1-42v-13l-5-10,5-6v-11l-8-10h5l3-21s-5-9,0-14v-36l-8-10,8-6v-19l-3-39-5-9,8-4v-37l-8-119-8-15h8v-19Z" transform="translate(252.353 9660.824)" fill="#dee4f0" stroke="#12263f" stroke-miterlimit="10" stroke-width="0.616"/>
    <path id="Trazado_721109" data-name="Trazado 721109" d="M0,0H426V510H0Z" transform="translate(557.853 10167.324)" fill="#fff" stroke="#12263f" stroke-width="0.616"/>
    <path id="Trazado_720882" data-name="Trazado 720882" d="M315.9,639.346H251.857c-2.57,0-4.924-1.046-6-2.7-2.083-3.2-3.7-9.038,3.87-16.432,0,0,7.31-9.865.731-19.211H315.9Z" transform="translate(252.353 9660.824)" fill="none" stroke="#12263f" stroke-miterlimit="10" stroke-width="0.616"/>
    <path id="Trazado_720883" data-name="Trazado 720883" d="M314.5,594.5V601H251.857c-2.57,0-4.924,1.046-6,2.7-2.082,3.2-3.7,9.038,3.871,16.432,0,0,7.31,9.865.731,19.211H314.5V764.5h34v-170Z" transform="translate(252.353 9660.824)" fill="#fff" stroke="#12263f" stroke-miterlimit="10" stroke-width="0.616"/>
    <path id="Trazado_721110" data-name="Trazado 721110" d="M0,0H17V52H0Z" transform="translate(540.853 10255.324)" fill="#fff" stroke="#12263f" stroke-width="0.616"/>
    <path id="Trazado_720884" data-name="Trazado 720884" d="M307.5,576.5v11l8,7h33l8-9v-9Z" transform="translate(252.353 9660.824)" fill="#fff" stroke="#12263f" stroke-miterlimit="10" stroke-width="0.616"/>
    <path id="Trazado_720885" data-name="Trazado 720885" d="M675.5,1016.5v-11l8-7h33l8,9v9Z" transform="translate(252.353 9660.824)" fill="#fff" stroke="#12263f" stroke-miterlimit="10" stroke-width="0.616"/>
    <path id="Trazado_720886" data-name="Trazado 720886" d="M653.5,937.5h11l7,9.224v38.051l-9,9.224h-9Z" transform="translate(252.353 9660.824)" fill="#fff" stroke="#12263f" stroke-miterlimit="10" stroke-width="0.662"/>
    <path id="Trazado_720887" data-name="Trazado 720887" d="M800.866,644.173l.028-.038c7.571-7.394,5.953-13.233,3.87-16.432a6.649,6.649,0,0,0-4.671-2.6c.024-.035.045-.071.07-.106H717.118V550.5h-34v394H671.5v40h11.618v14h34V663.346h83.045c-.025-.036-.046-.071-.07-.107a6.651,6.651,0,0,0,4.671-2.6c2.083-3.2,3.7-9.038-3.87-16.432Z" transform="translate(252.353 9660.824)" fill="#fff" stroke="#12263f" stroke-miterlimit="10" stroke-width="0.616"/>
    <path id="Trazado_720888" data-name="Trazado 720888" d="M675.25,872.75v-12.07L683.372,853h33.505L725,862.875v9.875Z" transform="translate(252.353 9660.824)" fill="#fff" stroke="#12263f" stroke-miterlimit="10" stroke-width="0.65"/>
    <path id="Trazado_720889" data-name="Trazado 720889" d="M717.118,872.75V859.059H682.882V873.5" transform="translate(252.353 9660.824)" fill="none" stroke="#12263f" stroke-miterlimit="10" stroke-width="0.65" stroke-dasharray="5"/>
    <path id="Trazado_720890" data-name="Trazado 720890" d="M675.25,706.75v-12.07L683.372,687h33.505L725,696.875v9.875Z" transform="translate(252.353 9660.824)" fill="#fff" stroke="#12263f" stroke-miterlimit="10" stroke-width="0.65"/>
    <path id="Trazado_720891" data-name="Trazado 720891" d="M717.118,706.75V693.059H682.882V707.5" transform="translate(252.353 9660.824)" fill="none" stroke="#12263f" stroke-miterlimit="10" stroke-width="0.65" stroke-dasharray="5"/>
    <path id="Trazado_720892" data-name="Trazado 720892" d="M663.944,696.4c-13.036-.083-57.444,2.264-57.444,38.1" transform="translate(252.353 9660.824)" fill="none" stroke="#12263f" stroke-miterlimit="10" stroke-width="1" stroke-dasharray="5 5"/>
    <g id="Grupo_1007143" data-name="Grupo 1007143" transform="translate(252.353 9660.824)">
      <path id="Trazado_720893" data-name="Trazado 720893" d="M663.538,696.434a7.373,7.373,0,0,0-1.66,4.517A13.637,13.637,0,0,1,667.5,696.5a14.376,14.376,0,0,1-5.47-4.637A7.636,7.636,0,0,0,663.538,696.434Z" fill="#12263f" stroke="#12263f" stroke-width="1"/>
    </g>
    <path id="Trazado_721111" data-name="Trazado 721111" d="M0,0H35" transform="translate(848.853 10626.324)" fill="none" stroke="#12263f" stroke-width="1"/>
    <path id="Trazado_721112" data-name="Trazado 721112" d="M0,0V24.44" transform="translate(866.853 10592.324)" fill="none" stroke="#12263f" stroke-width="1"/>
    <g id="Grupo_1007145" data-name="Grupo 1007145" transform="translate(252.353 9660.824)">
      <path id="Trazado_720894" data-name="Trazado 720894" d="M614.5,955.537a7.378,7.378,0,0,1,4.545-1.584A13.63,13.63,0,0,0,614.5,959.5a14.38,14.38,0,0,0-4.545-5.547A7.638,7.638,0,0,1,614.5,955.537Z" fill="#12263f" stroke="#12263f" stroke-width="1"/>
    </g>
    <path id="Trazado_721113" data-name="Trazado 721113" d="M0,24.44V0" transform="translate(866.853 10693.885)" fill="none" stroke="#12263f" stroke-width="1"/>
    <g id="Grupo_1007147" data-name="Grupo 1007147" transform="translate(252.353 9660.824)">
      <path id="Trazado_720895" data-name="Trazado 720895" d="M614.5,1033.463a7.377,7.377,0,0,1-4.545,1.584,13.63,13.63,0,0,0,4.545-5.547,14.38,14.38,0,0,0,4.545,5.547A7.639,7.639,0,0,1,614.5,1033.463Z" fill="#12263f" stroke="#12263f" stroke-width="1"/>
    </g>
    <path id="Trazado_721114" data-name="Trazado 721114" d="M24.439,0H0" transform="translate(566.913 10511.324)" fill="none" stroke="#12263f" stroke-width="1"/>
    <g id="Grupo_1007149" data-name="Grupo 1007149" transform="translate(252.353 9660.824)">
      <path id="Trazado_720896" data-name="Trazado 720896" d="M314.963,850.5a7.378,7.378,0,0,1,1.584,4.545A13.63,13.63,0,0,0,311,850.5a14.38,14.38,0,0,0,5.547-4.545A7.638,7.638,0,0,1,314.963,850.5Z" fill="#12263f" stroke="#12263f" stroke-width="1"/>
    </g>
    <path id="Trazado_721115" data-name="Trazado 721115" d="M0,0H24.439" transform="translate(487.353 10511.324)" fill="none" stroke="#12263f" stroke-width="1"/>
    <g id="Grupo_1007151" data-name="Grupo 1007151" transform="translate(252.353 9660.824)">
      <path id="Trazado_720897" data-name="Trazado 720897" d="M259.037,850.5a7.378,7.378,0,0,1-1.584-4.545A13.63,13.63,0,0,0,263,850.5a14.38,14.38,0,0,0-5.547,4.545A7.638,7.638,0,0,1,259.037,850.5Z" fill="#12263f" stroke="#12263f" stroke-width="1"/>
    </g>
    <path id="Trazado_721116" data-name="Trazado 721116" d="M0,0H24.439" transform="translate(902.353 10196.324)" fill="none" stroke="#12263f" stroke-width="1"/>
    <g id="Grupo_1007153" data-name="Grupo 1007153" transform="translate(252.353 9660.824)">
      <path id="Trazado_720898" data-name="Trazado 720898" d="M674.037,535.5a7.378,7.378,0,0,1-1.584-4.545A13.63,13.63,0,0,0,678,535.5a14.38,14.38,0,0,0-5.547,4.545A7.638,7.638,0,0,1,674.037,535.5Z" fill="#12263f" stroke="#12263f" stroke-width="1"/>
    </g>
    <path id="Trazado_721117" data-name="Trazado 721117" d="M24.439,0H0" transform="translate(975.913 10194.324)" fill="none" stroke="#12263f" stroke-width="1"/>
    <g id="Grupo_1007155" data-name="Grupo 1007155" transform="translate(252.353 9660.824)">
      <path id="Trazado_720899" data-name="Trazado 720899" d="M723.963,533.5a7.378,7.378,0,0,1,1.584,4.545A13.63,13.63,0,0,0,720,533.5a14.38,14.38,0,0,0,5.547-4.545A7.638,7.638,0,0,1,723.963,533.5Z" fill="#12263f" stroke="#12263f" stroke-width="1"/>
    </g>
    <path id="Trazado_721118" data-name="Trazado 721118" d="M0,0V336.879" transform="translate(666.853 10327.885)" fill="none" stroke="#12263f" stroke-width="1"/>
    <g id="Grupo_1007157" data-name="Grupo 1007157" transform="translate(252.353 9660.824)">
      <path id="Trazado_720900" data-name="Trazado 720900" d="M414.5,667.463a7.378,7.378,0,0,0,4.545,1.584A13.63,13.63,0,0,1,414.5,663.5a14.38,14.38,0,0,1-4.545,5.547A7.638,7.638,0,0,0,414.5,667.463Z" fill="aqua" stroke="#12263f" stroke-width="1"/>
    </g>
    <g id="Grupo_1007158" data-name="Grupo 1007158" transform="translate(252.353 9660.824)">
      <path id="Trazado_720901" data-name="Trazado 720901" d="M414.5,1003.537a7.378,7.378,0,0,1,4.545-1.584,13.63,13.63,0,0,0-4.545,5.547,14.38,14.38,0,0,0-4.545-5.547A7.638,7.638,0,0,1,414.5,1003.537Z" fill="aqua" stroke="#12263f" stroke-width="1"/>
    </g>
    <path id="Trazado_720902" data-name="Trazado 720902" d="M734.994,624.945h64.047c2.57,0,4.924,1.046,6,2.7,2.083,3.2,3.7,9.039-3.87,16.432,0,0-7.31,9.866-.731,19.211H734.994" transform="translate(252.353 9660.824)" fill="none" stroke="#12263f" stroke-miterlimit="10" stroke-width="0.616"/>
    <path id="Trazado_720904" data-name="Trazado 720904" d="M363.5,544.5s-34.26-8.334-36.846,20.441" transform="translate(252.353 9660.824)" fill="none" stroke="#12263f" stroke-miterlimit="10" stroke-width="1"/>
    <g id="Grupo_1007160" data-name="Grupo 1007160" transform="translate(252.353 9660.824)">
      <path id="Trazado_720905" data-name="Trazado 720905" d="M326.718,564.543a7.375,7.375,0,0,1,4.625-1.332A13.633,13.633,0,0,0,326.5,568.5a14.372,14.372,0,0,0-4.234-5.788A7.645,7.645,0,0,1,326.718,564.543Z" fill="#12263f" stroke="#12263f" stroke-width="1"/>
    </g>
    <path id="Trazado_721119" data-name="Trazado 721119" d="M0,0H39" transform="translate(884.853 10208.324)" fill="none" stroke="#12263f" stroke-width="1"/>
    <path id="Trazado_721120" data-name="Trazado 721120" d="M0,0V89.879" transform="translate(904.853 10217.885)" fill="none" stroke="#12263f" stroke-width="1"/>
    <g id="Grupo_1007162" data-name="Grupo 1007162" transform="translate(252.353 9660.824)">
      <path id="Trazado_720906" data-name="Trazado 720906" d="M652.5,557.463a7.378,7.378,0,0,0,4.545,1.584A13.63,13.63,0,0,1,652.5,553.5a14.38,14.38,0,0,1-4.545,5.547A7.638,7.638,0,0,0,652.5,557.463Z" fill="#12263f" stroke="#12263f" stroke-width="1"/>
    </g>
    <g id="Grupo_1007163" data-name="Grupo 1007163" transform="translate(252.353 9660.824)">
      <path id="Trazado_720907" data-name="Trazado 720907" d="M652.5,646.537a7.378,7.378,0,0,1,4.545-1.584A13.63,13.63,0,0,0,652.5,650.5a14.38,14.38,0,0,0-4.545-5.547A7.638,7.638,0,0,1,652.5,646.537Z" fill="#12263f" stroke="#12263f" stroke-width="1"/>
    </g>
    <path id="Trazado_721121" data-name="Trazado 721121" d="M0,0H23" transform="translate(655.853 10262.324)" fill="none" stroke="#12263f" stroke-width="1"/>
    <path id="Trazado_721122" data-name="Trazado 721122" d="M0,27.44V0" transform="translate(666.853 10262.324)" fill="none" stroke="#12263f" stroke-width="1"/>
    <g id="Grupo_1007165" data-name="Grupo 1007165" transform="translate(252.353 9660.824)">
      <path id="Trazado_720908" data-name="Trazado 720908" d="M414.5,628.537a7.378,7.378,0,0,0-4.545-1.584A13.63,13.63,0,0,1,414.5,632.5a14.38,14.38,0,0,1,4.545-5.547A7.638,7.638,0,0,0,414.5,628.537Z" fill="aqua" stroke="#12263f" stroke-width="1"/>
    </g>
    <path id="Trazado_721123" data-name="Trazado 721123" d="M394,0H0" transform="translate(540.853 10319.324)" fill="none" stroke="#12263f" stroke-width="1"/>
    <path id="Trazado_721124" data-name="Trazado 721124" d="M0,0H57" transform="translate(603.353 10323.324)" fill="none" stroke="#12263f" stroke-width="1"/>
    <path id="Trazado_721125" data-name="Trazado 721125" d="M0,0H57" transform="translate(603.353 10342.324)" fill="none" stroke="#12263f" stroke-width="1"/>
    <path id="Trazado_721126" data-name="Trazado 721126" d="M0,0H57" transform="translate(603.353 10333.324)" fill="none" stroke="#12263f" stroke-width="1"/>
    <path id="Trazado_721127" data-name="Trazado 721127" d="M0,0H14.5" transform="translate(648.853 10336.324)" fill="none" stroke="#12263f" stroke-width="1"/>
    <path id="Trazado_721128" data-name="Trazado 721128" d="M0,0H24.5" transform="translate(603.353 10327.324)" fill="none" stroke="#12263f" stroke-width="1"/>
    <path id="Trazado_721129" data-name="Trazado 721129" d="M0,0H24.5" transform="translate(635.353 10327.324)" fill="none" stroke="#12263f" stroke-width="1"/>
    <path id="Trazado_721130" data-name="Trazado 721130" d="M0,0H24.5" transform="translate(603.353 10330.324)" fill="none" stroke="#12263f" stroke-width="1"/>
    <path id="Trazado_721131" data-name="Trazado 721131" d="M0,0H24.5" transform="translate(633.353 10330.324)" fill="none" stroke="#12263f" stroke-width="2"/>
    <path id="Trazado_721132" data-name="Trazado 721132" d="M0,0H56" transform="translate(1049.853 10348.324)" fill="none" stroke="#12263f" stroke-width="1"/>
    <path id="Trazado_721133" data-name="Trazado 721133" d="M0,0H56" transform="translate(1049.853 10521.324)" fill="none" stroke="#12263f" stroke-width="1"/>
    <path id="Trazado_721134" data-name="Trazado 721134" d="M0,0H51" transform="translate(1049.853 10680.324)" fill="none" stroke="#12263f" stroke-width="1"/>
    <path id="Trazado_721135" data-name="Trazado 721135" d="M0,0V152.879" transform="translate(1075.853 10357.885)" fill="none" stroke="#12263f" stroke-width="1"/>
    <g id="Grupo_1007167" data-name="Grupo 1007167" transform="translate(252.353 9660.824)">
      <path id="Trazado_720909" data-name="Trazado 720909" d="M823.5,697.463a7.378,7.378,0,0,0,4.545,1.584A13.63,13.63,0,0,1,823.5,693.5a14.38,14.38,0,0,1-4.545,5.547A7.638,7.638,0,0,0,823.5,697.463Z" fill="#12263f" stroke="#12263f" stroke-width="1"/>
    </g>
    <g id="Grupo_1007168" data-name="Grupo 1007168" transform="translate(252.353 9660.824)">
      <path id="Trazado_720910" data-name="Trazado 720910" d="M823.5,849.537a7.378,7.378,0,0,1,4.545-1.584A13.63,13.63,0,0,0,823.5,853.5a14.38,14.38,0,0,0-4.545-5.547A7.638,7.638,0,0,1,823.5,849.537Z" fill="#12263f" stroke="#12263f" stroke-width="1"/>
    </g>
    <path id="Trazado_721136" data-name="Trazado 721136" d="M0,0V134.879" transform="translate(1075.853 10534.885)" fill="none" stroke="#12263f" stroke-width="1"/>
    <g id="Grupo_1007170" data-name="Grupo 1007170" transform="translate(252.353 9660.824)">
      <path id="Trazado_720911" data-name="Trazado 720911" d="M823.5,874.463a7.378,7.378,0,0,0,4.545,1.584A13.63,13.63,0,0,1,823.5,870.5a14.38,14.38,0,0,1-4.545,5.547A7.638,7.638,0,0,0,823.5,874.463Z" fill="#12263f" stroke="#12263f" stroke-width="1"/>
    </g>
    <g id="Grupo_1007171" data-name="Grupo 1007171" transform="translate(252.353 9660.824)">
      <path id="Trazado_720912" data-name="Trazado 720912" d="M823.5,1008.537a7.378,7.378,0,0,1,4.545-1.584,13.63,13.63,0,0,0-4.545,5.547,14.38,14.38,0,0,0-4.545-5.547A7.638,7.638,0,0,1,823.5,1008.537Z" fill="#12263f" stroke="#12263f" stroke-width="1"/>
    </g>
    <path id="Trazado_721137" data-name="Trazado 721137" d="M0,0H24" transform="translate(1061.853 10323.324)" fill="none" stroke="#12263f" stroke-width="1"/>
    <path id="Trazado_721138" data-name="Trazado 721138" d="M0,0V19.44" transform="translate(1073.853 10293.324)" fill="none" stroke="#12263f" stroke-width="1"/>
    <g id="Grupo_1007173" data-name="Grupo 1007173" transform="translate(252.353 9660.824)">
      <path id="Trazado_720913" data-name="Trazado 720913" d="M821.5,651.537a7.378,7.378,0,0,1,4.545-1.584A13.63,13.63,0,0,0,821.5,655.5a14.38,14.38,0,0,0-4.545-5.547A7.638,7.638,0,0,1,821.5,651.537Z" fill="#12263f" stroke="#12263f" stroke-width="1"/>
    </g>
    <path id="Trazado_720914" data-name="Trazado 720914" d="M833.5,632.5v23h15v14L873,645l-26.5-26.5v14Z" transform="translate(252.353 9660.824)" fill="#12263f" stroke="#12263f" stroke-miterlimit="10" stroke-width="1"/>
    <path id="Trazado_720915" data-name="Trazado 720915" d="M197.5,608.5v23h15v14L237,621l-26.5-26.5v14Z" transform="translate(252.353 9660.824)" fill="#12263f" stroke="#12263f" stroke-miterlimit="10" stroke-width="1"/>
    <path id="Trazado_721139" data-name="Trazado 721139" d="M8.032-8.88h-3.2V0H3.527V-8.88H.335V-9.953h7.7Zm5.2,8.148a2.686,2.686,0,0,1-2.167.868,2.3,2.3,0,0,1-1.8-.687,2.974,2.974,0,0,1-.625-2.034V-7.4H9.9v4.778q0,1.682,1.367,1.682a1.893,1.893,0,0,0,1.928-1.08V-7.4h1.265V0h-1.2Zm9.413-2.885a4.4,4.4,0,0,1-.779,2.724A2.49,2.49,0,0,1,19.77.137,2.578,2.578,0,0,1,17.6-.854L17.541,0H16.379V-10.5h1.265v3.917a2.564,2.564,0,0,1,2.112-.95,2.505,2.505,0,0,1,2.116,1.019,4.53,4.53,0,0,1,.769,2.789ZM21.376-3.76a3.417,3.417,0,0,0-.5-2,1.652,1.652,0,0,0-1.436-.7,1.857,1.857,0,0,0-1.8,1.162v3.2A1.909,1.909,0,0,0,19.455-.937a1.643,1.643,0,0,0,1.415-.7A3.634,3.634,0,0,0,21.376-3.76ZM27.3.137a3.232,3.232,0,0,1-2.447-.988,3.666,3.666,0,0,1-.943-2.642v-.232a4.438,4.438,0,0,1,.42-1.965,3.28,3.28,0,0,1,1.176-1.354,2.956,2.956,0,0,1,1.637-.489,2.77,2.77,0,0,1,2.242.95,4.114,4.114,0,0,1,.8,2.721v.526H25.177a2.629,2.629,0,0,0,.639,1.767A2.009,2.009,0,0,0,27.371-.9a2.2,2.2,0,0,0,1.135-.273,2.851,2.851,0,0,0,.813-.725l.772.6A3.106,3.106,0,0,1,27.3.137Zm-.157-6.631a1.687,1.687,0,0,0-1.285.557,2.708,2.708,0,0,0-.643,1.562h3.705v-.1a2.409,2.409,0,0,0-.52-1.494A1.588,1.588,0,0,0,27.146-6.494Zm8.08.232A3.79,3.79,0,0,0,34.6-6.31a1.667,1.667,0,0,0-1.688,1.06V0H31.65V-7.4h1.23l.021.854a1.969,1.969,0,0,1,1.764-.991,1.292,1.292,0,0,1,.561.1ZM37.762,0H36.49V-7.4h1.271Zm.014-10.493h1.531l-1.832,2.01-1.019,0ZM44.413,0a2.657,2.657,0,0,1-.178-.779A2.822,2.822,0,0,1,42.13.137a2.611,2.611,0,0,1-1.794-.619,2,2,0,0,1-.7-1.569,2.091,2.091,0,0,1,.878-1.794,4.142,4.142,0,0,1,2.471-.639h1.23v-.581a1.42,1.42,0,0,0-.4-1.056,1.593,1.593,0,0,0-1.169-.393,1.844,1.844,0,0,0-1.135.342,1.007,1.007,0,0,0-.458.827H39.785a1.745,1.745,0,0,1,.393-1.07,2.683,2.683,0,0,1,1.066-.817,3.588,3.588,0,0,1,1.48-.3,2.924,2.924,0,0,1,2,.639,2.306,2.306,0,0,1,.752,1.76v3.4a4.162,4.162,0,0,0,.26,1.62V0Zm-2.1-.964a2.223,2.223,0,0,0,1.128-.308,1.861,1.861,0,0,0,.772-.8V-3.589h-.991q-2.324,0-2.324,1.36a1.151,1.151,0,0,0,.4.93A1.524,1.524,0,0,0,42.314-.964Zm12.92-1a.931.931,0,0,0-.386-.8A3.718,3.718,0,0,0,53.5-3.247a6.367,6.367,0,0,1-1.524-.492,2.169,2.169,0,0,1-.834-.684,1.635,1.635,0,0,1-.27-.943A1.919,1.919,0,0,1,51.642-6.9a3,3,0,0,1,1.965-.629,3.091,3.091,0,0,1,2.041.649,2.063,2.063,0,0,1,.783,1.661H55.159a1.142,1.142,0,0,0-.441-.9,1.652,1.652,0,0,0-1.111-.376,1.729,1.729,0,0,0-1.08.3.947.947,0,0,0-.39.786.767.767,0,0,0,.362.69,4.458,4.458,0,0,0,1.309.444,6.821,6.821,0,0,1,1.535.506,2.239,2.239,0,0,1,.872.708A1.74,1.74,0,0,1,56.5-2.051a1.893,1.893,0,0,1-.793,1.589,3.326,3.326,0,0,1-2.058.6,3.725,3.725,0,0,1-1.572-.314,2.557,2.557,0,0,1-1.07-.878,2.117,2.117,0,0,1-.386-1.22h1.265a1.309,1.309,0,0,0,.509,1.008A1.976,1.976,0,0,0,53.648-.9,2.039,2.039,0,0,0,54.8-1.186.893.893,0,0,0,55.234-1.962ZM62.713,0a2.657,2.657,0,0,1-.178-.779A2.822,2.822,0,0,1,60.43.137a2.611,2.611,0,0,1-1.794-.619,2,2,0,0,1-.7-1.569,2.091,2.091,0,0,1,.878-1.794,4.142,4.142,0,0,1,2.471-.639h1.23v-.581a1.42,1.42,0,0,0-.4-1.056,1.593,1.593,0,0,0-1.169-.393,1.844,1.844,0,0,0-1.135.342,1.007,1.007,0,0,0-.458.827H58.085a1.745,1.745,0,0,1,.393-1.07,2.683,2.683,0,0,1,1.066-.817,3.588,3.588,0,0,1,1.48-.3,2.924,2.924,0,0,1,2,.639,2.306,2.306,0,0,1,.752,1.76v3.4a4.162,4.162,0,0,0,.26,1.62V0Zm-2.1-.964a2.223,2.223,0,0,0,1.128-.308,1.861,1.861,0,0,0,.772-.8V-3.589h-.991q-2.324,0-2.324,1.36a1.151,1.151,0,0,0,.4.93A1.524,1.524,0,0,0,60.614-.964ZM66.958-7.4l.041.93a2.7,2.7,0,0,1,2.215-1.066q2.345,0,2.365,2.646V0H70.314V-4.895a1.7,1.7,0,0,0-.366-1.183,1.466,1.466,0,0,0-1.118-.383,1.825,1.825,0,0,0-1.08.328,2.228,2.228,0,0,0-.725.861V0H65.762V-7.4ZM74.86,0H73.6V-7.4H74.86ZM73.493-9.358a.755.755,0,0,1,.188-.52.706.706,0,0,1,.557-.212.717.717,0,0,1,.561.212.747.747,0,0,1,.191.52.722.722,0,0,1-.191.513.73.73,0,0,1-.561.205.718.718,0,0,1-.557-.205A.73.73,0,0,1,73.493-9.358Zm5.106.171V-7.4H79.98v.978H78.6v4.593a1.027,1.027,0,0,0,.185.667.777.777,0,0,0,.629.222,3.062,3.062,0,0,0,.6-.082V0a3.688,3.688,0,0,1-.971.136,1.575,1.575,0,0,1-1.278-.513,2.2,2.2,0,0,1-.431-1.456V-6.419H75.988V-7.4h1.347V-9.187ZM86.023,0a2.657,2.657,0,0,1-.178-.779A2.822,2.822,0,0,1,83.74.137a2.611,2.611,0,0,1-1.794-.619,2,2,0,0,1-.7-1.569,2.091,2.091,0,0,1,.878-1.794,4.141,4.141,0,0,1,2.471-.639h1.23v-.581a1.42,1.42,0,0,0-.4-1.056,1.593,1.593,0,0,0-1.169-.393,1.844,1.844,0,0,0-1.135.342,1.007,1.007,0,0,0-.458.827H81.4a1.745,1.745,0,0,1,.393-1.07,2.683,2.683,0,0,1,1.066-.817,3.588,3.588,0,0,1,1.48-.3,2.924,2.924,0,0,1,2,.639,2.306,2.306,0,0,1,.752,1.76v3.4a4.162,4.162,0,0,0,.26,1.62V0Zm-2.1-.964a2.223,2.223,0,0,0,1.128-.308,1.861,1.861,0,0,0,.772-.8V-3.589h-.991q-2.324,0-2.324,1.36a1.151,1.151,0,0,0,.4.93A1.524,1.524,0,0,0,83.925-.964Zm8.723-5.3a3.79,3.79,0,0,0-.622-.048,1.667,1.667,0,0,0-1.688,1.06V0H89.072V-7.4H90.3l.021.854a1.969,1.969,0,0,1,1.764-.991,1.292,1.292,0,0,1,.561.1ZM95.184,0H93.919V-7.4h1.265ZM93.816-9.358A.755.755,0,0,1,94-9.878a.706.706,0,0,1,.557-.212.717.717,0,0,1,.561.212.747.747,0,0,1,.191.52.722.722,0,0,1-.191.513.73.73,0,0,1-.561.205A.718.718,0,0,1,94-8.846.73.73,0,0,1,93.816-9.358ZM101.773,0a2.657,2.657,0,0,1-.178-.779A2.822,2.822,0,0,1,99.49.137,2.611,2.611,0,0,1,97.7-.482,2,2,0,0,1,97-2.051a2.091,2.091,0,0,1,.878-1.794,4.141,4.141,0,0,1,2.471-.639h1.23v-.581a1.42,1.42,0,0,0-.4-1.056,1.593,1.593,0,0,0-1.169-.393,1.844,1.844,0,0,0-1.135.342,1.007,1.007,0,0,0-.458.827H97.146a1.745,1.745,0,0,1,.393-1.07A2.683,2.683,0,0,1,98.6-7.232a3.588,3.588,0,0,1,1.48-.3,2.924,2.924,0,0,1,2,.639,2.306,2.306,0,0,1,.752,1.76v3.4a4.162,4.162,0,0,0,.26,1.62V0Zm-2.1-.964a2.223,2.223,0,0,0,1.128-.308,1.861,1.861,0,0,0,.772-.8V-3.589h-.991q-2.324,0-2.324,1.36a1.151,1.151,0,0,0,.4.93A1.524,1.524,0,0,0,99.675-.964Z" transform="translate(799.117 10412.53)"/>
    <path id="Trazado_721140" data-name="Trazado 721140" d="M2.468-3.9V0H1.155V-9.953H4.826a3.688,3.688,0,0,1,2.56.834,2.827,2.827,0,0,1,.926,2.208,2.79,2.79,0,0,1-.906,2.232A3.853,3.853,0,0,1,4.813-3.9Zm0-1.073H4.826a2.358,2.358,0,0,0,1.613-.5A1.815,1.815,0,0,0,7-6.9a1.876,1.876,0,0,0-.561-1.424A2.209,2.209,0,0,0,4.9-8.88H2.468Zm10.9-1.292a3.79,3.79,0,0,0-.622-.048,1.667,1.667,0,0,0-1.688,1.06V0H9.789V-7.4h1.23l.021.854A1.969,1.969,0,0,1,12.8-7.533a1.292,1.292,0,0,1,.561.1Zm.69,2.5a4.369,4.369,0,0,1,.427-1.955,3.187,3.187,0,0,1,1.189-1.34,3.238,3.238,0,0,1,1.74-.472,3.119,3.119,0,0,1,2.444,1.046,4.024,4.024,0,0,1,.933,2.782v.089a4.407,4.407,0,0,1-.414,1.938A3.14,3.14,0,0,1,19.192-.342a3.275,3.275,0,0,1-1.767.479A3.111,3.111,0,0,1,14.988-.909a4,4,0,0,1-.933-2.769Zm1.271.15A3.164,3.164,0,0,0,15.9-1.641,1.827,1.827,0,0,0,17.425-.9a1.816,1.816,0,0,0,1.531-.755,3.46,3.46,0,0,0,.567-2.116,3.159,3.159,0,0,0-.578-1.972,1.836,1.836,0,0,0-1.535-.755,1.816,1.816,0,0,0-1.511.745A3.434,3.434,0,0,0,15.326-3.616ZM23,0V-6.419H21.827V-7.4H23v-.759a2.519,2.519,0,0,1,.636-1.839,2.4,2.4,0,0,1,1.8-.649,3.339,3.339,0,0,1,.868.115l-.068,1.019a3.632,3.632,0,0,0-.684-.062,1.234,1.234,0,0,0-.95.36,1.46,1.46,0,0,0-.335,1.032V-7.4H25.84v.978H24.261V0Zm8.8-.731a2.686,2.686,0,0,1-2.167.868,2.3,2.3,0,0,1-1.8-.687,2.974,2.974,0,0,1-.625-2.034V-7.4h1.265v4.778q0,1.682,1.367,1.682a1.893,1.893,0,0,0,1.928-1.08V-7.4h1.265V0h-1.2ZM36.148-7.4l.041.93A2.7,2.7,0,0,1,38.4-7.533q2.345,0,2.365,2.646V0H39.5V-4.895a1.7,1.7,0,0,0-.366-1.183,1.466,1.466,0,0,0-1.118-.383,1.825,1.825,0,0,0-1.08.328,2.228,2.228,0,0,0-.725.861V0H34.952V-7.4ZM42.369-3.76A4.333,4.333,0,0,1,43.176-6.5a2.551,2.551,0,0,1,2.112-1.036,2.565,2.565,0,0,1,2.058.889V-10.5H48.61V0H47.448l-.062-.793a2.575,2.575,0,0,1-2.112.93,2.526,2.526,0,0,1-2.1-1.053,4.382,4.382,0,0,1-.81-2.748Zm1.265.144a3.281,3.281,0,0,0,.52,1.969,1.68,1.68,0,0,0,1.436.711,1.845,1.845,0,0,0,1.757-1.08v-3.4A1.859,1.859,0,0,0,45.6-6.46a1.687,1.687,0,0,0-1.449.718A3.612,3.612,0,0,0,43.634-3.616ZM51.946,0H50.682V-7.4h1.265ZM50.579-9.358a.755.755,0,0,1,.188-.52.706.706,0,0,1,.557-.212.717.717,0,0,1,.561.212.747.747,0,0,1,.191.52.722.722,0,0,1-.191.513.73.73,0,0,1-.561.205.718.718,0,0,1-.557-.205A.73.73,0,0,1,50.579-9.358Zm3.083,5.6A4.333,4.333,0,0,1,54.469-6.5a2.551,2.551,0,0,1,2.112-1.036,2.565,2.565,0,0,1,2.058.889V-10.5H59.9V0H58.741L58.68-.793a2.575,2.575,0,0,1-2.112.93,2.526,2.526,0,0,1-2.1-1.053,4.382,4.382,0,0,1-.81-2.748Zm1.265.144a3.281,3.281,0,0,0,.52,1.969,1.68,1.68,0,0,0,1.436.711,1.845,1.845,0,0,0,1.757-1.08v-3.4A1.859,1.859,0,0,0,56.9-6.46a1.687,1.687,0,0,0-1.449.718A3.612,3.612,0,0,0,54.927-3.616ZM66.432,0a2.657,2.657,0,0,1-.178-.779,2.822,2.822,0,0,1-2.105.916,2.611,2.611,0,0,1-1.794-.619,2,2,0,0,1-.7-1.569,2.091,2.091,0,0,1,.878-1.794A4.142,4.142,0,0,1,65-4.484h1.23v-.581a1.42,1.42,0,0,0-.4-1.056,1.593,1.593,0,0,0-1.169-.393,1.844,1.844,0,0,0-1.135.342,1.007,1.007,0,0,0-.458.827H61.8a1.745,1.745,0,0,1,.393-1.07,2.683,2.683,0,0,1,1.066-.817,3.588,3.588,0,0,1,1.48-.3,2.924,2.924,0,0,1,2,.639,2.306,2.306,0,0,1,.752,1.76v3.4a4.162,4.162,0,0,0,.26,1.62V0Zm-2.1-.964a2.223,2.223,0,0,0,1.128-.308,1.861,1.861,0,0,0,.772-.8V-3.589h-.991q-2.324,0-2.324,1.36a1.151,1.151,0,0,0,.4.93A1.524,1.524,0,0,0,64.333-.964Zm4.84-2.8A4.333,4.333,0,0,1,69.979-6.5a2.551,2.551,0,0,1,2.112-1.036,2.565,2.565,0,0,1,2.058.889V-10.5h1.265V0H74.252L74.19-.793a2.575,2.575,0,0,1-2.112.93,2.526,2.526,0,0,1-2.1-1.053,4.382,4.382,0,0,1-.81-2.748Zm1.265.144a3.281,3.281,0,0,0,.52,1.969,1.68,1.68,0,0,0,1.436.711,1.845,1.845,0,0,0,1.757-1.08v-3.4A1.859,1.859,0,0,0,72.406-6.46a1.687,1.687,0,0,0-1.449.718A3.612,3.612,0,0,0,70.438-3.616Zm10.1-.144A4.333,4.333,0,0,1,81.341-6.5a2.551,2.551,0,0,1,2.112-1.036,2.565,2.565,0,0,1,2.058.889V-10.5h1.265V0H85.613l-.062-.793a2.575,2.575,0,0,1-2.112.93,2.526,2.526,0,0,1-2.1-1.053,4.382,4.382,0,0,1-.81-2.748Zm1.265.144a3.281,3.281,0,0,0,.52,1.969,1.68,1.68,0,0,0,1.436.711,1.845,1.845,0,0,0,1.757-1.08v-3.4A1.859,1.859,0,0,0,83.768-6.46a1.687,1.687,0,0,0-1.449.718A3.612,3.612,0,0,0,81.8-3.616ZM91.807.137a3.232,3.232,0,0,1-2.447-.988,3.666,3.666,0,0,1-.943-2.642v-.232a4.438,4.438,0,0,1,.42-1.965,3.28,3.28,0,0,1,1.176-1.354,2.956,2.956,0,0,1,1.637-.489,2.77,2.77,0,0,1,2.242.95,4.114,4.114,0,0,1,.8,2.721v.526H89.681a2.629,2.629,0,0,0,.639,1.767A2.009,2.009,0,0,0,91.875-.9a2.2,2.2,0,0,0,1.135-.273,2.851,2.851,0,0,0,.813-.725l.772.6A3.106,3.106,0,0,1,91.807.137Zm-.157-6.631a1.687,1.687,0,0,0-1.285.557,2.708,2.708,0,0,0-.643,1.562h3.705v-.1a2.409,2.409,0,0,0-.52-1.494A1.588,1.588,0,0,0,91.649-6.494ZM104.187,0a2.657,2.657,0,0,1-.178-.779A2.822,2.822,0,0,1,101.9.137a2.611,2.611,0,0,1-1.794-.619,2,2,0,0,1-.7-1.569,2.091,2.091,0,0,1,.878-1.794,4.141,4.141,0,0,1,2.471-.639h1.23v-.581a1.42,1.42,0,0,0-.4-1.056,1.593,1.593,0,0,0-1.169-.393,1.844,1.844,0,0,0-1.135.342,1.007,1.007,0,0,0-.458.827H99.559a1.745,1.745,0,0,1,.393-1.07,2.683,2.683,0,0,1,1.066-.817,3.588,3.588,0,0,1,1.48-.3,2.924,2.924,0,0,1,2,.639,2.306,2.306,0,0,1,.752,1.76v3.4a4.162,4.162,0,0,0,.26,1.62V0Zm-2.1-.964a2.223,2.223,0,0,0,1.128-.308,1.861,1.861,0,0,0,.772-.8V-3.589H103q-2.324,0-2.324,1.36a1.151,1.151,0,0,0,.4.93A1.524,1.524,0,0,0,102.088-.964Zm4.847-2.8a4.347,4.347,0,0,1,.8-2.751,2.558,2.558,0,0,1,2.119-1.022,2.544,2.544,0,0,1,2.112.957l.062-.82h1.155V-.178a3.009,3.009,0,0,1-.851,2.263,3.141,3.141,0,0,1-2.287.827,3.8,3.8,0,0,1-1.565-.342,2.7,2.7,0,0,1-1.169-.937l.656-.759a2.473,2.473,0,0,0,1.989,1,1.938,1.938,0,0,0,1.439-.52A1.986,1.986,0,0,0,111.911-.1V-.738a2.6,2.6,0,0,1-2.071.875,2.527,2.527,0,0,1-2.1-1.046A4.571,4.571,0,0,1,106.935-3.76Zm1.271.144a3.316,3.316,0,0,0,.513,1.965,1.666,1.666,0,0,0,1.436.714,1.852,1.852,0,0,0,1.757-1.087V-5.4a1.874,1.874,0,0,0-1.743-1.06,1.681,1.681,0,0,0-1.442.718A3.612,3.612,0,0,0,108.206-3.616Zm11.45,2.885a2.686,2.686,0,0,1-2.167.868,2.3,2.3,0,0,1-1.8-.687,2.974,2.974,0,0,1-.625-2.034V-7.4h1.265v4.778q0,1.682,1.367,1.682a1.893,1.893,0,0,0,1.928-1.08V-7.4h1.265V0h-1.2ZM127.374,0a2.657,2.657,0,0,1-.178-.779,2.822,2.822,0,0,1-2.105.916A2.611,2.611,0,0,1,123.3-.482a2,2,0,0,1-.7-1.569,2.091,2.091,0,0,1,.878-1.794,4.141,4.141,0,0,1,2.471-.639h1.23v-.581a1.42,1.42,0,0,0-.4-1.056,1.593,1.593,0,0,0-1.169-.393,1.844,1.844,0,0,0-1.135.342,1.007,1.007,0,0,0-.458.827h-1.271a1.745,1.745,0,0,1,.393-1.07,2.683,2.683,0,0,1,1.066-.817,3.588,3.588,0,0,1,1.48-.3,2.924,2.924,0,0,1,2,.639,2.306,2.306,0,0,1,.752,1.76v3.4a4.162,4.162,0,0,0,.26,1.62V0Zm-2.1-.964a2.223,2.223,0,0,0,1.128-.308,1.861,1.861,0,0,0,.772-.8V-3.589h-.991q-2.324,0-2.324,1.36a1.151,1.151,0,0,0,.4.93A1.524,1.524,0,0,0,125.275-.964Z" transform="translate(668.117 10506.53)"/>
    <path id="Trazado_721141" data-name="Trazado 721141" d="M7.068-4.245a5.784,5.784,0,0,1-.759,3.3A2.7,2.7,0,0,1,3.938.137,2.718,2.718,0,0,1,1.579-.919,5.49,5.49,0,0,1,.786-4.074V-5.763a5.655,5.655,0,0,1,.759-3.261A2.719,2.719,0,0,1,3.924-10.09,2.744,2.744,0,0,1,6.289-9.061a5.458,5.458,0,0,1,.779,3.175ZM5.8-5.975a4.634,4.634,0,0,0-.451-2.341,1.553,1.553,0,0,0-1.429-.735,1.532,1.532,0,0,0-1.415.731A4.525,4.525,0,0,0,2.051-6.07v2.023a4.708,4.708,0,0,0,.468,2.382A1.55,1.55,0,0,0,3.938-.9,1.529,1.529,0,0,0,5.329-1.62,4.538,4.538,0,0,0,5.8-3.9ZM8.777,1.982,8.06,1.49a3.3,3.3,0,0,0,.67-1.846V-1.5H9.967v.991A3.114,3.114,0,0,1,9.628.875,3.233,3.233,0,0,1,8.777,1.982ZM15.593,0H14.321V-8.429l-2.55.937V-8.641L15.395-10h.2Zm8.49-7.4.034.82a2.732,2.732,0,0,1,2.194-.957,2.115,2.115,0,0,1,2.112,1.189,2.8,2.8,0,0,1,.96-.861,2.837,2.837,0,0,1,1.4-.328q2.434,0,2.475,2.577V0H31.992V-4.881a1.7,1.7,0,0,0-.362-1.186,1.6,1.6,0,0,0-1.217-.393,1.677,1.677,0,0,0-1.169.42,1.706,1.706,0,0,0-.54,1.131V0H27.433V-4.847A1.411,1.411,0,0,0,25.854-6.46a1.692,1.692,0,0,0-1.7,1.06V0H22.887V-7.4Z" transform="translate(447.117 10515.53)"/>
    <path id="Trazado_721142" data-name="Trazado 721142" d="M7.068-4.245a5.784,5.784,0,0,1-.759,3.3A2.7,2.7,0,0,1,3.938.137,2.718,2.718,0,0,1,1.579-.919,5.49,5.49,0,0,1,.786-4.074V-5.763a5.655,5.655,0,0,1,.759-3.261A2.719,2.719,0,0,1,3.924-10.09,2.744,2.744,0,0,1,6.289-9.061a5.458,5.458,0,0,1,.779,3.175ZM5.8-5.975a4.634,4.634,0,0,0-.451-2.341,1.553,1.553,0,0,0-1.429-.735,1.532,1.532,0,0,0-1.415.731A4.525,4.525,0,0,0,2.051-6.07v2.023a4.708,4.708,0,0,0,.468,2.382A1.55,1.55,0,0,0,3.938-.9,1.529,1.529,0,0,0,5.329-1.62,4.538,4.538,0,0,0,5.8-3.9ZM8.777,1.982,8.06,1.49a3.3,3.3,0,0,0,.67-1.846V-1.5H9.967v.991A3.114,3.114,0,0,1,9.628.875,3.233,3.233,0,0,1,8.777,1.982ZM15.593,0H14.321V-8.429l-2.55.937V-8.641L15.395-10h.2Zm8.49-7.4.034.82a2.732,2.732,0,0,1,2.194-.957,2.115,2.115,0,0,1,2.112,1.189,2.8,2.8,0,0,1,.96-.861,2.837,2.837,0,0,1,1.4-.328q2.434,0,2.475,2.577V0H31.992V-4.881a1.7,1.7,0,0,0-.362-1.186,1.6,1.6,0,0,0-1.217-.393,1.677,1.677,0,0,0-1.169.42,1.706,1.706,0,0,0-.54,1.131V0H27.433V-4.847A1.411,1.411,0,0,0,25.854-6.46a1.692,1.692,0,0,0-1.7,1.06V0H22.887V-7.4Z" transform="translate(621.117 10211.53)"/>
    <path id="Trazado_721143" data-name="Trazado 721143" d="M7.068-4.245a5.784,5.784,0,0,1-.759,3.3A2.7,2.7,0,0,1,3.938.137,2.718,2.718,0,0,1,1.579-.919,5.49,5.49,0,0,1,.786-4.074V-5.763a5.655,5.655,0,0,1,.759-3.261A2.719,2.719,0,0,1,3.924-10.09,2.744,2.744,0,0,1,6.289-9.061a5.458,5.458,0,0,1,.779,3.175ZM5.8-5.975a4.634,4.634,0,0,0-.451-2.341,1.553,1.553,0,0,0-1.429-.735,1.532,1.532,0,0,0-1.415.731A4.525,4.525,0,0,0,2.051-6.07v2.023a4.708,4.708,0,0,0,.468,2.382A1.55,1.55,0,0,0,3.938-.9,1.529,1.529,0,0,0,5.329-1.62,4.538,4.538,0,0,0,5.8-3.9ZM8.777,1.982,8.06,1.49a3.3,3.3,0,0,0,.67-1.846V-1.5H9.967v.991A3.114,3.114,0,0,1,9.628.875,3.233,3.233,0,0,1,8.777,1.982Zm8.9-6.228a5.784,5.784,0,0,1-.759,3.3A2.7,2.7,0,0,1,14.547.137,2.718,2.718,0,0,1,12.188-.919,5.49,5.49,0,0,1,11.4-4.074V-5.763a5.655,5.655,0,0,1,.759-3.261,2.719,2.719,0,0,1,2.379-1.066A2.744,2.744,0,0,1,16.9-9.061a5.458,5.458,0,0,1,.779,3.175ZM16.413-5.975a4.634,4.634,0,0,0-.451-2.341,1.553,1.553,0,0,0-1.429-.735,1.532,1.532,0,0,0-1.415.731A4.525,4.525,0,0,0,12.66-6.07v2.023a4.708,4.708,0,0,0,.468,2.382A1.55,1.55,0,0,0,14.547-.9a1.529,1.529,0,0,0,1.391-.725A4.538,4.538,0,0,0,16.413-3.9Zm9.311-3.268L21.6,0H20.275l4.108-8.914H19V-9.953h6.727ZM27.74-4.99l.506-4.963h5.1v1.169H29.319l-.3,2.714A3.212,3.212,0,0,1,30.68-6.5a2.746,2.746,0,0,1,2.16.9,3.523,3.523,0,0,1,.8,2.43,3.4,3.4,0,0,1-.831,2.423,3.027,3.027,0,0,1-2.321.885,3.146,3.146,0,0,1-2.153-.731,2.919,2.919,0,0,1-.95-2.023h1.2a2.009,2.009,0,0,0,.608,1.289,1.892,1.892,0,0,0,1.3.434,1.706,1.706,0,0,0,1.384-.6,2.515,2.515,0,0,0,.5-1.661,2.308,2.308,0,0,0-.543-1.6,1.849,1.849,0,0,0-1.446-.6,2.085,2.085,0,0,0-1.3.362l-.335.273ZM39.806-7.4l.034.82a2.732,2.732,0,0,1,2.194-.957,2.115,2.115,0,0,1,2.112,1.189,2.8,2.8,0,0,1,.96-.861,2.837,2.837,0,0,1,1.4-.328q2.434,0,2.475,2.577V0H47.715V-4.881a1.7,1.7,0,0,0-.362-1.186,1.6,1.6,0,0,0-1.217-.393,1.677,1.677,0,0,0-1.169.42,1.706,1.706,0,0,0-.54,1.131V0H43.155V-4.847A1.411,1.411,0,0,0,41.576-6.46a1.692,1.692,0,0,0-1.7,1.06V0H38.609V-7.4Z" transform="translate(688.117 10267.53)"/>
    <path id="Trazado_721144" data-name="Trazado 721144" d="M7.068-4.245a5.784,5.784,0,0,1-.759,3.3A2.7,2.7,0,0,1,3.938.137,2.718,2.718,0,0,1,1.579-.919,5.49,5.49,0,0,1,.786-4.074V-5.763a5.655,5.655,0,0,1,.759-3.261A2.719,2.719,0,0,1,3.924-10.09,2.744,2.744,0,0,1,6.289-9.061a5.458,5.458,0,0,1,.779,3.175ZM5.8-5.975a4.634,4.634,0,0,0-.451-2.341,1.553,1.553,0,0,0-1.429-.735,1.532,1.532,0,0,0-1.415.731A4.525,4.525,0,0,0,2.051-6.07v2.023a4.708,4.708,0,0,0,.468,2.382A1.55,1.55,0,0,0,3.938-.9,1.529,1.529,0,0,0,5.329-1.62,4.538,4.538,0,0,0,5.8-3.9ZM8.777,1.982,8.06,1.49a3.3,3.3,0,0,0,.67-1.846V-1.5H9.967v.991A3.114,3.114,0,0,1,9.628.875,3.233,3.233,0,0,1,8.777,1.982ZM15.593,0H14.321V-8.429l-2.55.937V-8.641L15.395-10h.2Z" transform="translate(945.117 10200.53)"/>
    <path id="Trazado_721145" data-name="Trazado 721145" d="M7.068-4.245a5.784,5.784,0,0,1-.759,3.3A2.7,2.7,0,0,1,3.938.137,2.718,2.718,0,0,1,1.579-.919,5.49,5.49,0,0,1,.786-4.074V-5.763a5.655,5.655,0,0,1,.759-3.261A2.719,2.719,0,0,1,3.924-10.09,2.744,2.744,0,0,1,6.289-9.061a5.458,5.458,0,0,1,.779,3.175ZM5.8-5.975a4.634,4.634,0,0,0-.451-2.341,1.553,1.553,0,0,0-1.429-.735,1.532,1.532,0,0,0-1.415.731A4.525,4.525,0,0,0,2.051-6.07v2.023a4.708,4.708,0,0,0,.468,2.382A1.55,1.55,0,0,0,3.938-.9,1.529,1.529,0,0,0,5.329-1.62,4.538,4.538,0,0,0,5.8-3.9ZM8.777,1.982,8.06,1.49a3.3,3.3,0,0,0,.67-1.846V-1.5H9.967v.991A3.114,3.114,0,0,1,9.628.875,3.233,3.233,0,0,1,8.777,1.982ZM17.958,0H11.437V-.909l3.445-3.828a8.185,8.185,0,0,0,1.056-1.412,2.356,2.356,0,0,0,.291-1.125,1.786,1.786,0,0,0-.472-1.278,1.649,1.649,0,0,0-1.258-.5,1.953,1.953,0,0,0-1.466.537,2.05,2.05,0,0,0-.523,1.494H11.245a2.936,2.936,0,0,1,.885-2.222A3.282,3.282,0,0,1,14.5-10.09a3.153,3.153,0,0,1,2.194.728A2.483,2.483,0,0,1,17.5-7.424q0,1.47-1.873,3.5L12.961-1.032h5Zm3.179-5.592h.95A2.088,2.088,0,0,0,23.5-6.063,1.576,1.576,0,0,0,24.008-7.3a1.544,1.544,0,0,0-1.743-1.75,1.813,1.813,0,0,0-1.309.468,1.639,1.639,0,0,0-.489,1.241H19.2a2.539,2.539,0,0,1,.865-1.965,3.15,3.15,0,0,1,2.2-.783,3.113,3.113,0,0,1,2.208.745,2.692,2.692,0,0,1,.8,2.071,2.185,2.185,0,0,1-.42,1.258,2.538,2.538,0,0,1-1.145.909,2.446,2.446,0,0,1,1.268.861,2.392,2.392,0,0,1,.448,1.47,2.715,2.715,0,0,1-.875,2.126,3.277,3.277,0,0,1-2.276.786,3.363,3.363,0,0,1-2.28-.759,2.517,2.517,0,0,1-.878-2h1.271A1.627,1.627,0,0,0,20.9-1.367,1.95,1.95,0,0,0,22.271-.9a1.914,1.914,0,0,0,1.4-.479,1.844,1.844,0,0,0,.485-1.374,1.673,1.673,0,0,0-.533-1.333,2.323,2.323,0,0,0-1.538-.479h-.95ZM31.944-7.4l.034.82a2.732,2.732,0,0,1,2.194-.957,2.115,2.115,0,0,1,2.112,1.189,2.8,2.8,0,0,1,.96-.861,2.837,2.837,0,0,1,1.4-.328q2.434,0,2.475,2.577V0H39.854V-4.881a1.7,1.7,0,0,0-.362-1.186,1.6,1.6,0,0,0-1.217-.393,1.677,1.677,0,0,0-1.169.42,1.706,1.706,0,0,0-.54,1.131V0H35.294V-4.847A1.411,1.411,0,0,0,33.715-6.46a1.692,1.692,0,0,0-1.7,1.06V0H30.748V-7.4Z" transform="translate(849.117 10267.53)"/>
    <path id="Trazado_721146" data-name="Trazado 721146" d="M7.068-4.245a5.784,5.784,0,0,1-.759,3.3A2.7,2.7,0,0,1,3.938.137,2.718,2.718,0,0,1,1.579-.919,5.49,5.49,0,0,1,.786-4.074V-5.763a5.655,5.655,0,0,1,.759-3.261A2.719,2.719,0,0,1,3.924-10.09,2.744,2.744,0,0,1,6.289-9.061a5.458,5.458,0,0,1,.779,3.175ZM5.8-5.975a4.634,4.634,0,0,0-.451-2.341,1.553,1.553,0,0,0-1.429-.735,1.532,1.532,0,0,0-1.415.731A4.525,4.525,0,0,0,2.051-6.07v2.023a4.708,4.708,0,0,0,.468,2.382A1.55,1.55,0,0,0,3.938-.9,1.529,1.529,0,0,0,5.329-1.62,4.538,4.538,0,0,0,5.8-3.9ZM8.777,1.982,8.06,1.49a3.3,3.3,0,0,0,.67-1.846V-1.5H9.967v.991A3.114,3.114,0,0,1,9.628.875,3.233,3.233,0,0,1,8.777,1.982ZM15.593,0H14.321V-8.429l-2.55.937V-8.641L15.395-10h.2ZM25.724-9.242,21.6,0H20.275l4.108-8.914H19V-9.953h6.727ZM31.944-7.4l.034.82a2.732,2.732,0,0,1,2.194-.957,2.115,2.115,0,0,1,2.112,1.189,2.8,2.8,0,0,1,.96-.861,2.837,2.837,0,0,1,1.4-.328q2.434,0,2.475,2.577V0H39.854V-4.881a1.7,1.7,0,0,0-.362-1.186,1.6,1.6,0,0,0-1.217-.393,1.677,1.677,0,0,0-1.169.42,1.706,1.706,0,0,0-.54,1.131V0H35.294V-4.847A1.411,1.411,0,0,0,33.715-6.46a1.692,1.692,0,0,0-1.7,1.06V0H30.748V-7.4Z" transform="translate(849.117 10649.53)"/>
    <path id="Trazado_721147" data-name="Trazado 721147" d="M7.068-4.245a5.784,5.784,0,0,1-.759,3.3A2.7,2.7,0,0,1,3.938.137,2.718,2.718,0,0,1,1.579-.919,5.49,5.49,0,0,1,.786-4.074V-5.763a5.655,5.655,0,0,1,.759-3.261A2.719,2.719,0,0,1,3.924-10.09,2.744,2.744,0,0,1,6.289-9.061a5.458,5.458,0,0,1,.779,3.175ZM5.8-5.975a4.634,4.634,0,0,0-.451-2.341,1.553,1.553,0,0,0-1.429-.735,1.532,1.532,0,0,0-1.415.731A4.525,4.525,0,0,0,2.051-6.07v2.023a4.708,4.708,0,0,0,.468,2.382A1.55,1.55,0,0,0,3.938-.9,1.529,1.529,0,0,0,5.329-1.62,4.538,4.538,0,0,0,5.8-3.9ZM8.777,1.982,8.06,1.49a3.3,3.3,0,0,0,.67-1.846V-1.5H9.967v.991A3.114,3.114,0,0,1,9.628.875,3.233,3.233,0,0,1,8.777,1.982Zm4.5-7.574h.95a2.088,2.088,0,0,0,1.408-.472A1.576,1.576,0,0,0,16.146-7.3,1.544,1.544,0,0,0,14.4-9.051a1.813,1.813,0,0,0-1.309.468,1.639,1.639,0,0,0-.489,1.241H11.341a2.539,2.539,0,0,1,.865-1.965,3.15,3.15,0,0,1,2.2-.783,3.113,3.113,0,0,1,2.208.745,2.692,2.692,0,0,1,.8,2.071,2.185,2.185,0,0,1-.42,1.258,2.538,2.538,0,0,1-1.145.909,2.446,2.446,0,0,1,1.268.861,2.392,2.392,0,0,1,.448,1.47,2.715,2.715,0,0,1-.875,2.126A3.277,3.277,0,0,1,14.41.137a3.363,3.363,0,0,1-2.28-.759,2.517,2.517,0,0,1-.878-2h1.271a1.627,1.627,0,0,0,.513,1.258A1.95,1.95,0,0,0,14.41-.9a1.914,1.914,0,0,0,1.4-.479A1.844,1.844,0,0,0,16.3-2.748a1.673,1.673,0,0,0-.533-1.333,2.323,2.323,0,0,0-1.538-.479h-.95Zm6.6.6.506-4.963h5.1v1.169H21.458l-.3,2.714A3.212,3.212,0,0,1,22.818-6.5a2.746,2.746,0,0,1,2.16.9,3.523,3.523,0,0,1,.8,2.43,3.4,3.4,0,0,1-.831,2.423,3.027,3.027,0,0,1-2.321.885,3.146,3.146,0,0,1-2.153-.731,2.919,2.919,0,0,1-.95-2.023h1.2a2.009,2.009,0,0,0,.608,1.289,1.892,1.892,0,0,0,1.3.434,1.706,1.706,0,0,0,1.384-.6,2.515,2.515,0,0,0,.5-1.661,2.308,2.308,0,0,0-.543-1.6,1.849,1.849,0,0,0-1.446-.6,2.085,2.085,0,0,0-1.3.362l-.335.273ZM31.944-7.4l.034.82a2.732,2.732,0,0,1,2.194-.957,2.115,2.115,0,0,1,2.112,1.189,2.8,2.8,0,0,1,.96-.861,2.837,2.837,0,0,1,1.4-.328q2.434,0,2.475,2.577V0H39.854V-4.881a1.7,1.7,0,0,0-.362-1.186,1.6,1.6,0,0,0-1.217-.393,1.677,1.677,0,0,0-1.169.42,1.706,1.706,0,0,0-.54,1.131V0H35.294V-4.847A1.411,1.411,0,0,0,33.715-6.46a1.692,1.692,0,0,0-1.7,1.06V0H30.748V-7.4Z" transform="translate(1086.117 10598.53)"/>
    <path id="Trazado_721148" data-name="Trazado 721148" d="M7.068-4.245a5.784,5.784,0,0,1-.759,3.3A2.7,2.7,0,0,1,3.938.137,2.718,2.718,0,0,1,1.579-.919,5.49,5.49,0,0,1,.786-4.074V-5.763a5.655,5.655,0,0,1,.759-3.261A2.719,2.719,0,0,1,3.924-10.09,2.744,2.744,0,0,1,6.289-9.061a5.458,5.458,0,0,1,.779,3.175ZM5.8-5.975a4.634,4.634,0,0,0-.451-2.341,1.553,1.553,0,0,0-1.429-.735,1.532,1.532,0,0,0-1.415.731A4.525,4.525,0,0,0,2.051-6.07v2.023a4.708,4.708,0,0,0,.468,2.382A1.55,1.55,0,0,0,3.938-.9,1.529,1.529,0,0,0,5.329-1.62,4.538,4.538,0,0,0,5.8-3.9ZM8.777,1.982,8.06,1.49a3.3,3.3,0,0,0,.67-1.846V-1.5H9.967v.991A3.114,3.114,0,0,1,9.628.875,3.233,3.233,0,0,1,8.777,1.982ZM16.4-9.96v1.073h-.232a3.33,3.33,0,0,0-2.352.875A3.641,3.641,0,0,0,12.8-5.626a2.7,2.7,0,0,1,2.146-.9,2.581,2.581,0,0,1,2.075.916A3.533,3.533,0,0,1,17.8-3.247a3.522,3.522,0,0,1-.837,2.461,2.883,2.883,0,0,1-2.246.923A2.841,2.841,0,0,1,12.4-.96a4.348,4.348,0,0,1-.889-2.827v-.485a6.552,6.552,0,0,1,1.172-4.2,4.306,4.306,0,0,1,3.49-1.487ZM14.738-5.476a2.018,2.018,0,0,0-1.2.39,2.03,2.03,0,0,0-.759.978v.465a3.265,3.265,0,0,0,.554,1.982,1.659,1.659,0,0,0,1.381.752,1.608,1.608,0,0,0,1.343-.629,2.61,2.61,0,0,0,.489-1.647,2.61,2.61,0,0,0-.5-1.658A1.589,1.589,0,0,0,14.738-5.476ZM25.525-3.712H22.189V-4.744h3.336Zm10.808-.533a5.784,5.784,0,0,1-.759,3.3A2.7,2.7,0,0,1,33.2.137,2.718,2.718,0,0,1,30.844-.919a5.49,5.49,0,0,1-.793-3.155V-5.763a5.655,5.655,0,0,1,.759-3.261,2.719,2.719,0,0,1,2.379-1.066,2.744,2.744,0,0,1,2.365,1.029,5.458,5.458,0,0,1,.779,3.175ZM35.068-5.975a4.634,4.634,0,0,0-.451-2.341,1.553,1.553,0,0,0-1.429-.735,1.532,1.532,0,0,0-1.415.731,4.525,4.525,0,0,0-.458,2.249v2.023a4.708,4.708,0,0,0,.468,2.382A1.55,1.55,0,0,0,33.2-.9a1.529,1.529,0,0,0,1.391-.725A4.538,4.538,0,0,0,35.068-3.9Zm2.974,7.957-.718-.492a3.3,3.3,0,0,0,.67-1.846V-1.5h1.237v.991A3.114,3.114,0,0,1,38.893.875,3.233,3.233,0,0,1,38.042,1.982Zm8.7-9.338a2.311,2.311,0,0,1-.393,1.326,2.674,2.674,0,0,1-1.063.909,2.853,2.853,0,0,1,1.234.978,2.46,2.46,0,0,1,.455,1.456A2.6,2.6,0,0,1,46.1-.629,3.349,3.349,0,0,1,43.8.137a3.334,3.334,0,0,1-2.3-.769,2.613,2.613,0,0,1-.865-2.054,2.533,2.533,0,0,1,.441-1.456,2.744,2.744,0,0,1,1.22-.984,2.608,2.608,0,0,1-1.046-.909,2.344,2.344,0,0,1-.383-1.319,2.573,2.573,0,0,1,.807-2A3.026,3.026,0,0,1,43.8-10.09a3.029,3.029,0,0,1,2.123.738A2.567,2.567,0,0,1,46.737-7.355ZM45.705-2.714a1.834,1.834,0,0,0-.53-1.36A1.879,1.879,0,0,0,43.791-4.6a1.846,1.846,0,0,0-1.371.52A1.855,1.855,0,0,0,41.9-2.714a1.767,1.767,0,0,0,.5,1.333A1.929,1.929,0,0,0,43.8-.9,1.923,1.923,0,0,0,45.2-1.384,1.763,1.763,0,0,0,45.705-2.714ZM43.8-9.051a1.632,1.632,0,0,0-1.207.461,1.7,1.7,0,0,0-.461,1.254,1.687,1.687,0,0,0,.455,1.227A1.613,1.613,0,0,0,43.8-5.64a1.613,1.613,0,0,0,1.213-.468,1.687,1.687,0,0,0,.455-1.227A1.687,1.687,0,0,0,45-8.572,1.609,1.609,0,0,0,43.8-9.051ZM53.348-7.4l.034.82a2.732,2.732,0,0,1,2.194-.957,2.115,2.115,0,0,1,2.112,1.189,2.8,2.8,0,0,1,.96-.861,2.837,2.837,0,0,1,1.4-.328q2.434,0,2.475,2.577V0H61.257V-4.881a1.7,1.7,0,0,0-.362-1.186,1.6,1.6,0,0,0-1.217-.393,1.677,1.677,0,0,0-1.169.42,1.706,1.706,0,0,0-.54,1.131V0H56.7V-4.847A1.411,1.411,0,0,0,55.118-6.46a1.692,1.692,0,0,0-1.7,1.06V0H52.151V-7.4Z" transform="translate(1086.117 10443.53)"/>
    <path id="Trazado_721149" data-name="Trazado 721149" d="M0,0V22" transform="translate(935.353 10185.824)" fill="none" stroke="#12263f" stroke-width="1"/>
    <path id="Trazado_721150" data-name="Trazado 721150" d="M0,0V22" transform="translate(969.853 10185.824)" fill="none" stroke="#12263f" stroke-width="1"/>
    <path id="Trazado_720916" data-name="Trazado 720916" d="M500.529,476v19H322V476" transform="translate(252.353 9660.824)" fill="#dee4f0" stroke="#12263f" stroke-miterlimit="10" stroke-width="1"/>
    <path id="Trazado_721151" data-name="Trazado 721151" d="M0,0H17V52H0Z" transform="translate(995.471 10331.324) rotate(180)" fill="#fff" stroke="#12263f" stroke-width="0.616"/>
  </g>
</svg>
